<svg width="233" height="60" viewBox="0 0 233 60" xmlns="http://www.w3.org/2000/svg" xmlns:sketch="http://www.bohemiancoding.com/sketch/ns"><title>Imported Layers 4</title><desc>Created with Sketch.</desc><g sketch:type="MSShapeGroup" fill="none"><path d="M61.684 20.172l2.332.579c-1.455 3.823-2.182 7.203-2.182 10.137 0 3.405.727 6.985 2.182 10.741l-2.332.604c-1.488-3.673-2.232-7.404-2.232-11.194 0-3.807.744-7.429 2.232-10.867" fill="#A6A6A6"/><path d="M75.81 31.617l5.944 7.773h-6.119l-4.64-7.295h-.05v7.295h-4.915v-18.967h7.348c1.972 0 3.561.486 4.765 1.459 1.204.973 1.805 2.432 1.805 4.377 0 1.358-.363 2.532-1.091 3.522-.727.99-1.743 1.602-3.047 1.837zm-4.865-7.421v4.729h.476c2.273 0 3.41-.788 3.41-2.365 0-1.576-1.137-2.364-3.41-2.364h-.476zM86.761 31.039c0 3.79-.744 7.521-2.232 11.194l-2.332-.604c1.455-3.756 2.182-7.337 2.182-10.741 0-2.934-.727-6.314-2.182-10.137l2.332-.579c1.488 3.438 2.232 7.06 2.232 10.867" fill="#A6A6A6"/><path d="M99.906 24.599h-5.843v3.169h5.542v4.176h-5.542v3.27h5.843v4.176h-10.758v-18.967h10.758v4.176M106.007 20.423l4.564 11.521 4.589-11.521h5.342l-8.075 18.967h-3.812l-7.95-18.967h5.341" fill="#fff"/><path d="M124.765 21.014c1.588-.813 3.294-1.22 5.116-1.22 1.822 0 3.527.407 5.116 1.22 1.588.813 2.875 1.974 3.862 3.484.986 1.51 1.479 3.195 1.479 5.056 0 3.069-.982 5.58-2.946 7.534-1.965 1.954-4.468 2.931-7.511 2.931s-5.546-.977-7.511-2.931c-1.965-1.953-2.946-4.465-2.946-7.534 0-1.862.493-3.547 1.48-5.056.986-1.509 2.273-2.67 3.862-3.484zm8.878 5.069c-1.053-1.006-2.307-1.509-3.762-1.509-1.454 0-2.708.503-3.761 1.509-1.053 1.006-1.58 2.172-1.58 3.497 0 1.61.518 2.956 1.555 4.037 1.036 1.082 2.298 1.623 3.787 1.623 1.488 0 2.75-.541 3.787-1.623 1.036-1.082 1.555-2.427 1.555-4.037 0-1.325-.526-2.491-1.58-3.497zM146.708 20.423v14.791h5.893v4.176h-10.808v-18.967h4.915M165.042 20.423h4.915v10.666c0 1.543-.121 2.838-.364 3.886-.242 1.048-.782 1.984-1.618 2.805-1.421 1.409-3.511 2.113-6.269 2.113-2.759 0-4.848-.704-6.269-2.113-.836-.821-1.375-1.757-1.618-2.805-.242-1.048-.364-2.343-.364-3.886v-10.666h4.915v9.987c0 .604.013 1.107.038 1.509.025.402.1.855.226 1.358.125.503.301.906.527 1.207.225.302.556.558.99.767.434.21.953.314 1.555.314s1.12-.104 1.555-.314c.434-.21.765-.465.991-.767.226-.302.401-.704.527-1.207.125-.503.201-.956.226-1.358.025-.402.038-.906.038-1.509v-9.987M180.036 24.599v14.791h-4.915v-14.791h-4.063v-4.176h13.04v4.176h-4.063" fill="#fff"/><path d="M185.239 20.423h4.915v18.967h-4.915v-18.967zM196.925 21.014c1.588-.813 3.293-1.22 5.116-1.22 1.822 0 3.527.407 5.116 1.22 1.588.813 2.875 1.974 3.862 3.484.986 1.51 1.48 3.195 1.48 5.056 0 3.069-.982 5.58-2.946 7.534-1.965 1.954-4.468 2.931-7.511 2.931s-5.546-.977-7.511-2.931c-1.965-1.953-2.947-4.465-2.947-7.534 0-1.862.493-3.547 1.48-5.056.986-1.509 2.273-2.67 3.862-3.484zm8.877 5.069c-1.053-1.006-2.307-1.509-3.762-1.509-1.454 0-2.708.503-3.762 1.509-1.053 1.006-1.58 2.172-1.58 3.497 0 1.61.518 2.956 1.555 4.037 1.036 1.082 2.299 1.623 3.787 1.623s2.75-.541 3.787-1.623c1.036-1.082 1.555-2.427 1.555-4.037 0-1.325-.527-2.491-1.58-3.497zM218.839 20.263v11.622h.05l9.003-11.622h4.915v18.967h-4.915v-11.597h-.05l-9.003 11.597h-4.915v-18.967h4.915M56.112 29.093l-21.665-6.091-.551-22.766-12.338 19.142-21.588-6.069 14.059 17.556-12.7 19.188 20.931-8.17 13.671 17.844-.782-22.87 20.963-7.766" fill="#fff"/></g></svg>