<svg width="319" height="331" viewBox="0 0 319 331" xmlns="http://www.w3.org/2000/svg" xmlns:sketch="http://www.bohemiancoding.com/sketch/ns"><title>Imported Layers</title><desc>Created with Sketch.</desc><g sketch:type="MSLayerGroup" fill="none"><path d="M290.379 124.519c-6.276 12.349-12.327 25.682-17.317 40.289-.569 1.663-1.117 3.32-1.647 4.97-.072.223-.157.439-.301.62-1.479 1.857-9.176 10.673-11.159 9.529-1.314-.757-.982-11.191-.624-14.83.028-.288.077-.576.204-.834.703-1.436 1.399-2.887 2.088-4.352 5.934-12.617 10.771-25.12 14.704-37.346 0 0 7.692-.329 14.053 1.954" fill="#405533" sketch:type="MSShapeGroup"/><path d="M300.411 64.757s2.73-8.04 8.748-5.966c6.005 2.068 2.209 10.236 2.209 10.236" fill="#7A9C5E" sketch:type="MSShapeGroup"/><path d="M301.227 65.057l.004-.009c.046-.135.595-1.641 1.63-3.047.516-.704 1.149-1.38 1.877-1.864.73-.486 1.54-.787 2.487-.789.506.001 1.055.087 1.662.296 1.162.407 1.805 1.007 2.221 1.717.411.711.579 1.586.579 2.509.002 1.164-.271 2.377-.55 3.282-.14.454-.279.831-.383 1.091l-.123.299-.032.073-.009.019 1.56.783c.012-.027.323-.698.636-1.717.312-1.019.631-2.384.632-3.83 0-1.14-.202-2.35-.824-3.434-.618-1.086-1.67-1.994-3.162-2.502-.768-.266-1.508-.388-2.207-.388-1.359-.001-2.546.467-3.514 1.136-1.455 1.009-2.458 2.445-3.123 3.624-.662 1.18-.98 2.114-.993 2.15l1.633.6h-.001" fill="#2B3F22" sketch:type="MSShapeGroup"/><path d="M284.135 103.575l14.903-38.232c2.032-1.501 9.917-1.589 13.369 5.414l-15.672 37.005" fill="#A5B98C" sketch:type="MSShapeGroup"/><path d="M276.101 163.323s-2.499-.151-1.62-2.568c.879-2.417 3.176-8.435 3.176-8.435s-.37 1.192 4.115 2.376c4.486 1.185 10.541 2.661 16.898-.411 6.357-3.072 6.884-10.341 6.559-12.643-.325-2.302 12.19-7.358 12.19-7.358-.001 0 2.363 12.231-6.148 22.872-8.51 10.641-23.153 10.519-35.169 6.168m.145-40.786l-3.18 9.63s-.262.968-2.379-.096c-2.117-1.065-9.109-4.974-9.43-12.736-.321-7.762 4.043-14.022 13.801-15.766 9.759-1.747 22.624 3.467 27.855 7.999 5.231 4.533 13.807 12.451 14.399 22.372.592 9.921-12.035 9.281-12.035 9.281 0 .001.411-6.557-4.716-12.573-4.705-5.522-17.869-9.501-24.316-8.111m-31.974-12.719l.052 15.533s-.663 6.513.677 7.803c1.339 1.29 5.628 8.611 8.28 11.849 2.652 3.238 8.826 11.748 10.484 10.253 1.656-1.496 3.985-8.48 3.14-9.198-.843-.717-12.458-11.581-16.843-22.491l-6.289-17.998.499 4.249" fill="#DBE3CB" sketch:type="MSShapeGroup"/><path d="M244.321 124.492c0 .001 7.416 17.303 20.726 27.877 0 0-1.307 3.859-2.778 2.689-1.472-1.171-13.942-14.379-18.051-24.678l.106-5.028-.003-.86m29.099-1.829s8.324-4.887 22.391 2.036c14.066 6.923 10.232 20.007 9.799 21.477-.227.769 1.148-6.349-3.179-12.921-3.952-6.001-13.665-11.684-29.01-10.591m1.486 36.911s14.36 7.131 25.902 2.526c10.778-4.3 13.74-11.225 16.193-18.759.942 1.3-4.888 24.576-25.364 22.748-.001 0-20.176-.263-16.731-6.515" fill="#A5B98C" sketch:type="MSShapeGroup"/><path d="M285.627 134.017l4.752-9.497s5.049 1.942 5.2 2.456c.153.515-2.243 5.363-6.386 6.274-4.144.911-3.566.767-3.566.767" fill="#DBE3CB" sketch:type="MSShapeGroup"/><path d="M264.241 155.164c-8.978-7.428-15.251-17.034-19.344-25.349-2.047-4.156-3.55-7.989-4.575-11.054-1.026-3.059-1.577-5.382-1.713-6.408l-1.714.251c.171 1.248.741 3.601 1.792 6.748 3.155 9.414 10.619 25.743 24.476 37.221l1.078-1.41m8.831-23.141c-2.108-.694-4.034-1.635-5.581-2.777-3.485-2.584-5.38-6.305-5.387-10.642 0-.936.089-1.901.275-2.888.767-4.061 2.817-6.871 5.739-8.755 2.922-1.876 6.755-2.777 10.969-2.776 2.924-.001 6.027.432 9.118 1.25 6.359 1.681 12.78 5.17 17.891 9.904 5.115 4.735 8.911 10.698 10.132 17.316.383 2.071.561 4.076.561 6.005.003 10.643-5.433 19.018-11.99 23.086-3.811 2.365-8.663 3.732-14.081 3.732-5.113 0-10.727-1.216-16.44-3.946l-.723 1.637c5.927 2.832 11.787 4.111 17.163 4.111 5.697-.001 10.854-1.434 14.969-3.986 7.076-4.393 12.831-13.335 12.833-24.633 0-2.044-.189-4.164-.592-6.346-1.316-7.106-5.351-13.385-10.681-18.32-5.335-4.936-11.975-8.546-18.615-10.305-3.219-.851-6.457-1.306-9.545-1.306-4.445.001-8.588.938-11.878 3.044-3.291 2.099-5.692 5.42-6.529 9.943-.205 1.097-.306 2.178-.306 3.233-.008 4.903 2.213 9.241 6.118 12.112 1.733 1.278 3.814 2.284 6.061 3.026l.523-1.717h-.001m21.657-5.231c-.359 1.782-1.399 3.165-3.011 4.25-1.606 1.079-3.775 1.807-6.203 2.151l.235 1.784c2.609-.373 5.004-1.15 6.905-2.42 1.899-1.264 3.312-3.078 3.769-5.4l-1.696-.364v-.001m-16.643 25.424l.823.369c.535.216 1.328.645 2.322.988l1.647.6c.61.194 1.286.363 1.999.568.714.215 1.496.306 2.308.479.817.134 1.685.201 2.588.273 1.806.067 3.774-.079 5.759-.64 1.977-.562 3.96-1.6 5.563-3.207l.599-.609.523-.688c.379-.439.635-.972.939-1.476.283-.507.489-1.101.712-1.614.169-.6.404-1.216.52-1.809.552-2.366.676-4.973.054-7.401-.608-2.433-1.87-4.671-3.521-6.487-1.647-1.827-3.638-3.247-5.669-4.389l-1.535-.814-1.561-.682c-1.008-.468-2.084-.793-3.084-1.172-2.032-.646-3.995-1.157-5.836-1.464-1.84-.293-3.545-.465-5.061-.475-1.515-.012-2.838.067-3.918.213-2.164.285-3.345.735-3.345.735s1.171-.478 3.335-.812c1.08-.171 2.405-.28 3.928-.302 1.524-.025 3.242.11 5.102.363 1.86.268 3.844.734 5.922 1.345 1.02.36 2.071.65 3.13 1.11l1.597.656 1.579.792c2.093 1.118 4.17 2.525 5.925 4.389 1.755 1.849 3.147 4.182 3.848 6.76.714 2.588.652 5.324.102 7.914-.121.66-.332 1.234-.492 1.853-.252.647-.452 1.249-.756 1.832-.32.564-.596 1.156-1.001 1.652l-.563.772-.644.688c-1.732 1.813-3.888 2.998-6.019 3.656-2.14.658-4.251.859-6.179.831-.959-.053-1.886-.105-2.753-.228-.86-.161-1.694-.244-2.446-.45-.756-.197-1.467-.361-2.117-.551l-1.776-.602c-1.083-.354-1.826-.74-2.383-.952l-.831-.35.666-1.664m-.332.832l.844.314c.555.188 1.351.542 2.395.853l1.72.526c.632.165 1.327.302 2.061.471.732.179 1.534.232 2.363.363.834.091 1.715.131 2.628.163 1.829-.01 3.803-.242 5.773-.865 1.963-.628 3.894-1.737 5.439-3.353l.575-.614.497-.688c.362-.44.599-.97.886-1.468.263-.497.456-1.099.653-1.58.155-.599.389-1.233.49-1.808.5-2.309.585-4.865-.054-7.197-.607-2.348-1.837-4.502-3.452-6.256-1.617-1.756-3.546-3.165-5.545-4.287l-1.509-.803-1.536-.681-.74-.331-.78-.293-1.531-.572c-1.992-.648-3.932-1.192-5.748-1.53-1.819-.317-3.504-.538-5.008-.595-1.503-.057-2.821-.017-3.899.096-1.078.12-1.925.247-2.495.375-.57.128-.868.225-.868.225s1.15-.541 3.318-.947c1.081-.204 2.412-.352 3.946-.419 1.535-.071 3.273.012 5.156.243 1.884.235 3.891.668 6.01 1.278l1.555.507.791.26.816.321 1.622.656 1.605.803c2.126 1.139 4.264 2.556 6.048 4.49 1.791 1.912 3.214 4.329 3.916 6.993.697 2.682.595 5.47-.006 8.117-.136.678-.348 1.236-.521 1.855-.133.374-.261.638-.392.961-.137.305-.24.625-.422.905-.339.569-.633 1.163-1.054 1.66l-.589.77-.668.683c-1.791 1.804-3.999 2.918-6.143 3.51-2.155.598-4.26.711-6.165.607-.95-.093-1.862-.173-2.712-.339-.844-.204-1.657-.324-2.391-.567-.736-.232-1.427-.428-2.055-.647l-1.704-.675c-1.032-.387-1.772-.847-2.31-1.088l-.808-.404m-35.902-51.212c.008.045 1.244 7.308 4.992 16.609 3.751 9.299 10.013 20.655 20.138 28.83l1.062-1.423c-9.784-7.891-15.927-18.977-19.604-28.103-1.839-4.562-3.062-8.63-3.824-11.552-.382-1.461-.647-2.635-.817-3.441l-.186-.923-.044-.236-.013-.075-1.705.314v-.001m43.083 2.079l14.902-38.231-.802-.339.501.734c.191-.144.581-.326 1.094-.45.513-.126 1.148-.205 1.849-.205 1.478-.002 3.246.347 4.89 1.236 1.647.892 3.176 2.308 4.264 4.51l.771-.411-.792-.362-15.673 37.005 1.585.726 15.838-37.397-.188-.382c-1.252-2.545-3.078-4.247-5.007-5.287-1.931-1.041-3.956-1.438-5.688-1.439-.824 0-1.584.09-2.248.253-.665.166-1.233.395-1.698.735l-.206.152-14.998 38.475 1.605.677v-.001" fill="#2B3F22" sketch:type="MSShapeGroup"/><path d="M309.996 76.448c-3.241-6.354-11.122-6.972-13.154-5.471l-1.06 2.719s7.803-2.712 13.061 5.476l1.153-2.724" fill="#7A9C5E" sketch:type="MSShapeGroup"/><path d="M309.996 76.448l.765-.422c-1.253-2.459-3.157-4.128-5.155-5.165-2.001-1.039-4.096-1.466-5.846-1.468-.699 0-1.343.068-1.917.204-.573.137-1.077.334-1.504.646l-.206.152-1.862 4.775 1.784-.621-.098-.306.096.307.003-.001-.098-.306.096.307c.015-.005 1.151-.386 2.789-.385 1.279 0 2.856.228 4.477 1.021 1.621.795 3.3 2.149 4.803 4.486l.876 1.365 1.959-4.625-.197-.385-.765.422-.792-.362-1.154 2.724.793.362.72-.5c-1.661-2.589-3.606-4.188-5.506-5.115-1.899-.929-3.74-1.192-5.214-1.192-1.954.002-3.276.457-3.336.478l.275.855.802.339 1.06-2.719-.802-.339.502.734c.152-.116.463-.261.883-.358.42-.1.945-.16 1.533-.159 1.477-.002 3.341.375 5.072 1.278 1.734.904 3.334 2.313 4.399 4.397l.764-.422-.792-.362.792.362m-34.49 45.829c-3.923 12.191-8.746 24.657-14.661 37.237-.687 1.461-1.382 2.907-2.082 4.339-.203.418-.26.82-.294 1.151-.167 1.698-.324 4.761-.325 7.709.001 1.772.057 3.493.209 4.867.078.689.176 1.288.322 1.795.075.255.16.488.281.71.124.22.284.451.579.627.273.157.57.215.839.215.53-.006 1.001-.186 1.497-.436.859-.443 1.789-1.152 2.767-2 2.921-2.542 6.19-6.33 7.142-7.521.254-.321.371-.651.456-.91.528-1.643 1.075-3.295 1.641-4.952 4.975-14.56 10.861-27.931 17.262-40.16l-1.521-.861c-6.442 12.306-12.365 25.762-17.372 40.418-.571 1.668-1.121 3.331-1.653 4.985-.059.187-.112.29-.147.331-.664.835-2.729 3.239-4.896 5.392-1.083 1.078-2.198 2.097-3.161 2.825-.48.363-.922.653-1.285.837-.359.189-.643.256-.731.25l-.031-.003-.027.122.058-.109-.031-.014-.027.122.058-.109-.176.33.272-.254-.097-.076-.176.33.272-.254-.039.037.043-.031-.004-.005-.039.037.043-.031c-.023-.021-.141-.289-.221-.681-.129-.592-.229-1.47-.29-2.481-.061-1.013-.088-2.165-.088-3.344 0-2.877.157-5.921.316-7.525.022-.245.064-.42.114-.518.705-1.44 1.403-2.895 2.094-4.364 5.951-12.655 10.803-25.195 14.748-37.457l-1.642-.572m.489 13.949l.707.519-.386-.283.14.488c.014-.006.128-.037.246-.205l-.386-.283.14.488-.01-.034.007.035.003-.001-.01-.034.007.035.107-.007c.282-.007.89.136 1.338.356.226.107.419.232.52.325l.082.088.068-.047-.075.033.007.015.068-.047-.075.033.26-.112-.277.043.018.069.26-.112-.277.043.857-.131-.78-.391c-.002.005-1.656 3.585-3.572 7.974-1.918 4.394-4.091 9.576-5.153 12.86-.062.195-.233.31-.416.312l-.161-.031.003.001c-.182-.07-.288-.247-.29-.431l.036-.177.002-.004c.785-1.878 2.298-5.55 3.837-9.555 1.538-4.008 3.1-8.339 3.991-11.582l-.833-.247.707.519-.707-.519-.833-.247c-.856 3.122-2.406 7.43-3.933 11.408-1.529 3.979-3.037 7.638-3.817 9.506l.002-.004c-.124.293-.183.603-.183.902-.001.914.538 1.773 1.41 2.116l.003.001c.249.097.509.145.766.145.905.002 1.751-.594 2.057-1.54 1.013-3.141 3.182-8.323 5.088-12.689.954-2.185 1.843-4.171 2.494-5.609l.775-1.705.287-.624.114-.249-.038-.272c-.037-.257-.134-.476-.248-.653-.202-.311-.452-.524-.718-.709-.4-.273-.853-.475-1.31-.623-.46-.146-.913-.238-1.351-.24-.195.001-.388.017-.601.082-.207.066-.469.189-.672.484l-.085.125-.04.147.833.247m-17.076 42.863c-.006.012-.249.477-.499 1.056-.126.29-.252.608-.355.927-.1.323-.186.626-.191 1.002.003.165.016.359.121.594.097.234.355.495.637.578l.005.002c.11.036.221.05.324.05.354-.005.587-.152.757-.277.294-.232.478-.491.664-.768.27-.415.501-.873.674-1.24.172-.365.282-.635.286-.645l-1.594-.704-.038.089c-.089.21-.332.758-.594 1.214-.128.226-.267.431-.358.534l-.053.057-.012.011.269.384v-.457c-.197.005-.267.075-.267.075l.267.383v-.457.657l.186-.627-.186-.03v.657l.186-.627.005.002-.2.662.603-.301c-.047-.128-.228-.314-.403-.361l-.2.662.603-.301-.37.184h.42l-.05-.184-.37.184h.42s.025-.205.103-.432c.111-.349.298-.785.454-1.122l.2-.415.059-.118.02-.038-1.522-.859m12.353-55.701s4.045-2.019 10.83-1.123l-.238.904s-5.796-.813-10.592.219m7.634-20.626c-.061.037-3.212 2.267-3.909 9.201-.075.73-.108 1.418-.108 2.065-.004 5.479 2.423 7.991 3.025 8.512l.403-.499c-.495-.437-2.798-2.743-2.801-8.013 0-.624.032-1.288.104-1.997.342-3.372 1.268-5.56 2.098-6.904.414-.671.806-1.132 1.09-1.423l.334-.312.088-.07.02-.015.003-.003-.347-.542v-.001m37.863 26.476c-.025-.011-1.527-.715-3.66-.716-1.431-.001-3.148.32-4.87 1.389-1.722 1.068-3.438 2.881-4.88 5.824l.558.297c1.401-2.855 3.033-4.561 4.643-5.56 1.61-1 3.205-1.297 4.548-1.297.999 0 1.856.166 2.46.332.302.083.541.166.702.227l.183.073.057.026.258-.594m-24.956 27.215l.014.014c.175.163 1.718 1.718 1.712 4.177-.002 1.427-.506 3.188-2.142 5.234l.482.417c1.71-2.134 2.288-4.058 2.286-5.652-.007-2.94-1.916-4.657-1.942-4.684l-.411.493m-39.975-28.8l.005.054c.011.115.032.402.032.802.001.948-.127 2.525-.8 3.915-.678 1.39-1.854 2.599-4.072 2.935l.089.646c2.415-.351 3.81-1.75 4.544-3.288.739-1.536.865-3.202.866-4.207 0-.565-.041-.923-.042-.933l-.622.078" fill="#2B3F22" sketch:type="MSShapeGroup"/><path d="M175.011 260.945c-5.555 0-11.034.077-16.425.226-.704 2.634-1.442 5.137-2.208 7.513-6.306 19.568-14.621 30.724-22.416 38.565-4.277 4.306-8.294 7.373-11.931 9.376-3.638 2-6.898 2.948-9.685 2.951-1.561 0-2.976-.302-4.196-.907-1.218-.601-2.229-1.509-2.958-2.655-1.182-1.844-1.807-3.891-1.805-6.045 0-2.345.723-4.783 2.115-7.299 1.393-2.517 3.457-5.128 6.209-7.863 7.555-7.513 16.527-17.623 24.306-32.56-8.865.606-17.393 1.416-25.472 2.405-7.722 8.923-15.358 14.225-21.672 17.709-6.966 3.844-12.773 5.481-17.231 5.486-2.402-.001-4.423-.478-6.004-1.398-1.58-.913-2.705-2.301-3.207-3.974-.305-1.001-.461-2.008-.461-3.009-.003-1.958.605-3.868 1.772-5.672-20.108 5.994-32.16 13.645-32.16 21.979 0 19.235 64.214 34.828 143.428 34.828 79.213 0 143.428-15.593 143.428-34.828 0-16.187-45.481-29.796-107.103-33.702 9.336 17.281 20.142 28.184 29.01 35.992 3.041 2.678 5.323 5.265 6.866 7.797 1.54 2.531 2.344 5.031 2.344 7.466.002 1.918-.506 3.774-1.468 5.495-.716 1.29-1.782 2.321-3.101 3.002-1.321.685-2.883 1.029-4.633 1.029-2.746-.003-5.961-.839-9.571-2.619-3.611-1.781-7.616-4.512-11.922-8.351-9.531-8.487-19.997-21.351-27.995-46.72-.413-1.312-.822-2.659-1.223-4.039-4.813-.119-9.691-.179-14.632-.179" fill="#EDEDED" sketch:type="MSShapeGroup"/><path d="M5.483 132.929s-.889-.108-1.085-2.361c-.093-1.07-.051-1.937.018-2.551.053-.466.587-.673.922-.358l22.376 21.125 1.372.239 33.866-13.71c.585-.237 1.222.186 1.261.837l.096 1.564s.639 1.543-1.831 2.344c-2.469.801-28.911 9.372-28.911 9.372-.001 0-1.083.727-4.374.579-3.291-.148-4.743-1.363-6.01-2.412l-17.7-14.668m100.764-10.208c-.432 2.839-12.967 76.341-51.317 87.148-27.713 7.81-51.051-18.032-47.402-42.048 2.41-15.866 17.705-15.217 22.139 6.772 4.046 20.06 15.321 26.524 27.149 22.814 13.475-4.226 36.261-34.751 41.759-79.441" fill="#DBE3CB" sketch:type="MSShapeGroup"/><path d="M106.247 122.721c-.432 2.839-12.752 77.209-51.317 87.148-30.567 7.878-57.578-23.465-44.219-50.041-5.674 10.554 2.348 35.722 19.772 43.959 4.097 1.937 12.919 5.182 24.799 1.865 9.999-2.79 17.132-10.34 20.135-13.979 16.86-20.432 26.558-58.499 28.39-73.385" fill="#A5B98C" sketch:type="MSShapeGroup"/><path d="M27.941 168.757c-.08.56-.498 1.379-1.203 2.246-2.115 2.62-6.745 5.716-11.921 5.708-2.407-.001-4.937-.658-7.426-2.335l-.36.579c2.595 1.749 5.263 2.446 7.786 2.445 3.622-.001 6.942-1.423 9.414-3.182 1.238-.88 2.264-1.845 3.014-2.772.749-.929 1.23-1.808 1.351-2.582l-.655-.107v-.001m77.478-46.171c-.205 1.36-3.443 20.414-11.386 40.388-3.969 9.989-9.116 20.21-15.618 28.57-6.505 8.363-14.343 14.847-23.704 17.484-3.371.95-6.67 1.39-9.859 1.39-10.347 0-19.559-4.64-26.197-11.671-6.638-7.03-10.67-16.439-10.667-25.894 0-1.633.12-3.269.368-4.895.523-3.45 1.673-6.027 3.118-7.711 1.452-1.685 3.167-2.496 4.99-2.501 2.217-.001 4.687 1.239 6.942 4.02 2.25 2.775 4.246 7.073 5.441 13.006 1.689 8.368 4.629 14.479 8.422 18.526 3.788 4.047 8.445 5.982 13.355 5.976 2.112 0 4.27-.353 6.435-1.032 3.57-1.125 7.596-3.905 11.777-8.12 6.267-6.325 12.861-15.905 18.421-28.123 5.559-12.217 10.076-27.07 12.15-43.923l-1.663-.222c-2.732 22.219-9.766 40.913-17.772 54.552-4.002 6.819-8.247 12.372-12.303 16.464-4.052 4.094-7.926 6.715-11.094 7.702-2.024.635-4.019.958-5.951.958-4.491-.007-8.647-1.721-12.154-5.451-3.503-3.732-6.34-9.524-7.981-17.665-1.241-6.147-3.32-10.707-5.8-13.772-2.474-3.06-5.387-4.638-8.224-4.64-2.324-.005-4.533 1.082-6.241 3.083-1.713 2.002-2.959 4.898-3.522 8.599-.262 1.718-.388 3.446-.388 5.168.003 9.974 4.23 19.784 11.146 27.116 6.917 7.33 16.556 12.195 27.395 12.195 3.337 0 6.786-.461 10.297-1.451 9.814-2.767 17.924-9.525 24.569-18.071 9.969-12.826 16.702-29.717 21.013-43.681 4.306-13.968 6.175-24.989 6.344-26.102l-1.656-.272m-63.004 74.054l.007-.016-.009.015.002.001.007-.016-.009.015c.016-.002.156.167.273.449.375.852.764 2.667.763 4.686 0 1.67-.262 3.487-.977 5.058-.718 1.572-1.872 2.9-3.701 3.654l.225.59c1.981-.814 3.262-2.286 4.027-3.974.767-1.688 1.035-3.591 1.035-5.329 0-1.426-.181-2.74-.427-3.743-.124-.501-.263-.925-.411-1.252-.074-.163-.15-.304-.233-.422-.085-.117-.173-.217-.306-.287l-.266.57v-.001m43.542-33.453l.134-.011.395-.013c.701 0 1.992.11 3.249.759 1.256.652 2.486 1.82 3.133 4.016l.583-.184c-.688-2.359-2.064-3.691-3.445-4.399-1.382-.711-2.76-.824-3.52-.824-.368 0-.592.026-.601.028l.072.629v-.001m-14.274 25.29l.035.017c.195.1 1.152.63 2.106 1.746.955 1.116 1.911 2.809 2.128 5.278l.607-.058c-.244-2.788-1.395-4.688-2.485-5.874-1.09-1.188-2.115-1.675-2.139-1.687l-.252.577" fill="#2B3F22" sketch:type="MSShapeGroup"/><path d="M.93 132.481l3.814 46.67c.051.625.355 1.201.836 1.58l2.753 2.179s-.121-.425-.352-1.412c-.232-.988-3.237-14.666 3.456-22.456 0 .001 6.823-5.745 12.945 2.588 0 0 3.999 4.831 5.576 14.309 1.577 9.479 6.636 16.22 11.072 19.481 4.436 3.26 8.487 3.09 10.112 2.973 1.626-.118 2.123-.532 6.105-1.129 2.784-.418 8.947-1.811 12.399-2.609 1.422-.329 2.397-1.685 2.305-3.197l-3.054-50.134c-.102-1.67-1.68-2.799-3.215-2.302l-32.111 10.41c-.001 0-1.748 1.184-4.374.579-2.627-.605-3.607-.887-3.607-.887l-22.233-18.009c-1.036-.839-2.536.007-2.424 1.368" fill="#5F8C45" sketch:type="MSShapeGroup"/><path d="M9.192 182.496l-2.982-2.359c-.371-.294-.607-.738-.646-1.223l-3.774-46.186-.004-.079c.003-.244.089-.423.235-.571.147-.145.355-.233.55-.231.162.002.312.047.475.18l21.127 17.508 7.909 1.29 33.428-10.835c.202-.066.401-.096.594-.096.502-.001.981.204 1.343.55.362.347.599.822.635 1.388l3.035 49.813v-.003l.004.125c.001.919-.637 1.72-1.521 1.88l-20.976 3.799.289 1.718 20.975-3.799c1.691-.308 2.91-1.833 2.911-3.598l-.007-.23v-.003l-3.035-49.813c-.062-1.027-.512-1.93-1.174-2.561-.662-.634-1.54-1.01-2.479-1.011-.362 0-.73.058-1.093.175l-33.055 10.715-7.086-1.157-20.778-17.219c-.455-.379-1.001-.562-1.521-.561-.642.002-1.246.261-1.702.709-.456.444-.762 1.102-.76 1.838l.01.228 3.774 46.185c.079.975.552 1.871 1.302 2.463l2.982 2.359 1.016-1.389h-.001m14.901-33.313l1.019 14.899 1.673-.124-1.019-14.899m4.537 1.197l2.98 37.265 1.671-.144-2.98-37.266m-26.604-18.046l-.327-3.76-.001-.005-.101.01h.102l-.001-.01-.101.01h.102-.116l.078.088.038-.088h-.116l.078.088-.061-.068v.092l.061-.024-.061-.068v.092-.111l-.075.086.075.026v-.111l-.075.086 22.291 21.045.012.011c.404.355.909.541 1.42.541.269 0 .539-.051.795-.154l.003-.001 33.69-13.64.083-.016.154.063.071.159.189 3.084 1.673-.11-.188-3.086c-.032-.534-.269-1.01-.614-1.335-.344-.327-.798-.52-1.284-.52-.23 0-.466.045-.692.136l-33.69 13.64.002-.001-.191.037c-.121 0-.241-.044-.337-.129l-.542.666.563-.646-22.281-21.036c-.297-.284-.689-.43-1.052-.426-.412.001-.793.163-1.086.448-.293.281-.494.714-.492 1.184l.008.159v-.005l.327 3.759 1.67-.156-.001-.001m67.235 53.897c11.414-13.677 23.063-37.532 26.801-67.888l-1.663-.222c-3.688 30.01-15.237 53.598-26.404 66.965l1.266 1.144m32.814-63.378c-.205 1.36-3.443 20.414-11.386 40.388-3.969 9.989-9.116 20.21-15.618 28.57-6.505 8.363-14.343 14.847-23.704 17.484-3.371.95-6.67 1.39-9.859 1.39-10.347 0-19.559-4.64-26.197-11.671-6.638-7.03-10.67-16.439-10.667-25.894 0-1.633.12-3.269.368-4.895.523-3.45 1.673-6.027 3.118-7.711 1.452-1.685 3.167-2.496 4.99-2.501 2.217-.001 4.687 1.239 6.942 4.02 2.25 2.775 4.246 7.073 5.441 13.006 1.689 8.368 4.629 14.479 8.422 18.526 3.788 4.047 8.445 5.982 13.355 5.976 2.112 0 4.27-.353 6.435-1.032.682-.214 1.38-.488 2.092-.823l-.69-1.59c-.652.306-1.282.553-1.886.742-2.025.635-4.02.958-5.952.958-4.491-.007-8.647-1.721-12.154-5.451-3.503-3.732-6.34-9.524-7.981-17.665-1.241-6.147-3.32-10.707-5.8-13.772-2.474-3.06-5.387-4.638-8.224-4.64-2.324-.005-4.533 1.082-6.241 3.083-1.713 2.002-2.959 4.898-3.522 8.599-.262 1.718-.388 3.446-.388 5.168.003 9.974 4.23 19.784 11.146 27.116 6.917 7.33 16.556 12.195 27.395 12.195 3.337 0 6.786-.461 10.297-1.451 9.814-2.767 17.924-9.525 24.569-18.071 9.969-12.826 16.702-29.717 21.013-43.681 4.306-13.968 6.175-24.989 6.344-26.102l-1.656-.272" fill="#2B3F22" sketch:type="MSShapeGroup"/><path d="M55.281 160.04l.119 6.911 6.314 2.152-6.282 2.254-.017 6.913-4.002-5.518-6.325 2.119 3.808-5.664-3.892-5.602 6.356 2.017 3.92-5.581" fill="#DBE3CB" sketch:type="MSShapeGroup"/><path d="M237.862 13.137c-22.339-4.154-56.634-7.52-97.03.601-26.717 5.371-48.584 14.253-64.866 22.449l-.664-7.691c16.283-8.196 38.149-17.078 64.865-22.449 40.397-8.12 74.692-4.755 97.032-.601l.663 7.691" fill="#7A9C5E" sketch:type="MSShapeGroup"/><path d="M254.255 87.953l2.162-.241c.77-.086 3.038-6.013 1.635-16.425-1.159-8.694-3.876-17.778-5.374-17.641l-2.195.199" fill="#405533" sketch:type="MSShapeGroup"/><path d="M254.347 88.848l2.162-.241c.233-.028.397-.121.52-.207.228-.169.362-.349.499-.556.232-.362.441-.821.65-1.413.617-1.768 1.186-4.713 1.188-8.751 0-1.931-.132-4.11-.456-6.518-.583-4.366-1.548-8.811-2.569-12.202-.512-1.697-1.033-3.127-1.551-4.183-.262-.53-.517-.966-.811-1.319-.147-.177-.306-.336-.506-.47-.197-.131-.456-.244-.761-.245l-.156.011.123.892-.075-.898-2.195.199.151 1.794 2.222-.202.019-.003-.089-.649v.656l.089-.007-.089-.649v.656-.429l-.133.407.133.022v-.429l-.133.407.054-.171-.093.154.039.016.054-.171-.093.154c.011-.001.176.155.352.442.318.502.714 1.37 1.112 2.472 1.205 3.313 2.492 8.743 3.191 13.991.313 2.329.44 4.424.44 6.27 0 3.134-.365 5.552-.788 7.158-.21.801-.438 1.402-.62 1.761-.09.179-.17.297-.201.332l-.009.009.362.406-.055-.531c-.24.037-.299.126-.307.125l.362.406-.055-.531-2.161.241.184 1.791" fill="#2B3F22" sketch:type="MSShapeGroup"/><path d="M236.978 49.062l10.283-.934c1.979-.18 5.568 11.821 7.1 23.306 1.853 13.755-1.144 21.587-2.161 21.7l-10.311 1.148" fill="#7A9C5E" sketch:type="MSShapeGroup"/><path d="M237.052 49.958l10.283-.934-.01-.122.007.123.004-.001-.011-.122.007.123-.028-.506v.507l.028-.001-.028-.506v.507-.279l-.087.267.087.013v-.279l-.087.267.018-.053-.024.05.006.003.018-.053-.024.05c.019-.002.243.183.482.551.431.642.965 1.78 1.502 3.239 1.625 4.386 3.367 11.691 4.308 18.757.416 3.091.584 5.871.584 8.323.001 4.163-.485 7.382-1.052 9.533-.282 1.074-.587 1.884-.841 2.385-.125.25-.24.423-.302.495l-.032.035.007.008-.006-.009-.001.001.007.008-.006-.009.298.412-.052-.5c-.166.022-.232.08-.246.089l.298.412-.052-.5-10.311 1.148.184 1.791 10.311-1.149c.246-.029.422-.127.56-.224.255-.188.417-.403.586-.658.287-.446.557-1.037.827-1.805.8-2.293 1.551-6.157 1.554-11.461 0-2.537-.174-5.402-.6-8.572-.768-5.752-2.042-11.613-3.384-16.074-.672-2.232-1.359-4.111-2.031-5.481-.339-.687-.669-1.247-1.033-1.685-.183-.219-.377-.41-.609-.566-.231-.153-.52-.277-.856-.278l-.12.005-10.282.934.151 1.795-.001-.001" fill="#2B3F22" sketch:type="MSShapeGroup"/><path d="M78.559 112.515l-2.15.332c-.766.118-4.394-5.026-5.551-15.471-.979-8.718-.543-18.22.94-18.48l2.173-.381" fill="#405533" sketch:type="MSShapeGroup"/><path d="M78.431 111.624l-2.15.332.127.891-.105-.894.077.66.001-.666-.078.005.077.66.001-.666v.486l.227-.437c-.007 0-.06-.044-.227-.048v.486l.227-.437-.018-.012c-.055-.039-.194-.168-.357-.37-.589-.715-1.519-2.305-2.382-4.698-.867-2.397-1.688-5.611-2.134-9.644-.352-3.129-.52-6.368-.519-9.224-.001-2.503.13-4.718.367-6.276.117-.776.265-1.391.407-1.754.068-.18.137-.293.159-.319l.005-.005-.14-.134.097.166.042-.032-.14-.134.097.166-.226-.388.072.446.154-.058-.226-.388.072.446 2.173-.381-.287-1.777-2.173.381c-.398.072-.678.317-.86.55-.32.42-.489.9-.651 1.495-.233.889-.396 2.034-.507 3.392-.111 1.357-.168 2.919-.168 4.604 0 2.929.17 6.228.53 9.432.582 5.251 1.779 9.207 2.955 11.88.59 1.338 1.172 2.352 1.689 3.065.26.358.5.64.746.862.123.111.248.208.397.293.149.081.327.164.597.169l.132-.008.017-.002.005-.001 2.15-.332-.254-1.781v-.001" fill="#2B3F22" sketch:type="MSShapeGroup"/><path d="M85.887 70.356l-10.179 1.784c-1.96.343-2.534 12.897-1.242 24.414 1.529 13.798 6.321 20.595 7.333 20.439l10.259-1.585" fill="#7A9C5E" sketch:type="MSShapeGroup"/><path d="M85.743 69.468l-10.179 1.784c-.435.079-.75.349-.967.625-.379.495-.599 1.102-.807 1.868-.3 1.145-.515 2.646-.662 4.429-.147 1.781-.22 3.838-.22 6.058 0 3.858.225 8.206.699 12.427.765 6.91 2.34 12.108 3.881 15.608.772 1.751 1.533 3.076 2.2 3.996.335.461.643.821.945 1.095.153.136.303.253.474.351.173.094.37.184.657.188l.114-.005.026-.003.023-.004 10.258-1.584-.254-1.781c-3.42.528-6.839 1.055-10.259 1.584l.127.891-.079-.898.007.079-.004-.079h-.003l.007.079-.004-.079.04.62v-.622l-.04.002.04.62v-.622.509l.147-.487-.147-.022v.509l.147-.487-.068.229.091-.22-.023-.009-.068.229.091-.22v-.001c-.032-.014-.211-.15-.421-.392-.378-.424-.897-1.163-1.459-2.192-1.692-3.092-3.809-8.796-4.727-17.089-.465-4.145-.687-8.434-.686-12.219-.001-3.317.171-6.253.488-8.336.156-1.039.355-1.867.555-2.38.097-.256.198-.428.254-.497l.029-.034.004-.004-.085-.106.058.123.027-.017-.085-.106.058.123-.143-.3.054.33.09-.029-.143-.3.054.33 10.178-1.784-.287-1.776" fill="#2B3F22" sketch:type="MSShapeGroup"/><path d="M153.125 107.095s11.079 86.371-9.511 140.776c-8.939 23.617-21.287 37.928-31.161 47.743-7.88 7.833-9.786 14.431-6.369 19.785 3.477 5.447 13.966 4.307 27.132-8.95 19.254-19.388 41.555-58.807 29.175-200.446l-9.267 1.092" fill="#DBE3CB" sketch:type="MSShapeGroup"/><path d="M152.063 107.242l.127 1.043c.566 4.821 2.84 25.824 2.84 51.948.005 27.739-2.579 61.264-12.413 87.23-8.873 23.431-21.087 37.582-30.905 47.345-2.752 2.735-4.816 5.346-6.209 7.863-1.392 2.515-2.115 4.954-2.115 7.299-.003 2.154.622 4.201 1.805 6.045.729 1.146 1.74 2.054 2.958 2.655 1.219.604 2.634.907 4.196.907 2.787-.003 6.047-.95 9.685-2.951 3.636-2.003 7.654-5.07 11.931-9.376 7.795-7.841 16.111-18.997 22.416-38.565 6.311-19.571 10.653-47.556 10.653-89.214 0-20.869-1.09-45.171-3.571-73.569l-2.135.202c2.476 28.342 3.563 52.579 3.563 73.367.001 41.5-4.331 69.253-10.541 88.505-6.218 19.255-14.273 30.01-21.875 37.672-4.16 4.188-8.028 7.128-11.443 9.008-3.413 1.882-6.37 2.694-8.682 2.692-1.297 0-2.387-.251-3.274-.689-.886-.441-1.575-1.064-2.094-1.875-.972-1.529-1.444-3.101-1.446-4.813-.001-1.86.574-3.916 1.829-6.187 1.253-2.268 3.186-4.734 5.832-7.364 9.931-9.867 22.414-24.339 31.417-48.14 10.001-26.444 12.558-60.16 12.563-88.047 0-30.007-2.982-53.253-2.985-53.285l-2.125.295h-.001" fill="#2B3F22" sketch:type="MSShapeGroup"/><path d="M161.369 144.028s3.747 45.331-2.982 91.592c-7.612 52.33-29.477 70.837-41.106 75.79-10.566 4.501-11.849-1.301-11.849-1.301s-1.475 11.526 12.977 7.019c14.451-4.508 32.323-30.498 37.092-49.233 4.769-18.736 10.997-48.847 10.431-82.642-.566-33.795-1.726-48.621-1.726-48.621l-2.836 7.397" fill="#A5B98C" sketch:type="MSShapeGroup"/><path d="M152.063 107.242l.127 1.043c.566 4.821 2.84 25.824 2.84 51.948.005 27.739-2.579 61.264-12.413 87.23-8.873 23.431-21.087 37.582-30.905 47.345-2.752 2.735-4.816 5.346-6.209 7.863-1.392 2.515-2.115 4.954-2.115 7.299-.003 2.154.622 4.201 1.805 6.045.729 1.146 1.74 2.054 2.958 2.655 1.219.604 2.634.907 4.196.907 2.787-.003 6.047-.95 9.685-2.951 3.636-2.003 7.654-5.07 11.931-9.376 7.795-7.841 16.111-18.997 22.416-38.565 6.311-19.571 10.653-47.556 10.653-89.214 0-20.869-1.09-45.171-3.571-73.569l-2.135.202c2.476 28.342 3.563 52.579 3.563 73.367.001 41.5-4.331 69.253-10.541 88.505-6.218 19.255-14.273 30.01-21.875 37.672-4.16 4.188-8.028 7.128-11.443 9.008-3.413 1.882-6.37 2.694-8.682 2.692-1.297 0-2.387-.251-3.274-.689-.886-.441-1.575-1.064-2.094-1.875-.972-1.529-1.444-3.101-1.446-4.813-.001-1.86.574-3.916 1.829-6.187 1.253-2.268 3.186-4.734 5.832-7.364 9.931-9.867 22.414-24.339 31.417-48.14 10.001-26.444 12.558-60.16 12.563-88.047 0-30.007-2.982-53.253-2.985-53.285l-2.125.295h-.001m4.122 50.012c0-.001.173-.114.485-.288.936-.523 3.095-1.567 5.276-1.565 1.224.001 2.446.322 3.492 1.234l.229-.283c-1.122-.979-2.44-1.321-3.722-1.321-3.049.005-5.936 1.904-5.95 1.909l.19.314m-1.36 39.182c.195-.369.906-.854 1.877-1.201.97-.352 2.197-.595 3.442-.595 2.207.003 4.43.751 5.505 2.911l.376-.202c-1.181-2.362-3.597-3.151-5.881-3.148-1.297.001-2.565.25-3.581.62-1.017.376-1.785.844-2.102 1.395l.365.22m-7.903 41.019c.317-.242.986-.524 1.852-.73.869-.209 1.942-.351 3.098-.351 1.7-.001 3.58.307 5.266 1.15 1.687.843 3.182 2.212 4.145 4.363l.414-.201c-1.008-2.255-2.595-3.711-4.361-4.591-1.767-.882-3.712-1.196-5.464-1.197-1.193 0-2.297.146-3.201.363-.905.219-1.604.499-2.017.807l.268.385m-15.725 35.962c.298-.131.757-.211 1.324-.21 2.139-.005 5.753 1.092 8.857 3.402 3.111 2.312 5.718 5.803 6.012 10.618l.626-.041c-.306-5.052-3.059-8.724-6.274-11.107-3.222-2.387-6.898-3.519-9.221-3.523-.621.001-1.15.079-1.568.261l.243.602v-.001m-21.26 25.99l.29-.022c.677-.003 1.7.315 2.821.936 1.684.929 3.603 2.525 5.088 4.643 1.487 2.118 2.543 4.751 2.544 7.777 0 1.111-.142 2.277-.46 3.493l.578.163c.331-1.268.48-2.491.48-3.657-.001-4.243-1.977-7.734-4.325-10.158-1.175-1.213-2.446-2.162-3.624-2.812-1.18-.648-2.26-1.005-3.101-1.008-.133 0-.26.009-.381.028l.092.615h-.001" fill="#2B3F22" sketch:type="MSShapeGroup"/><path d="M140.172 120.513s1.071 73.104-29.163 113.978c-13.125 17.742-26.954 26.732-37.629 32.541-8.519 4.634-11.684 9.742-10.046 15.149 1.667 5.5 10.824 7.201 25.098-.688 20.875-11.535 56.294-42.949 61.394-162.855l-9.653 1.874" fill="#DBE3CB" sketch:type="MSShapeGroup"/><path d="M139.226 120.526l.005.917c0 4.266-.233 22.938-3.983 45.269-3.743 22.332-11.025 48.314-24.99 67.178-13.025 17.604-26.702 26.492-37.317 32.27-3.608 1.965-6.319 4.028-8.163 6.237-1.841 2.203-2.81 4.598-2.807 7.071 0 1.002.156 2.009.461 3.009.502 1.673 1.627 3.061 3.207 3.974 1.582.919 3.602 1.397 6.004 1.398 4.458-.005 10.265-1.642 17.231-5.486 10.563-5.829 24.83-16.748 37.008-41.206 12.187-24.458 22.332-62.428 24.887-122.476l-1.889-.087c-2.545 59.858-12.659 97.548-24.676 121.658-12.025 24.11-25.906 34.666-36.217 40.373-6.772 3.745-12.333 5.26-16.343 5.256-2.163.001-3.865-.437-5.081-1.148-1.218-.715-1.965-1.668-2.328-2.85-.251-.826-.373-1.629-.373-2.417.004-1.934.726-3.83 2.345-5.781 1.618-1.945 4.138-3.896 7.611-5.783 10.735-5.839 24.716-14.93 37.939-32.813 14.269-19.303 21.571-45.542 25.353-68.039 3.777-22.498 4.01-41.267 4.011-45.607l-.005-.945-1.891.029v-.001" fill="#2B3F22" sketch:type="MSShapeGroup"/><path d="M146.634 118.519c-1.183 22.918-3.728 72.78-20.225 109.344-19.069 42.262-41.629 52.542-52.648 53.783-10.014 1.129-9.738-4.116-9.738-4.116s-3.957 9.395 9.35 9.249c13.307-.146 33.645-18.244 43.006-32.296 9.606-14.421 19.505-34.565 25.542-63.71 7.097-34.269 7.228-72.161 7.228-72.161l-2.514-.093" fill="#A5B98C" sketch:type="MSShapeGroup"/><path d="M139.226 120.526l.005.917c0 4.266-.233 22.938-3.983 45.269-3.743 22.332-11.025 48.314-24.99 67.178-13.025 17.604-26.702 26.492-37.317 32.27-3.608 1.965-6.319 4.028-8.163 6.237-1.841 2.203-2.81 4.598-2.807 7.071 0 1.002.156 2.009.461 3.009.502 1.673 1.627 3.061 3.207 3.974 1.582.919 3.602 1.397 6.004 1.398 4.458-.005 10.265-1.642 17.231-5.486 10.591-5.847 24.934-17.562 37.078-42.418 12.148-24.858 22.125-62.836 24.14-121.297l-1.89-.07c-2.006 58.262-11.951 95.957-23.936 120.475-11.991 24.52-25.995 35.883-36.28 41.573-6.772 3.745-12.333 5.26-16.343 5.256-2.163.001-3.865-.437-5.081-1.148-1.218-.715-1.965-1.668-2.328-2.85-.251-.826-.373-1.629-.373-2.417.004-1.934.726-3.83 2.345-5.781 1.618-1.945 4.138-3.896 7.611-5.783 10.735-5.839 24.716-14.93 37.939-32.813 14.269-19.303 21.571-45.542 25.353-68.039 3.777-22.498 4.01-41.267 4.011-45.607l-.005-.945-1.891.029v-.001m-1.464 37.833l.359-.157c.695-.285 2.307-.856 3.995-.856 1.366.001 2.767.369 3.81 1.539l.23-.222c-1.12-1.258-2.624-1.644-4.04-1.644-2.339.002-4.475 1.039-4.486 1.043l.133.297m-7.601 35.239c.287-.295 1.163-.532 2.231-.526 1.254 0 2.787.294 4.062.985 1.277.693 2.289 1.766 2.577 3.344l.366-.071c-.312-1.721-1.428-2.893-2.771-3.617-1.346-.727-2.925-1.027-4.234-1.028-1.12.007-2.033.204-2.487.631l.255.283v-.001m-13.898 32.906c.255-.098.704-.163 1.262-.162 1.48-.002 3.748.436 5.735 1.603 1.989 1.171 3.694 3.049 4.132 5.967l.398-.065c-.457-3.063-2.271-5.059-4.333-6.267-2.065-1.211-4.382-1.656-5.933-1.658-.589.001-1.066.063-1.399.187l.138.394h-.001m-21.777 26.479l.193-.011c.629-.004 1.64.324 2.763.958 1.687.948 3.646 2.567 5.172 4.682 1.526 2.116 2.621 4.72 2.621 7.658 0 .819-.085 1.664-.269 2.536l.541.124c.193-.911.282-1.799.282-2.66-.001-4.121-2.044-7.585-4.432-10.012-1.195-1.214-2.479-2.174-3.652-2.833-1.176-.658-2.231-1.024-3.026-1.027l-.257.015.064.572m-24.126 16.621c.438.055 1.088.393 1.782.976 2.096 1.749 4.607 5.633 4.6 10.022 0 1.896-.462 3.891-1.621 5.878l.45.286c1.211-2.072 1.699-4.174 1.698-6.164-.001-3.072-1.155-5.869-2.572-7.94-.709-1.035-1.485-1.89-2.225-2.509-.742-.618-1.439-1.009-2.046-1.093l-.067.544" fill="#2B3F22" sketch:type="MSShapeGroup"/><path d="M205.927 120.513s-1.073 73.104 29.163 113.978c13.125 17.742 26.953 26.732 37.628 32.54 8.519 4.635 11.685 9.743 10.046 15.15-1.667 5.5-10.824 7.201-25.098-.688-20.875-11.535-56.294-42.949-61.394-162.855" fill="#DBE3CB" sketch:type="MSShapeGroup"/><path d="M204.981 120.496l-.005.947c0 4.342.233 23.108 4.01 45.607 3.782 22.498 11.085 48.736 25.354 68.04 13.224 17.882 27.204 26.974 37.939 32.812 3.472 1.886 5.993 3.838 7.61 5.783 1.619 1.951 2.342 3.848 2.345 5.781 0 .788-.123 1.591-.372 2.419-.363 1.18-1.11 2.133-2.328 2.849-1.217.709-2.919 1.148-5.082 1.146-4.01.005-9.572-1.51-16.343-5.255-10.311-5.707-24.193-16.263-36.217-40.373-12.017-24.109-22.132-61.799-24.676-121.658l-1.889.087c2.554 60.048 12.699 98.018 24.886 122.476 12.179 24.458 26.445 35.376 37.009 41.206 6.964 3.845 12.771 5.481 17.23 5.486 2.402-.001 4.424-.478 6.005-1.398 1.58-.913 2.705-2.301 3.207-3.974.303-1.001.46-2.008.46-3.009.004-2.473-.965-4.867-2.807-7.071-1.843-2.209-4.554-4.272-8.163-6.237-10.614-5.778-24.292-14.666-37.317-32.269-13.965-18.865-21.246-44.847-24.99-67.179-3.75-22.33-3.983-41.003-3.982-45.269l.003-.687.002-.228-1.89-.031v-.001" fill="#2B3F22" sketch:type="MSShapeGroup"/><path d="M199.464 118.519c1.183 22.918 3.728 72.78 20.226 109.344 19.068 42.262 41.628 52.542 52.648 53.784 10.013 1.128 9.737-4.117 9.737-4.117s3.958 9.394-9.349 9.249c-13.307-.146-33.646-18.244-43.006-32.296-9.606-14.421-19.506-34.564-25.542-63.71-7.097-34.269-7.228-72.16-7.228-72.16l2.514-.094" fill="#A5B98C" sketch:type="MSShapeGroup"/><path d="M204.981 120.496l-.005.947c0 4.342.233 23.108 4.01 45.607 3.782 22.498 11.085 48.736 25.354 68.04 13.224 17.882 27.204 26.974 37.939 32.812 3.472 1.886 5.993 3.838 7.61 5.783 1.619 1.951 2.342 3.848 2.345 5.781 0 .788-.123 1.591-.372 2.419-.363 1.18-1.11 2.133-2.328 2.849-1.217.709-2.919 1.148-5.082 1.146-4.01.005-9.572-1.51-16.343-5.255-10.284-5.689-24.288-17.053-36.279-41.573-11.986-24.518-21.93-62.213-23.936-120.475l-1.89.07c2.014 58.461 11.991 96.439 24.141 121.297 12.143 24.856 26.487 36.571 37.078 42.418 6.964 3.845 12.771 5.481 17.23 5.486 2.402-.001 4.424-.478 6.005-1.398 1.58-.913 2.705-2.301 3.207-3.974.303-1.001.46-2.008.46-3.009.004-2.473-.965-4.867-2.807-7.071-1.843-2.209-4.554-4.272-8.163-6.237-10.614-5.778-24.292-14.666-37.317-32.269-13.965-18.865-21.246-44.847-24.99-67.179-3.75-22.33-3.983-41.003-3.982-45.269l.003-.687.002-.228-1.89-.031v-.001m3.488 37.568c-.011-.004-2.147-1.041-4.485-1.043-1.417 0-2.922.386-4.04 1.643l.23.223c1.041-1.171 2.444-1.538 3.81-1.539 1.125 0 2.216.253 3.025.507.405.127.737.254.969.349l.359.157.133-.296-.001-.001m7.723 35.254c-.453-.427-1.367-.624-2.487-.631-1.309.001-2.889.301-4.234 1.028-1.343.725-2.459 1.896-2.77 3.617l.367.072c.286-1.579 1.298-2.651 2.575-3.344 1.275-.691 2.807-.985 4.062-.985 1.068-.006 1.944.231 2.232.526l.255-.282m13.781 32.793c-.333-.124-.809-.186-1.399-.187-1.551.002-3.868.447-5.933 1.658-2.064 1.208-3.876 3.204-4.332 6.267l.398.065c.438-2.918 2.143-4.796 4.131-5.967 1.986-1.168 4.255-1.605 5.735-1.603.559-.002 1.008.064 1.263.162l.136-.394m21.707 26.3l-.258-.015c-.794.003-1.849.369-3.026 1.027-1.76.99-3.771 2.652-5.352 4.843-1.581 2.189-2.732 4.913-2.732 8.003 0 .861.09 1.748.284 2.66l.54-.124c-.185-.871-.27-1.717-.27-2.536-.001-3.915 1.949-7.244 4.266-9.601 1.157-1.177 2.404-2.107 3.528-2.739 1.123-.634 2.134-.961 2.763-.958l.194.011.064-.572m23.993 16.651c-.606.084-1.303.475-2.045 1.093-2.212 1.856-4.791 5.838-4.798 10.449-.001 1.99.487 4.092 1.699 6.163l.45-.284c-1.161-1.988-1.622-3.983-1.622-5.879-.001-2.926 1.107-5.625 2.474-7.621.683-.997 1.431-1.818 2.126-2.4.694-.583 1.345-.921 1.783-.976l-.067-.544h-.001" fill="#2B3F22" sketch:type="MSShapeGroup"/><path d="M188.095 113.301s-6.036 86.911 17.68 139.919c10.295 23.011 23.453 36.519 33.88 45.695 8.32 7.323 10.606 13.789 7.506 19.348-3.154 5.656-13.69 5.178-27.602-7.226-20.346-18.141-44.898-56.086-40.777-198.244l9.313.507" fill="#DBE3CB" sketch:type="MSShapeGroup"/><path d="M187.027 113.22c-.002.02-.691 9.937-.691 25.115.001 14.907.664 34.89 3.299 55.572 2.638 20.68 7.24 42.059 15.168 59.784 10.37 23.19 23.672 36.85 34.158 46.075 2.926 2.573 5.059 5.017 6.44 7.288 1.382 2.275 2.011 4.357 2.011 6.274-.002 1.515-.386 2.951-1.178 4.377-.512.913-1.234 1.619-2.204 2.125-.969.502-2.194.793-3.676.793-2.32.003-5.255-.725-8.653-2.403-3.399-1.675-7.258-4.294-11.445-8.029-9.287-8.292-19.438-20.678-27.353-45.723-7.905-25.039-13.508-62.724-13.507-121.374 0-9.525.147-19.601.458-30.266l-2.143-.068c-.312 10.685-.458 20.785-.458 30.333.001 58.796 5.606 96.694 13.613 122.07 7.998 25.37 18.464 38.234 27.995 46.72 4.306 3.838 8.311 6.569 11.922 8.351 3.609 1.78 6.825 2.616 9.571 2.619 1.749 0 3.312-.344 4.633-1.029 1.319-.681 2.385-1.712 3.101-3.002.961-1.721 1.469-3.576 1.468-5.495 0-2.435-.803-4.935-2.344-7.466-1.542-2.533-3.824-5.119-6.866-7.797-10.367-9.127-23.382-22.484-33.6-45.313-7.788-17.402-12.37-38.594-14.986-59.137-2.619-20.544-3.281-40.441-3.281-55.278 0-7.555.171-13.799.343-18.151.085-2.176.171-3.88.235-5.037l.078-1.319.028-.446-2.137-.161" fill="#2B3F22" sketch:type="MSShapeGroup"/><path d="M182.042 147.087s-1.132 49.081 8.274 94.833c10.641 51.757 33.541 68.854 45.438 73.066 10.809 3.827 11.752-2.044 11.752-2.044s2.142 11.412-12.545 7.822c-14.687-3.59-34.037-28.408-39.887-46.81-5.849-18.401-13.816-48.065-15.216-81.834-1.4-33.77-1.104-48.641-1.104-48.641l3.289 3.607" fill="#A5B98C" sketch:type="MSShapeGroup"/><path d="M187.027 113.22c-.002.02-.691 9.937-.691 25.115.001 14.907.664 34.89 3.299 55.572 2.638 20.68 7.24 42.059 15.168 59.784 10.37 23.19 23.672 36.85 34.158 46.075 2.926 2.573 5.059 5.017 6.44 7.288 1.382 2.275 2.011 4.357 2.011 6.274-.002 1.515-.386 2.951-1.178 4.377-.512.913-1.234 1.619-2.204 2.125-.969.502-2.194.793-3.676.793-2.32.003-5.255-.725-8.653-2.403-3.399-1.675-7.258-4.294-11.445-8.029-9.287-8.292-19.438-20.678-27.353-45.723-7.905-25.039-13.508-62.724-13.507-121.374 0-9.525.147-19.601.458-30.266l-2.143-.068c-.312 10.685-.458 20.785-.458 30.333.001 58.796 5.606 96.694 13.613 122.07 7.998 25.37 18.464 38.234 27.995 46.72 4.306 3.838 8.311 6.569 11.922 8.351 3.609 1.78 6.825 2.616 9.571 2.619 1.749 0 3.312-.344 4.633-1.029 1.319-.681 2.385-1.712 3.101-3.002.961-1.721 1.469-3.576 1.468-5.495 0-2.435-.803-4.935-2.344-7.466-1.542-2.533-3.824-5.119-6.866-7.797-10.367-9.127-23.382-22.484-33.6-45.313-7.788-17.402-12.37-38.594-14.986-59.137-2.619-20.544-3.281-40.441-3.281-55.278 0-7.555.171-13.799.343-18.151.085-2.176.171-3.88.235-5.037l.078-1.319.028-.446-2.137-.161m1.102 50.015c-.013-.005-2.702-1.543-5.574-1.546-1.432-.002-2.92.388-4.115 1.566l.246.269c1.112-1.097 2.496-1.465 3.869-1.465 1.375 0 2.73.374 3.738.751.504.188.922.377 1.212.518l.451.232.172-.324m3.817 39.105c-.319-.488-1.012-.876-1.923-1.181-.91-.299-2.041-.494-3.216-.494-1.241 0-2.534.216-3.667.765-1.132.549-2.105 1.44-2.67 2.767l.385.178c.522-1.222 1.404-2.032 2.463-2.547 1.059-.514 2.294-.724 3.489-.724 1.131 0 2.224.188 3.089.473.865.28 1.501.68 1.698 1.005l.353-.243h-.001m10.165 40.289c-.373-.246-.959-.454-1.709-.612-.749-.157-1.655-.257-2.645-.257-1.827.001-3.938.341-5.843 1.314-1.903.971-3.599 2.588-4.55 5.111l.425.173c.91-2.405 2.506-3.925 4.327-4.858 1.82-.932 3.868-1.265 5.641-1.265.959 0 1.839.097 2.554.247.714.148 1.268.356 1.554.547l.245-.401m17.751 34.692c-.334-.121-.732-.174-1.187-.175-2.231.007-5.924 1.301-9.123 3.887-3.191 2.583-5.874 6.495-5.886 11.705l.628.002c.012-4.964 2.554-8.686 5.644-11.193 3.08-2.504 6.722-3.755 8.738-3.748.406-.001.741.05.98.138l.208-.614-.001-.001m22.581 24.601l-.215-.01c-.801.004-1.816.374-2.927 1.035-1.662.995-3.523 2.663-4.979 4.853-1.454 2.189-2.502 4.905-2.502 7.976 0 1.403.219 2.88.717 4.408l.566-.2c-.477-1.466-.685-2.872-.685-4.208-.001-3.893 1.773-7.211 3.908-9.559 1.066-1.173 2.22-2.101 3.273-2.731 1.051-.632 2.01-.957 2.63-.953l.16.008.055-.62" fill="#2B3F22" sketch:type="MSShapeGroup"/><path d="M243.016 139.807l-140.556 19.684c-2.982.418-5.726-1.759-6.128-4.861l-13.028-100.669c-.402-3.103 1.691-5.956 4.674-6.373l140.556-19.685c2.982-.417 5.726 1.759 6.128 4.862l13.028 100.668c.401 3.103-1.691 5.957-4.674 6.374" fill="#405533" sketch:type="MSShapeGroup"/><path d="M243.016 139.807l-.125-.968-140.557 19.684c-.205.028-.408.042-.609.042-2.22 0-4.16-1.711-4.462-4.066l-13.029-100.668c-.028-.215-.041-.426-.041-.634 0-2.309 1.645-4.328 3.909-4.642l140.557-19.685c.205-.028.409-.042.608-.042 2.22-.001 4.16 1.71 4.463 4.067l13.028 100.667c.028.214.041.425.041.634 0 2.308-1.645 4.327-3.908 4.643l.25 1.936c3.207-.451 5.536-3.299 5.536-6.578 0-.296-.018-.593-.057-.894l-13.028-100.668c-.434-3.337-3.171-5.759-6.325-5.76-.284 0-.571.021-.859.061l-140.556 19.684c-3.209.45-5.537 3.298-5.538 6.578 0 .296.02.595.058.895l13.029 100.667c.434 3.337 3.17 5.759 6.324 5.76.284 0 .571-.02.859-.06l140.557-19.685-.126-.968" fill="#2B3F22" sketch:type="MSShapeGroup"/><path d="M97.888 48.043l128.746-17.993 14.009 108.248-128.741 18.028-14.014-108.282" fill="#A5B98C" sketch:type="MSShapeGroup"/><path d="M225.128 32.104l13.541 104.627-125.261 17.542-13.546-104.663 125.267-17.506m3.011-4.106l-132.226 18.479 14.482 111.904 132.221-18.517-14.477-111.865" fill="#202C1C" sketch:type="MSShapeGroup"/><path d="M100.632 102.321c.216 1.665-.908 3.197-2.509 3.422-1.602.225-3.075-.944-3.291-2.61-.215-1.665.908-3.197 2.509-3.422 1.602-.224 3.075.944 3.29 2.61" fill="#5B6B4A" sketch:type="MSShapeGroup"/><path d="M100.632 102.321l-.809.112.019.298c0 1.077-.77 2.023-1.828 2.17l-.285.019c-1.037 0-1.946-.8-2.085-1.9l-.02-.298c0-1.078.769-2.024 1.827-2.17l.286-.02c1.036 0 1.945.8 2.086 1.902l.809-.113.809-.114c-.255-1.955-1.857-3.374-3.705-3.374-.167 0-.335.012-.504.036-1.879.264-3.243 1.931-3.243 3.854 0 .173.011.349.034.524.254 1.954 1.856 3.373 3.705 3.373.165 0 .334-.011.503-.035 1.879-.266 3.244-1.932 3.244-3.854 0-.173-.011-.348-.034-.523l-.809.113" fill="#2B3F22" sketch:type="MSShapeGroup"/><path d="M146.636 65.506l-26.514 3.822 2.543 19.093 23.971-22.915m27.486-26.275l-28.117 3.93-42.311 36.052 3.148 24.332 15.583-14.896-2.587-19.42.113-.157 27.029-3.895 27.141-25.945" fill="#B0C298" sketch:type="MSShapeGroup"/><path d="M103.694 79.214l-1.484 1.265 3.167 24.469 1.466-1.402-3.148-24.332m72.527-41.989l-27.811 3.887-2.406 2.05 28.117-3.93 2.1-2.007" fill="#3B4632" sketch:type="MSShapeGroup"/><path d="M226.529 30.193l13.976 107.994-128.497 17.995-13.982-108.03 128.504-17.96m1.611-2.196l-132.226 18.479 14.482 111.904 132.221-18.517-14.477-111.865m-147.268 43.188l-4.723-42.79-.849.101.372.8c16.231-8.17 38.026-17.023 64.656-22.376 17.967-3.612 34.724-4.944 49.751-4.944 18.65 0 34.635 2.052 46.968 4.346l.151-.876-.85.101c1.587 14.353 3.173 28.707 4.759 43.06l1.698-.203c-1.587-14.353-3.173-28.707-4.759-43.06l-.073-.657-.627-.117c-12.41-2.307-28.499-4.373-47.268-4.373-15.124 0-31.99 1.34-50.075 4.976-26.805 5.388-48.742 14.299-65.076 22.521l-.546.276 4.792 43.416 1.698-.203m-4.479-34.075c16.223-8.166 38.008-17.015 64.624-22.366 17.958-3.61 34.707-4.941 49.726-4.941 18.64 0 34.619 2.051 46.945 4.343l.347-2.014c-12.417-2.31-28.513-4.376-47.292-4.376-15.132 0-32.006 1.342-50.099 4.98-26.818 5.39-48.765 14.306-65.108 22.532l.857 1.843" fill="#2B3F22" sketch:type="MSShapeGroup"/><path d="M184.678 120.424l.133-.019-2.995-22.483 35.284-5.086 2.976 22.346-35.417 5.105.018.137.133-.019-.133.019.019.138 35.68-5.142-3.05-22.895-35.812 5.161 3.049 22.895.133-.018-.019-.138m.001-.001l-.018-.137-56.663 8.166-7.875-59.125 56.531-8.149 7.893 59.264.132-.019-.018-.137.018.137.133-.019-7.912-59.401-.15-.118-56.796 8.185-.113.157 7.912 59.401.052.091.098.026 56.796-8.185.088-.054.025-.103-.133.019m-3.013-22.619l.133-.02-4.88-36.642 35.284-5.086 4.862 36.505-35.416 5.105.018.138.133-.02-.133.02.018.137 35.548-5.124.089-.053.025-.103-4.899-36.78-.151-.119-35.548 5.124-.113.156 4.898 36.78.052.091.099.027-.018-.137m15.006 6.152l-.132.019 1.899 14.264-13.656 1.969-1.881-14.128 13.788-1.988-.018-.137-.132.019.132-.019-.018-.137-13.92 2.006-.114.156 1.919 14.402.051.092.099.026 13.92-2.007.089-.054.025-.102-1.918-14.402-.151-.118.018.137m-6.121.884l-.018-.137-7.668 1.104-1.05-7.881 7.535-1.086 1.068 8.019.133-.019-.018-.137.018.137.132-.019-1.087-8.157-.15-.118-7.799 1.124-.114.156 1.087 8.157.053.091.098.027 7.799-1.125.088-.053.025-.103-.132.019m-.243-1.824l.132-.018-.825-6.196 5.857-.845.807 6.059-5.989.863.018.137.132-.018-.132.018.018.137 6.121-.881.089-.054.025-.102-.843-6.334-.15-.118-6.121.882-.114.156.843 6.333.052.092.098.026-.018-.137" fill="#5F8C45" sketch:type="MSShapeGroup"/><path d="M176.676 60.337c-29.052 4.187-50.054 30.012-50.054 59.676 0 2.763.182 5.559.557 8.374.051.379.388.645.752.592.365-.052.62-.403.57-.782-.368-2.752-.545-5.484-.545-8.183 0-28.977 20.518-54.212 48.902-58.302.365-.053.62-.403.569-.782-.05-.38-.387-.644-.751-.592m41.198 32.247c-2.524-18.944-18.085-32.64-35.962-32.64-1.666 0-3.351.119-5.046.363-.365.053-.62.404-.569.783.05.379.387.644.753.592 1.633-.236 3.256-.351 4.862-.351 17.216 0 32.211 13.193 34.641 31.442.051.38.387.645.752.592.365-.052.62-.403.569-.782m-19.184 26.521c11.269-1.625 19.417-11.642 19.417-23.15 0-1.072-.071-2.157-.216-3.248-.051-.38-.387-.645-.752-.592-.364.052-.62.403-.569.782.136 1.028.203 2.049.203 3.058-.001 10.821-7.663 20.249-18.265 21.776-.365.053-.621.404-.57.782.051.38.388.645.753.593l-.001-.001m-16.599-13.049c1.017 7.628 7.283 13.145 14.484 13.145.671 0 1.349-.048 2.032-.146.364-.053.619-.403.57-.782-.051-.38-.387-.645-.752-.593-.623.089-1.24.133-1.849.133-6.541 0-12.24-5.013-13.163-11.948-.05-.38-.387-.645-.751-.592-.365.053-.62.404-.57.782m7.282-10.062c-4.278.617-7.37 4.417-7.37 8.787 0 .406.026.818.083 1.233.051.38.388.645.753.592.364-.053.619-.404.568-.784-.047-.35-.07-.697-.07-1.04 0-3.683 2.609-6.894 6.22-7.414.365-.052.62-.402.569-.781-.05-.381-.387-.646-.751-.593m7.714 6.042c-.474-3.549-3.387-6.116-6.739-6.116-.312 0-.628.022-.946.068-.365.053-.619.404-.567.783.052.38.389.644.754.59.254-.037.507-.054.759-.054 2.691 0 5.039 2.062 5.418 4.919.05.379.387.644.752.592.365-.052.62-.403.569-.782" fill="#405533" sketch:type="MSShapeGroup"/><path d="M212.602 59.069l-8.779 8.552c4.316 3.403 7.905 7.804 10.421 12.931l1.075-1.077-2.717-20.406m14.112-13.749l-13.874 13.516 2.717 20.4 13.872-13.896-.199-1.539-2.516-18.481" fill="#B0C298" sketch:type="MSShapeGroup"/><path d="M229.231 63.802l.199 1.539.009-.009-.208-1.53" fill="#3B4632" sketch:type="MSShapeGroup"/><path d="M212.84 58.837l-.238.233 2.717 20.406.238-.238-2.717-20.4" fill="#779B5B" sketch:type="MSShapeGroup"/><path d="M172.556 122.311l-29.187 4.206-28.171 27.446 21.394-2.938 8.484-1.188 27.48-27.526m10.985-11.434l.051.38.093-.093-.144-.287m2.359-13.544l-4.085.589.566 4.248c.591-1.988 1.841-3.706 3.519-4.837m13.54-1.951l-3.704.534.373 2.802 3.331-3.336m-18.907-5.069l-36.826 35.876 29.175-4.205 10.471-10.489-.195-1.464c-.516-1.239-.881-2.572-1.068-3.975l-.002-.019-.004-.025c-.056-.415-.083-.826-.083-1.233 0-.655.069-1.296.202-1.916l-1.672-12.552m22.302-21.728l-22.064 21.495 1.009 7.567 4.715-.679c.872-.488 1.841-.825 2.879-.975l.011-.002.02-.003c.318-.047.635-.068.946-.068.602 0 1.19.082 1.754.239l7.663-1.104 13.472-13.496c-2.466-5.171-6.06-9.596-10.404-12.974" fill="#B0C298" sketch:type="MSShapeGroup"/><path d="M145.077 149.838l-8.484 1.188 8.458-1.161.026-.026" fill="#3B4632" sketch:type="MSShapeGroup"/><path d="M183.159 110.032l.195 1.464v-.001l-.195-1.462v-.001m3.335-13.064l-4.715.679 4.714-.679h.001m13.272-1.913l-7.663 1.104 3.463-.499 4.199-.605m-26.882 26.929l-29.175 4.205-.338.329 29.187-4.206.327-.327m10.276-11.952l.195 1.462-.195-1.462m-1.344-12.111l.566 4.248-.566-4.248m4.084-.589l-4.085.589 4.085-.589m13.866-2.278l-4.199.605.15.118.018.138 3.704-.534.327-.327m-18.996-4.975l-.238.233 1 7.51.114-.156.133-.019-1.009-7.567m2.389 19.952l.195 1.462.238-.237-.051-.38c-.134-.277-.262-.558-.382-.845m3.335-13.065l-4.714.679-.133.019-.114.156.672 5.042c.049-.235.109-.466.176-.694l-.566-4.248 4.085-.589c.192-.13.391-.251.593-.365" fill="#779B5B" sketch:type="MSShapeGroup"/><path d="M195.472 95.954l-.935.135-1.842.266c1.266.485 2.369 1.354 3.162 2.489l-.385-2.89" fill="#B0C298" sketch:type="MSShapeGroup"/><path d="M194.537 96.089l-1.843.266h.001l1.842-.266" fill="#779B5B" sketch:type="MSShapeGroup"/><path d="M190.35 97.308c-.219 0-.441.013-.662.041l.734 5.507 1.818-.262 2.694-2.699c-.99-1.58-2.703-2.588-4.583-2.588" fill="#B0C298" sketch:type="MSShapeGroup"/><path d="M189.689 97.349h-.001l.524 3.927-.523-3.927" fill="#779B5B" sketch:type="MSShapeGroup"/><path d="M189.746 105.093l-6.314.91c.212 1.485.643 2.882 1.256 4.156l5.058-5.066m2.168-2.172l-1.455.21.147 1.1 1.309-1.31m-2.49-5.534c-3.542.578-6.087 3.755-6.087 7.393 0 .312.019.629.058.948l4.087-.589 2.591-.373.296-.296-.191-1.437-.001-.001-.752-5.644" fill="#B0C298" sketch:type="MSShapeGroup"/><path d="M190.072 104.765l-2.591.373 2.59-.373.001-.001m-.001.002l-2.59.373-4.087.589.012.092.004.035.001.007.019.142 6.314-.91.326-.327m.105-1.734l.191 1.437.237-.238-.147-1.1-.133.018-.098-.026-.051-.091m-.486-5.684l-.097.013-.022.003-.013.002-.133.021.752 5.644.001.001.051.091.098.026.133-.018 1.455-.21.327-.327-1.818.262-.735-5.507m5.88-1.688l-3.463.499c.2.056.397.121.59.195l1.843-.266.935-.135.385 2.89.052.076.2-.201-.391-2.94-.15-.118" fill="#779B5B" sketch:type="MSShapeGroup"/><path d="M203.824 67.622l-.988.963c4.344 3.378 7.937 7.803 10.404 12.974l1.006-1.007c-2.516-5.127-6.105-9.528-10.421-12.931m-20.414 38.234c.032.366-.219.698-.572.75l-.094.006c-.319 0-.599-.239-.656-.573l.001.013c.188 1.41.553 2.743 1.069 3.982v.001c.119.287.248.568.382.845l.144.287 1.002-1.004c-.613-1.275-1.044-2.672-1.256-4.156l-.019-.138-.001-.011m5.973-9.866l-.007.001c-1.042.151-2.011.488-2.882.976h-.001c-.203.114-.401.236-.593.365-1.678 1.131-2.928 2.85-3.519 4.837-.068.228-.127.459-.176.694-.133.62-.202 1.261-.202 1.916 0 .406.026.818.083 1.233l.004.025c.056.334.336.573.656.573l.094-.006c.354-.052.604-.383.572-.75l-.004-.035-.012-.092c-.039-.319-.058-.635-.058-.948 0-3.638 2.545-6.815 6.087-7.393l.133-.021.013-.002-.073.005c-.327 0-.613-.25-.659-.597-.051-.372.192-.717.547-.781m.963-.071c-.312 0-.628.022-.946.068l-.02.003c-.355.064-.598.409-.547.781.047.347.333.597.659.597l.073-.005.015-.001.104-.015h.001c.221-.028.442-.041.662-.041 1.88 0 3.593 1.007 4.583 2.588l.975-.976-.052-.076c-.793-1.135-1.897-2.004-3.162-2.489h-.001c-.193-.074-.39-.14-.59-.195-.563-.157-1.152-.239-1.754-.239" fill="#5A6B48" sketch:type="MSShapeGroup"/></g></svg>