<svg width="320" height="331" viewBox="0 0 320 331" xmlns="http://www.w3.org/2000/svg" xmlns:sketch="http://www.bohemiancoding.com/sketch/ns"><title>Imported Layers</title><desc>Created with Sketch.</desc><g sketch:type="MSLayerGroup" fill="none"><path d="M63.619 45.784l-16.09-3.391-.326-1.558 13.098-10.936.494 2.368-10.72 8.6 13.041 2.515.501 2.4" fill="#A5B98C" sketch:type="MSShapeGroup"/><path d="M68.292 39.653l-1.31.297-3.505-13.595 2.581-.583 2.233 13.882zm-1.365 4.343c-.246-1.176.13-1.878 1.128-2.103.482-.11.886-.041 1.211.202.325.244.548.651.667 1.222.116.553.072 1.013-.131 1.381-.202.367-.539.604-1.014.711-.432.098-.818.043-1.157-.166-.341-.208-.576-.624-.705-1.246zM87.182 30.739c.654 3.131.338 5.708-.951 7.734-1.288 2.026-3.465 3.384-6.533 4.078l-5.051 1.141-3.961-18.966 5.588-1.263c2.835-.641 5.208-.321 7.122.959 1.913 1.278 3.175 3.385 3.786 6.316zm-2.228.584c-.517-2.473-1.503-4.201-2.958-5.186-1.454-.984-3.358-1.211-5.711-.68l-3.081.697 3.164 15.153 2.581-.583c2.528-.572 4.293-1.648 5.295-3.228 1.001-1.58 1.238-3.638.709-6.172zM107.106 26.4c.634 3.035.394 5.589-.718 7.66-1.114 2.073-2.982 3.406-5.61 3.999-2.684.606-4.935.221-6.751-1.157-1.816-1.379-3.049-3.625-3.699-6.738-.645-3.088-.413-5.646.695-7.676 1.109-2.031 3.01-3.35 5.703-3.958 2.619-.593 4.845-.19 6.678 1.208 1.833 1.396 3.068 3.617 3.703 6.662zm-14.529 3.282c.537 2.568 1.468 4.397 2.798 5.487 1.33 1.09 2.996 1.409 4.999.956 2.02-.457 3.407-1.463 4.161-3.019.756-1.556.864-3.622.326-6.2-.534-2.552-1.451-4.371-2.753-5.458-1.303-1.086-2.959-1.402-4.971-.948-2.021.457-3.418 1.467-4.192 3.033-.775 1.565-.897 3.614-.369 6.148zM117.359 15.958c-2.004.453-3.441 1.505-4.31 3.155-.871 1.651-1.052 3.681-.549 6.095.519 2.483 1.477 4.274 2.879 5.374 1.4 1.101 3.135 1.418 5.207.95 1.272-.288 2.673-.853 4.203-1.697l.404 1.933c-1.162.78-2.668 1.378-4.524 1.797-2.684.607-4.934.227-6.747-1.138-1.813-1.366-3.046-3.609-3.698-6.731-.408-1.954-.415-3.746-.018-5.375.396-1.631 1.173-2.992 2.333-4.087 1.159-1.095 2.638-1.846 4.432-2.252 1.913-.432 3.659-.446 5.242-.043l-.502 2.096c-1.521-.362-2.972-.388-4.352-.076M134.882 30.08l-2.121.478-3.551-17.006-5.774 1.304-.409-1.958 13.669-3.09.409 1.958-5.775 1.306 3.552 17.007M146.058 17.624l2.883-10.581 2.295-.52-3.661 12.985 1.537 7.356-2.146.485-1.514-7.252-8.52-10.342 2.319-.523 6.807 8.392" fill="#A5B98C" sketch:type="MSShapeGroup"/><path d="M166.457 8.869c.4 1.921.08 3.54-.963 4.859-1.045 1.317-2.738 2.241-5.083 2.771l-2.145.484 1.558 7.46-2.12.48-3.961-18.967 4.726-1.068c4.556-1.03 7.218.298 7.988 3.981zm-8.587 6.221l1.908-.431c1.879-.425 3.172-1.047 3.88-1.87.708-.82.916-1.927.626-3.319-.262-1.255-.853-2.099-1.77-2.536-.918-.435-2.212-.464-3.884-.086l-2.369.535 1.609 7.706zM183.244 19.15l-10.164 2.297-3.96-18.966 10.164-2.296.408 1.958-8.043 1.819 1.276 6.109 7.557-1.707.406 1.947-7.557 1.707 1.457 6.978 8.044-1.818.412 1.972" fill="#A5B98C" sketch:type="MSShapeGroup"/><path d="M160.72 260.945c-4.337 0-8.627.047-12.866.139-.405 1.395-.816 2.753-1.235 4.079-7.997 25.371-18.463 38.235-27.994 46.721-4.307 3.838-8.312 6.569-11.922 8.351-3.61 1.78-6.826 2.616-9.571 2.618-1.75 0-3.313-.343-4.633-1.028-1.319-.681-2.385-1.712-3.101-3.001-.963-1.722-1.47-3.577-1.468-5.496 0-2.436.804-4.935 2.344-7.466 1.542-2.533 3.824-5.119 6.866-7.797 8.888-7.825 19.722-18.758 29.071-36.104-8.185.49-16.092 1.151-23.655 1.968-7.933 9.362-15.81 14.857-22.292 18.433-6.966 3.845-12.773 5.482-17.231 5.486-2.402-.001-4.424-.479-6.004-1.398-1.58-.913-2.705-2.301-3.207-3.974-.304-1.001-.461-2.008-.461-3.009-.004-2.473.965-4.867 2.808-7.071.169-.201.343-.401.526-.601-24.418 6.245-39.402 14.687-39.402 23.978 0 19.235 64.215 34.829 143.428 34.829s143.428-15.594 143.428-34.829c0-15.792-43.284-29.13-102.613-33.398 7.763 14.867 16.707 24.942 24.239 32.432 2.752 2.736 4.816 5.346 6.209 7.863 1.391 2.515 2.114 4.954 2.115 7.299.003 2.154-.624 4.201-1.805 6.045-.729 1.146-1.741 2.054-2.959 2.656-1.218.604-2.634.906-4.195.906-2.788-.003-6.047-.95-9.685-2.951-3.637-2.003-7.655-5.07-11.93-9.376-7.796-7.841-16.111-18.998-22.418-38.565-.761-2.361-1.494-4.846-2.194-7.462-5.959-.184-12.029-.278-18.193-.278" fill="#ECECEC" sketch:type="MSShapeGroup"/><path d="M299.136 157.717c-4.268-.068-9.91-.593-16.294-2.416-5.928-1.694-10.817-3.671-14.387-5.724 2.299-15.027 4.791-30.573 7.096-45.614.153-.995.87-1.795 1.816-2.008 4.271-.959 12.134-1.971 21.127 1.074 6.712 2.273 11.499 5.94 14.419 8.659.871.812 1.177 2.084.792 3.231-4.433 13.218-9.448 28.647-14.569 42.797" fill="#5F8C45" sketch:type="MSShapeGroup"/><path d="M299.136 157.717l.016-1.085c-4.201-.067-9.752-.583-16.034-2.378-5.868-1.675-10.692-3.633-14.158-5.627l-.505.95 1.03.171c2.298-15.021 4.791-30.569 7.096-45.614.086-.561.486-1.002 1.007-1.118 2.064-.463 4.993-.94 8.489-.94 3.55 0 7.682.491 12.094 1.985 6.536 2.213 11.201 5.787 14.047 8.437.395.368.607.884.607 1.421 0 .214-.034.432-.106.646l.001-.002c-4.435 13.225-9.447 28.646-14.561 42.772l.976.382.016-1.085-.016 1.085.976.383c5.13-14.175 10.146-29.612 14.578-42.822v-.002c.148-.443.221-.902.221-1.358.001-1.135-.455-2.249-1.302-3.038-2.995-2.788-7.904-6.55-14.793-8.883-4.649-1.575-9.005-2.092-12.739-2.092-3.678 0-6.756.501-8.93.99-1.373.309-2.408 1.467-2.625 2.897-2.305 15.035-4.798 30.581-7.096 45.614l-.115.751.641.369c3.672 2.11 8.627 4.109 14.614 5.82 6.486 1.853 12.218 2.386 16.555 2.455l.733.012.259-.714-.976-.383" fill="#2B3F22" sketch:type="MSShapeGroup"/><path d="M298.809 158.54c-.549 2.39-7.71 2.401-16.292.268-8.581-2.135-14.764-5.738-14.215-8.129.549-2.39 7.447-2.356 16.03-.221 8.582 2.134 15.027 5.691 14.477 8.082" fill="#7A9C5E" sketch:type="MSShapeGroup"/><path d="M298.809 158.54l-1.052-.262c-.009.023-.012.066-.149.184-.198.172-.696.404-1.425.551-.728.151-1.675.234-2.781.233-2.778.002-6.542-.515-10.634-1.534-4.038-1.003-7.532-2.343-9.952-3.685-1.209-.667-2.149-1.34-2.733-1.92-.292-.289-.493-.552-.603-.751-.112-.203-.13-.326-.13-.373l.003-.032.003-.008c.011-.034.017-.075.142-.186.181-.163.643-.388 1.333-.53.688-.147 1.591-.228 2.652-.227 2.718-.002 6.457.525 10.597 1.557 4.049 1.005 7.612 2.339 10.1 3.676 1.243.666 2.215 1.337 2.822 1.916.304.288.513.551.627.75.116.201.131.317.13.353l-.004.037.003-.008 1.052.262 1.055.253c.039-.175.061-.359.061-.544-.001-.56-.183-1.069-.441-1.516-.46-.783-1.164-1.45-2.066-2.116-1.355-.991-3.181-1.95-5.365-2.849-2.182-.896-4.72-1.723-7.469-2.407-4.267-1.06-8.126-1.617-11.101-1.619-1.554.003-2.866.146-3.932.502-.533.181-1.012.416-1.424.763-.409.342-.75.832-.879 1.408l.002-.008c-.046.194-.066.387-.066.572.001.549.171 1.054.42 1.501.442.784 1.125 1.458 2.004 2.13 1.319 1 3.103 1.968 5.251 2.872 2.148.903 4.658 1.735 7.406 2.418 4.224 1.049 8.112 1.594 11.137 1.596 1.611-.003 2.975-.149 4.078-.506.552-.182 1.045-.416 1.47-.763.421-.341.779-.835.912-1.427l.002-.009-1.055-.253" fill="#2B3F22" sketch:type="MSShapeGroup"/><path d="M318.069 147.773s2.363 12.231-6.148 22.872c-8.51 10.64-23.153 10.519-35.169 6.168 0 0-2.499-.152-1.62-2.568.879-2.418 3.176-8.435 3.176-8.435s-.37 1.192 4.116 2.376c4.485 1.185 10.541 2.661 16.898-.412 6.356-3.071 6.883-10.34 6.558-12.642 0 0 .067-10.761-13.757-15.63-13.824-4.87-24.31-2.952-26.93-9.884-2.62-6.932-.016-13.292 9.032-14.449s20.403.577 29.427 8.65c9.025 8.073 13.742 15.64 14.418 23.955M267.556 159.549c-.844-.718-12.458-11.582-16.843-22.492-4.385-10.909-6.289-17.997-6.289-17.997l.499 4.249-1.761-5.44c0 .001-2.354 19.583-1.015 20.873 1.339 1.29 9.132 16.513 11.784 19.751 2.652 3.239 8.827 11.749 10.484 10.253 0 0 6.454 4.853 11.439 7.272 4.985 2.419 6.191-7.965 6.191-7.965.001 0-7.969-3.541-14.489-8.505" fill="#DBE3CB" sketch:type="MSShapeGroup"/><path d="M290.402 179.852c20.475 1.828 28.192-21.719 27.251-23.021-2.454 7.535-5.416 14.46-16.194 18.76-11.541 4.604-26.832-1.717-36.044-9.674-12.886-11.128-23.184-33.28-23.184-33.28l-.742 6.105 2.578 4.183c4.109 10.299 17.3 24.572 18.853 25.622 2.895 1.959 13.841 11.806 27.483 11.305" fill="#A5B98C" sketch:type="MSShapeGroup"/><path d="M237.545 126.094c.173 1.259.765 3.583 1.844 6.696 3.237 9.311 10.828 25.462 24.409 37.259 1.649 1.428 4.217 3.05 6.402 4.346 2.181 1.292 3.964 2.24 3.972 2.243l.013.007.019.009c5.927 2.833 11.787 4.111 17.163 4.111 5.696 0 10.852-1.434 14.968-3.985 7.077-4.393 12.831-13.335 12.834-24.633 0-2.045-.19-4.165-.592-6.346-1.303-7.055-4.757-13.42-9.751-18.579-4.994-5.16-11.529-9.119-19.022-11.395-4.282-1.299-8.144-1.894-11.519-1.895-4.174.002-7.613.908-10.161 2.56-2.548 1.645-4.186 4.086-4.625 6.961-.11.704-.164 1.381-.164 2.033-.007 2.551.855 4.699 2.344 6.328 1.487 1.633 3.551 2.764 5.969 3.523 2.932.919 6.265 1.443 9.721 2.107 3.456.663 7.031 1.464 10.43 2.888 5.022 2.104 8.382 4.481 10.462 6.979 2.078 2.503 2.917 5.108 2.924 7.882 0 1.765-.353 3.603-.991 5.49-.8 2.361-2.34 4.387-4.54 5.843-2.2 1.454-5.07 2.333-8.521 2.333-3.554.001-7.721-.936-12.364-3.143l-.36.819.377-.811-.268-.137c-1.225-.632-6.43-3.407-9.804-6.241-9.649-8.083-15.795-19.178-19.508-28.261-1.858-4.54-3.109-8.573-3.894-11.466-.392-1.446-.669-2.608-.846-3.405l-.194-.912-.046-.233-.014-.074-1.701.336c.008.043 1.317 7.208 5.1 16.459 3.786 9.248 10.046 20.596 20.016 28.958 2.059 1.725 4.647 3.36 6.732 4.579 2.083 1.217 3.66 2.011 3.672 2.016l.013.007.004.002c4.83 2.295 9.238 3.306 13.084 3.306 3.732.001 6.938-.955 9.449-2.614 2.511-1.656 4.318-4.019 5.246-6.765.688-2.036 1.088-4.073 1.088-6.088.006-3.167-1.013-6.272-3.346-9.062-2.332-2.796-5.936-5.296-11.123-7.47-3.581-1.5-7.273-2.318-10.763-2.989-3.489-.668-6.778-1.194-9.535-2.061-2.226-.698-4.01-1.713-5.211-3.037-1.198-1.328-1.863-2.945-1.87-5.09 0-.547.046-1.129.141-1.747.37-2.348 1.644-4.289 3.832-5.719 2.187-1.423 5.309-2.288 9.245-2.287 3.179 0 6.885.562 11.035 1.822 7.234 2.196 13.514 6.012 18.286 10.944 4.773 4.932 8.038 10.971 9.271 17.64.383 2.071.561 4.076.561 6.006.003 10.643-5.432 19.019-11.99 23.085-3.811 2.366-8.663 3.733-14.08 3.733-5.113 0-10.727-1.216-16.441-3.946l-.362.818.394-.802-.305-.164c-.693-.375-2.476-1.356-4.417-2.532-1.939-1.172-4.046-2.555-5.331-3.673-8.818-7.652-15.096-17.267-19.234-25.532-2.069-4.131-3.604-7.923-4.656-10.956-1.052-3.023-1.624-5.322-1.758-6.336l-1.714.251M292.462 169.947l.014.014c.175.163 1.719 1.718 1.712 4.176-.001 1.428-.506 3.188-2.141 5.235l.482.417c1.709-2.134 2.287-4.058 2.286-5.653-.007-2.939-1.917-4.656-1.943-4.683l-.411.493M265.063 156.981l.005.055c.011.114.032.402.032.801.001.948-.127 2.525-.8 3.916-.678 1.389-1.854 2.599-4.072 2.934l.089.646c2.415-.352 3.809-1.751 4.543-3.288.74-1.537.865-3.202.866-4.208 0-.565-.04-.923-.042-.933l-.622.079v-.001M248.912 132.634l-.002.072c-.012.373-.126 2.128-.903 3.756-.388.814-.937 1.595-1.715 2.175-.779.579-1.786.967-3.134.984l.007.652c1.559-.016 2.764-.509 3.665-1.24 1.353-1.1 2.021-2.704 2.36-4.017.338-1.316.348-2.357.348-2.376l-.627-.005v-.001" fill="#2B3F22" sketch:type="MSShapeGroup"/><path d="M273.813 132.127c0 .001 6.786-.615 17.485 2.732 10.699 3.348 15.234 12.175 15.526 18.566 0 0-1.902-12.783-22.309-17.12-3.618-.77-10.652-.138-10.702-4.178" fill="#A5B98C" sketch:type="MSShapeGroup"/><path d="M285.208 115.709c-.036.028-4.081 3.305-4.787 10.268-.074.73-.108 1.418-.108 2.065-.003 5.479 2.423 7.991 3.025 8.512l.404-.499c-.496-.439-2.799-2.744-2.802-8.014 0-.624.032-1.288.104-1.997.341-3.359 1.485-5.817 2.541-7.438.528-.81 1.035-1.41 1.407-1.805.186-.198.338-.344.443-.441l.119-.106.037-.032-.384-.515M317.42 142.729c-.025-.011-1.527-.715-3.66-.716-1.431 0-3.148.32-4.87 1.39-1.721 1.068-3.437 2.881-4.88 5.824l.559.297c1.4-2.855 3.033-4.561 4.642-5.561 1.611-.999 3.206-1.297 4.548-1.297 1 0 1.856.167 2.46.333.302.083.541.166.702.227l.183.073.057.025.257-.594M271.647 135.33c2.932.919 6.265 1.443 9.721 2.107 3.456.663 7.031 1.464 10.43 2.888 5.022 2.103 8.382 4.481 10.462 6.979 2.078 2.503 2.917 5.108 2.924 7.882 0 1.765-.353 3.603-.991 5.49l1.633.598c.688-2.036 1.088-4.073 1.088-6.088.006-3.167-1.013-6.272-3.346-9.062-2.332-2.796-5.936-5.296-11.123-7.471-3.581-1.499-7.273-2.317-10.763-2.988-3.489-.669-6.778-1.194-9.535-2.061l-.499 1.725h-.001" fill="#2B3F22" sketch:type="MSShapeGroup"/><path d="M276.023 110.033c1.7-1.492 4.899-1.386 4.867 1.165-.032 2.587-6.092 4.412-7.548 12.105-1.385 7.318 1.681 13.951 2.398 15.817.716 1.864-1.779 3.165-3.878 1.025-2.984-3.042-8.143-19.317 4.16-30.112" fill="#5F8C45" sketch:type="MSShapeGroup"/><path d="M276.023 110.033l.672.829c.495-.444 1.276-.723 1.913-.717.439-.001.779.123.952.271.09.075.149.152.198.259.048.109.087.257.088.483l.002.094 1.041-.055-1.043-.015c-.002.1-.027.222-.136.424-.185.35-.647.863-1.273 1.466-.936.914-2.212 2.063-3.382 3.661-1.171 1.597-2.229 3.66-2.738 6.359-.264 1.396-.375 2.765-.375 4.079.001 2.987.566 5.694 1.202 7.849.318 1.078.654 2.019.947 2.785.292.764.544 1.362.679 1.715l.05.236c-.005.11-.023.152-.113.239-.091.08-.277.17-.552.17-.39-.001-.956-.18-1.564-.798-.274-.275-.657-.814-1.036-1.542-1.154-2.192-2.316-6.06-2.311-10.391 0-2.713.446-5.611 1.595-8.448 1.151-2.837 3-5.62 5.854-8.126l-1.345-1.658c-3.101 2.718-5.161 5.801-6.432 8.942-1.272 3.141-1.758 6.332-1.758 9.29.001 3.155.551 6.047 1.307 8.379.379 1.167.809 2.193 1.258 3.05.452.857.91 1.543 1.407 2.053.933.953 2.016 1.418 3.025 1.417.701 0 1.369-.224 1.889-.674.52-.442.868-1.147.862-1.904 0-.349-.069-.703-.2-1.043-.159-.413-.398-.979-.678-1.71-.836-2.183-2.002-5.782-2-9.833 0-1.189.099-2.416.335-3.661.684-3.574 2.381-5.721 4.016-7.404.818-.84 1.619-1.542 2.278-2.264.329-.363.627-.734.863-1.161.233-.423.405-.924.411-1.471l.001-.036-.002-.034-.639.034.64-.003-.001-.031-.639.034.64-.003v-.015c0-.499-.093-.977-.283-1.398-.281-.636-.775-1.111-1.317-1.389-.544-.282-1.136-.394-1.725-.395-1.148.006-2.324.417-3.258 1.227l.672.829" fill="#2B3F22" sketch:type="MSShapeGroup"/><path d="M46.43 188.304c32.727-14.752 51.284-72.949 52.026-75.431l-6.933-5.856c-9.967 37.174-31.041 62.145-45.631 69.904-.166 3.758.082 7.572.538 11.384" fill="#DBE3CB" sketch:type="MSShapeGroup"/><path d="M96.656 108.122c-3.876 14.456-18.751 50.669-38.268 68.359-2.307 2.091-6.663 5.607-12.332 8.11.103 1.306.24 2.614.398 3.922 32.779-14.233 51.26-73.157 52.001-75.638l-1.8-4.751" fill="#A5B98C" sketch:type="MSShapeGroup"/><path d="M47.349 177.114c17.185-9.932 29.234-29.555 37.107-47.419 3.191-7.25 5.818-14.767 7.875-22.444l-1.615-.468c-2.034 7.592-4.631 15.022-7.785 22.187-7.785 17.703-19.739 37.023-36.396 46.62l.814 1.526v-.001M97.64 112.674c-3.208 14.242-11.135 26.819-17.412 39.772l.749.393-.712-.461c-8.082 13.501-17.965 27.502-33.227 34.693l.693 1.589c15.774-7.445 25.829-21.793 33.958-35.36l.022-.037.015-.031c6.205-12.835 14.236-25.519 17.547-40.158l-1.632-.398M72.771 149.87l.054.003c.284.016 1.647.145 3.009.922 1.363.782 2.727 2.172 3.119 4.813l.602-.095c-.439-3.032-2.15-4.637-3.724-5.433-1.576-.802-3.017-.842-3.042-.844l-.017.634M54.035 171.744l.04.02c.223.111 1.309.698 2.329 1.985 1.022 1.289 1.987 3.269 1.989 6.226l-.005.396.609.016.005-.413c.002-3.312-1.171-5.528-2.349-6.896-1.177-1.37-2.351-1.903-2.376-1.916l-.243.582v-.001M47.345 177.117c10.543-5.999 19.803-16.114 27.427-28.395 7.622-12.282 13.608-26.739 17.559-41.471l-1.615-.468c-3.908 14.577-9.837 28.887-17.353 40.994-7.514 12.11-16.614 22.007-26.823 27.81l.805 1.53M97.64 112.674c-3.208 14.242-11.135 26.819-17.412 39.772l.749.393-.712-.461c-8.082 13.501-17.965 27.502-33.227 34.693l.693 1.589c15.774-7.445 25.829-21.793 33.958-35.36l.022-.037.015-.031c6.205-12.835 14.236-25.519 17.547-40.158l-1.632-.398" fill="#2B3F22" sketch:type="MSShapeGroup"/><path d="M184.362 107.095s-11.08 86.372 9.511 140.776c8.938 23.616 21.286 37.928 31.16 47.743 7.88 7.832 9.787 14.431 6.368 19.785-3.476 5.446-13.965 4.307-27.13-8.95-19.255-19.388-41.555-58.808-29.175-200.446l9.267 1.092" fill="#DBE3CB" sketch:type="MSShapeGroup"/><path d="M183.299 106.948c-.004.032-2.986 23.277-2.986 53.285.004 27.888 2.561 61.603 12.563 88.047 9.004 23.801 21.486 38.273 31.417 48.14 2.646 2.63 4.578 5.096 5.832 7.364 1.255 2.271 1.829 4.328 1.829 6.187-.004 1.711-.474 3.283-1.446 4.813-.52.812-1.209 1.434-2.095 1.875-.886.439-1.976.689-3.273.689-2.312.003-5.268-.81-8.682-2.693-3.414-1.879-7.283-4.819-11.442-9.007-7.602-7.662-15.659-18.416-21.875-37.672-6.211-19.252-10.543-47.005-10.542-88.504 0-20.788 1.087-45.025 3.564-73.368l-2.135-.201c-2.482 28.397-3.572 52.699-3.572 73.569.002 41.659 4.342 69.642 10.653 89.214 6.306 19.567 14.622 30.724 22.418 38.565 4.275 4.306 8.293 7.373 11.93 9.376 3.637 2.001 6.897 2.948 9.685 2.951 1.561 0 2.976-.302 4.195-.906 1.218-.602 2.23-1.51 2.959-2.656 1.181-1.844 1.807-3.891 1.805-6.045-.001-2.345-.724-4.783-2.115-7.299-1.393-2.517-3.457-5.127-6.209-7.863-9.817-9.763-22.032-23.914-30.905-47.346-9.835-25.965-12.419-59.491-12.413-87.229 0-14.927.742-28.184 1.484-37.703.371-4.76.743-8.585 1.021-11.219.139-1.317.255-2.336.336-3.025l.126-1.042-2.124-.296" fill="#2B3F22" sketch:type="MSShapeGroup"/><path d="M176.119 144.028s-3.748 45.331 2.981 91.592c7.612 52.33 29.477 70.837 41.107 75.79 10.566 4.501 11.849-1.301 11.849-1.301s1.474 11.526-12.978 7.019c-14.451-4.508-32.323-30.498-37.092-49.233-4.769-18.736-10.996-48.847-10.431-82.642.566-33.795 1.726-48.621 1.726-48.621l2.837 7.397" fill="#A5B98C" sketch:type="MSShapeGroup"/><path d="M183.299 106.948c-.004.032-2.986 23.277-2.986 53.285.004 27.888 2.561 61.603 12.563 88.047 9.004 23.801 21.486 38.273 31.417 48.14 2.646 2.63 4.578 5.096 5.832 7.364 1.255 2.271 1.829 4.328 1.829 6.187-.004 1.711-.474 3.283-1.446 4.813-.52.812-1.209 1.434-2.095 1.875-.886.439-1.976.689-3.273.689-2.312.003-5.268-.81-8.682-2.693-3.414-1.879-7.283-4.819-11.442-9.007-7.602-7.662-15.659-18.416-21.875-37.672-6.211-19.252-10.543-47.005-10.542-88.504 0-20.788 1.087-45.025 3.564-73.368l-2.135-.201c-2.482 28.397-3.572 52.699-3.572 73.569.002 41.659 4.342 69.642 10.653 89.214 6.306 19.567 14.622 30.724 22.418 38.565 4.275 4.306 8.293 7.373 11.93 9.376 3.637 2.001 6.897 2.948 9.685 2.951 1.561 0 2.976-.302 4.195-.906 1.218-.602 2.23-1.51 2.959-2.656 1.181-1.844 1.807-3.891 1.805-6.045-.001-2.345-.724-4.783-2.115-7.299-1.393-2.517-3.457-5.127-6.209-7.863-9.817-9.763-22.032-23.914-30.905-47.346-9.835-25.965-12.419-59.491-12.413-87.229 0-14.927.742-28.184 1.484-37.703.371-4.76.743-8.585 1.021-11.219.139-1.317.255-2.336.336-3.025l.126-1.042-2.124-.296M181.49 156.941c-.013-.005-2.901-1.905-5.95-1.909-1.282 0-2.601.342-3.721 1.32l.229.284c1.044-.911 2.268-1.233 3.492-1.234 1.454-.001 2.899.461 3.977.926.54.233.987.465 1.299.639.312.173.485.288.485.288l.19-.313-.001-.001M183.025 196.217c-.318-.551-1.085-1.019-2.102-1.395-1.017-.37-2.285-.619-3.582-.62-2.284-.003-4.701.786-5.879 3.148l.375.202c1.074-2.16 3.298-2.908 5.504-2.911 1.245 0 2.473.243 3.442.595.97.347 1.682.832 1.877 1.201l.365-.22M190.83 237.071c-.413-.308-1.112-.588-2.018-.807-.904-.217-2.007-.363-3.2-.363-1.753.001-3.698.315-5.465 1.197-1.766.88-3.354 2.336-4.36 4.591l.414.201c.962-2.151 2.457-3.521 4.143-4.363 1.686-.843 3.566-1.15 5.267-1.15 1.156 0 2.229.142 3.098.351.866.205 1.535.488 1.852.73l.268-.385M206.531 272.815c-.418-.182-.946-.26-1.568-.261-2.322.005-5.999 1.137-9.221 3.523-3.215 2.383-5.967 6.055-6.272 11.107l.625.041c.293-4.814 2.901-8.306 6.012-10.618 3.104-2.31 6.718-3.407 8.857-3.402.568-.001 1.028.079 1.325.21l.243-.601M227.64 298.792c-.121-.019-.248-.028-.381-.028-.842.003-1.921.36-3.102 1.008-1.767.975-3.744 2.623-5.291 4.825-1.547 2.201-2.659 4.964-2.659 8.144 0 1.167.149 2.389.482 3.657l.577-.163c-.319-1.216-.461-2.382-.461-3.493-.001-4.033 1.88-7.375 4.148-9.716 1.133-1.17 2.361-2.085 3.484-2.704 1.121-.621 2.144-.939 2.822-.936l.289.022.092-.614v-.001" fill="#2B3F22" sketch:type="MSShapeGroup"/><path d="M197.316 120.513s-1.072 73.104 29.163 113.978c13.125 17.742 26.953 26.732 37.629 32.54 8.518 4.635 11.684 9.743 10.046 15.15-1.666 5.5-10.824 7.201-25.098-.688-20.874-11.535-56.294-42.949-61.393-162.855" fill="#DBE3CB" sketch:type="MSShapeGroup"/><path d="M196.37 120.496l-.005.947c.001 4.341.234 23.108 4.01 45.607 3.782 22.498 11.085 48.737 25.354 68.041 13.224 17.882 27.204 26.974 37.94 32.812 3.471 1.886 5.992 3.838 7.609 5.783 1.619 1.951 2.342 3.848 2.345 5.781 0 .788-.122 1.591-.372 2.419-.362 1.18-1.109 2.133-2.328 2.849-1.217.709-2.918 1.148-5.081 1.146-4.011.005-9.572-1.51-16.344-5.255-10.311-5.707-24.192-16.263-36.217-40.373-12.016-24.109-22.132-61.799-24.676-121.658l-1.888.087c2.554 60.048 12.699 98.018 24.886 122.476 12.178 24.458 26.445 35.376 37.008 41.206 6.965 3.845 12.772 5.481 17.231 5.486 2.402-.001 4.423-.478 6.004-1.398 1.58-.913 2.705-2.301 3.207-3.974.303-1.001.461-2.008.46-3.009.004-2.473-.965-4.867-2.807-7.071-1.843-2.209-4.554-4.272-8.162-6.237-10.615-5.778-24.292-14.666-37.318-32.269-13.965-18.865-21.246-44.848-24.99-67.179-3.749-22.331-3.982-41.004-3.982-45.269l.003-.687.003-.228-1.891-.031v-.001" fill="#2B3F22" sketch:type="MSShapeGroup"/><path d="M190.854 118.519c1.182 22.918 3.727 72.78 20.225 109.344 19.068 42.262 41.628 52.542 52.648 53.784 10.013 1.128 9.737-4.117 9.737-4.117s3.958 9.394-9.349 9.249c-13.307-.146-33.646-18.244-43.005-32.296-9.607-14.421-19.506-34.564-25.543-63.71-7.097-34.269-7.228-72.16-7.228-72.16l2.515-.094" fill="#A5B98C" sketch:type="MSShapeGroup"/><path d="M196.37 120.496l-.005.947c.001 4.341.234 23.108 4.01 45.607 3.782 22.498 11.085 48.737 25.354 68.041 13.224 17.882 27.204 26.974 37.94 32.812 3.471 1.886 5.992 3.838 7.609 5.783 1.619 1.951 2.342 3.848 2.345 5.781 0 .788-.122 1.591-.372 2.419-.362 1.18-1.109 2.133-2.328 2.849-1.217.709-2.918 1.148-5.081 1.146-4.011.005-9.572-1.51-16.344-5.255-10.284-5.689-24.288-17.053-36.279-41.573-11.985-24.518-21.93-62.213-23.936-120.475l-1.89.07c2.014 58.461 11.991 96.439 24.141 121.297 12.143 24.856 26.487 36.571 37.078 42.418 6.965 3.845 12.772 5.481 17.231 5.486 2.402-.001 4.423-.478 6.004-1.398 1.58-.913 2.705-2.301 3.207-3.974.303-1.001.461-2.008.46-3.009.004-2.473-.965-4.867-2.807-7.071-1.843-2.209-4.554-4.272-8.162-6.237-10.615-5.778-24.292-14.666-37.318-32.269-13.965-18.865-21.246-44.848-24.99-67.179-3.749-22.331-3.982-41.004-3.982-45.269l.003-.687.003-.228-1.891-.031v-.001M199.858 158.063c-.011-.004-2.147-1.041-4.485-1.043-1.416 0-2.921.386-4.04 1.643l.231.223c1.041-1.171 2.443-1.538 3.809-1.539 1.125 0 2.217.253 3.025.507.405.127.737.254.97.349l.358.157.133-.296-.001-.001M207.582 193.317c-.453-.427-1.367-.624-2.487-.631-1.309.001-2.889.301-4.233 1.028-1.344.725-2.46 1.896-2.77 3.617l.366.072c.286-1.579 1.298-2.651 2.575-3.344 1.275-.691 2.808-.985 4.062-.985 1.069-.006 1.945.231 2.232.526l.255-.282M221.362 226.111c-.333-.124-.809-.186-1.399-.187-1.551.002-3.868.447-5.933 1.658-2.064 1.208-3.876 3.204-4.332 6.267l.398.065c.438-2.918 2.143-4.796 4.131-5.967 1.986-1.168 4.255-1.605 5.735-1.603.559-.002 1.008.064 1.263.162l.136-.394M243.069 252.412l-.259-.015c-.794.003-1.849.369-3.026 1.027-1.76.99-3.77 2.652-5.351 4.843-1.582 2.189-2.732 4.913-2.733 8.003 0 .861.09 1.748.284 2.66l.54-.124c-.186-.871-.27-1.717-.27-2.536-.002-3.914 1.948-7.244 4.265-9.601 1.158-1.177 2.404-2.107 3.529-2.739 1.122-.634 2.133-.961 2.762-.958l.194.011.065-.572M267.063 269.062c-.607.084-1.304.475-2.046 1.093-2.211 1.856-4.791 5.837-4.798 10.449 0 1.99.488 4.092 1.699 6.163l.451-.284c-1.161-1.988-1.622-3.982-1.623-5.879-.001-2.926 1.108-5.625 2.475-7.621.682-.997 1.43-1.818 2.126-2.4.693-.583 1.344-.921 1.782-.976l-.067-.544" fill="#2B3F22" sketch:type="MSShapeGroup"/><path d="M131.561 120.512c0 .001 1.071 73.105-29.163 113.979-13.125 17.743-26.954 26.732-37.629 32.54-8.519 4.635-11.685 9.743-10.046 15.15 1.666 5.5 10.823 7.201 25.098-.688 20.873-11.535 56.294-42.949 61.393-162.856l-9.653 1.874" fill="#DBE3CB" sketch:type="MSShapeGroup"/><path d="M130.616 120.526l.004.917c.001 4.265-.233 22.937-3.981 45.269-3.743 22.331-11.025 48.314-24.99 67.178-13.025 17.603-26.703 26.492-37.317 32.269-3.609 1.965-6.32 4.029-8.163 6.238-1.842 2.203-2.811 4.598-2.808 7.071 0 1.002.157 2.009.461 3.009.502 1.673 1.627 3.061 3.207 3.974 1.581.919 3.602 1.397 6.004 1.398 4.458-.005 10.266-1.642 17.231-5.486 10.563-5.829 24.829-16.747 37.008-41.205 12.187-24.458 22.332-62.428 24.886-122.476l-1.889-.087c-2.545 59.858-12.659 97.548-24.675 121.658-12.026 24.11-25.907 34.666-36.217 40.373-6.772 3.745-12.334 5.26-16.344 5.256-2.163.001-3.865-.437-5.081-1.148-1.217-.715-1.965-1.668-2.327-2.849-.251-.827-.373-1.63-.373-2.418.004-1.933.725-3.831 2.345-5.781 1.618-1.945 4.138-3.897 7.61-5.784 10.735-5.837 24.716-14.929 37.939-32.812 14.269-19.303 21.571-45.542 25.353-68.04 3.777-22.499 4.01-41.266 4.011-45.607l-.004-.945-1.891.029v-.001" fill="#2B3F22" sketch:type="MSShapeGroup"/><path d="M138.023 118.519c-1.182 22.918-3.727 72.78-20.226 109.344-19.068 42.262-41.627 52.542-52.647 53.783-10.013 1.129-9.737-4.115-9.737-4.115s-3.958 9.394 9.349 9.248c13.308-.146 33.646-18.244 43.006-32.295 9.606-14.422 19.506-34.565 25.542-63.712 7.098-34.268 7.228-72.16 7.228-72.16l-2.514-.093" fill="#A5B98C" sketch:type="MSShapeGroup"/><path d="M130.616 120.526l.004.917c.001 4.265-.233 22.937-3.981 45.269-3.743 22.331-11.025 48.314-24.99 67.178-13.025 17.603-26.703 26.492-37.317 32.269-3.609 1.965-6.32 4.029-8.163 6.238-1.842 2.203-2.811 4.598-2.808 7.071 0 1.002.157 2.009.461 3.009.502 1.673 1.627 3.061 3.207 3.974 1.581.919 3.602 1.397 6.004 1.398 4.458-.005 10.266-1.642 17.231-5.486 10.59-5.846 24.933-17.561 37.077-42.417 12.149-24.858 22.126-62.836 24.141-121.297l-1.89-.07c-2.006 58.262-11.95 95.957-23.935 120.475-11.991 24.52-25.995 35.883-36.28 41.573-6.772 3.745-12.334 5.26-16.344 5.256-2.163.001-3.865-.437-5.081-1.148-1.217-.715-1.965-1.668-2.327-2.849-.251-.827-.373-1.63-.373-2.418.004-1.933.725-3.831 2.345-5.781 1.618-1.945 4.138-3.897 7.61-5.784 10.735-5.837 24.716-14.929 37.939-32.812 14.269-19.303 21.571-45.542 25.353-68.04 3.777-22.499 4.01-41.266 4.011-45.607l-.004-.945-1.891.029v-.001M129.149 158.36l.36-.157c.694-.285 2.306-.856 3.994-.856 1.366.001 2.768.369 3.81 1.539l.23-.222c-1.119-1.258-2.624-1.644-4.04-1.644-2.338.002-4.475 1.039-4.485 1.043l.133.297h-.001M121.549 193.599c.287-.295 1.163-.532 2.231-.526 1.254 0 2.787.294 4.062.985 1.277.693 2.29 1.766 2.577 3.344l.366-.072c-.311-1.72-1.428-2.892-2.771-3.617-1.346-.727-2.925-1.027-4.234-1.028-1.12.007-2.033.204-2.486.631l.255.283v-.001M107.651 226.505c.255-.098.703-.163 1.262-.162 1.48-.002 3.748.436 5.734 1.603 1.989 1.171 3.694 3.049 4.133 5.967l.398-.065c-.457-3.063-2.27-5.059-4.332-6.267-2.065-1.211-4.382-1.656-5.933-1.658-.59.001-1.066.063-1.399.187l.137.394M85.872 252.983l.194-.011c.628-.004 1.64.324 2.762.958 1.688.948 3.647 2.567 5.172 4.682 1.527 2.116 2.622 4.72 2.621 7.658 0 .819-.084 1.664-.269 2.536l.541.124c.193-.911.283-1.799.283-2.66-.002-4.121-2.045-7.585-4.432-10.012-1.195-1.214-2.479-2.174-3.652-2.833-1.176-.658-2.231-1.024-3.025-1.027l-.258.015.064.572M61.746 269.606c.438.055 1.089.393 1.783.976 2.095 1.749 4.606 5.633 4.599 10.022 0 1.897-.461 3.891-1.621 5.878l.45.286c1.211-2.072 1.699-4.174 1.698-6.164-.001-3.072-1.155-5.87-2.572-7.94-.709-1.035-1.485-1.89-2.225-2.509-.742-.618-1.439-1.009-2.046-1.093l-.067.544" fill="#2B3F22" sketch:type="MSShapeGroup"/><path d="M149.391 113.301s6.037 86.912-17.678 139.919c-10.296 23.011-23.453 36.519-33.88 45.696-8.321 7.322-10.607 13.788-7.507 19.347 3.154 5.655 13.69 5.177 27.602-7.226 20.346-18.141 44.898-56.086 40.777-198.244l-9.313.507" fill="#DBE3CB" sketch:type="MSShapeGroup"/><path d="M148.323 113.381l.028.447c.131 2.08.656 11.287.656 24.507 0 14.839-.662 34.735-3.28 55.278-2.616 20.543-7.198 41.734-14.985 59.136-10.219 22.831-23.233 36.188-33.601 45.314-3.041 2.678-5.323 5.265-6.866 7.797-1.54 2.531-2.344 5.03-2.344 7.466-.002 1.918.506 3.774 1.468 5.496.716 1.289 1.782 2.32 3.101 3.001 1.32.685 2.882 1.028 4.633 1.028 2.745-.002 5.961-.838 9.571-2.618 3.61-1.781 7.615-4.512 11.922-8.351 9.531-8.487 19.997-21.351 27.994-46.721 8.007-25.375 13.613-63.273 13.614-122.069 0-9.548-.147-19.648-.457-30.333l-2.143.068c.308 10.664.456 20.742.456 30.266.002 58.649-5.602 96.334-13.507 121.375-7.914 25.045-18.065 37.43-27.352 45.722-4.188 3.735-8.048 6.354-11.446 8.03-3.398 1.677-6.332 2.405-8.652 2.402-1.482 0-2.708-.291-3.677-.794-.969-.505-1.691-1.211-2.202-2.124-.793-1.426-1.177-2.862-1.18-4.377 0-1.916.629-3.998 2.012-6.274 1.381-2.271 3.514-4.715 6.439-7.288 10.487-9.224 23.789-22.885 34.159-46.075 7.928-17.725 12.529-39.103 15.167-59.784 2.636-20.68 3.299-40.664 3.299-55.572 0-15.178-.688-25.095-.689-25.115l-2.138.161" fill="#2B3F22" sketch:type="MSShapeGroup"/><path d="M155.362 140.239s1.216 55.929-8.192 101.681c-10.641 51.757-33.541 68.854-45.438 73.066-10.808 3.827-11.752-2.044-11.752-2.044s-2.141 11.412 12.546 7.822c14.687-3.59 34.037-28.408 39.886-46.81 5.849-18.401 13.816-48.065 15.216-81.834 1.401-33.77 1.737-51.881 1.737-51.881h-4.004" fill="#A5B98C" sketch:type="MSShapeGroup"/><path d="M148.323 113.381l.028.447c.131 2.08.656 11.287.656 24.507 0 14.839-.662 34.735-3.28 55.278-2.616 20.543-7.198 41.734-14.985 59.136-10.219 22.831-23.233 36.188-33.601 45.314-3.041 2.678-5.323 5.265-6.866 7.797-1.54 2.531-2.344 5.03-2.344 7.466-.002 1.918.506 3.774 1.468 5.496.716 1.289 1.782 2.32 3.101 3.001 1.32.685 2.882 1.028 4.633 1.028 2.745-.002 5.961-.838 9.571-2.618 3.61-1.781 7.615-4.512 11.922-8.351 9.531-8.487 19.997-21.351 27.994-46.721 8.007-25.375 13.613-63.273 13.614-122.069 0-9.548-.147-19.648-.457-30.333l-2.143.068c.308 10.664.456 20.742.456 30.266.002 58.649-5.602 96.334-13.507 121.375-7.914 25.045-18.065 37.43-27.352 45.722-4.188 3.735-8.048 6.354-11.446 8.03-3.398 1.677-6.332 2.405-8.652 2.402-1.482 0-2.708-.291-3.677-.794-.969-.505-1.691-1.211-2.202-2.124-.793-1.426-1.177-2.862-1.18-4.377 0-1.916.629-3.998 2.012-6.274 1.381-2.271 3.514-4.715 6.439-7.288 10.487-9.224 23.789-22.885 34.159-46.075 7.928-17.725 12.529-39.103 15.167-59.784 2.636-20.68 3.299-40.664 3.299-55.572 0-15.178-.688-25.095-.689-25.115l-2.138.161M149.53 163.561l.452-.232c.872-.424 2.888-1.27 4.949-1.268 1.374.001 2.757.369 3.871 1.465l.245-.269c-1.195-1.178-2.684-1.568-4.116-1.566-2.871.003-5.559 1.54-5.573 1.546l.171.325v-.001M145.895 202.585c.197-.324.833-.724 1.698-1.004.865-.285 1.958-.473 3.089-.473 1.194 0 2.43.21 3.488.724 1.059.515 1.941 1.326 2.464 2.547l.386-.178c-.567-1.328-1.54-2.219-2.672-2.767-1.133-.549-2.425-.765-3.666-.765-1.176 0-2.306.194-3.217.494-.91.305-1.603.693-1.922 1.181l.352.243v-.001M135.622 243.032c.286-.191.84-.399 1.554-.547.714-.151 1.594-.247 2.554-.247 1.772-.001 3.82.332 5.64 1.265 1.821.933 3.417 2.453 4.328 4.858l.426-.173c-.953-2.523-2.649-4.14-4.552-5.111-1.905-.973-4.016-1.313-5.842-1.314-.99 0-1.897.1-2.645.257-.75.158-1.335.366-1.709.612l.246.401h-.001M117.835 277.937c.238-.088.574-.139.979-.138 2.015-.007 5.658 1.244 8.739 3.748 3.089 2.507 5.631 6.229 5.645 11.193l.627-.002c-.012-5.21-2.695-9.122-5.886-11.705-3.2-2.586-6.893-3.88-9.124-3.887-.454.001-.852.054-1.186.175l.207.616v-.001M95.102 302.543l.159-.008c.619-.004 1.578.321 2.629.953 1.58.944 3.385 2.56 4.784 4.667 1.4 2.107 2.396 4.701 2.396 7.622 0 1.336-.208 2.742-.684 4.208l.567.2c.496-1.529.714-3.005.714-4.408-.001-4.096-1.861-7.555-4.07-9.987-1.107-1.216-2.302-2.179-3.41-2.842-1.112-.661-2.127-1.032-2.927-1.035l-.215.01.056.62" fill="#2B3F22" sketch:type="MSShapeGroup"/><path d="M235.865 146.711l-141.51-9.836c-3.003-.209-5.273-2.91-5.073-6.033l6.51-101.351c.2-3.123 2.797-5.486 5.8-5.277l141.51 9.834c3.003.209 5.274 2.911 5.073 6.033l-6.509 101.351c-.2 3.124-2.797 5.487-5.801 5.279" fill="#405533" sketch:type="MSShapeGroup"/><path d="M235.865 146.711l.063-.976-141.51-9.835c-2.383-.163-4.21-2.23-4.21-4.675l.011-.312.001-.006 6.508-101.35c.158-2.479 2.144-4.38 4.495-4.38l.303.011h.004l141.509 9.835c2.383.163 4.21 2.23 4.21 4.675l-.011.322.001-.004-6.51 101.351c-.157 2.478-2.143 4.379-4.495 4.379l-.307-.011h.002l-.063.976-.06.974.428.014c3.337 0 6.142-2.691 6.369-6.202l6.509-101.35.001-.003.014-.446c-.001-3.471-2.587-6.389-5.962-6.625l-141.51-9.834.004.001-.435-.016c-3.337 0-6.141 2.691-6.368 6.202l-6.509 101.35v-.005l-.016.455c.001 3.471 2.588 6.389 5.963 6.625l141.51 9.834.003.001.06-.974" fill="#2B3F22" sketch:type="MSShapeGroup"/><path d="M104.216 135.729l7.002-109.017 129.611 9.045-6.999 108.98-129.614-9.008" fill="#A5B98C" sketch:type="MSShapeGroup"/><path d="M112.852 28.657l126.109 8.801-6.765 105.337-126.111-8.765 6.767-105.373m-3.269-3.889l-7.236 112.661 133.117 9.252 7.234-112.623-133.115-9.29" fill="#202C1C" sketch:type="MSShapeGroup"/><path d="M103.514 80.471c-.108 1.677-1.503 2.946-3.114 2.834-1.612-.112-2.832-1.562-2.724-3.239.108-1.677 1.502-2.946 3.114-2.834 1.612.112 2.832 1.562 2.724 3.239" fill="#5B6B4A" sketch:type="MSShapeGroup"/><path d="M103.514 80.471l-.815-.057c-.073 1.159-1.003 2.048-2.101 2.047l-.15-.005h.007c-1.115-.076-1.97-1.044-1.97-2.186l.004-.14.001-.009c.074-1.16 1.003-2.049 2.101-2.049l.135.005h.009c1.114.077 1.969 1.044 1.968 2.186l-.004.154v-.005l.815.057.815.052.008-.258c0-2.034-1.515-3.743-3.492-3.881l-.054.848.062-.847-.261-.01c-1.956.001-3.598 1.578-3.731 3.635l.815.057-.815-.067-.01.272c.001 2.034 1.516 3.743 3.493 3.881l.007.001.246.007c1.955 0 3.598-1.576 3.731-3.633v-.005l-.815-.052" fill="#2B3F22" sketch:type="MSShapeGroup"/><path d="M149.321 31.202l-38.359 26.879-1.581 24.62 67.972-49.544-28.032-1.956" fill="#B0C298" sketch:type="MSShapeGroup"/><path d="M110.962 58.081l-1.713 1.202-1.584 24.67 1.717-1.252 1.581-24.62m40.568-28.428l-2.209 1.549 28.032 1.956 2.131-1.554-27.954-1.95" fill="#3B4632" sketch:type="MSShapeGroup"/><path d="M111.331 26.848l129.367 9.028-6.983 108.726-129.37-8.992 6.986-108.763m-1.748-2.08l-7.236 112.661 133.117 9.252 7.234-112.623-133.115-9.29" fill="#2B3F22" sketch:type="MSShapeGroup"/><path d="M122.891 46.83l81.388 5.982" fill="#405533" sketch:type="MSShapeGroup"/><path d="M122.825 47.805l81.388 5.981.133-1.948-81.388-5.982" fill="#2B3F22" sketch:type="MSShapeGroup"/><path d="M122.539 52.02l54.258 3.988" fill="#405533" sketch:type="MSShapeGroup"/><path d="M122.472 52.994l54.259 3.988.132-1.948-54.258-3.988" fill="#2B3F22" sketch:type="MSShapeGroup"/><path d="M121.481 67.588l61.957 4.553" fill="#405533" sketch:type="MSShapeGroup"/><path d="M121.415 68.562l61.957 4.553.133-1.948-61.957-4.554" fill="#2B3F22" sketch:type="MSShapeGroup"/><path d="M121.129 72.777l54.259 3.988" fill="#405533" sketch:type="MSShapeGroup"/><path d="M121.063 73.751l54.258 3.989.133-1.949-54.259-3.988" fill="#2B3F22" sketch:type="MSShapeGroup"/><path d="M120.424 83.155l54.259 3.988" fill="#405533" sketch:type="MSShapeGroup"/><path d="M120.358 84.13l54.258 3.988.133-1.948-54.259-3.988" fill="#2B3F22" sketch:type="MSShapeGroup"/><path d="M120.777 77.967l71.856 5.281-71.856-5.281" fill="#405533" sketch:type="MSShapeGroup"/><path d="M120.71 78.941l71.856 5.281.133-1.948-71.856-5.282-.133 1.949" fill="#2B3F22" sketch:type="MSShapeGroup"/><path d="M120.072 88.345l61.957 4.554-61.957-4.554" fill="#405533" sketch:type="MSShapeGroup"/><path d="M120.005 89.319l61.957 4.554.133-1.949-61.957-4.553-.133 1.948" fill="#2B3F22" sketch:type="MSShapeGroup"/><path d="M119.719 93.534l54.258 3.988-54.258-3.988" fill="#405533" sketch:type="MSShapeGroup"/><path d="M119.652 94.508l54.259 3.989.133-1.949-54.259-3.988-.133 1.948" fill="#2B3F22" sketch:type="MSShapeGroup"/><path d="M119.014 103.913l54.259 3.988-54.259-3.988" fill="#405533" sketch:type="MSShapeGroup"/><path d="M118.947 104.888l54.259 3.987.132-1.948-54.258-3.988-.133 1.949" fill="#2B3F22" sketch:type="MSShapeGroup"/><path d="M119.366 98.723l71.856 5.282-71.856-5.282" fill="#405533" sketch:type="MSShapeGroup"/><path d="M119.3 99.698l71.856 5.282.132-1.949-71.856-5.281-.133 1.948" fill="#2B3F22" sketch:type="MSShapeGroup"/><path d="M122.186 57.21l4.49.33" fill="#405533" sketch:type="MSShapeGroup"/><path d="M122.12 58.184l4.49.33.133-1.948-4.491-.331" fill="#2B3F22" sketch:type="MSShapeGroup"/><path d="M121.834 62.398l4.49.331" fill="#405533" sketch:type="MSShapeGroup"/><path d="M121.768 63.373l4.491.331.132-1.949-4.49-.33" fill="#2B3F22" sketch:type="MSShapeGroup"/><path d="M118.661 109.102l4.491.33" fill="#405533" sketch:type="MSShapeGroup"/><path d="M118.595 110.077l4.49.331.133-1.949-4.49-.33" fill="#2B3F22" sketch:type="MSShapeGroup"/><path d="M118.309 114.291l4.49.331" fill="#405533" sketch:type="MSShapeGroup"/><path d="M118.243 115.266l4.491.33.132-1.949-4.49-.33" fill="#2B3F22" sketch:type="MSShapeGroup"/><path d="M117.957 119.481l4.49.33" fill="#405533" sketch:type="MSShapeGroup"/><path d="M117.891 120.455l4.49.331.133-1.949-4.491-.331" fill="#2B3F22" sketch:type="MSShapeGroup"/><path d="M241.657 50.254l-.184 2.883.348-.325-.163-2.558" fill="#5A6B48" sketch:type="MSShapeGroup"/><path d="M234.038 37.114l-49.158 44.585 7.819.574-.133 1.948-9.684-.711-8.641 7.837 7.854.577-.067.975h.001l-.067.974-9.719-.715-3.321 3.013 5.122.376-.133 1.949-6.987-.514-3.32 3.012 24.779 1.822 49.345-46.176 1.232-19.183-4.923-.343" fill="#B0C298" sketch:type="MSShapeGroup"/><path d="M235.781 35.533l-1.743 1.581 4.923.343-1.232 19.183 1.741-1.629 1.229-19.136-4.918-.343" fill="#3B4632" sketch:type="MSShapeGroup"/><path d="M240.684 34.934h-4.243l-.66.599 4.918.343-1.229 19.136 2.003-1.874.184-2.883-.973-15.32M184.88 81.699l-1.998 1.811 9.684.711.133-1.948-7.819-.574" fill="#455635" sketch:type="MSShapeGroup"/><path d="M182.028 92.899h.001" fill="#5A6B48" sketch:type="MSShapeGroup"/><path d="M174.241 91.347l-1.998 1.811 9.719.715.133-1.949-7.854-.577M168.922 96.172l-1.998 1.811 6.987.514.133-1.949-5.122-.376" fill="#455635" sketch:type="MSShapeGroup"/><path d="M161.606 102.808l-3.321 3.012 15.054 1.107-.066.974h.001l-.067.974-16.92-1.244-30.607 27.76 25.965 1.804 34.798-32.563-24.837-1.825" fill="#B0C298" sketch:type="MSShapeGroup"/><path d="M125.68 135.392l-1.696 1.538 26.008 1.813 1.653-1.547-25.965-1.804" fill="#3B4632" sketch:type="MSShapeGroup"/><path d="M173.272 107.901h.001" fill="#5A6B48" sketch:type="MSShapeGroup"/><path d="M158.284 105.82l-1.998 1.811 16.92 1.244.132-1.948-15.054-1.107M163.604 100.995l-1.999 1.812 24.837 1.825 1.941-1.816-24.779-1.822" fill="#455635" sketch:type="MSShapeGroup"/><path d="M242.383 61.329c-5.074-.865-10.559-2.032-16.364-3.606-4.939-1.339-9.529-2.818-13.751-4.345 2.499-10.24 4.861-19.919 7.359-30.159 4.79 1.463 10.067 2.783 15.224 4.145 5.203 1.374 10.108 2.147 15.028 3.245l-7.496 30.719" fill="#DBE3CB" sketch:type="MSShapeGroup"/><path d="M242.383 61.329l.173-1.099c-5.044-.86-10.497-2.02-16.267-3.586-4.909-1.331-9.471-2.8-13.67-4.319l-.352 1.053 1.039.275c2.498-10.241 4.86-19.92 7.359-30.16l-1.039-.274-.302 1.069c4.826 1.475 10.114 2.796 15.263 4.156 5.266 1.391 10.189 2.165 15.066 3.255l.226-1.09-1.039-.274-7.495 30.719 1.038.274.173-1.099-.173 1.099 1.039.275 7.495-30.72.274-1.121-1.087-.243c-4.964-1.108-9.851-1.877-14.989-3.236-5.166-1.364-10.433-2.682-15.186-4.134l-1.067-.326-.273 1.121c-2.499 10.24-4.861 19.92-7.359 30.16l-.242.991.929.336c4.248 1.537 8.865 3.023 13.833 4.371 5.839 1.584 11.356 2.757 16.462 3.628l.97.166.242-.992-1.039-.275" fill="#2B3F22" sketch:type="MSShapeGroup"/><path d="M257.933 68.92c-4.672.716-10.352 1.341-16.183 1.484-5.593.137-10.711-.116-15.256-.564l-.786-31.392c4.595.122 10.415.058 16.152-.114 5.281-.158 10.262-.519 14.908-1.011.262 10.561.903 21.037 1.166 31.598" fill="#DBE3CB" sketch:type="MSShapeGroup"/><path d="M257.933 68.92l-.156-1.103c-4.637.71-10.278 1.331-16.053 1.472-1.02.026-2.024.037-3.012.037-4.382 0-8.439-.234-12.117-.596l-.101 1.11 1.071-.029-.786-31.391-1.072.028-.027 1.115c1.636.044 3.423.063 5.304.063 3.437 0 7.189-.067 10.906-.177 5.309-.159 10.316-.521 14.986-1.016l-.109-1.109-1.072.029c.263 10.589.905 21.064 1.166 31.597l1.072-.028-.156-1.103.156 1.103 1.071-.028c-.262-10.589-.904-21.065-1.165-31.598l-.031-1.202-1.15.121c-4.621.489-9.576.848-14.83 1.005-3.7.11-7.433.177-10.844.177-1.867 0-3.636-.02-5.249-.062l-1.128-.03.029 1.172.786 31.392.024.988.946.093c3.739.369 7.864.607 12.32.607 1.004 0 2.026-.013 3.062-.037 5.889-.144 11.608-.774 16.314-1.496l.94-.144-.025-.987-1.071.028M231.509 53.581s.108-.519.417-1.396c.165-.435.359-.969.678-1.546.325-.571.69-1.246 1.46-1.789.172-.152.447-.222.691-.319.273-.016.587-.079.858.04.136.047.292.086.413.157l.337.245.168.13.147.146.243.278c.658.861 1.024 1.784 1.352 2.75l.905 2.863c.136.431.373.928.472 1.001l-.013-.009-.088-.032-.147-.001c.02-.007.159-.116.279-.269.126-.152.262-.331.388-.528l.443-.656c.311-.43.664-.951 1.298-1.374.282-.23.96-.379 1.438-.162.446.213.621.43.795.566l.233.156c.028.016.109.005.246-.064.127-.056.288-.189.434-.299l.491-.46.51-.462c.252-.168.463-.358.757-.471.149-.055.292-.11.445-.148.176-.014.355-.016.526-.006.167.039.332.107.487.173.134.08.246.179.361.272.388.394.586.775.79 1.111.391.665.717 1.152 1.157 1.13.445-.013.987-.304 1.326-.52.355-.236.595-.485.693-.7.106-.214.079-.354.079-.354s.064.128.011.386c-.048.255-.227.614-.563.95-.355.324-.72.74-1.488.934-.39.111-.86-.076-1.198-.324-.348-.262-.585-.586-.839-.896-.237-.301-.485-.608-.714-.772-.25-.146-.268-.143-.531.006l-.348.267-.462.514c-.266.314-.658.764-1.202 1.093-.161.077-.291.169-.486.22-.208.034-.401.11-.631.067-.48-.026-.815-.277-1.072-.449-.212-.169-.406-.301-.415-.291l.066.02.016-.008-.049.041-.158.138-.189.205c-.127.172-.251.297-.396.539l-.413.638c-.152.241-.318.485-.521.73-.214.237-.448.499-.883.717-.13.049-.248.099-.398.123-.161.012-.322.035-.483-.01-.164-.037-.324-.092-.438-.171-.135-.077-.237-.161-.313-.243-.329-.339-.47-.646-.599-.928-.124-.283-.219-.552-.302-.815-.334-1.045-.513-2.032-.773-2.95-.252-.9-.532-1.791-.905-2.39l-.168-.238-.075-.093-.083-.073-.159-.155-.156-.083c-.101-.092-.21-.044-.323-.087-.122.051-.25.024-.384.118-.537.27-1.017.801-1.393 1.266-.378.478-.678.939-.921 1.318-.48.767-.728 1.234-.728 1.234" fill="#2B3F22" sketch:type="MSShapeGroup"/><path d="M9.175 109.155l55.04-26.952 32.841 87.059-56.394 29.945-31.487-90.052" fill="#DBE3CB" sketch:type="MSShapeGroup"/><path d="M9.175 109.155l.484 1.067 53.943-26.415 32.022 84.889-54.334 28.852-31.048-88.797-1.066.404.484 1.067-.484-1.067-1.066.403 31.926 91.308 58.454-31.04-33.66-89.229-57.074 27.948.354 1.013 1.066-.403" fill="#2B3F22" sketch:type="MSShapeGroup"/><path d="M68.206 113.953c1.352-.634 3.204-1.625 3.097-2.263-.167-.998-7.326-17.196-8.259-16.857-.553.203-1.883.968-2.873 1.557-1.303-2.916-2.244-5.091-2.693-6.251 0 0-42.766 23.272-55.267 31.336l39.049 85.144s41.21-21.237 56.163-30.413c0 0-17.303-36.529-29.217-62.252" fill="#5F8C45" sketch:type="MSShapeGroup"/><path d="M68.206 113.953l.427.989c.682-.32 1.484-.723 2.166-1.164.343-.224.656-.45.932-.726.138-.14.269-.292.388-.494.115-.199.227-.467.23-.814l-.015-.205-.001-.011-.004-.024-.069-.279c-.095-.307-.262-.737-.505-1.336-.842-2.073-2.552-5.947-4.175-9.332-.812-1.694-1.6-3.26-2.257-4.43-.33-.586-.623-1.071-.894-1.45-.139-.191-.267-.354-.429-.513-.083-.079-.173-.159-.306-.241-.133-.077-.319-.174-.62-.179-.088.002-.254.003-.478.111l.448.979-.345-1.024c-.206.077-.413.173-.651.292-.703.353-1.64.898-2.394 1.346l.517.942.946-.458c-1.3-2.906-2.241-5.083-2.672-6.197l-.431-1.112-1.02.556s-10.696 5.82-22.954 12.648c-12.264 6.831-26.072 14.658-32.379 18.726l-.793.512 39.906 87.014.949-.488c.002-.001 10.308-5.312 22.485-11.771 12.181-6.463 26.218-14.063 33.744-18.681l.833-.511-.427-.902-.766-1.619c-3.474-7.343-18.025-38.122-28.446-60.624l-.939.471.427.989-.427-.989-.94.47c11.918 25.731 29.22 62.26 29.22 62.26l.937-.478-.53-.935c-7.426 4.559-21.47 12.165-33.633 18.616-6.083 3.227-11.699 6.167-15.795 8.3-2.048 1.067-3.715 1.932-4.87 2.53l-1.797.929.462.973.941-.467-39.049-85.143-.941.467.549.922c6.193-3.997 20.019-11.839 32.263-18.658 6.125-3.411 11.859-6.571 16.062-8.878 2.102-1.153 3.821-2.094 5.014-2.746l1.861-1.014-.483-.961-.968.405c.467 1.203 1.409 3.377 2.716 6.302l.478 1.071.985-.586c.489-.291 1.062-.625 1.571-.907.255-.141.494-.268.694-.369.197-.1.364-.173.435-.199l.051-.018.052-.026-.418-.912v1.012c.066-.002.211-.001.418-.1l-.418-.912v1.012-.856l-.456.724c.051.028.168.124.456.132v-.856l-.456.724.207-.329-.246.299.039.03.207-.329-.246.299v.001l.218.278c.426.604 1.145 1.914 1.932 3.482 1.187 2.363 2.567 5.359 3.66 7.836.546 1.238 1.021 2.348 1.363 3.182.171.415.309.763.403 1.016l.106.297.021.069.002.005.415-.117-.423.077.008.04.415-.117-.423.077 1.027-.186-1.032.152.666-.098h-.672l.006.098.666-.098h-.672.56l-.489-.308c-.012.022-.069.12-.071.308h.56l-.489-.308.113.071-.108-.08-.005.009.113.071-.108-.08s-.098.117-.262.242c-.247.193-.626.43-1.038.657-.413.227-.86.449-1.263.638l-.976.457.464 1.003.94-.47" fill="#2B3F22" sketch:type="MSShapeGroup"/><path d="M32.097 113.54s2.028 4.612 2.594 5.718c.89-.475 22.133-13.151 22.133-13.151l-2.67-5.364-22.056 12.796" fill="#DBE3CB" sketch:type="MSShapeGroup"/><path d="M32.097 113.54l-1.082.516c0 .001.508 1.156 1.088 2.451.29.648.598 1.331.87 1.925.274.596.506 1.093.667 1.408l.55 1.078 1.044-.558.433-.247c3.085-1.795 21.745-12.93 21.745-12.93l.993-.592-3.759-7.552-24.088 13.976.458 1.04 1.082-.516.579 1.081 20.985-12.175 2.106 4.231 1.057-.57-.592-1.074-3.332 1.988c-3.009 1.793-7.541 4.495-11.405 6.792-1.932 1.149-3.696 2.196-5.019 2.978l-1.616.953-.492.287-.22.125.543 1.101 1.052-.581c-.123-.238-.355-.733-.621-1.313-.401-.874-.887-1.96-1.273-2.827l-.669-1.511-1.082.513.579 1.081-.579-1.081" fill="#2B3F22" sketch:type="MSShapeGroup"/><path d="M30.851 185.036c-.882-.811-.421-.413-1.037-1.235-7.589-10.14-5.857-23.41 10.674-34.565 18.12-12.228 13.19-27.303-1.906-23.924-22.851 5.114-31.432 29.971-15.82 51.904 1.547 2.174 4.4 7.405 8.088 7.82" fill="#DBE3CB" sketch:type="MSShapeGroup"/><path d="M51.13 131.39c.166.747.242 1.468.242 2.169-.001 2.315-.838 4.449-2.248 6.503-2.11 3.075-5.504 5.883-8.917 8.5-3.413 2.627-6.832 5.051-9.042 7.565-3.999 4.563-6.301 10.255-6.303 15.928-.005 5.102 1.888 10.182 6.028 14.264l1.154-1.265c-3.815-3.774-5.501-8.338-5.506-12.998-.002-5.175 2.115-10.475 5.866-14.753 1.322-1.513 3.264-3.103 5.43-4.768 3.249-2.504 6.998-5.18 9.977-8.244 1.489-1.533 2.789-3.167 3.729-4.946.937-1.778 1.51-3.712 1.509-5.785 0-.835-.092-1.69-.285-2.561l-1.633.392h-.001" fill="#2B3F22" sketch:type="MSShapeGroup"/><path d="M27.745 182.889s-8.419-9.905-2.259-22.634c4.649-9.609 12.587-13.35 18.655-17.864 6.069-4.515 7.357-10.562 6.236-13.056 0 0 6.656 5.987-4.576 15.64-9.455 8.125-16.453 10.82-19.155 20.071-3.585 12.268 3.169 18.754 3.169 18.754s-1.096-.658-2.069-.911" fill="#A5B98C" sketch:type="MSShapeGroup"/><path d="M45.099 145.457c-.14.031-.305.048-.492.048-.819.003-2.026-.339-3.343-1.012-1.979-1.007-4.221-2.747-5.955-5.101-1.735-2.355-2.967-5.312-2.967-8.787 0-.98.097-2.002.312-3.065l-.649-.142c-.223 1.108-.327 2.179-.327 3.207 0 4.867 2.306 8.767 5.052 11.436 1.375 1.336 2.861 2.369 4.242 3.072 1.382.701 2.652 1.078 3.635 1.081.225 0 .435-.019.632-.064l-.14-.674M25.106 170.957l.092.007-.081-.05-.011.043.092.007-.081-.05-.019.022c-.055.058-.232.163-.483.257-.758.29-2.18.536-3.672.534-.674 0-1.365-.048-2.021-.161l-.098.625c.694.119 1.417.17 2.119.17 1.181 0 2.306-.142 3.156-.352.426-.106.782-.226 1.055-.365.137-.07.254-.144.352-.238.096-.092.19-.215.206-.394l-.607-.054M31.673 184.706c-10.209-6.55-15.986-17.909-15.983-29.122.008-9.362 3.993-18.601 12.836-24.995 1.91-1.38 4.317-2.733 6.844-3.732 2.525-1.001 5.172-1.643 7.545-1.642 1.775 0 3.384.355 4.715 1.142 1.33.791 2.411 2.003 3.16 3.87.479 1.204.688 2.341.688 3.439 0 2.06-.744 4.02-2.005 5.919-1.885 2.845-4.922 5.484-7.983 7.851-3.063 2.376-6.133 4.474-8.146 6.412-5.15 4.973-8.482 11.658-8.488 18.398-.006 4.861 1.769 9.733 5.79 13.823l1.174-1.245c-3.716-3.797-5.281-8.153-5.287-12.577-.006-6.126 3.076-12.419 7.952-17.119 1.22-1.18 2.994-2.52 4.957-3.987 2.947-2.206 6.325-4.702 9.005-7.565 1.34-1.433 2.508-2.96 3.351-4.608.843-1.645 1.358-3.421 1.357-5.302.001-1.332-.259-2.709-.816-4.107-.866-2.185-2.229-3.748-3.881-4.72-1.651-.975-3.558-1.37-5.543-1.37-2.659.002-5.476.702-8.142 1.755-2.664 1.055-5.174 2.466-7.203 3.93-9.292 6.7-13.565 16.551-13.557 26.427.003 11.832 6.074 23.731 16.78 30.607l.88-1.484v-.001M82.585 132.037l.053.002c.284.017 1.647.146 3.01.923 1.362.782 2.727 2.171 3.118 4.812l.602-.095c-.438-3.031-2.15-4.637-3.724-5.433-1.576-.802-3.017-.841-3.042-.843l-.016.634" fill="#2B3F22" sketch:type="MSShapeGroup"/></g></svg>