<svg width="132" height="328" viewBox="0 0 132 328" xmlns="http://www.w3.org/2000/svg" xmlns:sketch="http://www.bohemiancoding.com/sketch/ns"><title>Imported Layers</title><desc>Created with Sketch.</desc><g sketch:type="MSLayerGroup" fill="none"><path d="M72.431 307.507c-32.154 0-58.221 4.549-58.221 10.16 0 5.612 26.067 10.16 58.221 10.16 32.155 0 58.221-4.548 58.221-10.16 0-5.611-26.066-10.16-58.221-10.16" fill="#64864C" sketch:type="MSShapeGroup"/><path d="M42.096 151.052c-.284 5.388-1.01 30.563-8.451 73.724-2.219 12.867-3.654 25.584.931 27.413 3.286 1.312 7.28-3.462 9.116-15.962 4.757-32.384 4.54-68.951 4.485-83.445l-6.081-1.73" fill="#DBE3CB" sketch:type="MSShapeGroup"/><path d="M41.251 151.007c-.143 2.711-.394 10.318-1.539 22.663-1.145 12.343-3.184 29.404-6.902 50.962-1.151 6.687-2.099 13.34-2.101 18.533.002 2.417.202 4.518.72 6.206.26.844.602 1.588 1.065 2.209.461.618 1.055 1.112 1.768 1.395.442.177.91.27 1.381.27.999.001 1.977-.417 2.853-1.154 1.32-1.11 2.489-2.932 3.517-5.528 1.023-2.597 1.892-5.976 2.515-10.213 4.101-27.924 4.512-58.889 4.513-76.245 0-2.83-.011-5.296-.018-7.327l-1.692.007c.007 2.031.018 4.496.018 7.32.001 17.324-.415 48.232-4.494 75.999-.81 5.52-2.05 9.484-3.407 11.997-.676 1.257-1.381 2.145-2.038 2.693-.66.55-1.244.757-1.767.759-.252-.001-.498-.048-.754-.15-.392-.158-.727-.42-1.04-.837-.467-.619-.847-1.594-1.09-2.858-.244-1.263-.358-2.804-.358-4.543-.001-4.994.929-11.596 2.077-18.246 3.725-21.602 5.77-38.709 6.919-51.092 1.149-12.378 1.403-20.053 1.544-22.731l-1.69-.088v-.001" fill="#2B3F22" sketch:type="MSShapeGroup"/><path d="M45.849 174.557c-.071 12.418-.536 29.175-2.193 44.357-2.886 26.429-6.419 31.643-8.401 32.599.129.027.258.039.388.04.523-.002 1.107-.209 1.767-.759.657-.548 1.362-1.436 2.038-2.693 1.357-2.513 2.597-6.477 3.407-11.997 3.103-21.127 4.086-44.074 4.378-61.47l-1.384-.077" fill="#BAC9A2" sketch:type="MSShapeGroup"/><path d="M47.233 174.634c-.292 17.396-1.275 40.343-4.378 61.47-.81 5.52-2.05 9.484-3.407 11.997-.676 1.257-1.381 2.145-2.038 2.693-.66.55-1.244.757-1.767.759-.13-.001-.259-.013-.388-.04-.336.162-.627.202-.863.202l-.214-.01c.519.323 1.04.496 1.563.496 3.313 0 6.662-6.952 9.336-26.635 1.845-13.578 2.437-35.45 2.615-50.909l-.459-.023" fill="#6B7F55" sketch:type="MSShapeGroup"/><path d="M31.4 240.901c.027.031 2.364 2.682 6.83 2.684 1.265 0 2.698-.214 4.289-.759l-.19-.553c-1.534.524-2.9.726-4.099.726-2.112 0-3.711-.627-4.786-1.252-.537-.313-.942-.625-1.211-.857l-.3-.278-.073-.075-.02-.022-.44.386M33.976 223.48c.028.028 2.506 2.663 6.873 2.667 1.32 0 2.807-.243 4.439-.868l-.216-.565c-1.567.6-2.978.828-4.223.828-2.056 0-3.667-.623-4.766-1.246-.549-.311-.969-.623-1.25-.854l-.316-.278-.078-.075-.022-.023-.44.414h-.001M36.464 204.991c.022.032 1.989 2.55 6.24 2.55 1.214.001 2.609-.205 4.193-.728l-.156-.472c-1.538.507-2.88.703-4.037.703-2.023 0-3.485-.597-4.445-1.19-.48-.296-.834-.592-1.066-.812l-.257-.263-.062-.071-.017-.021-.393.305v-.001M39.012 187.196c.019.024 1.573 1.791 4.7 1.791 1.101 0 2.394-.22 3.876-.808l-.15-.376c-1.439.571-2.679.779-3.726.779-1.484 0-2.584-.418-3.315-.834-.366-.208-.638-.416-.818-.57l-.2-.184-.062-.064-.305.267v-.001M41.087 170.023c.016.017 1.216 1.237 3.493 1.237.964 0 2.118-.22 3.448-.836l-.137-.296c-1.292.598-2.396.806-3.311.806-1.078 0-1.895-.289-2.443-.576-.274-.143-.48-.286-.617-.392l-.153-.127-.046-.044-.234.228M41.36 151.02c-.142 2.709-.393 10.316-1.539 22.662-1.145 12.342-3.185 29.404-6.901 50.962-1.152 6.687-2.1 13.34-2.102 18.533.002 2.416.202 4.518.72 6.206.26.843.602 1.587 1.065 2.208.461.619 1.056 1.113 1.768 1.396.443.176.91.27 1.381.269.999.001 1.977-.416 2.854-1.153 1.319-1.11 2.488-2.933 3.516-5.528 1.024-2.597 1.892-5.976 2.516-10.214 4.1-27.92 4.512-58.882 4.512-76.239 0-2.832-.011-5.301-.018-7.332l-1.692.006c.007 2.033.018 4.499.018 7.326.001 17.324-.415 48.229-4.495 75.994-.809 5.52-2.049 9.484-3.406 11.996-.676 1.257-1.38 2.146-2.037 2.693-.662.551-1.245.758-1.768.759-.251 0-.498-.047-.754-.149-.392-.158-.727-.421-1.039-.837-.468-.62-.848-1.595-1.091-2.859-.244-1.262-.358-2.804-.358-4.542-.001-4.994.93-11.597 2.077-18.246 3.725-21.603 5.77-38.709 6.919-51.092 1.149-12.379 1.403-20.053 1.544-22.731l-1.69-.088" fill="#2B3F22" sketch:type="MSShapeGroup"/><path d="M75.72 151.388c.868 5.325 4.337 30.271 16.441 72.362 3.608 12.549 6.42 25.034 2.063 27.351-3.124 1.663-7.614-2.648-10.802-14.872-8.261-31.673-12.034-68.045-13.559-82.459l5.857-2.382" fill="#DBE3CB" sketch:type="MSShapeGroup"/><path d="M74.884 151.524c.432 2.647 1.522 10.248 4.014 22.427 2.493 12.183 6.391 28.965 12.449 50.033 1.148 3.991 2.213 7.971 2.989 11.601.776 3.629 1.259 6.915 1.258 9.478.001 1.453-.158 2.67-.47 3.561-.315.898-.744 1.435-1.297 1.731-.312.164-.618.24-.948.242-.519 0-1.134-.202-1.842-.726-1.06-.781-2.27-2.282-3.445-4.575-1.178-2.292-2.33-5.367-3.351-9.281-8.24-31.586-12.013-67.927-13.537-82.334l-1.682.178c1.527 14.42 5.299 50.824 13.581 82.583 1.395 5.341 3.035 9.219 4.759 11.822.863 1.3 1.75 2.285 2.667 2.966.913.679 1.881 1.058 2.85 1.059.608.001 1.204-.153 1.743-.44 1.025-.544 1.703-1.515 2.101-2.669.402-1.163.561-2.545.563-4.117-.002-2.769-.508-6.137-1.296-9.831-.788-3.692-1.863-7.703-3.017-11.716-6.046-21.024-9.933-37.761-12.417-49.904-2.486-12.148-3.565-19.682-4.001-22.361l-1.67.273h-.001" fill="#2B3F22" sketch:type="MSShapeGroup"/><path d="M73.287 176.201c2.193 17.158 5.647 39.471 10.954 59.814 1.021 3.914 2.173 6.989 3.351 9.281 1.175 2.293 2.385 3.794 3.445 4.575.708.524 1.323.726 1.842.726.205-.001.401-.031.595-.093-2.074-.735-6.155-5.534-11.904-31.489-3.211-14.493-5.464-30.589-6.896-42.807l-1.387-.007" fill="#BAC9A2" sketch:type="MSShapeGroup"/><path d="M73.002 175.285l-.005.915-.177-.001c1.868 15.298 4.8 36.499 8.062 49.583 4.68 18.776 8.679 25.473 11.928 25.473.612 0 1.198-.238 1.756-.677-.119.023-.262.045-.426.045-.191 0-.414-.03-.666-.119-.194.062-.39.092-.595.093-.519 0-1.134-.202-1.842-.726-1.06-.781-2.27-2.282-3.445-4.575-1.178-2.292-2.33-5.367-3.351-9.281-5.307-20.343-8.761-42.656-10.954-59.814l-.29-.001.005-.915" fill="#6B7F55" sketch:type="MSShapeGroup"/><path d="M95.67 239.199l-.022.03c-.252.332-2.542 3.203-7.274 3.202-.89 0-1.869-.102-2.939-.341l-.128.571c1.11.249 2.132.355 3.067.355 5.323-.002 7.753-3.446 7.776-3.481l-.48-.336M91.206 222.135l-.024.031c-.269.334-2.7 3.197-7.246 3.194-.951 0-1.998-.125-3.142-.425l-.153.585c1.191.313 2.291.445 3.295.445 5.142-.005 7.729-3.435 7.753-3.466l-.483-.363v-.001M86.776 204.132l-.018.027c-.211.311-2.127 3.015-6.731 3.017-.867 0-1.83-.096-2.896-.323l-.103.487c1.097.233 2.095.333 2.999.333 5.14.001 7.155-3.246 7.173-3.282l-.424-.259M82.394 186.748l-.015.02c-.168.22-1.704 2.151-5.083 2.151-.841 0-1.798-.12-2.879-.417l-.108.391c1.113.306 2.108.432 2.987.432 3.784 0 5.414-2.318 5.43-2.345l-.332-.231v-.001M78.534 169.935l-.051.059c-.258.283-1.46 1.465-3.757 1.465-.768 0-1.662-.132-2.687-.477l-.104.309c1.055.356 1.985.495 2.791.495 2.762-.001 4.05-1.63 4.065-1.65l-.257-.201M74.777 151.548c.432 2.646 1.521 10.247 4.014 22.427 2.492 12.183 6.39 28.964 12.449 50.032 1.148 3.992 2.213 7.972 2.988 11.602.777 3.629 1.26 6.914 1.258 9.477.002 1.454-.157 2.671-.469 3.562-.316.898-.745 1.434-1.298 1.73-.312.165-.617.241-.947.242-.519.001-1.135-.201-1.843-.726-1.059-.78-2.269-2.281-3.444-4.574-1.178-2.292-2.331-5.367-3.352-9.282-8.239-31.586-12.012-67.926-13.535-82.333l-1.683.178c1.526 14.42 5.299 50.824 13.581 82.582 1.395 5.342 3.034 9.22 4.758 11.822.864 1.301 1.75 2.286 2.667 2.967.914.679 1.881 1.058 2.851 1.058.608.001 1.204-.153 1.742-.44 1.025-.544 1.704-1.514 2.101-2.669.402-1.162.562-2.545.563-4.117-.001-2.768-.507-6.136-1.295-9.83-.789-3.692-1.863-7.704-3.017-11.717-6.046-21.023-9.933-37.761-12.418-49.904-2.485-12.147-3.564-19.681-4.001-22.36l-1.67.273" fill="#2B3F22" sketch:type="MSShapeGroup"/><path d="M63.707 155.518c.034 5.396-.407 30.577 5.028 74.036 1.62 12.957 2.464 25.727-2.201 27.341-3.343 1.158-7.111-3.796-8.366-16.367-3.252-32.57-1.343-69.088-.616-83.564l6.155-1.446" fill="#DBE3CB" sketch:type="MSShapeGroup"/><path d="M62.861 155.523l.002 1.121v.856c0 8.201.09 32.645 5.032 72.159.717 5.733 1.279 11.421 1.278 16.072.003 2.913-.224 5.422-.737 7.234-.255.905-.58 1.63-.95 2.146-.374.519-.769.824-1.228.985-.229.079-.45.116-.672.116-.527-.002-1.098-.211-1.74-.77-.957-.834-1.985-2.466-2.844-4.955-.862-2.487-1.571-5.82-1.992-10.044-1.385-13.872-1.833-28.48-1.833-41.79 0-17.848.804-33.355 1.22-41.647l-1.69-.084c-.416 8.293-1.222 23.835-1.222 41.731 0 13.348.448 28.006 1.841 41.959.578 5.763 1.67 9.976 3.063 12.826.7 1.424 1.475 2.513 2.341 3.275.86.76 1.845 1.193 2.856 1.191.415 0 .828-.071 1.225-.209.839-.289 1.528-.864 2.051-1.599.787-1.108 1.263-2.575 1.572-4.324.306-1.751.432-3.791.432-6.041-.001-4.783-.571-10.518-1.292-16.282-4.931-39.436-5.019-63.782-5.019-71.949v-.856l-.002-1.131-1.692.011v-.001" fill="#2B3F22" sketch:type="MSShapeGroup"/><path d="M57.589 175.476c-.233 6.864-.412 14.761-.412 23.177 0 13.31.448 27.918 1.833 41.79.421 4.224 1.13 7.557 1.992 10.044.859 2.489 1.887 4.121 2.844 4.955.642.559 1.213.768 1.74.77l.301-.023c-1.935-1.047-5.223-6.419-6.881-32.954-1.039-16.616-.575-35.038.004-47.657l-1.421-.102" fill="#BAC9A2" sketch:type="MSShapeGroup"/><path d="M57.147 175.444c-.589 15.483-1.176 39.687.131 54.371 1.779 20.004 4.849 27.041 8.203 27.041.486 0 .978-.148 1.473-.425l-.11.002c-.252 0-.579-.04-.957-.244l-.301.023c-.527-.002-1.098-.211-1.74-.77-.957-.834-1.985-2.466-2.844-4.955-.862-2.487-1.571-5.82-1.992-10.044-1.385-13.872-1.833-28.48-1.833-41.79 0-8.416.179-16.313.412-23.177l-.442-.032" fill="#6B7F55" sketch:type="MSShapeGroup"/><path d="M69.808 245.36l-.02.02c-.227.223-2.333 2.179-5.993 2.178-1.314 0-2.832-.251-4.546-.928l-.215.545c1.778.702 3.372.968 4.761.968 4.138-.002 6.407-2.348 6.435-2.376l-.422-.407M68.042 227.811l-.021.02c-.243.224-2.47 2.169-6.053 2.166-1.358 0-2.914-.276-4.646-1.033l-.242.554c1.804.789 3.448 1.084 4.888 1.084 4.065-.003 6.467-2.331 6.495-2.357l-.421-.434M66.456 209.338l-.017.019c-.193.21-1.983 2.076-5.47 2.076-1.259 0-2.744-.243-4.463-.901l-.178.465c1.77.677 3.317.934 4.641.933 3.921 0 5.842-2.24 5.866-2.269l-.379-.322v-.001M64.82 191.486l-.058.056c-.295.27-1.665 1.4-4.051 1.4-1.12 0-2.468-.249-4.043-.96l-.167.37c1.622.732 3.03.996 4.21.995 2.88 0 4.382-1.559 4.402-1.58l-.292-.28-.001-.001M63.613 174.277l-.044.038c-.223.184-1.261.955-2.99.955-.967 0-2.153-.24-3.544-.965l-.151.29c1.432.746 2.673 1.002 3.695 1.002 2.092-.001 3.24-1.065 3.257-1.081l-.223-.239M62.751 155.53l.002 1.121v.855c0 8.202.091 32.646 5.033 72.16.717 5.733 1.278 11.421 1.278 16.072.002 2.913-.225 5.422-.738 7.233-.254.905-.58 1.631-.95 2.147-.373.518-.769.824-1.228.985-.229.079-.45.115-.671.116-.528-.002-1.099-.211-1.74-.771-.958-.833-1.985-2.465-2.844-4.953-.863-2.488-1.572-5.821-1.993-10.045-1.385-13.872-1.832-28.481-1.832-41.789 0-17.849.803-33.356 1.22-41.647l-1.69-.085c-.417 8.292-1.222 23.835-1.222 41.732 0 13.346.447 28.005 1.841 41.958.577 5.763 1.669 9.976 3.062 12.826.7 1.424 1.476 2.513 2.341 3.275.86.76 1.845 1.193 2.857 1.191.414 0 .828-.072 1.225-.21.838-.288 1.527-.863 2.05-1.599.788-1.108 1.264-2.575 1.573-4.324.305-1.75.43-3.79.431-6.04-.001-4.783-.571-10.518-1.291-16.282-4.932-39.437-5.02-63.782-5.02-71.95v-.855l-.002-1.131-1.692.01" fill="#2B3F22" sketch:type="MSShapeGroup"/><path d="M108.608 85.421c-.241-.008-.368-.294-.209-.475 2.344-2.677 14.665-16.23 20.696-12.519 5.593 3.442-1.838 13.626-20.487 12.994" fill="#DBE3CB" sketch:type="MSShapeGroup"/><path d="M108.608 85.421l.028-.825-.018.538.397-.362c-.086-.099-.237-.173-.379-.176l-.018.538.397-.362-.393.358h.531c-.001-.14-.049-.259-.138-.358l-.393.358h.531-.547l.408.365c.091-.099.142-.246.139-.365h-.547l.408.365.006-.006c1.016-1.162 3.966-4.428 7.429-7.379 1.73-1.475 3.589-2.87 5.377-3.88 1.786-1.015 3.501-1.624 4.875-1.618.746.002 1.386.164 1.961.517.513.316.862.676 1.089 1.06.226.385.337.8.338 1.268.003.804-.352 1.786-1.153 2.814-1.196 1.542-3.372 3.147-6.501 4.346-3.127 1.202-7.201 2.007-12.181 2.006-.529 0-1.069-.009-1.619-.027l-.054 1.649c.567.019 1.125.029 1.673.029 6.877-.002 12.178-1.478 15.807-3.54 1.814-1.032 3.213-2.211 4.177-3.449.961-1.237 1.499-2.545 1.501-3.828.002-.741-.188-1.466-.567-2.107-.378-.641-.938-1.192-1.645-1.626-.861-.532-1.834-.763-2.826-.762-1.84.007-3.762.748-5.687 1.832-2.884 1.633-5.784 4.084-8.179 6.353-2.393 2.27-4.271 4.357-5.057 5.255l.006-.006c-.189.209-.283.486-.281.734.002.286.106.547.293.754.184.206.475.353.784.361l.028-.824" fill="#2B3F22" sketch:type="MSShapeGroup"/><path d="M108.555 85.51c-.117-.077-.095-.258.038-.299 2.32-.724 16.21-4.816 18.696.115 2.279 4.518-6.74 8.195-18.734.184" fill="#DBE3CB" sketch:type="MSShapeGroup"/><path d="M108.555 85.51l.459-.685-.364.543h.654c.004-.194-.103-.42-.29-.543l-.364.543h.654-.657l.541.371c.081-.119.115-.246.116-.371h-.657l.541.371-.549-.377.191.639c.141-.041.279-.143.358-.262l-.549-.377.191.639.009-.003c1.434-.453 7.564-2.25 12.3-2.243 1.353-.001 2.584.148 3.522.478.945.334 1.559.807 1.892 1.464.189.376.265.71.265 1.01-.002.334-.091.634-.283.935-.286.449-.833.894-1.66 1.222-.824.328-1.915.534-3.22.533-3.182.003-7.626-1.221-12.642-4.573l-.917 1.372c5.238 3.496 9.963 4.849 13.559 4.851 1.968-.002 3.605-.402 4.815-1.138.604-.37 1.101-.829 1.452-1.374.352-.543.547-1.175.546-1.828 0-.586-.153-1.181-.442-1.753-.574-1.14-1.624-1.865-2.821-2.279-1.205-.419-2.596-.569-4.066-.57-5.111.007-11.277 1.851-12.791 2.318l.245.788-.236-.791c-.217.063-.412.21-.529.385-.12.175-.174.37-.174.563-.005.302.151.636.442.828l.459-.686" fill="#2B3F22" sketch:type="MSShapeGroup"/><path d="M23.47 81.968c.241.001.379-.279.228-.467-2.236-2.768-14.007-16.801-20.18-13.334-5.726 3.216 1.292 13.689 19.952 13.801" fill="#DBE3CB" sketch:type="MSShapeGroup"/><path d="M23.47 81.968v.825c.316.002.617-.141.809-.348.194-.207.305-.474.306-.768.002-.236-.081-.493-.246-.695-1.012-1.251-3.919-4.745-7.413-7.955-1.749-1.604-3.644-3.14-5.545-4.292-1.904-1.146-3.816-1.934-5.669-1.941-.903-.001-1.794.199-2.599.654-.752.422-1.352.976-1.757 1.635-.405.658-.607 1.413-.606 2.187.003 1.324.56 2.688 1.564 3.991 1.512 1.954 4.053 3.804 7.587 5.194 3.534 1.387 8.064 2.305 13.564 2.338h.005v-.825l.005-.825c-7.095-.042-12.432-1.611-15.95-3.647-1.759-1.016-3.061-2.149-3.904-3.243-.848-1.096-1.224-2.141-1.221-2.983.002-.497.121-.929.362-1.323.242-.392.613-.753 1.159-1.061.539-.301 1.123-.44 1.791-.442 1.36-.007 3.054.632 4.814 1.703 2.645 1.598 5.426 4.113 7.709 6.454 2.287 2.341 4.085 4.507 4.821 5.419l.425-.343h-.546c-.002.115.043.249.121.343l.425-.343h-.546.531l-.386-.365c-.092.099-.143.22-.145.365h.531l-.386-.365.39.368v-.537c-.145-.003-.301.07-.39.169l.39.368v-.537h.005l-.005.825" fill="#2B3F22" sketch:type="MSShapeGroup"/><path d="M23.52 82.06c.119-.073.105-.255-.027-.301-2.289-.816-16.005-5.458-18.686-.631-2.457 4.423 6.408 8.457 18.713.932" fill="#DBE3CB" sketch:type="MSShapeGroup"/><path d="M23.52 82.06l.432.702c.314-.191.478-.537.474-.849-.001-.187-.052-.376-.164-.547-.111-.17-.292-.317-.498-.387l.006.002c-.781-.278-2.838-.984-5.349-1.623-2.513-.639-5.471-1.217-8.106-1.219-1.314.002-2.552.142-3.637.528-1.079.381-2.03 1.043-2.592 2.06-.336.603-.515 1.239-.515 1.868-.001.672.207 1.323.578 1.881.559.84 1.452 1.483 2.576 1.923 1.126.441 2.496.681 4.07.682 3.519-.002 8.069-1.209 13.155-4.318l.002-.001-.432-.702-.431-.704c-4.872 2.98-9.153 4.077-12.294 4.075-1.873.002-3.335-.393-4.264-.954-.466-.28-.797-.596-1.005-.911-.209-.319-.303-.631-.305-.971.001-.317.087-.67.307-1.066.329-.589.879-1.009 1.705-1.308.82-.295 1.89-.433 3.082-.432 2.395-.002 5.262.545 7.699 1.167 2.438.622 4.454 1.313 5.202 1.58l.006.002.219-.63-.556.367c.074.116.201.217.337.263l.219-.63-.556.367.548-.362h-.657c0 .122.033.246.109.362l.548-.362h-.657.653l-.342-.556c-.204.124-.316.356-.311.556h.653l-.342-.556.002-.001.431.704" fill="#2B3F22" sketch:type="MSShapeGroup"/><path d="M73.002 175.285c17.137.104 18.264-.152 22.776-27.369 4.443-26.794 12.001-100.546 7.826-131.607-1.545-11.501-21.367-13.635-31.36-14.248l-2.1-.129c-10.234-.626-30.478-.25-32.905 10.94-6.8 31.368-9.404 103.814-8.268 130.949 1.154 27.565 3.088 29.201 19.263 29.945 0 0 14.66 1.456 24.768 1.519" fill="#405533" sketch:type="MSShapeGroup"/><path d="M73.002 175.285l-.005.915c.869.004 1.699.009 2.491.009 3.709-.003 6.608-.09 9.016-.671 1.804-.434 3.342-1.174 4.613-2.366 1.913-1.796 3.172-4.478 4.284-8.471 1.11-4 2.074-9.361 3.28-16.635 3.544-21.387 9.051-72.428 9.054-108.136 0-9.172-.363-17.331-1.224-23.744-.417-3.136-2.112-5.652-4.474-7.578-3.549-2.895-8.594-4.605-13.696-5.697-5.103-1.086-10.272-1.531-14.041-1.763l-2.101-.129c-1.761-.108-3.814-.186-6.024-.186-5.379.002-11.678.457-16.982 2.123-2.651.835-5.062 1.974-6.977 3.557-1.913 1.576-3.324 3.627-3.871 6.165-2.907 13.417-5.036 34.165-6.448 55.716-1.411 21.546-2.099 43.875-2.099 60.387 0 5.853.087 10.974.258 15.078.29 6.902.627 12.193 1.232 16.299.455 3.079 1.059 5.495 1.94 7.43.661 1.448 1.487 2.627 2.513 3.557 1.54 1.401 3.485 2.203 5.846 2.692 2.367.49 5.181.685 8.605.843l.042-.914-.09.91c.014.001 14.672 1.46 24.853 1.524l.005-.915.006-.916c-5.015-.03-11.195-.408-16.112-.78-2.459-.185-4.603-.369-6.132-.506l-2.439-.228-.026-.002-.023-.001c-4.029-.183-7.135-.431-9.468-1.084-1.754-.49-3.057-1.183-4.105-2.233-.786-.79-1.441-1.8-1.999-3.143-1.684-4.021-2.341-11.002-2.819-22.609-.17-4.067-.256-9.168-.256-15.002 0-16.463.687-38.765 2.094-60.268 1.407-21.499 3.541-42.217 6.411-55.446.459-2.104 1.587-3.765 3.249-5.144 2.487-2.065 6.203-3.412 10.295-4.205 4.09-.797 8.543-1.056 12.497-1.055 2.167 0 4.184.077 5.913.183l2.1.129c4.965.302 12.363.992 18.625 2.998 3.129 1 5.966 2.331 8.065 4.052 2.101 1.728 3.464 3.792 3.82 6.405.843 6.279 1.207 14.379 1.207 23.5.003 35.528-5.504 86.586-9.029 107.837-1.07 6.453-1.949 11.379-2.885 15.104-.701 2.794-1.436 4.909-2.279 6.478-.632 1.179-1.318 2.049-2.102 2.715-1.175.995-2.607 1.571-4.578 1.908-1.965.335-4.442.408-7.544.406-.786 0-1.612-.004-2.48-.009l-.006.916" fill="#2B3F22" sketch:type="MSShapeGroup"/><path d="M95.038 6.872s9.396 23.076 3.307 70.737c-3.505 27.431-21.042 30.059-25.307 30.291-3.147.427-12.58-.401-15.412-.87 0 0-22.2-1.751-22.346-33.287-.222-48.048 11.922-69.803 11.922-69.803 13.295-5.103 44.366-.745 47.836 2.932" fill="#A5B98C" sketch:type="MSShapeGroup"/><path d="M95.038 6.872l-.816.332.011.03c.277.702 5.283 13.758 5.283 39.778 0 8.703-.56 18.857-2.045 30.486-1.739 13.539-6.876 20.787-12.032 24.757-5.159 3.967-10.427 4.656-12.449 4.765l-.035.001-.035.005c-.541.074-1.367.111-2.336.111-4.027.002-10.62-.61-12.814-.976l-.035-.005-.039-.004h-.006c-.237-.019-5.613-.559-10.889-4.833-2.641-2.137-5.27-5.204-7.262-9.647-1.99-4.444-3.342-10.273-3.377-17.933l-.004-1.296c.001-23.497 2.971-40.544 5.933-51.704 1.48-5.579 2.959-9.687 4.063-12.392.553-1.353 1.011-2.354 1.329-3.014.159-.331.283-.575.367-.735l.094-.177.027-.052-.769-.429.316.823c4.16-1.603 10.341-2.272 16.841-2.268 6.692 0 13.74.692 19.375 1.687 2.817.498 5.282 1.072 7.16 1.664.937.296 1.727.597 2.329.885.602.283 1.015.57 1.174.746l.641-.605-.816.332.816-.332.641-.605c-.424-.443-.987-.784-1.696-1.127-1.239-.59-2.941-1.141-5.01-1.659-6.197-1.546-15.67-2.747-24.614-2.748-6.624.004-12.939.65-17.473 2.384l-.298.113-.156.28c-.068.12-12.038 21.643-12.036 68.933l.003 1.305c.037 7.986 1.472 14.139 3.633 18.867 3.239 7.096 8.114 10.948 12.165 12.985 4.054 2.042 7.284 2.302 7.36 2.309l.069-.879-.144.87c2.368.389 8.905.997 13.102.999 1.015-.001 1.888-.034 2.571-.125l-.117-.874.047.88c2.243-.123 7.877-.865 13.429-5.127 5.555-4.26 10.939-12.041 12.705-25.932 1.495-11.701 2.06-21.93 2.06-30.709.001-27.094-5.384-40.375-5.424-40.472l-.063-.153-.113-.12-.641.605" fill="#2B3F22" sketch:type="MSShapeGroup"/><path d="M86.946 79.754l-40.73-2.496c-3.445-.211-6.067-3.176-5.856-6.621l1.84-30.026c.212-3.445 3.176-6.067 6.621-5.856l40.73 2.497c3.446.211 6.067 3.175 5.856 6.621l-1.84 30.026c-.212 3.445-3.176 6.067-6.621 5.855" fill="#DBE3CB" sketch:type="MSShapeGroup"/><path d="M86.946 79.754l.056-.913-40.73-2.497c-2.83-.172-5.01-2.524-5.009-5.319l.01-.329v-.003l1.841-30.026c.172-2.829 2.524-5.01 5.319-5.009l.327.01.005.001 40.73 2.496c2.83.172 5.009 2.525 5.009 5.319l-.01.335-1.841 30.023c-.172 2.83-2.524 5.009-5.319 5.009l-.337-.01h.005l-.056.913-.052.914.44.013c3.759-.001 6.911-2.926 7.146-6.726l1.84-30.026.014-.445c-.001-3.759-2.926-6.911-6.727-7.145l-40.73-2.497h.006l-.45-.014c-3.76 0-6.912 2.926-7.146 6.727l-1.841 30.026.001-.003-.014.447c0 3.76 2.926 6.912 6.727 7.146l40.73 2.497h.004l.052-.914M51.101 16.566s.54-.32 1.542-.768c.498-.232 1.116-.481 1.829-.759.722-.25 1.529-.572 2.44-.816l1.415-.411 1.536-.356c1.054-.26 2.188-.416 3.356-.61 1.179-.099 2.394-.308 3.641-.32 1.246-.033 2.513-.086 3.78.001l1.895.118 1.87.248c1.246.114 2.437.443 3.594.708 1.169.222 2.246.64 3.274.992.512.182 1.015.344 1.491.526l1.338.634c.852.411 1.644.761 2.304 1.15l1.675 1.065c.919.599 1.429.953 1.429.953l-1.6-.631-1.801-.753c-.699-.277-1.526-.497-2.392-.806l-1.359-.456-1.487-.376c-1.02-.254-2.083-.555-3.217-.725-1.125-.209-2.283-.422-3.479-.529l-1.797-.208-1.823-.083c-1.215-.106-2.435-.074-3.636-.063-1.201.003-2.382.106-3.528.153-1.136.147-2.252.185-3.293.353-1.045.142-2.036.276-2.945.444-1.823.31-3.335.645-4.392.899-1.06.247-1.66.426-1.66.426" fill="#2B3F22" sketch:type="MSShapeGroup"/><path d="M65.28 99.728c-6.899.277-8.102-8.284-.205-7.949 6.433.273 8.762 7.605.205 7.949" fill="#7A9C5E" sketch:type="MSShapeGroup"/><path d="M65.28 99.728l-.035-.877-.291.006c-1.516-.002-2.625-.483-3.363-1.141-.738-.66-1.099-1.504-1.098-2.278.006-.699.272-1.341.896-1.865.625-.521 1.663-.927 3.241-.928l.403.01h.005c1.563.066 2.82.596 3.666 1.295.852.701 1.262 1.554 1.257 2.251-.01.591-.24 1.128-.942 1.644-.702.508-1.926.934-3.774 1.006l.07 1.753c2.075-.085 3.631-.552 4.726-1.333 1.097-.771 1.684-1.919 1.674-3.07-.005-1.36-.734-2.645-1.894-3.604-1.164-.961-2.789-1.613-4.709-1.695h.005l-.487-.011c-1.873 0-3.343.487-4.361 1.332-1.021.84-1.536 2.033-1.53 3.215.001 1.316.603 2.62 1.682 3.586 1.08.967 2.64 1.589 4.533 1.587l.361-.007-.035-.876" fill="#2B3F22" sketch:type="MSShapeGroup"/><path d="M84.437 97.144c-6.294 3.413-11.004-2.778-4.179-6.766 6.975-4.075 11.707 2.683 4.179 6.766" fill="#7A9C5E" sketch:type="MSShapeGroup"/><path d="M84.437 97.144l-.418-.772c-1.167.633-2.237.884-3.137.884-.997 0-1.783-.306-2.305-.748-.521-.447-.792-1.008-.796-1.663 0-.51.172-1.098.625-1.741.452-.64 1.191-1.325 2.294-1.969 1.407-.822 2.67-1.142 3.69-1.141.992 0 1.749.297 2.245.72.495.427.751.964.755 1.61 0 .55-.199 1.202-.725 1.909-.525.704-1.38 1.453-2.647 2.14l.837 1.541c1.442-.783 2.503-1.677 3.216-2.632.712-.953 1.074-1.975 1.073-2.958.005-1.153-.511-2.22-1.372-2.946-.86-.731-2.041-1.139-3.382-1.138-1.385 0-2.946.429-4.575 1.381-1.273.744-2.21 1.58-2.841 2.47-.63.888-.948 1.839-.947 2.754-.004 1.181.537 2.264 1.417 3.002.88.744 2.083 1.164 3.438 1.163 1.228 0 2.583-.342 3.973-1.095l-.418-.771" fill="#2B3F22" sketch:type="MSShapeGroup"/><path d="M47.152 94.858c5.83 4.157 11.26-1.413 4.974-6.204-6.425-4.897-11.947 1.232-4.974 6.204" fill="#7A9C5E" sketch:type="MSShapeGroup"/><path d="M47.152 94.858l-.509.714c1.562 1.114 3.15 1.621 4.578 1.621 1.262 0 2.403-.4 3.241-1.127.838-.723 1.352-1.788 1.347-2.96 0-.85-.26-1.741-.781-2.61-.522-.872-1.304-1.727-2.371-2.54-1.786-1.361-3.569-1.976-5.143-1.977-1.246-.001-2.365.392-3.18 1.113-.817.715-1.302 1.766-1.297 2.912 0 .917.298 1.884.893 2.826.597.944 1.49 1.87 2.713 2.742l.509-.714.509-.714c-1.074-.766-1.8-1.54-2.248-2.251-.449-.712-.622-1.353-.622-1.889.005-.67.254-1.193.705-1.597.452-.401 1.134-.673 2.018-.674 1.11-.001 2.536.442 4.08 1.618.924.704 1.546 1.405 1.929 2.046.384.642.532 1.218.532 1.709-.004.675-.267 1.215-.744 1.635-.478.417-1.193.697-2.09.698-1.01 0-2.248-.36-3.56-1.295l-.509.714" fill="#2B3F22" sketch:type="MSShapeGroup"/><path d="M63.942 121.556c-6.899.277-8.102-8.284-.205-7.949 6.433.273 8.762 7.605.205 7.949" fill="#7A9C5E" sketch:type="MSShapeGroup"/><path d="M63.942 121.556l-.035-.876-.291.006c-1.516-.002-2.626-.484-3.363-1.141-.738-.661-1.099-1.505-1.098-2.278.005-.699.272-1.342.896-1.866.626-.52 1.663-.926 3.241-.927l.402.009h.006c1.563.066 2.82.596 3.666 1.295.852.702 1.262 1.554 1.257 2.251-.01.592-.24 1.128-.942 1.645-.702.508-1.926.933-3.774 1.006l.07 1.753c2.075-.086 3.631-.553 4.726-1.333 1.097-.772 1.684-1.92 1.674-3.071-.005-1.36-.734-2.645-1.894-3.604-1.165-.96-2.789-1.613-4.709-1.695l.005.001-.487-.011c-1.873-.001-3.343.487-4.361 1.331-1.021.84-1.536 2.033-1.53 3.216.001 1.316.603 2.619 1.682 3.585 1.08.968 2.64 1.59 4.533 1.588l.361-.007-.035-.877" fill="#2B3F22" sketch:type="MSShapeGroup"/><path d="M81.153 122.611c-6.899.277-8.102-8.284-.205-7.949 6.433.273 8.762 7.606.205 7.949" fill="#7A9C5E" sketch:type="MSShapeGroup"/><path d="M81.153 122.611l-.035-.876-.291.006c-1.516-.003-2.626-.484-3.363-1.141-.738-.661-1.099-1.505-1.098-2.279.005-.698.272-1.341.896-1.865.625-.52 1.663-.927 3.241-.928l.404.01h.004c1.563.066 2.82.596 3.666 1.295.852.702 1.262 1.554 1.257 2.251-.01.591-.24 1.128-.942 1.645-.703.508-1.926.933-3.774 1.006l.07 1.753c2.075-.086 3.631-.553 4.726-1.333 1.097-.772 1.684-1.92 1.674-3.071-.005-1.36-.734-2.645-1.894-3.604-1.165-.961-2.789-1.613-4.709-1.695l.004.001-.486-.012c-1.873 0-3.343.487-4.361 1.332-1.021.84-1.536 2.033-1.53 3.215.001 1.317.603 2.62 1.682 3.586 1.08.968 2.64 1.589 4.533 1.588l.361-.007-.035-.877" fill="#2B3F22" sketch:type="MSShapeGroup"/><path d="M45.705 120.438c6.814 1.118 9.053-7.232 1.174-7.864-6.418-.515-9.625 6.478-1.174 7.864" fill="#7A9C5E" sketch:type="MSShapeGroup"/><path d="M45.705 120.438l-.142.866c.472.077.928.114 1.366.114 1.732.002 3.191-.584 4.212-1.503 1.02-.917 1.61-2.165 1.611-3.45.005-1.151-.495-2.32-1.488-3.182-.992-.867-2.433-1.433-4.315-1.584-.249-.02-.496-.03-.739-.03-1.833.001-3.422.558-4.58 1.444-1.152.882-1.905 2.122-1.909 3.478-.007 1.085.52 2.172 1.509 2.984.99.819 2.414 1.412 4.333 1.729l.284-1.731c-1.709-.279-2.838-.798-3.495-1.347-.658-.557-.87-1.095-.877-1.635-.004-.67.395-1.452 1.221-2.086.821-.63 2.038-1.082 3.514-1.082.195 0 .395.008.599.025 1.61.129 2.667.6 3.3 1.155.632.56.884 1.196.889 1.862.001.74-.345 1.53-1.03 2.145-.683.613-1.697 1.052-3.039 1.054-.34 0-.701-.029-1.082-.091l-.142.865" fill="#2B3F22" sketch:type="MSShapeGroup"/><path d="M62.518 135.233c6.814 1.118 9.053-7.233 1.175-7.865-6.419-.515-9.626 6.479-1.175 7.865" fill="#7A9C5E" sketch:type="MSShapeGroup"/><path d="M62.518 135.233l-.142.866c.472.077.928.113 1.366.113 1.732.002 3.192-.584 4.212-1.503 1.02-.916 1.61-2.165 1.611-3.45.005-1.15-.495-2.319-1.488-3.181-.992-.867-2.433-1.433-4.314-1.584-.25-.02-.497-.03-.739-.03-1.834.001-3.423.557-4.581 1.443-1.152.883-1.905 2.123-1.909 3.479-.007 1.084.52 2.172 1.51 2.983.989.82 2.413 1.413 4.332 1.729l.284-1.73c-1.708-.279-2.838-.798-3.495-1.347-.657-.558-.87-1.096-.877-1.635-.004-.67.395-1.452 1.222-2.086.821-.63 2.037-1.083 3.514-1.082.194 0 .394.008.598.024 1.61.129 2.667.601 3.3 1.156.632.559.884 1.196.889 1.861.001.74-.345 1.53-1.029 2.145-.684.613-1.698 1.053-3.04 1.054-.34 0-.701-.028-1.082-.091l-.142.866" fill="#2B3F22" sketch:type="MSShapeGroup"/><path d="M79.729 136.288c6.814 1.118 9.053-7.232 1.174-7.864-6.418-.516-9.625 6.478-1.174 7.864" fill="#7A9C5E" sketch:type="MSShapeGroup"/><path d="M79.729 136.288l-.142.866c.472.077.928.114 1.366.114 1.732.001 3.191-.585 4.212-1.504 1.02-.916 1.61-2.165 1.611-3.45.005-1.15-.495-2.319-1.488-3.182-.992-.866-2.433-1.432-4.315-1.583-.249-.02-.495-.03-.739-.03-1.833.001-3.423.557-4.58 1.443-1.152.883-1.905 2.123-1.909 3.479-.007 1.084.52 2.172 1.51 2.983.989.82 2.413 1.413 4.332 1.729l.284-1.73c-1.708-.279-2.838-.798-3.495-1.348-.658-.557-.87-1.095-.877-1.634-.004-.67.395-1.452 1.221-2.086.821-.63 2.038-1.083 3.514-1.082.194 0 .394.008.599.025 1.61.128 2.667.6 3.3 1.155.632.559.883 1.196.889 1.861.001.74-.345 1.53-1.03 2.145-.683.613-1.697 1.053-3.039 1.054-.34 0-.701-.028-1.082-.091l-.142.866" fill="#2B3F22" sketch:type="MSShapeGroup"/><path d="M45.448 134.187c-6.9.277-8.102-8.284-.205-7.95 6.433.274 8.762 7.606.205 7.95" fill="#7A9C5E" sketch:type="MSShapeGroup"/><path d="M45.448 134.187l-.035-.877-.291.006c-1.517-.002-2.626-.483-3.363-1.141-.738-.66-1.099-1.504-1.098-2.278.005-.699.271-1.341.896-1.866.625-.52 1.663-.926 3.241-.927l.402.01h.005c1.564.066 2.821.596 3.667 1.295.851.701 1.262 1.554 1.257 2.251-.01.591-.24 1.127-.942 1.644-.703.508-1.926.934-3.775 1.006l.071 1.753c2.075-.086 3.63-.552 4.726-1.333 1.096-.772 1.684-1.92 1.674-3.07-.005-1.36-.735-2.645-1.894-3.604-1.165-.961-2.79-1.613-4.709-1.695h.005l-.487-.011c-1.873-.001-3.343.487-4.362 1.332-1.02.84-1.535 2.032-1.53 3.215.001 1.316.604 2.62 1.683 3.585 1.079.968 2.639 1.59 4.533 1.588l.361-.007-.035-.876" fill="#2B3F22" sketch:type="MSShapeGroup"/><path d="M62.261 148.982c-6.899.277-8.102-8.285-.205-7.95 6.433.273 8.762 7.606.205 7.95" fill="#7A9C5E" sketch:type="MSShapeGroup"/><path d="M62.261 148.982l-.035-.877-.291.006c-1.516-.002-2.626-.483-3.363-1.141-.738-.66-1.099-1.504-1.098-2.278.005-.699.272-1.341.896-1.866.625-.52 1.663-.926 3.241-.927l.402.01h.006c1.563.066 2.82.596 3.666 1.295.852.701 1.262 1.554 1.257 2.251-.01.591-.24 1.127-.942 1.644-.703.508-1.926.934-3.774 1.006l.07 1.753c2.075-.086 3.631-.552 4.726-1.333 1.097-.772 1.684-1.92 1.674-3.07-.005-1.36-.734-2.646-1.894-3.604-1.165-.961-2.789-1.614-4.709-1.695h.005l-.487-.011c-1.874-.001-3.343.487-4.362 1.331-1.02.841-1.535 2.033-1.529 3.216.001 1.316.603 2.62 1.682 3.585 1.08.968 2.639 1.59 4.533 1.588l.361-.007-.035-.876" fill="#2B3F22" sketch:type="MSShapeGroup"/><path d="M79.472 150.037c-6.9.277-8.102-8.285-.205-7.95 6.433.273 8.762 7.606.205 7.95" fill="#7A9C5E" sketch:type="MSShapeGroup"/><path d="M79.472 150.037l-.035-.877-.291.006c-1.516-.002-2.626-.483-3.363-1.141-.738-.66-1.099-1.504-1.098-2.278.005-.699.271-1.341.896-1.866.625-.52 1.663-.926 3.241-.927l.402.009.006.001c1.563.066 2.82.595 3.666 1.295.852.701 1.262 1.553 1.257 2.251-.01.591-.24 1.127-.942 1.644-.703.508-1.926.934-3.775 1.006l.071 1.753c2.075-.086 3.631-.552 4.726-1.333 1.096-.772 1.684-1.92 1.674-3.07-.005-1.361-.735-2.646-1.894-3.604-1.165-.961-2.79-1.614-4.709-1.695h.005l-.487-.011c-1.873-.001-3.343.487-4.362 1.331-1.02.84-1.535 2.033-1.529 3.216 0 1.316.603 2.62 1.682 3.585 1.079.968 2.639 1.59 4.533 1.588l.361-.007-.035-.876" fill="#2B3F22" sketch:type="MSShapeGroup"/><path d="M44.024 147.864c6.814 1.117 9.053-7.233 1.174-7.865-6.418-.515-9.625 6.478-1.174 7.865" fill="#7A9C5E" sketch:type="MSShapeGroup"/><path d="M44.024 147.864l-.142.865c.471.077.927.114 1.366.114 1.732.002 3.191-.584 4.212-1.503 1.02-.917 1.61-2.165 1.611-3.45.005-1.151-.495-2.32-1.488-3.182-.992-.866-2.433-1.433-4.315-1.584-.249-.02-.496-.03-.739-.03-1.833.001-3.422.558-4.58 1.444-1.152.882-1.905 2.123-1.909 3.478-.007 1.085.52 2.172 1.509 2.984.99.819 2.414 1.412 4.333 1.729l.284-1.731c-1.709-.279-2.838-.798-3.495-1.347-.658-.557-.87-1.095-.877-1.635-.005-.67.395-1.451 1.221-2.085.821-.63 2.038-1.083 3.514-1.082.195 0 .394.008.599.024 1.61.129 2.667.6 3.3 1.156.631.559.883 1.196.889 1.861.001.74-.346 1.53-1.03 2.145-.684.613-1.697 1.052-3.039 1.054-.34 0-.701-.028-1.082-.091l-.142.866" fill="#2B3F22" sketch:type="MSShapeGroup"/><path d="M60.837 162.659c6.814 1.117 9.053-7.233 1.175-7.865-6.419-.515-9.626 6.478-1.175 7.865" fill="#7A9C5E" sketch:type="MSShapeGroup"/><path d="M60.837 162.659l-.142.865c.471.077.928.114 1.366.114 1.732.002 3.191-.584 4.212-1.503 1.02-.917 1.61-2.165 1.611-3.45.005-1.151-.495-2.32-1.488-3.182-.992-.866-2.433-1.433-4.315-1.584-.249-.02-.496-.03-.739-.03-1.833.001-3.422.558-4.58 1.444-1.152.882-1.905 2.123-1.909 3.478-.007 1.085.52 2.172 1.509 2.984.99.819 2.414 1.412 4.333 1.729l.284-1.731c-1.708-.279-2.838-.798-3.495-1.347-.658-.557-.87-1.095-.877-1.635-.004-.67.395-1.451 1.222-2.086.82-.63 2.037-1.082 3.513-1.081.195 0 .395.008.599.024 1.61.129 2.667.6 3.3 1.155.632.56.884 1.196.889 1.862.001.74-.345 1.53-1.03 2.145-.683.613-1.697 1.052-3.039 1.054-.34 0-.701-.029-1.082-.091l-.142.866" fill="#2B3F22" sketch:type="MSShapeGroup"/><path d="M78.048 163.714c6.814 1.117 9.053-7.233 1.174-7.865-6.418-.515-9.625 6.478-1.174 7.865" fill="#7A9C5E" sketch:type="MSShapeGroup"/><path d="M78.048 163.714l-.142.865c.471.077.928.114 1.366.114 1.732.002 3.191-.584 4.212-1.503 1.02-.917 1.61-2.165 1.611-3.45.005-1.151-.495-2.32-1.488-3.182-.992-.866-2.433-1.433-4.315-1.584-.249-.02-.496-.03-.739-.03-1.833.001-3.422.558-4.58 1.444-1.152.882-1.905 2.123-1.909 3.478-.007 1.085.52 2.172 1.509 2.984.99.819 2.414 1.412 4.333 1.729l.284-1.731c-1.709-.279-2.838-.798-3.495-1.347-.658-.557-.87-1.095-.877-1.635-.005-.67.395-1.451 1.221-2.086.821-.63 2.038-1.082 3.514-1.081.195 0 .394.007.599.024 1.61.129 2.667.6 3.3 1.155.631.56.883 1.196.889 1.862.001.74-.346 1.53-1.03 2.145-.684.613-1.697 1.052-3.039 1.054-.34 0-.701-.029-1.082-.091l-.142.866" fill="#2B3F22" sketch:type="MSShapeGroup"/><path d="M43.767 161.612c-6.9.277-8.103-8.284-.205-7.949 6.433.273 8.762 7.606.205 7.949" fill="#7A9C5E" sketch:type="MSShapeGroup"/><path d="M43.767 161.612l-.035-.876-.291.005c-1.517-.002-2.626-.483-3.363-1.14-.738-.661-1.099-1.505-1.099-2.279.006-.698.272-1.341.897-1.865.625-.521 1.663-.927 3.241-.927l.404.009h.003c1.564.066 2.821.596 3.667 1.295.852.702 1.262 1.554 1.257 2.251-.01.591-.24 1.128-.942 1.645-.703.508-1.926.933-3.775 1.006l.071 1.753c2.075-.086 3.63-.553 4.726-1.333 1.096-.772 1.684-1.92 1.674-3.071-.005-1.36-.735-2.645-1.894-3.604-1.165-.961-2.79-1.613-4.709-1.695l.003.001-.485-.012c-1.873 0-3.343.487-4.362 1.332-1.02.84-1.535 2.033-1.53 3.215.001 1.317.604 2.62 1.683 3.586 1.079.968 2.639 1.589 4.533 1.588l.361-.007-.035-.877" fill="#2B3F22" sketch:type="MSShapeGroup"/><path d="M60.796 53.494c.035-.58.247-1.045.636-1.397.389-.352.856-.512 1.402-.479.545.034.984.249 1.319.645.335.397.484.885.449 1.464-.036.579-.244 1.045-.625 1.397-.38.353-.843.513-1.388.479-.545-.033-.989-.248-1.332-.645-.344-.397-.497-.885-.461-1.464zm-.536 8.735c.036-.578.247-1.044.637-1.396.389-.352.856-.512 1.401-.479.545.034.985.249 1.319.645.335.397.485.885.449 1.463-.035.58-.243 1.046-.624 1.398-.38.352-.843.512-1.388.479-.545-.034-.99-.249-1.332-.645-.344-.397-.497-.886-.462-1.465zM68.6 49.561l5.62.345c.919.056 1.761.193 2.526.41.764.218 1.414.549 1.951.992.537.443.947 1.002 1.231 1.678.283.675.395 1.498.335 2.469-.056.919-.267 1.71-.632 2.371s-.847 1.201-1.445 1.617c-.598.416-1.292.707-2.079.872-.788.166-1.634.22-2.536.165l-2.656-.163-.376 6.131-2.963-.182 1.024-16.705zm4.887 8.53c2.452.15 3.741-.788 3.865-2.815.065-1.055-.198-1.802-.786-2.24-.589-.437-1.496-.694-2.722-.769l-2.426-.149-.357 5.824 2.426.149z" fill="#7A9C5E" sketch:type="MSShapeGroup"/><path d="M61.286 22.91h-.011c-.216-.001-.399.168-.412.388l-.001.011v.015c-.001.212.164.394.379.411l.036.001c.213.001.395-.165.411-.381l.001-.032c0-.217-.169-.399-.388-.413h-.015M61.241 23.735c-.215-.017-.38-.199-.379-.411v-.015l.001-.011c.013-.22.196-.389.412-.388h.026c.219.014.388.196.388.413l-.001.032c-.016.216-.198.382-.411.381l-.036-.001m.034-1.681c-.667.001-1.224.518-1.266 1.192h.001l-.004.078c.001.666.519 1.223 1.192 1.266h.014l.065.002c.666-.001 1.223-.518 1.265-1.191v-.006l.002-.072c0-.662-.51-1.216-1.176-1.265l-.011-.001h-.004l-.078-.003M70.113 23.45h-.011c-.215 0-.4.17-.412.389l-.001.01-.001.016c0 .215.17.4.39.412l.025.001c.216 0 .4-.169.412-.389l.001-.026c.001-.215-.169-.399-.388-.411h.001l-.016-.002M70.078 24.277c-.22-.012-.39-.197-.39-.412l.001-.016.001-.01c.012-.219.197-.389.412-.389h.011l.016.002h-.001c.219.012.389.196.388.411l-.001.026c-.012.22-.196.389-.412.389l-.025-.001m.024-1.682c-.667 0-1.224.519-1.266 1.191l-.003.079c0 .666.519 1.223 1.191 1.266h.015l.064.002c.666 0 1.224-.518 1.266-1.191v-.006l.003-.073c-.001-.666-.519-1.223-1.192-1.265l-.078-.003M78.94 23.991h-.012c-.215 0-.399.17-.412.389v.026c0 .213.164.394.379.412h.035c.216.001.399-.168.412-.387l.001-.027c0-.215-.169-.399-.388-.411l-.006-.001-.009-.001M78.895 24.818c-.215-.018-.379-.199-.379-.412v-.026c.013-.219.197-.389.412-.389h.012l.009.001.006.001c.219.012.388.196.388.411l-.001.027c-.013.219-.196.388-.412.387h-.035m.033-1.682c-.662 0-1.217.513-1.264 1.181v.001l-.001.01-.002.078c0 .667.517 1.224 1.191 1.266l.014.001.064.001c.666-.001 1.224-.518 1.266-1.191v-.007l.002-.072c0-.661-.51-1.215-1.176-1.264h-.01l-.005-.001-.079-.003" fill="#5D7149" sketch:type="MSShapeGroup"/></g></svg>