<svg xmlns="http://www.w3.org/2000/svg" xmlns:xlink="http://www.w3.org/1999/xlink" viewBox="0 0 2385.7 682" enable-background="new 0 0 2385.7 682"><defs><path id="a" d="M-7.1-.2h2416.9v682h-2416.9z"/></defs><clipPath id="b"><use xlink:href="#a" overflow="visible"/></clipPath><path clip-path="url(#b)" fill="#465D34" stroke="#2E471F" stroke-width="3.505" stroke-miterlimit="10" d="M173.1 724.5c-1.5-13.1 32.3-13.4 25.9-28.5-6.3-15.1 9.7-.8 5.2-18.6-5.9-23.5 18.7-5.3 16.6-28.2-1.6-17.6-10.6-10.7-9.3-20.9 2.2-17.1-8.4-17.8-2.2-20.7 6.2-2.8 10.2-11.1 1.2-20s-2.9-13.1 3.3-18-.9-16.5-11.2-18.5 8.9-10.3-6.4-24.4c0 0 12.9-18.4-.9-25.2l-8.8 17.2s-5.8-6.4-18.6.2c-17.2 8.7-.5-14.9-10.5-21-19.4-11.8 11.3-23.9-.6-32.4-8.8-6.3-7.8-10.9-3.8-20.8 5.8-14.7-12.1-30.9-25.8-14.3-13.6 16.7-11.7 4.9-19.9 5.7s-8.7 27.6 5.8 34.4-1.2 17.2-15.1 9.8c-13.9-7.3-17.2 12.7-12.2 23 4.9 10.3-2 11.8-8.9 4.2-7-7.5-12.4 3.3-8.9 10.3 3.5 7-6.2 5-.9 16s-18.1 10-1.3 26.9c4.7 4.8 1.3 8.9-11.8 4.2s-8.9 15.8 5.7 17.9c0 0-18.9 7.7-13.5 19.3s-3.6 12.4 4.8 20.3c6.9 6.5 13.4.2 13.4.2 9.6-6.3 9.3 9.8-2.4 12-11.7 2.2-3.3 10.8 1.6 16.9s-10.9 13.9-2.5 24.8-1.8 34.5 25.1 33.6m2119.2 16.8c1.5-13.1-32.3-13.4-25.9-28.5 6.3-15.1-9.7-.8-5.2-18.6 5.9-23.5-18.7-5.3-16.6-28.2 1.6-17.6 10.6-10.7 9.3-20.9-2.2-17.1 8.4-17.8 2.2-20.7-6.2-2.8-10.2-11.1-1.2-20s2.9-13.1-3.3-18c-6.2-4.9.9-16.5 11.2-18.5 10.3-2-8.9-10.3 6.4-24.4 0 0-12.9-18.4.9-25.2l8.8 17.2s5.8-6.4 18.6.2c17.2 8.7-11.9-14.5-1.8-20.7 19.4-11.8-37.2-17.1-25.2-25.6 8.8-6.3 24-10.7 20.1-20.6-5.8-14.7 3.7-32.9 14.2-14.1 7.8 13.9 24.9-14.9 27.9.4 3.4 17 22.6 7 10.7 24.4-9 13.2-3.3 16.5 9.2 6.9 11.6-8.9 9.1 7.8 18.4 8.4 8.9.6 8.6 13.7 1.3 19.5-8.9 7.1 9.5 17.4 16.4 9.9 7-7.5 12.4 3.3 8.9 10.3-3.5 7 6.2 5 .9 16s18.1 10 1.3 26.9c-4.7 4.8-1.3 8.9 11.8 4.2 13.1-4.7 8.9 15.8-5.7 17.9 0 0 18.9 7.7 13.5 19.3-5.4 11.7 3.1 12-4.8 20.3-3.3 3.4-8.5 1.7-8.5 1.7-9.6-6.3-9.3 9.8 2.4 12 11.7 2.2 10 12.6 5.1 18.8-4.9 6.2 10.9 13.9 2.5 24.8s1.8 34.5-25.1 33.6m-698.3-226.1c-11.8-5.9-23.7 25.6-35.7 14.5-12-11.2-4.2 8.8-19.2-1.5-20-13.7-11.5 15.7-32.2 5.8-15.9-7.6-6.3-13.7-16.4-16-16.8-3.9-13.8-14.1-18.6-9.3-4.8 4.8-14 5.8-19.2-5.8s-11.3-7.2-18-3.1c-6.7 4.1-15.2-6.5-13.5-16.9 1.7-10.4-12.8 4.8-20.6-14.5 0 0-21.8 5.7-23.3-9.6-1.6-15.3 19.2-2.3 19.2-2.3s-4-7.6 6.6-17.4c14.1-13.1-17.8 6.1-20-5.4-4.4-22.3-28.9 28.9-32.7 14.8-2.8-10.5-1.7-26.2-12.4-26-15.8.3-29.6-14.9-8.3-18.2 15.7-2.5-5.4-28.5 10-26.1 17.1 2.7 14.4-18.8 26.6-1.6 9.3 13.1 14.3 8.9 9.7-6.2-4.3-14 10.5-5.8 14.2-14.3 3.6-8.1 15.8-3.3 18.8 5.6 3.6 10.8 19.6-2.8 15-12-4.7-9.1 7.3-10.5 12.7-4.8s6.9-4.1 15.3 4.7 15.6-13.5 25.7 8.1c2.8 6.1 7.9 4.3 8.1-9.6s17.9-2.9 14.9 11.5c0 0 13.7-15.1 22.8-5.9s12.4 1.2 17.4 11.6c2.1 4.3-1.3 8.6-1.3 8.6-9.2 6.8 6 12.1 12.1 1.9s15.3-5 19.4 1.7 16.8-5.4 24.2 6.2c7.4 11.6 33 10.3 22.8 35.2"/><g clip-path="url(#b)"><path fill="#DCE3D0" stroke="#2E471F" stroke-width="4.165" stroke-miterlimit="10" d="M115.8 560.7v192h55.8v-198.2z"/><path fill="#7C9D5E" stroke="#2E471F" stroke-width="4.165" stroke-miterlimit="10" d="M111.1 524.9h60.2v45.2h-71.1z"/><path fill="#DCE3D0" d="M158 643.7v-156.3h329.5v157.1z"/><path fill="#465D34" stroke="#2E471F" stroke-width="2.529" stroke-miterlimit="10" d="M489.9 494.4h-330.4v-7h330.4"/><path fill="#DCE3D0" stroke="#2E471F" stroke-width="1.7" stroke-miterlimit="10" d="M318.6 644.5l-.4 13.6h166.4v-13.6z"/><path fill="#465D34" stroke="#2E471F" stroke-width="3.569" stroke-miterlimit="10" d="M322.7 654.4h161.6v27.6h-161.6z"/><path fill="#DCE3D0" stroke="#2E471F" stroke-width="1.675" stroke-miterlimit="10" d="M167 642h151.1v108.8h-151.1z"/><path d="M174.4 602.9s-3.4 7.3 0 16.9c0 0-10.3-3.5-14.9 1.8m19.4-18.7s3.4 7.3 0 16.9c0 0 10.3-3.5 14.9 1.8m-14.9 20.4s3.4-7.3 0-16.9c0 0 10.3 3.5 14.9-1.8m-19.4 18.7s-3.4-7.3 0-16.9c0 0-10.3 3.5-14.9-1.8m139.7-20.4s-3.4 7.3 0 16.9c0 0-10.3-3.5-14.9 1.8m19.4-18.7s3.4 7.3 0 16.9c0 0 10.3-3.5 14.9 1.8m-14.9 20.4s3.4-7.3 0-16.9c0 0 10.3 3.5 14.9-1.8m-19.4 18.7s-3.4-7.3 0-16.9c0 0-10.3 3.5-14.9-1.8m55.3-20.4s-3.4 7.3 0 16.9c0 0-10.3-3.5-14.9 1.8m19.4-18.7s3.4 7.3 0 16.9c0 0 10.3-3.5 14.9 1.8m-14.9 20.4s3.4-7.3 0-16.9c0 0 10.3 3.5 14.9-1.8m-19.4 18.7s-3.4-7.3 0-16.9c0 0-10.3 3.5-14.9-1.8m140.5-20.4s-3.4 7.3 0 16.9c0 0-10.3-3.5-14.9 1.8m19.5-18.7s3.4 7.3 0 16.9c0 0 10.3-3.5 14.9 1.8m-14.9 20.4s3.4-7.3 0-16.9c0 0 10.3 3.5 14.9-1.8m-19.5 18.7s-3.4-7.3 0-16.9c0 0-10.3 3.5-14.9-1.8m-275.9-107.8s-3.4 7.3 0 16.9c0 0-10.3-3.5-14.9 1.8m19.4-18.7s3.4 7.3 0 16.9c0 0 10.3-3.5 14.9 1.8m-14.9 20.3s3.4-7.3 0-16.9c0 0 10.3 3.5 14.9-1.8m-19.4 18.7s-3.4-7.3 0-16.9c0 0-10.3 3.5-14.9-1.8m139.7-20.3s-3.4 7.3 0 16.9c0 0-10.3-3.5-14.9 1.8m19.4-18.7s3.4 7.3 0 16.9c0 0 10.3-3.5 14.9 1.8m-14.9 20.3s3.4-7.3 0-16.9c0 0 10.3 3.5 14.9-1.8m-19.4 18.7s-3.4-7.3 0-16.9c0 0-10.3 3.5-14.9-1.8m55.3-20.3s-3.4 7.3 0 16.9c0 0-10.3-3.5-14.9 1.8m19.4-18.7s3.4 7.3 0 16.9c0 0 10.3-3.5 14.9 1.8m-14.9 20.3s3.4-7.3 0-16.9c0 0 10.3 3.5 14.9-1.8m-19.4 18.7s-3.4-7.3 0-16.9c0 0-10.3 3.5-14.9-1.8m140.5-20.3s-3.4 7.3 0 16.9c0 0-10.3-3.5-14.9 1.8m19.5-18.7s3.4 7.3 0 16.9c0 0 10.3-3.5 14.9 1.8m-14.9 20.3s3.4-7.3 0-16.9c0 0 10.3 3.5 14.9-1.8m-19.5 18.7s-3.4-7.3 0-16.9c0 0-10.3 3.5-14.9-1.8m-275.9 24.9s-3.4 7.3 0 16.9c0 0-10.3-3.5-14.9 1.8m19.4-18.7s3.4 7.3 0 16.9c0 0 10.3-3.5 14.9 1.8m-14.9 20.3s3.4-7.3 0-16.9c0 0 10.3 3.5 14.9-1.8m-19.4 18.7s-3.4-7.3 0-16.9c0 0-10.3 3.5-14.9-1.8m139.7-20.3s-3.4 7.3 0 16.9c0 0-10.3-3.5-14.9 1.8m19.4-18.7s3.4 7.3 0 16.9c0 0 10.3-3.5 14.9 1.8m-14.9 20.3s3.4-7.3 0-16.9c0 0 10.3 3.5 14.9-1.8m-19.4 18.7s-3.4-7.3 0-16.9c0 0-10.3 3.5-14.9-1.8m55.3-20.3s-3.4 7.3 0 16.9c0 0-10.3-3.5-14.9 1.8m19.4-18.7s3.4 7.3 0 16.9c0 0 10.3-3.5 14.9 1.8m-14.9 20.3s3.4-7.3 0-16.9c0 0 10.3 3.5 14.9-1.8m-19.4 18.7s-3.4-7.3 0-16.9c0 0-10.3 3.5-14.9-1.8m140.5-20.3s-3.4 7.3 0 16.9c0 0-10.3-3.5-14.9 1.8m19.5-18.7s3.4 7.3 0 16.9c0 0 10.3-3.5 14.9 1.8m-14.9 20.3s3.4-7.3 0-16.9c0 0 10.3 3.5 14.9-1.8m-19.5 18.7s-3.4-7.3 0-16.9c0 0-10.3 3.5-14.9-1.8" stroke="#2E471F" stroke-width="1.959" stroke-miterlimit="10" fill="none"/><path fill="#465D34" stroke="#2E471F" stroke-width="1.77" stroke-miterlimit="10" d="M489.9 515.5v-7h-330.4v7h159.1v39h-159.1v6.9h159.1v36.9h-159.1v6.9h159.1v39.3h6.9v-39.3h164.4v-6.9h-164.4v-36.9h164.4v-6.9h-164.4v-39z"/><path fill="#7C9D5E" stroke="#2E471F" stroke-width="4.165" stroke-miterlimit="10" d="M213.5 361.3h-61.8l-9.3 129.6h379.2l-5.9-129.6h-243.3"/><path stroke="#2E471F" stroke-width="1.942" stroke-miterlimit="10" d="M154.5 490.9v149.3h329.9" fill="none"/><path fill="#465D34" stroke="#2E471F" stroke-width="3.569" stroke-miterlimit="10" d="M154.5 640.2v-149.3h7v149.3m-45.7 116.7v-187.1h7v187.1m39.7-5.3v-109.6h9.1v109.6m143.3 0v-109.6h9.1v109.6"/><path fill="#61685B" d="M190.2 392.2v68.4h95.2v-69.6zm11.2 195.6v-89.3h72.7v90.4h-72.7"/><path fill="#DCE3D0" stroke="#2E471F" stroke-width="1.7" stroke-miterlimit="10" d="M197.5 591.3h82.4v48.9h-82.7zm-6.5-131h93.3v30.6h-92.2zm46.7-126.3l54.8 54.7h-107.6z"/><path fill="#465D34" stroke="#2E471F" stroke-width="1.77" stroke-miterlimit="10" d="M205.5 587.2v-77.7c0-4.5 3.6-8.1 8.1-8.1s8.1 3.6 8.1 8.1v77.7h8.7v-77.7c0-4.5 3.6-8.1 8.1-8.1s8.1 3.6 8.1 8.1v77.7h8.7v-77.7c0-4.5 3.6-8.1 8.1-8.1s8.1 3.6 8.1 8.1v77.7h7.4v-93.9h-79.9v93.9h6.5z"/><path fill="#465D34" stroke="#2E471F" stroke-width="1.875" stroke-miterlimit="10" d="M200.3 674.3h-7.4v-22.8h97.7v22.8h-7.3"/><path fill="#61685B" d="M202.8 751.5v-88.6h77v89.8h-77"/><path fill="#465D34" stroke="#2E471F" stroke-width="1.875" stroke-miterlimit="10" d="M207.1 751.6v-76.4c0-4.7 3.8-8.6 8.6-8.6 4.7 0 8.6 3.8 8.6 8.6v76.4h9.2v-76.4c0-4.7 3.8-8.6 8.6-8.6 4.7 0 8.6 3.8 8.6 8.6v76.4h9.2v-76.4c0-4.7 3.8-8.6 8.6-8.6 4.7 0 8.6 3.8 8.6 8.6v76.4h7.8v-93.5h-84.6v93.5h6.8z"/><path fill="#465D34" stroke="#2E471F" stroke-width="1.7" stroke-miterlimit="10" d="M230.5 640.2v-32c0-7.6-6.2-13.8-13.8-13.8-7.6 0-13.8 6.2-13.8 13.8v32h-5.7v-52.6h40.2v52.6h-6.9zm42.6 0v-32c0-7.6-6.2-13.8-13.8-13.8-7.6 0-13.8 6.2-13.8 13.8v32h-5.7v-52.6h40.2v52.6h-6.9z"/><path fill="#2E471F" stroke="#2E471F" stroke-width="1.77" stroke-miterlimit="10" d="M188.2 396.4h99.1v-5.4h-99.1z"/><path fill="#465D34" stroke="#2E471F" stroke-width="1.77" stroke-miterlimit="10" d="M281.4 459.9v19.9h-23.2v-19.9h-5.8v19.9h-29v-19.9h-5.8v19.9h-23.8v-19.9h-5.8v31h5.8v-6h23.8v6h5.8v-6h29v6h5.8v-6h23.2v6h5.8v-31z"/><path fill="#465D34" stroke="#2E471F" stroke-width="1.7" stroke-miterlimit="10" d="M199 490.9h78.4v4.9h-78.4z"/><path fill="#465D34" stroke="#2E471F" stroke-width="2.379" stroke-miterlimit="10" d="M192.1 640.2v-148.7h6.9v148.7m78.4 0v-148.7h6.9v148.7"/><path fill="#465D34" stroke="#2E471F" stroke-width="1.7" stroke-miterlimit="10" d="M235 590.6v49.6h6.4v-49.6"/><path stroke="#2E471F" stroke-width="1.964" stroke-miterlimit="10" d="M188 490.9v-32h99.3v32m-99.3-32v-67.9h99.3v67.9" fill="none"/><path fill="#465D34" stroke="#2E471F" stroke-width="1.77" stroke-miterlimit="10" d="M192.1 394.9v64l-3.8.3v-64.3zm22.8 0v64l-3.8.3v-64.3zm25.9 0v64l-3.8.3v-64.3zm26 0v64l-3.9.3v-64.3zm20.5 0v64l-3.8.3v-64.3zm-99 24h99v3.8h-99.3v-3.8z"/><path fill="#2E471F" stroke="#2E471F" stroke-width="1.7" stroke-miterlimit="10" d="M279.6 587.2h-82.9c-.1 0-.1.1-.1.1-.3.7 0 4.9 41.7 4.9 36.1 0 41.2-3.1 41.8-4.4 0-.3-.2-.6-.5-.6z"/><path fill="#465D34" stroke="#2E471F" stroke-width="1.7" stroke-miterlimit="10" d="M279.9 587.2h-83.3s-3.9 3.3 41.7 3.3l41.6-3.3z"/><path fill="#2E471F" stroke="#2E471F" stroke-width="1.7" stroke-miterlimit="10" d="M188.3 459.2s2.5 6.3 49 6.3l49.6-6.1-98.6-.2z"/><path fill="#465D34" stroke="#2E471F" stroke-width="1.77" stroke-miterlimit="10" d="M188.4 458.9c-.2 0-.3.2-.1.3 1.7 1.1 10.2 4.5 49 4.5 38.7 0 48.1-3.3 50.1-4.5.2-.1.1-.4-.1-.4h-98.9zm-.2-64h99.1v-5.4h-99.1z"/><path fill="#2E471F" stroke="#2E471F" stroke-width="1.964" stroke-miterlimit="10" d="M190.8 385.8h96.5v5.2h-99.3v-5.2z"/><path fill="#2E471F" d="M235 340h5.2v45.8h-5.2zm-12.7 9.7l14.1 9.6v5.4l-15.9-11zm-13.2 18l25.5 18.1h-7.6l-20.6-14.2zm44.4-18l-14.1 9.6-.1 5.4 16-11zm13.2 18l-25.5 18.1h7.5l20.7-14.2z"/><path fill="#465D34" stroke="#2E471F" stroke-width="2.379" stroke-miterlimit="10" d="M237.2 340.8l50.5 51.4c2 2 4.8 3.2 7.6 3.2l12-.1c1.3 0 1.9-1.5 1-2.5l-70.1-71.2c-.6-.6-1.6-.6-2.1 0l-70.1 71.2c-.9.9-.3 2.4 1 2.5l12 .1c2.9 0 5.6-1.1 7.6-3.2l50.6-51.4z"/><path fill="#465D34" stroke="#2E471F" stroke-width="2.138" stroke-miterlimit="10" d="M235.2 309.1v32.4c0 .9.7 1.5 1.5 1.5h1.7c.9 0 1.5-.7 1.5-1.5v-32.4c0-.9-.7-1.5-1.5-1.5h-1.7c-.8 0-1.5.7-1.5 1.5z"/><circle fill="#465D34" stroke="#2E471F" stroke-width="2.138" stroke-miterlimit="10" cx="237.6" cy="304.2" r="3.4"/><path fill="#61685B" d="M356.2 392.2v68.4h95.2v-69.6zm11.3 195.6v-89.3h72.6v90.4h-72.6"/><path fill="#DCE3D0" stroke="#2E471F" stroke-width="1.7" stroke-miterlimit="10" d="M363.5 591.3h82.5v48.9h-82.8zm-6.5-131h93.4v30.6h-92.3zm46.8-126.3l54.7 54.7h-107.6z"/><path fill="#465D34" stroke="#2E471F" stroke-width="1.77" stroke-miterlimit="10" d="M371.5 587.2v-77.7c0-4.5 3.6-8.1 8.1-8.1s8.1 3.6 8.1 8.1v77.7h8.7v-77.7c0-4.5 3.6-8.1 8.1-8.1s8.1 3.6 8.1 8.1v77.7h8.7v-77.7c0-4.5 3.6-8.1 8.1-8.1s8.1 3.6 8.1 8.1v77.7h7.4v-93.9h-79.9v93.9h6.5z"/><path fill="#465D34" stroke="#2E471F" stroke-width="1.7" stroke-miterlimit="10" d="M396.6 640.2v-32c0-7.6-6.2-13.8-13.8-13.8-7.6 0-13.8 6.2-13.8 13.8v32h-5.7v-52.6h40.2v52.6h-6.9zm42.5 0v-32c0-7.6-6.2-13.8-13.8-13.8-7.6 0-13.8 6.2-13.8 13.8v32h-5.7v-52.6h40.2v52.6h-6.9z"/><path fill="#2E471F" stroke="#2E471F" stroke-width="1.77" stroke-miterlimit="10" d="M354.2 396.4h99.1v-5.4h-99.1z"/><path fill="#465D34" stroke="#2E471F" stroke-width="1.77" stroke-miterlimit="10" d="M447.5 459.9v19.9h-23.3v-19.9h-5.8v19.9h-29v-19.9h-5.8v19.9h-23.8v-19.9h-5.8v31h5.8v-6h23.8v6h5.8v-6h29v6h5.8v-6h23.3v6h5.8v-31z"/><path fill="#465D34" stroke="#2E471F" stroke-width="1.7" stroke-miterlimit="10" d="M442.8 495.8h-77.7v-4.9h78.3z"/><path fill="#465D34" stroke="#2E471F" stroke-width="2.379" stroke-miterlimit="10" d="M358.1 640.2v-148.2h7v148.2m78.3 0v-149.3h7v149.3"/><path fill="#465D34" stroke="#2E471F" stroke-width="1.7" stroke-miterlimit="10" d="M401 590.6v49.6h6.4v-49.6"/><path stroke="#2E471F" stroke-width="1.964" stroke-miterlimit="10" d="M354 490.9v-32h99.3v32m-99.3-32v-67.9h99.3v67.9" fill="none"/><path fill="#465D34" stroke="#2E471F" stroke-width="1.77" stroke-miterlimit="10" d="M358.1 394.9v64l-3.8.3v-64.3zm22.8 0v64l-3.8.3v-64.3zm26 0v64l-3.9.3v-64.3zm25.9 0v64l-3.8.3v-64.3zm20.5 0v64l-3.8.3v-64.3zm-99 24h99v3.8h-99.3v-3.8z"/><path fill="#2E471F" stroke="#2E471F" stroke-width="1.7" stroke-miterlimit="10" d="M445.6 587.2h-82.9c-.1 0-.1.1-.1.1-.3.7 0 4.9 41.7 4.9 36.1 0 41.2-3.1 41.8-4.4 0-.3-.2-.6-.5-.6z"/><path fill="#465D34" stroke="#2E471F" stroke-width="1.7" stroke-miterlimit="10" d="M445.9 587.2h-83.3s-3.9 3.3 41.7 3.3l41.6-3.3z"/><path fill="#2E471F" stroke="#2E471F" stroke-width="1.7" stroke-miterlimit="10" d="M354.3 459.2s2.5 6.3 49 6.3l49.6-6.1-98.6-.2z"/><path fill="#465D34" stroke="#2E471F" stroke-width="1.77" stroke-miterlimit="10" d="M354.4 458.9c-.2 0-.3.2-.1.3 1.7 1.1 10.2 4.5 49 4.5 38.7 0 48.1-3.3 50.1-4.5.2-.1.1-.4-.1-.4h-98.9zm-.2-64h99.1v-5.4h-99.1z"/><path fill="#2E471F" stroke="#2E471F" stroke-width="1.964" stroke-miterlimit="10" d="M356.8 385.8h96.5v5.2h-99.3v-5.2z"/><path fill="#2E471F" d="M401.1 340h5.2v45.8h-5.2zm-12.7 9.7l14.1 9.6v5.4l-16-11zm-13.3 18l25.5 18.1h-7.5l-20.7-14.2zm44.4-18l-14.1 9.6v5.4l15.9-11zm13.2 18l-25.5 18.1h7.6l20.6-14.2z"/><path fill="#465D34" stroke="#2E471F" stroke-width="2.379" stroke-miterlimit="10" d="M403.3 340.8l50.5 51.4c2 2 4.8 3.2 7.6 3.2l12-.1c1.3 0 1.9-1.5 1-2.5l-70.1-71.2c-.6-.6-1.6-.6-2.1 0l-70.1 71.2c-.9.9-.3 2.4 1 2.5l12 .1c2.9 0 5.6-1.1 7.6-3.2l50.6-51.4z"/><path fill="#465D34" stroke="#2E471F" stroke-width="2.138" stroke-miterlimit="10" d="M401.3 309.1v32.4c0 .9.7 1.5 1.5 1.5h1.7c.9 0 1.5-.7 1.5-1.5v-32.4c0-.9-.7-1.5-1.5-1.5h-1.7c-.8 0-1.5.7-1.5 1.5z"/><circle fill="#465D34" stroke="#2E471F" stroke-width="2.138" stroke-miterlimit="10" cx="403.7" cy="304.2" r="3.4"/><path fill="#465D34" stroke="#2E471F" stroke-width="3.569" stroke-miterlimit="10" d="M489.9 647.2h-341.6v-7h341.6"/></g><g clip-path="url(#b)"><path fill="#DCE3D0" stroke="#2E471F" stroke-width="4.165" stroke-miterlimit="10" d="M2265 560.7v192h-55.8v-198.2z"/><path fill="#7C9D5E" stroke="#2E471F" stroke-width="4.165" stroke-miterlimit="10" d="M2269.7 524.9h-60.2v45.2h71.1z"/><path fill="#DCE3D0" d="M2222.8 643.7v-156.3h-329.4v157.1z"/><path fill="#465D34" stroke="#2E471F" stroke-width="2.529" stroke-miterlimit="10" d="M1890.9 494.4h330.4v-7h-330.4"/><path fill="#DCE3D0" stroke="#2E471F" stroke-width="1.7" stroke-miterlimit="10" d="M2062.2 644.5l.4 13.6h-166.4v-13.6z"/><path fill="#465D34" stroke="#2E471F" stroke-width="3.569" stroke-miterlimit="10" d="M1896.5 654.4h161.6v7.4h-161.6z"/><path fill="#DCE3D0" stroke="#2E471F" stroke-width="1.675" stroke-miterlimit="10" d="M2062.6 642h151.1v108.8h-151.1z"/><path d="M2206.4 602.9s3.4 7.3 0 16.9c0 0 10.3-3.5 14.9 1.8m-19.4-18.7s-3.4 7.3 0 16.9c0 0-10.3-3.5-14.9 1.8m14.9 20.4s-3.4-7.3 0-16.9c0 0-10.3 3.5-14.9-1.8m19.4 18.7s3.4-7.3 0-16.9c0 0 10.3 3.5 14.9-1.8m-139.7-20.4s3.4 7.3 0 16.9c0 0 10.3-3.5 14.9 1.8m-19.4-18.7s-3.4 7.3 0 16.9c0 0-10.3-3.5-14.9 1.8m14.9 20.4s-3.4-7.3 0-16.9c0 0-10.3 3.5-14.9-1.8m19.4 18.7s3.4-7.3 0-16.9c0 0 10.3 3.5 14.9-1.8m-55.3-20.4s3.4 7.3 0 16.9c0 0 10.3-3.5 14.9 1.8m-19.4-18.7s-3.4 7.3 0 16.9c0 0-10.3-3.5-14.9 1.8m14.9 20.4s-3.4-7.3 0-16.9c0 0-10.3 3.5-14.9-1.8m19.4 18.7s3.4-7.3 0-16.9c0 0 10.3 3.5 14.9-1.8m-140.5-20.4s3.4 7.3 0 16.9c0 0 10.3-3.5 14.9 1.8m-19.4-18.7s-3.4 7.3 0 16.9c0 0-10.3-3.5-14.9 1.8m14.9 20.4s-3.4-7.3 0-16.9c0 0-10.3 3.5-14.9-1.8m19.4 18.7s3.4-7.3 0-16.9c0 0 10.3 3.5 14.9-1.8m275.9-107.8s3.4 7.3 0 16.9c0 0 10.3-3.5 14.9 1.8m-19.4-18.7s-3.4 7.3 0 16.9c0 0-10.3-3.5-14.9 1.8m14.9 20.3s-3.4-7.3 0-16.9c0 0-10.3 3.5-14.9-1.8m19.4 18.7s3.4-7.3 0-16.9c0 0 10.3 3.5 14.9-1.8m-139.7-20.3s3.4 7.3 0 16.9c0 0 10.3-3.5 14.9 1.8m-19.4-18.7s-3.4 7.3 0 16.9c0 0-10.3-3.5-14.9 1.8m14.9 20.3s-3.4-7.3 0-16.9c0 0-10.3 3.5-14.9-1.8m19.4 18.7s3.4-7.3 0-16.9c0 0 10.3 3.5 14.9-1.8m-55.3-20.3s3.4 7.3 0 16.9c0 0 10.3-3.5 14.9 1.8m-19.4-18.7s-3.4 7.3 0 16.9c0 0-10.3-3.5-14.9 1.8m14.9 20.3s-3.4-7.3 0-16.9c0 0-10.3 3.5-14.9-1.8m19.4 18.7s3.4-7.3 0-16.9c0 0 10.3 3.5 14.9-1.8m-140.5-20.3s3.4 7.3 0 16.9c0 0 10.3-3.5 14.9 1.8m-19.4-18.7s-3.4 7.3 0 16.9c0 0-10.3-3.5-14.9 1.8m14.9 20.3s-3.4-7.3 0-16.9c0 0-10.3 3.5-14.9-1.8m19.4 18.7s3.4-7.3 0-16.9c0 0 10.3 3.5 14.9-1.8m275.9 24.9s3.4 7.3 0 16.9c0 0 10.3-3.5 14.9 1.8m-19.4-18.7s-3.4 7.3 0 16.9c0 0-10.3-3.5-14.9 1.8m14.9 20.3s-3.4-7.3 0-16.9c0 0-10.3 3.5-14.9-1.8m19.4 18.7s3.4-7.3 0-16.9c0 0 10.3 3.5 14.9-1.8m-139.7-20.3s3.4 7.3 0 16.9c0 0 10.3-3.5 14.9 1.8m-19.4-18.7s-3.4 7.3 0 16.9c0 0-10.3-3.5-14.9 1.8m14.9 20.3s-3.4-7.3 0-16.9c0 0-10.3 3.5-14.9-1.8m19.4 18.7s3.4-7.3 0-16.9c0 0 10.3 3.5 14.9-1.8m-55.3-20.3s3.4 7.3 0 16.9c0 0 10.3-3.5 14.9 1.8m-19.4-18.7s-3.4 7.3 0 16.9c0 0-10.3-3.5-14.9 1.8m14.9 20.3s-3.4-7.3 0-16.9c0 0-10.3 3.5-14.9-1.8m19.4 18.7s3.4-7.3 0-16.9c0 0 10.3 3.5 14.9-1.8m-140.5-20.3s3.4 7.3 0 16.9c0 0 10.3-3.5 14.9 1.8m-19.4-18.7s-3.4 7.3 0 16.9c0 0-10.3-3.5-14.9 1.8m14.9 20.3s-3.4-7.3 0-16.9c0 0-10.3 3.5-14.9-1.8m19.4 18.7s3.4-7.3 0-16.9c0 0 10.3 3.5 14.9-1.8" stroke="#2E471F" stroke-width="1.959" stroke-miterlimit="10" fill="none"/><path fill="#465D34" stroke="#2E471F" stroke-width="1.77" stroke-miterlimit="10" d="M1890.9 515.5v-7h330.4v7h-159.1v39h159.1v6.9h-159.1v36.9h159.1v6.9h-159.1v39.3h-6.9v-39.3h-164.4v-6.9h164.4v-36.9h-164.4v-6.9h164.4v-39z"/><path fill="#7C9D5E" stroke="#2E471F" stroke-width="4.165" stroke-miterlimit="10" d="M2167.3 361.3h61.8l9.4 129.6h-379.3l5.9-129.6h243.3"/><path stroke="#2E471F" stroke-width="1.942" stroke-miterlimit="10" d="M2226.3 490.9v149.3h-329.8" fill="none"/><path fill="#465D34" stroke="#2E471F" stroke-width="3.569" stroke-miterlimit="10" d="M2226.3 640.2v-149.3h-7v149.3m45.7 116.7v-187.1h-7v187.1m-39.7-5.3v-109.6h-9.1v109.6m-143.3 0v-109.6h-9.1v109.6"/><path fill="#61685B" d="M2190.6 392.2v68.4h-95.2v-69.6zm-11.2 195.6v-89.3h-72.7v90.4h72.7"/><path fill="#DCE3D0" stroke="#2E471F" stroke-width="1.7" stroke-miterlimit="10" d="M2183.3 591.3h-82.4v48.9h82.7zm6.5-131h-93.3v30.6h92.2zm-46.7-126.3l-54.7 54.7h107.6z"/><path fill="#465D34" stroke="#2E471F" stroke-width="1.77" stroke-miterlimit="10" d="M2175.3 587.2v-77.7c0-4.5-3.6-8.1-8.1-8.1s-8.1 3.6-8.1 8.1v77.7h-8.7v-77.7c0-4.5-3.6-8.1-8.1-8.1s-8.1 3.6-8.1 8.1v77.7h-8.7v-77.7c0-4.5-3.6-8.1-8.1-8.1s-8.1 3.6-8.1 8.1v77.7h-7.4v-93.9h79.9v93.9h-6.5z"/><path fill="#465D34" stroke="#2E471F" stroke-width="1.875" stroke-miterlimit="10" d="M2180.5 674.3h7.4v-22.8h-97.7v22.8h7.4"/><path fill="#61685B" d="M2178 751.5v-88.6h-77v89.8h77"/><path fill="#465D34" stroke="#2E471F" stroke-width="1.875" stroke-miterlimit="10" d="M2173.7 751.6v-76.4c0-4.7-3.8-8.6-8.6-8.6-4.7 0-8.6 3.8-8.6 8.6v76.4h-9.2v-76.4c0-4.7-3.8-8.6-8.6-8.6-4.7 0-8.6 3.8-8.6 8.6v76.4h-9.2v-76.4c0-4.7-3.8-8.6-8.6-8.6-4.7 0-8.6 3.8-8.6 8.6v76.4h-7.8v-93.5h84.6v93.5h-6.8z"/><path fill="#465D34" stroke="#2E471F" stroke-width="1.7" stroke-miterlimit="10" d="M2150.3 640.2v-32c0-7.6 6.2-13.8 13.8-13.8 7.6 0 13.8 6.2 13.8 13.8v32h5.7v-52.6h-40.2v52.6h6.9zm-42.5 0v-32c0-7.6 6.2-13.8 13.8-13.8 7.6 0 13.8 6.2 13.8 13.8v32h5.7v-52.6h-40.2v52.6h6.9z"/><path fill="#2E471F" stroke="#2E471F" stroke-width="1.77" stroke-miterlimit="10" d="M2192.6 396.4h-99.1v-5.4h99.1z"/><path fill="#465D34" stroke="#2E471F" stroke-width="1.77" stroke-miterlimit="10" d="M2099.4 459.9v19.9h23.2v-19.9h5.8v19.9h29v-19.9h5.8v19.9h23.8v-19.9h5.8v31h-5.8v-6h-23.8v6h-5.8v-6h-29v6h-5.8v-6h-23.2v6h-5.8v-31z"/><path fill="#465D34" stroke="#2E471F" stroke-width="1.7" stroke-miterlimit="10" d="M2103.4 490.9h78.4v4.9h-78.4z"/><path fill="#465D34" stroke="#2E471F" stroke-width="2.379" stroke-miterlimit="10" d="M2188.7 640.2v-148.7h-6.9v148.7m-78.4 0v-148.7h-6.9v148.7"/><path fill="#465D34" stroke="#2E471F" stroke-width="1.7" stroke-miterlimit="10" d="M2145.8 590.6v49.6h-6.4v-49.6"/><path stroke="#2E471F" stroke-width="1.964" stroke-miterlimit="10" d="M2192.8 490.9v-32h-99.3v32m99.3-32v-67.9h-99.3v67.9" fill="none"/><path fill="#465D34" stroke="#2E471F" stroke-width="1.77" stroke-miterlimit="10" d="M2188.7 394.9v64l3.9.3v-64.3zm-22.8 0v64l3.9.3v-64.3zm-25.9 0v64l3.8.3v-64.3zm-26 0v64l3.9.3v-64.3zm-20.5 0v64l3.9.3v-64.3zm99.1 24h-99.1v3.8h99.3v-3.8z"/><path fill="#2E471F" stroke="#2E471F" stroke-width="1.7" stroke-miterlimit="10" d="M2101.2 587.2h82.9c.1 0 .1.1.1.1.3.7 0 4.9-41.7 4.9-36.1 0-41.2-3.1-41.8-4.4.1-.3.3-.6.5-.6z"/><path fill="#465D34" stroke="#2E471F" stroke-width="1.7" stroke-miterlimit="10" d="M2101 587.2h83.3s3.9 3.3-41.7 3.3c-45.5.1-41.6-3.3-41.6-3.3z"/><path fill="#2E471F" stroke="#2E471F" stroke-width="1.7" stroke-miterlimit="10" d="M2192.6 459.2s-2.5 6.3-49 6.3l-49.6-6.1 98.6-.2z"/><path fill="#465D34" stroke="#2E471F" stroke-width="1.77" stroke-miterlimit="10" d="M2192.5 458.9c.2 0 .3.2.1.3-1.7 1.1-10.2 4.5-49 4.5-38.7 0-48.1-3.3-50.1-4.5-.2-.1-.1-.4.1-.4h98.9zm.1-64h-99.1v-5.4h99.1z"/><path fill="#2E471F" stroke="#2E471F" stroke-width="1.964" stroke-miterlimit="10" d="M2190 385.8h-96.5v5.2h99.3v-5.2z"/><path fill="#2E471F" d="M2140.6 340h5.2v45.8h-5.2zm17.9 9.7l-14.1 9.6v5.4l15.9-11zm13.2 18l-25.5 18.1h7.6l20.6-14.2zm-44.3-18l14.1 9.6v5.4l-16-11zm-13.3 18l25.5 18.1h-7.5l-20.6-14.2z"/><path fill="#465D34" stroke="#2E471F" stroke-width="2.379" stroke-miterlimit="10" d="M2143.6 340.8l-50.5 51.4c-2 2-4.8 3.2-7.6 3.2l-12-.1c-1.3 0-1.9-1.5-1-2.5l70.1-71.2c.6-.6 1.6-.6 2.1 0l70.1 71.2c.9.9.3 2.4-1 2.5l-12 .1c-2.9 0-5.6-1.1-7.6-3.2l-50.6-51.4z"/><path fill="#465D34" stroke="#2E471F" stroke-width="2.138" stroke-miterlimit="10" d="M2145.6 309.1v32.4c0 .9-.7 1.5-1.5 1.5h-1.7c-.9 0-1.5-.7-1.5-1.5v-32.4c0-.9.7-1.5 1.5-1.5h1.7c.8 0 1.5.7 1.5 1.5z"/><circle fill="#465D34" stroke="#2E471F" stroke-width="2.138" stroke-miterlimit="10" cx="2143.2" cy="304.2" r="3.4"/><path fill="#61685B" d="M2024.6 392.2v68.4h-95.2v-69.6zm-11.3 195.6v-89.3h-72.6v90.4h72.6"/><path fill="#DCE3D0" stroke="#2E471F" stroke-width="1.7" stroke-miterlimit="10" d="M2017.3 591.3h-82.5v48.9h82.8zm6.5-131h-93.3v30.6h92.2zm-46.8-126.3l-54.7 54.7h107.6z"/><path fill="#465D34" stroke="#2E471F" stroke-width="1.77" stroke-miterlimit="10" d="M2009.3 587.2v-77.7c0-4.5-3.6-8.1-8.1-8.1s-8.1 3.6-8.1 8.1v77.7h-8.7v-77.7c0-4.5-3.6-8.1-8.1-8.1s-8.1 3.6-8.1 8.1v77.7h-8.7v-77.7c0-4.5-3.6-8.1-8.1-8.1s-8.1 3.6-8.1 8.1v77.7h-7.4v-93.9h79.9v93.9h-6.5z"/><path fill="#465D34" stroke="#2E471F" stroke-width="1.7" stroke-miterlimit="10" d="M1984.2 640.2v-32c0-7.6 6.2-13.8 13.8-13.8 7.6 0 13.8 6.2 13.8 13.8v32h5.7v-52.6h-40.2v52.6h6.9zm-42.5 0v-32c0-7.6 6.2-13.8 13.8-13.8 7.6 0 13.8 6.2 13.8 13.8v32h5.7v-52.6h-40.2v52.6h6.9z"/><path fill="#2E471F" stroke="#2E471F" stroke-width="1.77" stroke-miterlimit="10" d="M2026.6 396.4h-99.1v-5.4h99.1z"/><path fill="#465D34" stroke="#2E471F" stroke-width="1.77" stroke-miterlimit="10" d="M1933.4 459.9v19.9h23.2v-19.9h5.8v19.9h29v-19.9h5.8v19.9h23.8v-19.9h5.8v31h-5.8v-6h-23.8v6h-5.8v-6h-29v6h-5.8v-6h-23.2v6h-5.8v-31z"/><path fill="#465D34" stroke="#2E471F" stroke-width="1.7" stroke-miterlimit="10" d="M1938 495.8h77.8v-4.9h-78.4z"/><path fill="#465D34" stroke="#2E471F" stroke-width="2.379" stroke-miterlimit="10" d="M2022.7 640.2v-148.2h-6.9v148.2m-78.4 0v-149.3h-6.9v149.3"/><path fill="#465D34" stroke="#2E471F" stroke-width="1.7" stroke-miterlimit="10" d="M1979.8 590.6v49.6h-6.4v-49.6"/><path stroke="#2E471F" stroke-width="1.964" stroke-miterlimit="10" d="M2026.8 490.9v-32h-99.3v32m99.3-32v-67.9h-99.3v67.9" fill="none"/><path fill="#465D34" stroke="#2E471F" stroke-width="1.77" stroke-miterlimit="10" d="M2022.7 394.9v64l3.8.3v-64.3zm-22.8 0v64l3.8.3v-64.3zm-26 0v64l3.9.3v-64.3zm-25.9 0v64l3.8.3v-64.3zm-20.5 0v64l3.8.3v-64.3zm99 24h-99v3.8h99.3v-3.8z"/><path fill="#2E471F" stroke="#2E471F" stroke-width="1.7" stroke-miterlimit="10" d="M1935.2 587.2h82.9c.1 0 .1.1.1.1.3.7 0 4.9-41.7 4.9-36.1 0-41.2-3.1-41.8-4.4 0-.3.2-.6.5-.6z"/><path fill="#465D34" stroke="#2E471F" stroke-width="1.7" stroke-miterlimit="10" d="M1934.9 587.2h83.3s3.9 3.3-41.7 3.3l-41.6-3.3z"/><path fill="#2E471F" stroke="#2E471F" stroke-width="1.7" stroke-miterlimit="10" d="M2026.5 459.2s-2.5 6.3-49 6.3l-49.6-6.1 98.6-.2z"/><path fill="#465D34" stroke="#2E471F" stroke-width="1.77" stroke-miterlimit="10" d="M2026.4 458.9c.2 0 .3.2.1.3-1.7 1.1-10.2 4.5-49 4.5-38.7 0-48.1-3.3-50.1-4.5-.2-.1-.1-.4.1-.4h98.9zm.2-64h-99.1v-5.4h99.1z"/><path fill="#2E471F" stroke="#2E471F" stroke-width="1.964" stroke-miterlimit="10" d="M2024 385.8h-96.5v5.2h99.3v-5.2z"/><path fill="#2E471F" d="M1974.6 340h5.2v45.8h-5.2zm17.9 9.7l-14.1 9.6v5.4l15.9-11zm13.2 18l-25.5 18.1h7.6l20.6-14.2zm-44.4-18l14.1 9.6v5.4l-15.9-11zm-13.2 18l25.5 18.1h-7.6l-20.6-14.2z"/><path fill="#465D34" stroke="#2E471F" stroke-width="2.379" stroke-miterlimit="10" d="M1977.5 340.8l-50.5 51.4c-2 2-4.8 3.2-7.6 3.2l-12-.1c-1.3 0-1.9-1.5-1-2.5l70.1-71.2c.6-.6 1.6-.6 2.1 0l70.1 71.2c.9.9.3 2.4-1 2.5l-12 .1c-2.9 0-5.6-1.1-7.6-3.2l-50.6-51.4z"/><path fill="#465D34" stroke="#2E471F" stroke-width="2.138" stroke-miterlimit="10" d="M1979.5 309.1v32.4c0 .9-.7 1.5-1.5 1.5h-1.7c-.9 0-1.5-.7-1.5-1.5v-32.4c0-.9.7-1.5 1.5-1.5h1.7c.8 0 1.5.7 1.5 1.5z"/><circle fill="#465D34" stroke="#2E471F" stroke-width="2.138" stroke-miterlimit="10" cx="1977.1" cy="304.2" r="3.4"/><path fill="#465D34" stroke="#2E471F" stroke-width="3.569" stroke-miterlimit="10" d="M1890.9 647.2h341.6v-7h-341.6"/></g><g clip-path="url(#b)"><path fill="#7A8F68" d="M1160.5 701v-59.4l15.8-2.2.9-96.2 118.4-42.3 295.7 5.1v142l-296.4-4.6-27.1.6v57.8l-9.4.1v-56.7l-59.3 13.6v43.4z"/><path fill="#DCE3D0" d="M2096.8 508.8v-50.1s-18.3-10.2-72.4-34.8c-54.1-24.6-127.8-46.6-185.6-58.7s-145.4-18.2-190.8-14.7c-42.5 3.3-74.1 4.9-139.5 23.1v96h62.5v21.4l88.7-.2 128.4.8 142.3-.6 93.7-.5s29.2-.4 46.6 6.7c17.5 6.9 26.1 11.6 26.1 11.6z"/><defs><path id="c" d="M2096.8 508.8v-50.1c-336.9-177.9-588.2-85.1-588.2-85.1v96h62.3v21.3l453.5.1s23.5-.2 36.6 3.2c14.3 3.6 35.8 14.6 35.8 14.6z"/></defs><clipPath id="d"><use xlink:href="#c" overflow="visible"/></clipPath><path d="M1508.3 342.6v215.3m10-215.3v215.3m10-215.3v215.3m10-215.3v215.3m9.9-215.3v215.3m10-215.3v215.3m10-215.3v215.3m10-215.3v215.3m10-215.3v215.3m9.9-215.3v215.3m10-215.3v215.3m10-215.3v215.3m10-215.3v215.3m9.9-215.3v215.3m10-215.3v215.3m10-215.3v215.3m289.3-215.3v215.3m10-215.3v215.3m10-215.3v215.3m10-215.3v215.3m10-215.3v215.3m9.9-215.3v215.3m10-215.3v215.3m10-215.3v215.3m10-215.3v215.3m9.9-215.3v215.3m10-215.3v215.3m10-215.3v215.3m10-215.3v215.3m10-215.3v215.3m9.9-215.3v215.3m-419-215.3v215.3m10-215.3v215.3m9.9-215.3v215.3m10-215.3v215.3m10-215.3v215.3m10-215.3v215.3m9.9-215.3v215.3m10-215.3v215.3m10-215.3v215.3m10-215.3v215.3m10-215.3v215.3m9.9-215.3v215.3m10-215.3v215.3m10-215.3v215.3m10-215.3v215.3m9.9-215.3v215.3m10-215.3v215.3m10-215.3v215.3m10-215.3v215.3m9.9-215.3v215.3m10-215.3v215.3m10-215.3v215.3m10-215.3v215.3m10-215.3v215.3m9.9-215.3v215.3m10-215.3v215.3m10-215.3v215.3m10-215.3v215.3m159.6-215.3v215.3" clip-path="url(#d)" stroke="#80A262" stroke-width=".522" stroke-miterlimit="10" fill="none"/><use xlink:href="#c" overflow="visible" stroke="#80A262" stroke-width=".522" stroke-miterlimit="10" fill="none"/><path fill="#DCE3D0" d="M1643.1 315.7v21.9h277.1v-25.9zm379.5 6.1l30.1 15.8v24.2l-30.1-14.6z"/><linearGradient id="e" gradientUnits="userSpaceOnUse" x1="1508.563" y1="427.938" x2="2096.782" y2="427.938"><stop offset=".009" stop-color="#ABC094"/><stop offset=".031" stop-color="#B7C8A2"/><stop offset=".065" stop-color="#C5D2B2"/><stop offset=".106" stop-color="#CFD9BF"/><stop offset=".156" stop-color="#D7DFC9"/><stop offset=".226" stop-color="#DBE2CE"/><stop offset=".421" stop-color="#DCE3D0"/><stop offset="1" stop-color="#80A262"/></linearGradient><path opacity=".3" fill="url(#e)" d="M2096.8 507.6v-50.1s-18.3-10.2-72.4-34.8c-54.1-24.6-127.8-46.6-185.6-58.7-57.8-12.1-145.4-18.2-190.8-14.7-42.5 3.3-74.1 4.9-139.5 23.1v97.1h62.5v20.2l90 1.9 127.1-1.3 142.3-.6 93.7-.5s29.2-.4 46.6 6.7l26.1 11.7z"/><defs><path id="f" d="M1920.2 337.6h-277.1v-21.9l277.1-4z"/></defs><clipPath id="g"><use xlink:href="#f" overflow="visible"/></clipPath><path d="M1646.1 305.4v48.1m4.6-48.1v48.1m4.5-48.1v48.1m4.6-48.1v48.1m4.6-48.1v48.1m4.6-48.1v48.1m4.5-48.1v48.1m4.6-48.1v48.1m4.6-48.1v48.1m4.6-48.1v48.1m4.5-48.1v48.1m4.6-48.1v48.1m4.6-48.1v48.1m4.6-48.1v48.1m4.5-48.1v48.1m4.6-48.1v48.1m132.7-48.1v48.1m4.6-48.1v48.1m4.6-48.1v48.1m4.6-48.1v48.1m4.5-48.1v48.1m4.6-48.1v48.1m4.6-48.1v48.1m4.6-48.1v48.1m4.6-48.1v48.1m4.5-48.1v48.1m4.6-48.1v48.1m4.6-48.1v48.1m4.6-48.1v48.1m4.5-48.1v48.1m4.6-48.1v48.1m-192.2-48.1v48.1m4.6-48.1v48.1m4.6-48.1v48.1m4.5-48.1v48.1m4.6-48.1v48.1m4.6-48.1v48.1m4.6-48.1v48.1m4.5-48.1v48.1m4.6-48.1v48.1m4.6-48.1v48.1m4.6-48.1v48.1m4.5-48.1v48.1m4.6-48.1v48.1m4.6-48.1v48.1m4.6-48.1v48.1m4.5-48.1v48.1m4.6-48.1v48.1m4.6-48.1v48.1m4.6-48.1v48.1m4.6-48.1v48.1m4.5-48.1v48.1m4.6-48.1v48.1m4.6-48.1v48.1m4.6-48.1v48.1m4.5-48.1v48.1m4.6-48.1v48.1m4.6-48.1v48.1m4.6-48.1v48.1m73.2-48.1v48.1" clip-path="url(#g)" stroke="#ABC094" stroke-width=".522" stroke-miterlimit="10" fill="none"/><use xlink:href="#f" overflow="visible" stroke="#ABC094" stroke-width=".522" stroke-miterlimit="10" fill="none"/><defs><path id="h" d="M2052.7 361.8l-30.1-14.6v-25.4l30.1 15.8z"/></defs><clipPath id="i"><use xlink:href="#h" overflow="visible"/></clipPath><path d="M1902.8 317.8v48.1m4.4-48.1v48.1m4.4-48.1v48.1m4.4-48.1v48.1m4.4-48.1v48.1m4.3-48.1v48.1m4.4-48.1v48.1m4.4-48.1v48.1m4.4-48.1v48.1m4.3-48.1v48.1m4.4-48.1v48.1m4.4-48.1v48.1m4.4-48.1v48.1m4.4-48.1v48.1m4.3-48.1v48.1m4.4-48.1v48.1m127-48.1v48.1m4.4-48.1v48.1m4.4-48.1v48.1m4.4-48.1v48.1m4.4-48.1v48.1m4.3-48.1v48.1m4.4-48.1v48.1m4.4-48.1v48.1m4.4-48.1v48.1m4.4-48.1v48.1m4.3-48.1v48.1m4.4-48.1v48.1m4.4-48.1v48.1m4.4-48.1v48.1m4.3-48.1v48.1m-183.9-48.1v48.1m4.4-48.1v48.1m4.4-48.1v48.1m4.3-48.1v48.1m4.4-48.1v48.1m4.4-48.1v48.1m4.4-48.1v48.1m4.4-48.1v48.1m4.3-48.1v48.1m4.4-48.1v48.1m4.4-48.1v48.1m4.4-48.1v48.1m4.4-48.1v48.1m4.3-48.1v48.1m4.4-48.1v48.1m4.4-48.1v48.1m4.4-48.1v48.1m4.4-48.1v48.1m4.3-48.1v48.1m4.4-48.1v48.1m4.4-48.1v48.1m4.4-48.1v48.1m4.4-48.1v48.1m4.3-48.1v48.1m4.4-48.1v48.1m4.4-48.1v48.1m4.4-48.1v48.1m4.4-48.1v48.1m70-48.1v48.1" clip-path="url(#i)" stroke="#ABC094" stroke-width=".522" stroke-miterlimit="10" fill="none"/><use xlink:href="#h" overflow="visible" stroke="#ABC094" stroke-width=".522" stroke-miterlimit="10" fill="none"/><path fill="#649345" d="M1540.6 364.5v-57.7l83.8-5.5.6 50.3c.1.1-23.6 0-84.4 12.9zm83.9-63.2l18.6 10 .4 39.5s-10.2-.4-18.4.9l-.6-50.4z"/><path opacity=".26" fill="#2E471F" d="M1624.5 301.3l18.6 10 .4 39.5s-10.2-.4-18.4.9l-.6-50.4z"/><path fill="#649345" d="M1643.5 349.7l-.4-12.5 60.3.5 216.8-.1v-38l84.4-2.2 17.9 9.9.2 39.8 30 14.6-.4 74.9s-10.1-4.5-16-7.6c-5.8-3.1-29.9-13.3-49.5-20.9-19.6-7.6-40.2-15.3-80.4-27-40.2-11.6-136.5-35.9-262.9-31.4z"/><path opacity=".26" fill="#2E471F" d="M2004.5 415.5l.1-118 17.9 9.9.2 39.8 30 14.6-.4 74.9s-30.1-13.9-47.8-21.2z"/><path fill="#649345" d="M1128.8 431l-23.4 10.5-.5 142-85.2.8s-.8-1.3-.8 5.4v111.4h109.9v-270.1zm70.3 271.2v-43.4l59.3-13.6v56.7zm68.7-.4v-57.8l27.1-.6 271.1 4.3v56.2z"/><path opacity=".26" fill="#2E471F" d="M1267.8 701.8v-57.8l27.1-.6 271.1 4.3v56.2z"/><path fill="#649345" d="M2080.1 591.3v-74.9l35.1 14.9 1.5-10 25.7 12.4v69.5z"/><path opacity=".26" fill="#2E471F" d="M2080.1 591.3v-74.9l35.1 14.9 1.5-10 25.7 12.4v69.5zm-881 110.9v-43.4l59.3-13.6v56.7z"/><path fill="#80A262" d="M1128.8 701v-270l113.9-50.8 265.9 13v75.1l62.5 1.2v20.9l-11.7.5 1.5 14.6-265.3-4.6-118.4 42.3-.9 96.2-15.8 2.2v59.4zm780.6 7.3v-134.2l53-7 197.2 40 17.8 11.7v93z"/><g opacity=".29"><defs><path id="j" opacity=".29" d="M1160.5 701v-59.4l15.7-2.2.9-96.2 118.5-42.3 295.6 5.1v142l-296.4-4.6-27 .6v57.8l-9.5.1v-56.7l-59.3 13.6v43.4z"/></defs><clipPath id="k"><use xlink:href="#j" overflow="visible"/></clipPath><path d="M1152.6 440.5v286.7m7.8-286.7v286.7m7.8-286.7v286.7m7.8-286.7v286.7m7.8-286.7v286.7m7.8-286.7v286.7m7.8-286.7v286.7m7.8-286.7v286.7m7.8-286.7v286.7m7.8-286.7v286.7m7.8-286.7v286.7m7.8-286.7v286.7m7.8-286.7v286.7m7.8-286.7v286.7m7.8-286.7v286.7m7.8-286.7v286.7m226.2-286.7v286.7m7.8-286.7v286.7m7.8-286.7v286.7m7.8-286.7v286.7m7.7-286.7v286.7m7.8-286.7v286.7m7.8-286.7v286.7m7.8-286.7v286.7m7.8-286.7v286.7m7.8-286.7v286.7m7.8-286.7v286.7m7.8-286.7v286.7m7.8-286.7v286.7m7.8-286.7v286.7m7.8-286.7v286.7m-327.5-286.7v286.7m7.8-286.7v286.7m7.8-286.7v286.7m7.8-286.7v286.7m7.8-286.7v286.7m7.8-286.7v286.7m7.8-286.7v286.7m7.8-286.7v286.7m7.8-286.7v286.7m7.8-286.7v286.7m7.8-286.7v286.7m7.8-286.7v286.7m7.8-286.7v286.7m7.8-286.7v286.7m7.8-286.7v286.7m7.8-286.7v286.7m7.8-286.7v286.7m7.8-286.7v286.7m7.8-286.7v286.7m7.8-286.7v286.7m7.8-286.7v286.7m7.8-286.7v286.7m7.8-286.7v286.7m7.8-286.7v286.7m7.8-286.7v286.7m7.8-286.7v286.7m7.8-286.7v286.7m7.8-286.7v286.7m124.7-286.7v286.7" clip-path="url(#k)" stroke="#fff" stroke-width=".522" stroke-miterlimit="10" fill="none"/><use xlink:href="#j" overflow="visible" stroke="#fff" stroke-width="1.043" stroke-miterlimit="10" fill="none"/></g><path fill="#649345" d="M1924.2 597.1l21.6-2.8.9 67.6-22.5 2.1zm67.3-.3l34.4 7.5-.2 65.9-34.2-4.7zm58.2 12l34.1 7v64.1l-34.1-5.8zm56.5 12.2l34.3 6.7-.7 62-33.8-5.7z"/><path d="M1924.2 596.7l21.6-2.8.9 67.6-22.5 2.1zm67.3-.3l34.4 7.6-.2 65.8-34.2-4.7zm58.2 12l34.1 7v64.1l-34.1-5.8zm56.5 12.2l34.3 6.7-.7 62.1-33.8-5.8z" opacity=".53" fill="#61685B"/><path fill="#A8B499" d="M1560.9 505.5l-1.5-14.6 222.2.5 248.7-.5s25.3-2 46.7 8.3c21.4 10.3 39.7 19.2 39.7 19.2l-1.5 12.9-33.5-14.9h-1.6v8.8s-13.6-6.4-27.7-7.9-31.6-1.8-45-1.4c-13.5.4-198.1-.9-198.1-.9h-184.3v-9.9l-64.1.4z"/><path fill="#80A262" d="M1591.3 506v142l-25.3-.3v56.2h59.1v-198.8z"/><linearGradient id="l" gradientUnits="userSpaceOnUse" x1="1566.049" y1="604.484" x2="1625.075" y2="604.484"><stop offset="0" stop-color="#2E471F"/><stop offset="1" stop-color="#2E471F"/></linearGradient><path opacity=".14" fill="url(#l)" d="M1591.3 506v142l-25.3-.3v56.2h59.1v-198.8z"/><path fill="#649345" d="M1625.1 704.4v-188.9h373.9s40.5-.8 55.2 2.5c14.8 3.4 24.9 7.2 24.9 7.2l1 66.6-117.7-24.3-52.7 7.8-.3 133.4-284.3-4.3z"/><path opacity=".46" fill="#61685B" d="M1625.1 704.4v-188.9h373.9s40.5-.8 55.2 2.5c14.8 3.4 24.9 7.2 24.9 7.2l1 66.6-117.7-24.3-52.7 7.8-.3 133.4-284.3-4.3z"/><path opacity=".14" fill="#fff" d="M1624.5 577.3l150.7-61.8h72.7l-222.8 103.3zm0 66.1l289.3-127.9h72.7l-361.4 171.4zm132.6 63l152.3-73.2v31.2l-76.1 43.2z"/><linearGradient id="m" gradientUnits="userSpaceOnUse" x1="1243.919" y1="425.147" x2="1508.563" y2="425.147"><stop offset="0" stop-color="#2E471F"/><stop offset=".133" stop-color="#3C5129" stop-opacity=".867"/><stop offset=".408" stop-color="#62704D" stop-opacity=".592"/><stop offset=".797" stop-color="#A9B297" stop-opacity=".203"/><stop offset="1" stop-color="#DCE3D0" stop-opacity="0"/></linearGradient><path opacity=".11" fill="url(#m)" d="M1243.9 380.8l.6 88.1 264.1.6v-76.3z"/><linearGradient id="n" gradientUnits="userSpaceOnUse" x1="2159.607" y1="660.096" x2="2177.399" y2="660.096"><stop offset="0" stop-color="#2E471F"/><stop offset="1" stop-color="#2E471F"/></linearGradient><path opacity=".14" fill="url(#n)" d="M2159.6 608.4l17.8 10.4v93l-17.8-.2z"/><path stroke="#2E471F" stroke-width="3.074" stroke-miterlimit="10" d="M1018.9 701v-115.9c0-.5.4-.8.8-.8h84.3c.5 0 .8-.4.8-.8v-141.2c0-.3.2-.6.5-.8l137.3-61.3c.5-.2 1.2.2 1.2.8v87.7c0 .5.4.8.8.8h325.4c.5 0 .8.4.8.8v20.5m-551.9 123.5h109.9m114.4-234.2l265.4 12.6m0 76.8v-96s251.3-92.8 588.2 85.1v50.1m19.9 9.7l-1.5 12.9-36.1-16.1c-13.6-6.1-28.4-9.2-43.3-9.2l-474.8-1.1-1.3-14h474.9c16.7 0 33.2 3.8 48.2 11.1l33.9 16.4zm25.7 84.8v-70.1l-26-12m-575.8-157.7v-55.7c0-.5.4-.8.8-.9l83-5.5c.3 0 .6.2.6.6v48.7m-.5-49.3l18.6 10v38m277.1 36.9v-86.6c0-.3.3-.6.6-.6l83.2-2.2c.3 0 .6.3.6.6v118.8m-.1-119.1l18 10.2c.1.1.2.2.2.3v116.3m-.1-102.1l30.1 15.8v99.1m-409.6-121l277.1-4m-277.1 25.9h277.1m102.4 9.6l30.1 14.6m-427.6 144.2v197.9m455-187.5v74.9m-951.3-160.3v270" fill="none"/><path fill="#2E471F" d="M1570.8 477.6l-326.9-1.5 326.9-1.6z"/><path stroke="#2E471F" stroke-width="3.074" stroke-miterlimit="10" d="M2177.4 711.8v-93l-17.8-11.7-197.2-40-53 7.2v134m116.3-38.4l-34.2-4.7v-67.9l34.2 7zm58.2 10l-34.2-5.8v-65.6l34.2 6.9zm56.2 9.8l-34.1-5.8v-63.4l34.1 7zm-193.4-95.6l-22.8 3.1v66.8l22.8-2.2zm15.7-27v142.3m-801.9-8.4v-58.9l15.8-2.7v-95.7l118.6-43 296.4 5.3v142l-299.6-4.8-23.9.8v57.8m27.1-200v141.6m271.1 4.3v56.2m-307.6-2v-56.7l-59.3 13.6v43.4m880-177c-13.6-6.1-28.4-9.2-43.3-9.2l-410.7-1" fill="none"/><path d="M2079.1 572.2c-13.6-6.1-28.4-9.2-43.3-9.2l-410.7-1m0 59.5l284.3.6m-266.3-117v199.9m71.2-199.9v199.9m81.9-199.9v202.5m81.9-202.5v202.5m93.3-200.3v62.6m77.6-62.6v77.3" stroke="#2E471F" stroke-width="1.043" stroke-miterlimit="10" fill="none"/><path stroke="#2E471F" stroke-width="3.074" stroke-miterlimit="10" d="M2159.6 607.1v104.5" fill="none"/><path opacity=".21" fill="#2E471F" d="M1267.6 650s236.9 5.3 298.5 23.6v-27.1l-298.2-2.6-.3 6.1zm-9.2 1.3c-25.7 7.5-58.7 9.6-58.7 30.5v-23.1l58.7-13.6v6.2zm243.1-258.8v77h7.5l-.6-76.8zm-381.4 42.4l.2 149.4h2.3v115.8l5.4.9v-269.6zm783.7 273.9v-132.1l5.9-1.4-.3 130.2v3.3zm-272.4-202.8v198.4l-6.3-.1v-196.7s-.7-2.3 2.1-2.2c2.8 0 4.2.6 4.2.6z"/><path opacity=".13" d="M2159.6 606.2l-17.2-3.4v-70.6l-25.2-12.1.3-2.6-20.5-9.6.5-50.1c-14.3-7.6-30.6-15.6-45.1-22.4l1-98.2-30.5-15.5.3-12.9c0-.7-.1-2.1-.7-2.4l-16.4-9.1-.5-.3c-.4-.4-.7-.7-1.3-.6l-81.7 1.3c-1.2 0-2.1 1-2.1 2.1l-.1 11.4-276.8 3.3v-3.8l-16-8.2s.8-.8-1.3-1.1c-.6-.1-.1-1.5-.7-1.4l-82.8 5.5c-1.3.1-1.1.6-1.1 1.9l.2 56.3c-19.9 4.7-32.1 9-32.4 9.1l.2 19.6-264.3-13c-.4 0-.8 0-1.1.2l-137 61.1c-.9.4-1.4 1.2-1.4 2.2l.3 141.1h-85.3c-1.3 0-1.6 0-1.6 1.4l-.3 115.4 2.8.3h141.3l36.9 1.1h3.1l57.6-.3h1.6l7.9-.1 295.9 2.1h60.5v.5l17.5.3v.4h1.1v-.3l113.2 1.8 38.4.6v.6h1.1v-.6l36.5.6 70.3 1.1v.1h5.6v-.5l51.3.7v.4h3.1v-.4l193.6 2.5h1.6l16.2.2 1.8-.2v-93l-18.3-12.5z" fill="none"/><path fill="#2E471F" d="M2085.6 592.5l.6-42.4.5 42.4z"/><path stroke="#2E471F" stroke-width="3.074" stroke-miterlimit="10" d="M1083.6 584.3h45.6" fill="none"/></g><g clip-path="url(#b)"><path fill="#A8BC8B" d="M482.6 570.7l-2.3-188.5-2.1-149.9s3.6-2.1 13.5-6.8c9.9-4.7 22.2-7.7 22.2-7.7l.9 31.2 16.9-3.6-1.6-31.6s27.5-6.8 61-7.5l.2 33.5 20.6.5-.1-34s27.8-.5 55 6.9l-.4 32.1 14.8 3.5.5-32s23 6.3 25.7 10.2l1 60.1 36.3 4.8.9 42.4 21.2 2.5-.7-42.3 64.7 7.4v42.2l20.9 2.5-.5-42.3 68.7 8.1-.3 42.2 21.1 2.5-.1-38.9v-3.3l63.2 7.4.4 42.3 20.7 2.5-.7-41.3s-1.4-1.2 19.4 1.3c20.7 2.5 43.6 5.2 43.6 5.2v42.2l20.9 2.5-.4-42.3 27.1 3.2-.8-43.9s6.5-4.7 23.6-10l1.4 30 13.9-4-1.7-30.4s28-7 50.9-8.4l1 32.9 19.2-1.7-.9-31.9s35-.1 57 6l-.5 30 15.9 3-.2-30.3s30.6 8.9 33.6 13.8l7.4 271.7.3 12c0-.1-845.6 9.7-872.3-6z"/><path stroke="#2E471F" stroke-width="3.556" stroke-miterlimit="10" d="M1134.7 337.8l-.7-44.6c5.5-3.1 13.6-6.5 23.6-9.7l1.4 31c4.3-1.4 9-2.7 13.9-4l-1.7-31c15-3.9 32.5-7.1 50.9-8.4l1 32.9c6.3-.6 12.7-1 19.2-1.2l-.9-32.5c1.7 0 3.5 0 5.2.1 18.8.5 36.3 2.3 51.7 5.2l-.5 30.7c5.5.9 10.8 1.9 15.9 3l-.2-30.3c13.5 3.5 24.9 7.9 33.6 12.9 1.4 83.9 7 249.8 8.4 312.5" fill="none"/><path fill="#80A262" stroke="#2E471F" stroke-width="3.556" stroke-miterlimit="10" d="M1194.3 298.2s-4.7 11.5 3.5 11.7c8.5.2 2-12 2-12s2.1-5.8-2.8-8.9c-1.4-.8-5.5 5.7-2.7 9.2zm75-2.6s-5.3 11.2 2.9 11.8c8.5.7 2.7-11.8 2.7-11.8s2.4-5.7-2.3-9c-1.4-.9-5.8 5.4-3.3 9z"/><path fill="#80A262" stroke="#2E471F" stroke-width="3.164" stroke-miterlimit="10" d="M1334.2 308.6s-4.4 11.3 2.1 11.8c6.7.6 2.2-11.9 2.2-11.9s1.9-5.7-1.8-9c-.9-.8-4.5 5.5-2.5 9.1z"/><path stroke="#2E471F" stroke-width="3.556" stroke-miterlimit="10" d="M1351.4 472.3c-20.9-12.1-57.2-20.4-100.5-21.6-37.6-1-75.3 7.5-98.3 16.2" fill="none"/><path fill="#2E471F" d="M1351.5 480.4s-.7-.4-2.1-1c-.7-.3-1.5-.8-2.5-1.2-1-.4-2.1-.9-3.4-1.5-2.6-1.1-5.7-2.3-9.4-3.5-3.7-1.2-7.9-2.4-12.4-3.7-4.6-1.1-9.6-2.3-15-3.3-1.3-.2-2.7-.5-4.1-.8-1.4-.2-2.8-.4-4.2-.7-2.8-.5-5.7-.8-8.7-1.3-2.9-.4-5.9-.7-9-1-3-.3-6.1-.6-9.2-.8-1.6-.1-3.1-.2-4.7-.4l-4.7-.3c-3.2-.2-6.3-.3-9.5-.4h-4.8c-1.6 0-3.2-.1-4.8 0l-9.4.2c-6.2.2-12.3.7-18.3 1.3-3 .3-5.9.6-8.7 1l-4.2.6-4.1.6c-5.4.8-10.5 1.8-15.1 2.7-4.7 1-8.9 1.9-12.7 2.9-3.8.9-7 1.8-9.7 2.6-1.3.4-2.5.7-3.6 1-1 .3-1.9.6-2.6.8-1.4.5-2.2.7-2.2.7l2.1-.9c1.4-.6 3.4-1.4 6-2.4s5.8-2.1 9.6-3.2c3.7-1.2 7.9-2.4 12.6-3.6 2.3-.6 4.8-1.2 7.3-1.7s5.1-1.1 7.8-1.6c5.4-1.1 11.1-2 17.1-2.7 6-.7 12.1-1.4 18.5-1.6 3.1-.2 6.3-.2 9.6-.3h9.6c3.2.1 6.4.2 9.6.5l4.8.3c1.6.1 3.2.3 4.7.4 6.3.5 12.4 1.3 18.4 2.2 3 .5 5.9.9 8.7 1.5l4.2.8 4.1.9c2.7.6 5.3 1.2 7.8 1.9s4.9 1.4 7.2 2c2.3.8 4.5 1.4 6.5 2.2 2 .8 4 1.4 5.8 2.2 3.6 1.4 6.7 2.9 9.2 4.1 1.2.7 2.3 1.2 3.3 1.7.9.5 1.7 1 2.4 1.4 1.5 1 2.2 1.4 2.2 1.4z"/><path stroke="#2E471F" stroke-width="3.744" stroke-miterlimit="10" d="M712.9 561.4l-5.6-335.5c-6-3-14.9-6.2-25.6-9.2l-.5 32c-4.7-1.3-9.8-2.5-15.1-3.6l.7-32c-16.2-3.5-35.2-6.1-55-6.9l.1 34c-6.8-.4-13.7-.6-20.6-.5l-.2-33.5-5.6.3c-20.2 1.2-38.9 3.7-55.4 7.2l1.6 31.6c-5.9 1.1-11.5 2.3-16.9 3.6l-.9-31.2c-14.3 4.1-26.4 9-35.6 14.5 1.4 86.5 3.6 266.7 4.2 331.4m672.5 48.4l-4.5-272.3-42.9-5.1.4 42.3-20.9-2.5v-42.2l-63-7.5.7 42.3c-6.9-.8-13.8-1.6-20.7-2.5l-.4-42.3-63.2-7.4.1 42.3-21.1-2.5.3-42.2-68.7-8.1.5 42.3-20.9-2.5v-42.2l-64.7-7.4.7 42.3-21.2-2.5-.9-42.4-36.3-4.8" fill="none"/><path fill="#80A262" stroke="#2E471F" stroke-width="3.744" stroke-miterlimit="10" d="M642.7 233.2s5.5 11.7-3.4 12.2c-9.2.5-2.6-12.3-2.6-12.3s-2.4-5.9 2.7-9.2c1.5-.9 6.1 5.6 3.3 9.3zm-80.7 0s6.1 11.4-2.7 12.3c-9.1 1-3.3-12.1-3.3-12.1s-2.7-5.8 2.2-9.4c1.4-1 6.4 5.3 3.8 9.2zm241 94.2s6.1 11.4-2.7 12.3c-9.1 1-3.3-12.1-3.3-12.1s-2.7-5.8 2.2-9.4c1.4-.9 6.4 5.4 3.8 9.2zm84.8 10.1s6.1 11.4-2.7 12.3c-9.1 1-3.3-12.1-3.3-12.1s-2.7-5.8 2.2-9.4c1.4-.9 6.4 5.4 3.8 9.2zm88.5 12.3s6.1 11.4-2.7 12.3c-9.1 1-3.3-12.1-3.3-12.1s-2.7-5.8 2.2-9.4c1.4-.9 6.4 5.4 3.8 9.2zm84.5 9.4s6.1 11.4-2.7 12.3c-9.1 1-3.3-12.1-3.3-12.1s-2.7-5.8 2.2-9.4c1.4-.9 6.4 5.4 3.8 9.2z"/><path fill="#80A262" stroke="#2E471F" stroke-width="3.33" stroke-miterlimit="10" d="M492.8 248.8s5.1 11.5-1.9 12.2c-7.2.8-2.8-12.1-2.8-12.1s-2.3-5.8 1.6-9.3c1-.9 5.1 5.5 3.1 9.2z"/><path stroke="#2E471F" stroke-width="3.744" stroke-miterlimit="10" d="M480.6 416.3c22-13.2 60.1-22.7 106.6-25.3 40.4-2.3 98.8 6.3 123.1 17.7" fill="none"/><path fill="#2E471F" d="M480.8 425.7s.8-.5 2.3-1.4c1.4-.9 3.7-2.2 6.5-3.7 1.5-.7 3.1-1.5 4.8-2.3 1.8-.8 3.7-1.6 5.8-2.5 4.2-1.6 9-3.4 14.3-5 5.3-1.7 11.1-3.2 17.3-4.6 6.2-1.4 12.8-2.7 19.6-3.8 3.4-.6 6.9-1 10.5-1.5 3.5-.4 7.1-.9 10.8-1.2 1.8-.2 3.6-.3 5.5-.5l5.5-.4 2.8-.2h1.4l1.4-.1 5.5-.2c7.4-.1 14.9 0 22.1.4 7.3.3 14.4 1 21.3 1.7 6.9.8 13.5 1.7 19.8 2.8 3.1.5 6.2 1 9.1 1.7 1.5.3 2.9.6 4.3.9 1.4.3 2.8.6 4.1.9 1.4.3 2.7.6 4 .9l3.8 1 3.6.9c1.1.3 2.3.7 3.3 1 2.2.6 4.2 1.2 6 1.9 1.8.7 3.6 1.2 5 1.8 1.5.6 2.8 1.1 4 1.6 1.2.5 2.1 1 2.9 1.3 1.6.7 2.4 1.1 2.4 1.1s-.9-.3-2.5-.9c-.8-.3-1.8-.7-3-1.1-1.2-.4-2.6-.8-4.1-1.3-1.5-.5-3.3-.9-5.1-1.5-.9-.2-1.9-.5-2.9-.8-1-.2-2.1-.5-3.2-.8-1.1-.3-2.2-.5-3.4-.8l-3.6-.7c-1.2-.3-2.5-.5-3.8-.8-1.3-.2-2.6-.5-4-.7-1.4-.2-2.7-.5-4.1-.8l-4.3-.7c-2.9-.5-6-.9-9.1-1.4-6.2-.9-12.9-1.6-19.7-2.3-3.4-.3-6.9-.6-10.4-.8-3.5-.2-7.1-.5-10.7-.6-7.2-.4-14.5-.4-21.8-.3l-5.5.2-1.4.1h-1.4l-2.7.2c-1.8.1-3.6.2-5.5.4l-5.4.5c-1.8.1-3.6.3-5.4.5-1.8.2-3.6.4-5.3.5-3.5.4-7 .8-10.4 1.3l-5.1.7c-1.7.3-3.3.5-4.9.8-3.3.5-6.4 1.1-9.5 1.7-6.2 1.3-12 2.5-17.3 4-5.3 1.4-10.1 2.9-14.4 4.3-2.1.8-4.1 1.5-5.9 2.2-1.8.7-3.4 1.4-4.9 2-1.5.7-2.8 1.3-3.9 1.8s-2.1 1-2.8 1.4c-1.5.8-2.3 1.2-2.3 1.2z"/><path fill="#61685B" stroke="#2E471F" stroke-width="3.744" stroke-miterlimit="10" d="M570.9 371.6l-.8-60.1c0-2-2.8-3.5-6.2-3.5-3.4 0-6.2 1.7-6.1 3.6l.8 60.7c0 1.8 12.4 1.4 12.3-.7zm609.7 64.3l-.7-50.5c-.1-4.7-10.2-3-10 1.1l.7 51.4c.1 3 9.9 1.1 10-2zm134.6 4.5l-1-49.9c-.1-4.6 10-3.3 9.9.8l1 50.7c0 2.9-9.7 1.4-9.9-1.6z"/><g stroke="#2E471F" stroke-width="3.276" stroke-miterlimit="10"><path fill="#61685B" d="M770.3 524.3l-23.2-1.1c-2.8-.1-5-2.4-5.1-5.2l-.8-49.2c-.3-19 10.4-31.3 16.6-31.4 6.3-.1 16.9 11.7 17.2 30.9l.8 50.7c.1 2.9-2.4 5.4-5.5 5.3z"/><path d="M746.7 446.6s11.1 4.6 11.6 33.9c.5 29.3.7 43.2.7 43.2m9.9-77.5s-11 5-10.5 34.3c.5 29.3.7 43.2.7 43.2" fill="none"/></g><g stroke="#2E471F" stroke-width="3.276" stroke-miterlimit="10"><path fill="#61685B" d="M1107.6 553.7l-23.2-1.1c-2.8-.1-5-2.4-5.1-5.2l-.8-49.2c-.3-19 10.4-31.3 16.6-31.4 6.3-.1 16.9 11.7 17.2 30.9l.8 50.7c.1 3-2.5 5.5-5.5 5.3z"/><path d="M1084 476.1s11.1 4.6 11.6 33.9c.5 29.3.7 43.2.7 43.2m9.8-77.5s-11 5-10.5 34.3c.5 29.3.7 43.2.7 43.2" fill="none"/></g><g stroke="#2E471F" stroke-width="3.276" stroke-miterlimit="10"><path fill="#61685B" d="M1332.2 578.6l-23.2-1.1c-2.8-.1-5-2.4-5.1-5.2l-.8-49.2c-.3-19 10.4-31.3 16.6-31.4 6.3-.1 16.9 11.7 17.2 30.9l.8 50.7c.1 3-2.4 5.4-5.5 5.3z"/><path d="M1308.6 500.9s11.1 4.6 11.6 33.9c.5 29.3.7 43.2.7 43.2m9.8-77.4s-11 5-10.5 34.3c.5 29.3.7 43.2.7 43.2" fill="none"/></g><g stroke="#2E471F" stroke-width="3.276" stroke-miterlimit="10"><path fill="#61685B" d="M986.9 543.2l-23.2-1.1c-2.8-.1-5-2.4-5.1-5.2l-.8-49.2c-.3-19 10.4-31.3 16.6-31.4 6.3-.1 16.9 11.7 17.2 30.9l.8 50.7c.1 3-2.4 5.4-5.5 5.3z"/><path d="M963.3 465.5s11.1 4.6 11.6 33.9c.5 29.3.7 43.2.7 43.2m9.8-77.4s-11 5-10.5 34.3c.5 29.3.7 43.2.7 43.2" fill="none"/></g><g stroke="#2E471F" stroke-width="3.276" stroke-miterlimit="10"><path fill="#61685B" d="M902.3 537.5l-23.2-1.1c-2.8-.1-5-2.4-5.1-5.2l-.8-49.2c-.3-19 10.4-31.3 16.6-31.4 6.3-.1 16.9 11.7 17.2 30.9l.8 50.7c.1 2.9-2.5 5.4-5.5 5.3z"/><path d="M878.7 459.8s11.1 4.6 11.6 33.9l.7 43.3m9.8-77.6s-11 5-10.5 34.3l.7 43.3" fill="none"/></g><path fill="#465D34" stroke="#2E471F" stroke-width="2.463" stroke-miterlimit="10" d="M449.7 585.5c4-1.2 20 4.8 22.6-8.1 4.4-21.9 36.6 6.6 33.4-24.8-1.8-18.3 32.4-5 39.9-15.9 7.5-10.8 14.1-12.2 22.5-11s13.3-25.7 32.4-16.1c19.1 9.6 21.1 1.6 33-4.1 11.8-5.7 17.2 22.7 30.7 19.2s17.3 7.5 25.1 2.2c7.8-5.3 20.5-26.1 36.3-15.7 15.8 10.4 21.2-7.2 31.5-5.6 10.2 1.5 12.1 6.5 30.2-1.5 18.1-7.9 12.2 17.1 34.3 6.6 22.7-10.9 29.3 4.4 23.9 12.9 0 0 14.3-3.1 17.2 5.3 3.3-.5-3.4-19.8 15.4-14.4s10.7-11.1 27.6-8.7c15.4 2.2 9.2 14.7 24.8 9.6 9.4-3.1 26.7-5.8 38.2 2.7 11.5 8.5 16.4 1.3 21.9-4.5 5.6-5.8 15.8-1.8 19.7 3.6 3.9 5.4 6.6-5.4 13.4 3.1 6.9 8.5 12.4-9.5 25.9 2 13.4 11.5 11.5-6.6 26.8-7.6 15.4-1 17.8-1.4 27.1-7.6 9.4-6.2 15.3-2.3 21.9 3.4 6.6 5.7 11.5 7.3 18.9 2.8 7.3-4.5 18.3-7.9 26.2-1 7.9 6.9 4.4 19.2 17 17.8 6-.7 13-3.2 20.1-3.7 7.9-.5 15.6 19.8 28 15.6 10.8-3.6 13.5 5.1 14.8 12 11.5-5.1 17.1 7.8 26.9 1.6 14.5-9.2 5 9.4 14.4 10 9.4.6-1.6 10.8 9.4 12.4 10.9 1.6 33 13.6 51.9-12.7 19-26.3 27.1-2.7 26.1 3.3-.9 6 6.3-1.1 14.7 10.2 36.6 49.2 25.9 103.2 11.5 103.2-9.2 0-962.4 3.6-962.4 3.6s-19.8-92 6.8-100.1z"/></g><path clip-path="url(#b)" fill="#465D34" stroke="#2E471F" stroke-width="3.505" stroke-miterlimit="10" d="M1311 687.1c-15.6-2.1-26.9-19.3-5.4-19.3 15.9 0-.9-29 13.9-24.2 16.4 5.4 17.2-16.3 26.6 2.6 7.1 14.4 12.8 11 10.5-4.6-2.1-14.5 11.3-4.1 16.3-11.9 4.8-7.5 16.1-.8 17.7 8.4 1.9 11.3 19.8.3 16.7-9.5-3.2-9.8 8.9-9.2 13.3-2.7 4.4 6.5 7.4-3 14.4 7s17.5-10.9 24.1 12c1.9 6.5 7.2 5.5 9.5-8.2 2.3-13.8 18.1-.1 12.9 13.7 0 0 15.9-12.7 23.4-2.3 7.5 10.5 12 3.1 15.3 14.1 1.4 4.6-2.7 8.3-2.7 8.3-10.2 5.3 4 12.9 11.7 3.8s15.9-2.5 18.9 4.7c3 7.3 17.4-2.7 22.9 9.9l-260-1.8zm-999.6 0c-15.6-2.1-26.9-19.3-5.4-19.3 15.9 0-.9-29 13.9-24.2 16.4 5.4 17.2-16.3 26.6 2.6 7.1 14.4 12.8 11 10.5-4.6-2.1-14.5 11.3-4.1 16.3-11.9 4.8-7.5 16.1-.8 17.7 8.4 1.9 11.3 19.8.3 16.7-9.5-3.2-9.8 8.9-9.2 13.3-2.7s7.4-3 14.4 7 17.5-10.9 24.1 12c1.9 6.5 7.2 5.5 9.5-8.2 2.3-13.8 18.1-.1 12.9 13.7 0 0 15.9-12.7 23.4-2.3 7.5 10.5 12 3.1 15.3 14.1 1.4 4.6-2.7 8.3-2.7 8.3-10.2 5.3 4 12.9 11.7 3.8s15.9-2.5 18.9 4.7c3 7.3 17.4-2.7 22.9 9.9l-260-1.8z"/><path fill="#465D34" d="M447.2 624.2h961.6v57.6h-961.6z"/><defs><path id="o" d="M-7.1 0h2416.9v682h-2416.9z"/></defs><clipPath id="p"><use xlink:href="#o" overflow="visible"/></clipPath><g clip-path="url(#p)"><path fill="#A8B499" d="M1415.9 563.6l-288.8-15-64.4-3.3-285.9-3.8-63.1 1.6-289.8 7.7-64.2 4.4 1.9 63.1 2.6 8.6 4.2 131.8 80.7-3.4s-1.9-36.4 26.2-67.5 63.4-41.2 89.3-41.9c25.9-.7 66.6 5.6 97.3 36.4 30.6 30.8 30 65.4 30 65.4l98.1 1.4c.5-19 8.2-36.7 8.2-36.7 20.5-46.5 70.8-67.2 99-70.5 28.2-3.3 76.4.1 112.5 36.1l33 74.3 100.2 1.2c-.5-4.1 3.9-46.6 44.5-75.1 40.6-28.5 87.2-23.6 87.2-23.6 18.3 3.3 33.6 7.3 46.4 13.4 68.8 32.9 64.4 99.1 64.4 99.1l80.6 5.5 7.6-131.6 2.7-8.4 3.6-63.1-64-6.1z"/><path stroke="#2E471F" stroke-width="3.37" stroke-miterlimit="10" d="M1061.1 616.6l-285.5-3.7" fill="none"/><path stroke="#2E471F" stroke-width="2.246" stroke-miterlimit="10" d="M1062.2 607.5l-285.6-3.7" fill="none"/><path stroke="#2E471F" stroke-width="3.37" stroke-miterlimit="10" d="M1126.1 611.7c.1 0 .1-.1.1-.1l.8-63c0-.1 0-.1-.1-.1l-64.1-3.3c-.1 0-.1 0-.1.1l-.8 64.5c0 .1.1.1.1.1" fill="none"/><path stroke="#2E471F" stroke-width="2.293" stroke-miterlimit="10" d="M1062.5 552.9l-285.8-3.7" fill="none"/><path stroke="#2E471F" stroke-width="3.37" stroke-miterlimit="10" d="M1126.2 611.7l-2.4 8.5-1.8 133.7m-60.2-144l.4 9.5-1.7 133.7m63.3-132.9l-61.6-.8m-19.6 133c.7-57.7-55.1-110.8-124.9-111.7-69.8-.9-127 50.7-127.8 108.4" fill="none"/><path fill="#2E471F" d="M1052.8 751.9s0-1.6-.1-4.5c-.1-3-.4-7.3-1.2-12.7-.9-5.4-2.4-12-5.1-19.2-2.6-7.2-6.4-15.1-11.5-23-1.2-2-2.7-3.9-4.1-6l-2.2-3-2.3-3c-1.7-1.9-3.3-4-5.1-5.8l-2.7-2.9-2.9-2.8-1.5-1.4-1.5-1.4-3.1-2.7-3.3-2.6-1.6-1.3-1.7-1.3c-1.1-.8-2.3-1.7-3.5-2.5l-3.6-2.4-1.8-1.2-1.9-1.1c-1.3-.7-2.5-1.5-3.8-2.3-2.6-1.4-5.2-2.9-7.9-4.1l-4.1-1.9-4.2-1.8c-5.6-2.3-11.4-4.3-17.4-5.9-3-.9-6-1.5-9.1-2.2-1.5-.3-3.1-.6-4.6-.8l-2.3-.4-2.3-.3-4.7-.6-4.7-.4-2.3-.2-2.4-.1-4.7-.2h-7.1l-2.4.1-4.7.3-4.7.5-2.3.2-2.3.3-4.6.7c-3.1.6-6.1 1.1-9.1 1.9-6 1.4-11.9 3.3-17.6 5.4l-4.2 1.7c-1.4.6-2.8 1.2-4.1 1.8-2.8 1.2-5.4 2.6-8 3.9-1.3.7-2.6 1.4-3.8 2.2l-1.9 1.1-1.8 1.2c-1.2.8-2.4 1.5-3.7 2.3-1.2.8-2.4 1.6-3.5 2.4l-1.7 1.2-1.7 1.3c-1.1.9-2.2 1.7-3.3 2.5l-3.2 2.7c-.5.4-1 .9-1.6 1.3l-1.5 1.4-3 2.7-2.8 2.8c-1.9 1.8-3.5 3.8-5.3 5.7l-2.4 2.9c-.8 1-1.6 1.9-2.3 2.9-1.4 2-3 3.9-4.2 5.9-5.3 7.8-9.2 15.6-12.1 22.7-2.8 7.1-4.5 13.7-5.6 19.1-1 5.4-1.4 9.7-1.6 12.7-.1 3-.2 4.5-.2 4.5s.1-1.6.2-4.5c.1-3 .6-7.3 1.5-12.7 1-5.4 2.7-12 5.4-19.1 2.8-7.2 6.7-15 12-22.9 1.3-2 2.8-3.9 4.2-5.9.7-1 1.5-1.9 2.3-2.9.8-1 1.6-2 2.4-2.9 1.7-1.9 3.4-3.9 5.3-5.7l2.8-2.8 3-2.7 1.5-1.4c.5-.4 1-.9 1.6-1.3l3.2-2.7c1.1-.8 2.2-1.7 3.3-2.6l1.7-1.3 1.7-1.2c1.2-.8 2.3-1.6 3.5-2.5 1.2-.8 2.4-1.5 3.7-2.3l1.9-1.2 1.9-1.1 3.9-2.2c2.6-1.3 5.3-2.8 8-4 1.4-.6 2.7-1.3 4.1-1.8l4.2-1.7c5.7-2.1 11.6-4.1 17.6-5.5 3-.8 6.1-1.3 9.2-2 1.5-.3 3.1-.5 4.7-.7l2.3-.4 2.3-.3 4.7-.5 4.7-.3 2.4-.1h2.4l4.7-.1 4.7.2 2.4.1 2.4.2 4.7.4 4.7.6 2.3.3 2.3.4 4.6.8c3 .7 6.1 1.3 9.1 2.2 6 1.6 11.8 3.7 17.5 6l4.2 1.8 4.1 1.9c2.7 1.3 5.3 2.8 7.9 4.2 1.3.7 2.5 1.5 3.8 2.3l1.9 1.1 1.8 1.2 3.6 2.4c1.2.9 2.3 1.7 3.5 2.5l1.7 1.3 1.6 1.3c1.1.9 2.2 1.8 3.3 2.6 1 .9 2.1 1.8 3.1 2.8l1.5 1.4 1.5 1.4 2.9 2.8 2.7 2.9c1.8 1.9 3.4 3.9 5.1 5.9.8 1 1.6 2 2.3 3 .8 1 1.6 2 2.2 3 1.4 2 2.9 4 4.1 6 5.1 8 8.8 15.9 11.4 23.2 2.6 7.3 4 13.8 4.9 19.3.8 5.5 1.1 9.8 1.2 12.8.2 3.1.2 4.7.2 4.7z"/><path stroke="#2E471F" stroke-width="2.246" stroke-miterlimit="10" d="M1126.2 611.5l-64.4-1.7" fill="none"/><path stroke="#2E471F" stroke-width="2.293" stroke-miterlimit="10" d="M1002.9 606.7l.7-54.5 25.7.3-.7 54.5m-90.2-1.1l.7-54.6 25.6.4-.7 54.5m-90.2-1.2l.7-54.5 25.7.3-.7 54.6m-90.2-1.2l.7-54.5 25.6.3-.7 54.5m227-4.4l-33.2-.4m-219.4-2.9l-33.2-.4m226.9 3l-39.2-.5m-24.9-.4l-39.2-.5m-25.8-.3l-39.2-.5" fill="none"/><path d="M1055.7 552.8l-.7 47.2m-8.7-47.3l-.7 47.2m-8.7-47.3l-.6 47.2m-233.6-50.2l-.6 47.2m-8.8-47.4l-.6 47.2m-8.8-47.3l-.6 47.2m213.8-44.4l-.6 47.2m-8-47.3l-.6 47.2m-7.9-47.3l-.6 47.2m-8-47.3l-.6 47.1m-38.5-47.7l-.7 47.2m-7.9-47.3l-.6 47.2m-8-47.3l-.6 47.2m-7.9-47.3l-.7 47.1m-38.2-47.6l-.6 47.1m-7.9-47.3l-.6 47.2m-8-47.3l-.6 47.2m-8-47.3l-.6 47.2" stroke="#2E471F" stroke-width="1.556" stroke-miterlimit="10" fill="none"/><path d="M776 606.2l-.7 9.5-1.7 133.6m-61.9-143c-.1 0-.1-.1-.1-.1l.8-63c0-.1.1-.1.1-.1l64.2-1.6c.1 0 .1.1.1.1l-.8 64.5c0 .1-.1.1-.1.1m-64.3.1l2.2 8.6-1.7 133.6m1.7-133.6l61.5.8m-63.7-9.5l64.4-.1" stroke="#2E471F" stroke-miterlimit="10" fill="none"/><path stroke="#2E471F" stroke-width="3.37" stroke-miterlimit="10" d="M426.7 622.1l286.3-8.8" fill="none"/><path stroke="#2E471F" stroke-width="2.246" stroke-miterlimit="10" d="M425.5 613l285.5-8.8" fill="none"/><path stroke="#2E471F" stroke-width="3.37" stroke-miterlimit="10" d="M361.6 618.3c-.1 0-.1-.1-.1-.1l-1.9-63.1h.1l64.1-4.4c.1 0 .1 0 .1.1l2 64.5c0 .1-.1.1-.1.1" fill="none"/><path stroke="#2E471F" stroke-width="2.293" stroke-miterlimit="10" d="M424 559.4l288.4-7.9" fill="none"/><path stroke="#2E471F" stroke-width="3.37" stroke-miterlimit="10" d="M361.5 618.3l2.6 8.5 4.2 131.8m57.6-143.2l-.2 9.5 3.2 130.9m-64.8-129l61.6-1.9m23.3 130.3c-1.7-55.5 51.1-107.4 118.1-109.5s122.9 46.5 124.6 101.9" fill="none"/><path fill="#2E471F" d="M439.1 754.9v-4.4c0-2.8.2-7 .9-12.3.8-5.2 2-11.6 4.4-18.6 2.3-7 5.8-14.7 10.5-22.5 1.1-2 2.5-3.9 3.8-5.8.6-1 1.4-1.9 2.1-2.9.7-1 1.4-2 2.2-2.9 1.6-1.9 3.1-3.9 4.8-5.7.8-.9 1.7-1.9 2.6-2.8.9-.9 1.8-1.8 2.7-2.8l1.4-1.4 1.5-1.3c1-.9 2-1.8 2.9-2.7l3.1-2.6 1.6-1.3 1.6-1.2 3.3-2.5 3.4-2.4 1.7-1.2 1.8-1.1c1.2-.7 2.4-1.5 3.6-2.3 2.5-1.4 4.9-2.9 7.5-4.1l3.9-1.9 4-1.8c5.4-2.3 10.9-4.4 16.7-6 2.9-.9 5.8-1.5 8.7-2.3 1.5-.3 3-.6 4.4-.9l2.2-.4 2.2-.3 4.5-.7 4.5-.5 2.3-.2 2.3-.1 4.6-.3h6.8l2.3.1 4.6.2 4.5.4 2.3.2 2.2.3 4.5.6c3 .6 5.9 1 8.8 1.7 5.8 1.3 11.5 3 17 5 1.4.5 2.7 1 4.1 1.6 1.4.5 2.7 1.1 4 1.7 2.7 1.1 5.2 2.4 7.8 3.7 1.3.7 2.5 1.4 3.7 2l1.9 1 1.8 1.1c1.2.7 2.4 1.4 3.6 2.2 1.2.8 2.3 1.5 3.4 2.3l1.7 1.1 1.6 1.2c1.1.8 2.2 1.6 3.2 2.4l3.1 2.5 1.5 1.2 1.5 1.3 2.9 2.6 2.7 2.7c1.9 1.7 3.5 3.6 5.2 5.4l2.4 2.8c.8.9 1.6 1.8 2.3 2.8 1.4 1.9 2.9 3.7 4.2 5.6 5.2 7.5 9.1 14.9 11.9 21.8 2.8 6.9 4.5 13.1 5.5 18.3 1 5.2 1.5 9.4 1.6 12.2.2 2.8.2 4.3.2 4.3s-.1-1.5-.3-4.3c-.2-2.8-.7-7-1.7-12.2-1.1-5.2-2.8-11.4-5.7-18.2-2.8-6.8-6.8-14.2-12-21.6-1.2-1.9-2.7-3.7-4.2-5.6-.7-.9-1.5-1.8-2.3-2.7-.8-.9-1.5-1.9-2.4-2.8-1.7-1.8-3.3-3.7-5.2-5.4l-2.7-2.7-2.9-2.6-1.5-1.3-1.5-1.2-3.1-2.5c-1.1-.8-2.2-1.6-3.2-2.4l-1.6-1.2-1.7-1.1-3.4-2.3-3.6-2.1-1.8-1.1-1.8-1c-1.2-.7-2.5-1.4-3.7-2-2.6-1.2-5.1-2.5-7.8-3.6-1.3-.6-2.6-1.2-4-1.7l-4.1-1.5c-5.5-1.9-11.2-3.7-17-4.9-2.9-.7-5.9-1.1-8.8-1.7l-4.5-.6-2.2-.3-2.2-.2-4.5-.4-4.5-.2-2.3-.1h-6.8l-4.5.2-2.3.1-2.3.2-4.5.5-4.5.7-2.2.3-2.2.4-4.4.9c-2.9.7-5.8 1.3-8.7 2.2-5.7 1.6-11.3 3.7-16.6 6l-4 1.8-3.9 1.9c-2.6 1.2-5 2.7-7.5 4.1l-3.6 2.2-1.4 1-1.7 1.2-3.4 2.4-3.3 2.5-1.6 1.2-1.6 1.3-3.1 2.6c-1 .9-2 1.8-2.9 2.7l-1.5 1.3-1.4 1.4-2.7 2.7-2.6 2.8c-1.7 1.8-3.2 3.8-4.8 5.7-.8.9-1.5 1.9-2.2 2.9-.7 1-1.5 1.9-2.1 2.9-1.3 2-2.7 3.8-3.8 5.8-4.7 7.7-8.2 15.3-10.6 22.3-2.4 7-3.7 13.3-4.5 18.5-.7 5.3-.9 9.4-1 12.3 0 2.9-.1 4.4-.1 4.4z"/><path stroke="#2E471F" stroke-width="2.246" stroke-miterlimit="10" d="M361.5 618.2l64.4-2.9" fill="none"/><path stroke="#2E471F" stroke-width="1.123" stroke-miterlimit="10" d="M484.7 611.2l-1.3-53.6-25.3.8.9 53.6m90.2-2.8l-1.8-52.7-25.7.8 1.9 52.7" fill="none"/><path stroke="#2E471F" stroke-width="2.293" stroke-miterlimit="10" d="M613.7 607.2l-.9-52.7-25.6.8.9 52.7m89.3-2.8l-.9-52.7-25.7.8 1.8 52.7m-227-.3l33.2-1.1m219.3-6.8l33.2-1m-226.8 7l39.2-1.2m24.8-.7l39.3-1.3m25.7-.8l39.3-1.2" fill="none"/><path d="M431.3 559l1.2 46.4m8.1-46.7l1.3 46.5m8.2-46.8l1.1 46.5m233.4-52.6l.7 45.3m8.7-46.5l.7 46.2m8.7-46.5l.7 46.2m-214.5-39.1l1.4 45.7m6.9-45.6l1.6 45.4m7-46.5l1.6 46.2m7-46.5l1.6 46.2m37.5-47.5l1.6 46.3m7-46.5l1.6 46.2m6.9-46.5l1.6 46.2m7-46.5l1.6 46.3m37.2-47.5l1.6 46.3m7-46.5l1.6 46.2m6.9-46.5l1.6 46.3m7-46.6l1.6 46.3" stroke="#2E471F" stroke-width="1.556" stroke-miterlimit="10" fill="none"/><path stroke="#2E471F" stroke-width="3.37" stroke-miterlimit="10" d="M423.7 550.7l289.8-7.7m697.6 91.9l-286.9-16.3" fill="none"/><path stroke="#2E471F" stroke-width="2.246" stroke-miterlimit="10" d="M1412.5 625.8l-285.1-16.2" fill="none"/><path stroke="#2E471F" stroke-width="3.37" stroke-miterlimit="10" d="M1476.2 632.8c.1 0 .1 0 .1-.1l3.6-62.8c0 .8 0-.3-.1-.3l-63.9-6.1c-.1 0-.1 0-.1.1l-3.7 64.4c0 .1 0 .1.1.1" fill="none"/><path stroke="#2E471F" stroke-width="2.293" stroke-miterlimit="10" d="M1415.4 572.3l-288.1-15.4m349 75.9l-2.8 8.4-7.6 131.7" fill="none"/><path stroke="#2E471F" stroke-width="3.37" stroke-miterlimit="10" d="M1412.1 628.2l-.1 9.5-6.6 130.8" fill="none"/><path stroke="#2E471F" stroke-width="2.293" stroke-miterlimit="10" d="M1473.5 641.2l-61.5-3.5" fill="none"/><path stroke="#2E471F" stroke-width="3.37" stroke-miterlimit="10" d="M1385.3 767.4c3.2-55.4-48.3-108.7-115.2-112.5-67-3.8-124.1 43.3-127.3 98.7" fill="none"/><path fill="#2E471F" d="M1395.2 767.3s0-1.5.1-4.4c0-2.8-.1-7-.7-12.3-.7-5.3-1.8-11.6-4.1-18.6-2.2-7-5.5-14.7-10-22.6-1.1-2-2.4-3.9-3.6-5.9l-2-2.9-2.1-3c-1.5-1.9-3-3.9-4.7-5.8l-2.5-2.9-2.7-2.8-1.3-1.4-1.4-1.4c-.9-.9-1.9-1.8-2.9-2.8l-3-2.7-1.5-1.3-1.6-1.3-3.2-2.6c-1.1-.8-2.2-1.6-3.4-2.4l-1.7-1.2-1.8-1.2c-1.2-.8-2.3-1.6-3.5-2.3-2.4-1.4-4.9-3-7.4-4.3-1.3-.7-2.5-1.4-3.8-2l-3.9-1.9c-5.3-2.4-10.8-4.6-16.5-6.4-2.8-1-5.7-1.7-8.6-2.5-1.5-.4-2.9-.7-4.4-1l-2.2-.5-2.2-.4-4.5-.8-4.5-.6-2.2-.3-2.3-.2-4.5-.4-4.5-.2-2.3-.1h-2.3l-4.5.1-4.5.3-2.3.1-2.2.2-4.5.5c-3 .5-5.9.8-8.8 1.5-5.9 1.1-11.6 2.7-17.1 4.5-1.4.5-2.8 1-4.1 1.4-1.4.5-2.7 1.1-4 1.6-2.7 1-5.3 2.3-7.9 3.4l-3.8 1.9-1.9 1-1.8 1-3.6 2.1-3.5 2.2-1.7 1.1-1.7 1.2-3.3 2.3-3.2 2.4c-.5.4-1 .8-1.6 1.2-.5.4-1 .8-1.5 1.3l-3 2.5-2.8 2.6c-1.9 1.7-3.6 3.5-5.3 5.2-.9.9-1.6 1.8-2.4 2.7l-2.4 2.7c-1.5 1.8-3 3.6-4.3 5.5-5.4 7.3-9.5 14.6-12.5 21.3-3 6.7-4.9 12.9-6.2 18.1-1.2 5.2-1.8 9.3-2.1 12.1-.3 2.8-.4 4.3-.4 4.3s.1-1.5.4-4.3c.3-2.8.8-7 2-12.1 1.2-5.2 3.1-11.4 6-18.1 2.9-6.8 7-14.1 12.4-21.4 1.3-1.9 2.8-3.6 4.3-5.5.7-.9 1.6-1.8 2.4-2.7l2.4-2.7c1.7-1.7 3.4-3.6 5.3-5.3l2.8-2.6 3-2.5c.5-.4 1-.8 1.5-1.3.5-.4 1-.8 1.6-1.2 1-.8 2.1-1.6 3.2-2.4l3.3-2.3 1.7-1.2 1.7-1.1 3.5-2.2 3.6-2.1 1.8-1 1.9-1 3.8-1.9c2.6-1.2 5.2-2.4 7.9-3.5 1.3-.5 2.7-1.1 4.1-1.6 1.4-.5 2.8-1 4.1-1.5 5.6-1.8 11.3-3.4 17.2-4.5 2.9-.7 5.9-1 8.9-1.5l4.5-.5 2.3-.2 2.3-.1 4.5-.3 4.6-.1h2.3l2.3.1 4.5.1 4.6.4 2.3.2 2.3.3 4.5.6 4.5.8 2.2.4 2.2.5c1.5.3 2.9.6 4.4 1 2.9.8 5.8 1.5 8.6 2.5 5.7 1.8 11.2 4 16.5 6.5l3.9 1.9c1.3.6 2.6 1.4 3.8 2 2.6 1.3 5 2.9 7.4 4.3 1.2.8 2.4 1.6 3.5 2.3l1.8 1.2 1.7 1.2c1.1.8 2.2 1.6 3.4 2.5 1.1.9 2.2 1.7 3.2 2.6l1.6 1.3 1.5 1.3 3 2.7 2.9 2.8 1.4 1.4 1.3 1.4c.9 1 1.8 1.9 2.7 2.8l2.5 2.9c1.7 1.9 3.1 3.9 4.7 5.8l2.1 3c.7 1 1.4 1.9 2 3 1.2 2 2.6 3.9 3.6 5.9 4.6 7.9 7.8 15.6 9.9 22.7 2.2 7.1 3.3 13.4 3.9 18.7.5 5.3.6 9.5.6 12.3v4.4z"/><g opacity=".59"><linearGradient id="q" gradientUnits="userSpaceOnUse" x1="229.334" y1="628.625" x2="293.533" y2="628.625" gradientTransform="matrix(-1 -.013 -.013 1 1713.635 9.547)"><stop offset="0" stop-color="#2E471F"/><stop offset="1" stop-color="#2E471F"/></linearGradient><path opacity=".25" fill="url(#q)" d="M1476.2 632.8l-64.1-4.6-.2 9.5 61.6 3.5z"/><linearGradient id="r" gradientUnits="userSpaceOnUse" x1="293.442" y1="620.403" x2="1344.117" y2="620.403" gradientTransform="matrix(-1 -.013 -.013 1 1713.635 9.547)"><stop offset="0" stop-color="#2E471F"/><stop offset="1" stop-color="#2E471F"/></linearGradient><path opacity=".25" fill="url(#r)" d="M1412.1 625.3v10l-287.2-16.8h-.7l-.4 1.7-61.9-.9.2-3.4-63.9-.8-222.8-2.3-.3 3.4-61.7-1.5-.8-1.5-38.4 1-248.5 7.8v2.8l-61.6 1.9-2.6-8.6 64.4-2.9-.1-2 88.6-3.5 197.3-5.8v2.9l64.8-.7-.6-2.5 286.2 3.7v2.5l64 1.7.1-2.4z"/><linearGradient id="s" gradientUnits="userSpaceOnUse" x1="290.561" y1="556.092" x2="579.568" y2="556.092" gradientTransform="matrix(-1 -.013 -.013 1 1713.635 9.547)"><stop offset="0" stop-color="#2E471F"/><stop offset="1" stop-color="#2E471F"/></linearGradient><path opacity=".25" fill="url(#s)" d="M1415.9 563.6l-.5 7.8-288.5-14.5.1-8.4z"/><linearGradient id="t" gradientUnits="userSpaceOnUse" x1="643.991" y1="547.887" x2="930.089" y2="547.887" gradientTransform="matrix(-1 -.013 -.013 1 1713.635 9.547)"><stop offset="0" stop-color="#2E471F"/><stop offset="1" stop-color="#2E471F"/></linearGradient><path opacity=".25" fill="url(#t)" d="M1062.6 545.3l-.1 7.6-286-3.7.2-7.8z"/><linearGradient id="u" gradientUnits="userSpaceOnUse" x1="994.093" y1="556.738" x2="1282.761" y2="556.738" gradientTransform="matrix(-1 -.013 -.013 1 1713.635 9.547)"><stop offset="0" stop-color="#2E471F"/><stop offset="1" stop-color="#2E471F"/></linearGradient><path opacity=".25" fill="url(#u)" stroke="#2E471F" stroke-width="3.37" stroke-miterlimit="10" d="M712.5 544l-.1 7.3-288.3 7.6-.4-8.2z"/><linearGradient id="v" gradientUnits="userSpaceOnUse" x1="651.11" y1="690.577" x2="924.644" y2="690.577" gradientTransform="matrix(-1 -.013 -.013 1 1713.635 9.547)"><stop offset="0" stop-color="#2E471F"/><stop offset="1" stop-color="#2E471F"/></linearGradient><path opacity=".25" fill="url(#v)" d="M779.3 748.1c.8-63.3 61.8-119.9 138.3-118.9 76.5 1 136 59.1 135.2 122.4l-10.3.5c.7-57.7-55.1-110.8-124.9-111.7-69.8-.9-127 50.7-127.8 108.4l-10.5-.7z"/><linearGradient id="w" gradientUnits="userSpaceOnUse" x1="1002.11" y1="700.892" x2="1264.803" y2="700.892" gradientTransform="matrix(-1 -.013 -.013 1 1713.635 9.547)"><stop offset="0" stop-color="#2E471F"/><stop offset="1" stop-color="#2E471F"/></linearGradient><path opacity=".25" fill="url(#w)" d="M439.2 754.8c-1.9-60.8 54.3-117.7 127.8-120 73.5-2.3 133.1 51 135 111.8l-10.1.9c-1.7-55.5-57.6-104-124.6-101.9s-119.8 54-118.1 109.5l-10-.3z"/><linearGradient id="x" gradientUnits="userSpaceOnUse" x1="308.519" y1="701.02" x2="571.212" y2="701.02" gradientTransform="matrix(-1 -.013 -.013 1 1713.635 9.547)"><stop offset="0" stop-color="#2E471F"/><stop offset="1" stop-color="#2E471F"/></linearGradient><path opacity=".25" fill="url(#x)" d="M1132.7 752.3c3.5-60.7 64.4-112.5 137.8-108.3 73.4 4.2 128.1 62.5 124.6 123.2l-9.9.1c3.2-55.4-48.3-108.7-115.2-112.5-67-3.8-124.1 43.3-127.3 98.7l-10-1.2z"/></g><path stroke="#2E471F" stroke-width="1.123" stroke-miterlimit="10" d="M1476.3 632.7l-64.2-4.6m-58.7-5.7l2.6-53.5 25.3 1.5-2.3 53.5m-90.1-5.1l3.2-52.6 25.6 1.4-3.2 52.6m-90-5.1l2.2-52.6 25.7 1.4-2.3 52.7m-89.2-5.2l2.3-52.6 25.6 1.5-3.2 52.6" fill="none"/><path stroke="#2E471F" stroke-width="2.293" stroke-miterlimit="10" d="M1412.6 618.5l-33.2-1.9m-219-12.5l-33.2-1.9m226.6 12.9l-39.2-2.2m-24.8-1.4l-39.2-2.3m-25.7-1.4l-39.2-2.3" fill="none"/><path d="M1408 571.7l-2.3 46.4m-6.9-46.9l-2.4 46.3m-7.1-46.9l-2.3 46.4m-231.9-58.6l-1.9 45.3m-7.5-46.7l-1.9 46.2m-7.5-46.8l-1.9 46.2m215.4-33.5l-2.5 45.6m-5.8-45.7l-2.8 45.3m-5.7-46.7l-2.8 46.2m-5.8-46.7l-2.8 46.2m-36.3-48.5l-2.8 46.2m-5.7-46.7l-2.8 46.2m-5.8-46.7l-2.8 46.2m-5.7-46.7l-2.8 46.2m-36-48.4l-2.8 46.2m-5.7-46.6l-2.8 46.1m-5.8-46.6l-2.8 46.2m-5.8-46.7l-2.7 46.2" stroke="#2E471F" stroke-width="1.556" stroke-miterlimit="10" fill="none"/><path stroke="#2E471F" stroke-width="3.37" stroke-miterlimit="10" d="M1415.9 563.6l-289.5-15.2m-63.8-3.1l-285.9-3.9" fill="none"/><path fill="#649345" d="M1365.6 756.8s7.4 9.1 58.1 9.8c50.7.7 57.5-9.4 57.5-9.4l-.3 23.9-115.6-1.5.3-22.8z"/><path fill="#2E471F" d="M1481.2 757.3s-.3.4-.9 1c-.7.5-1.7 1.3-3.2 2.1-.7.4-1.6.7-2.5 1.2-.9.4-1.9.7-3 1.1-1.1.3-2.2.7-3.5 1.1-1.2.3-2.5.6-3.9 1-1.4.3-2.8.6-4.3.8-1.5.3-3 .5-4.6.7-1.6.3-3.2.4-4.9.6l-2.5.3-2.6.2c-1.7.1-3.5.3-5.3.3l-5.4.2c-3.7.1-7.4.1-11.1.1-3.7-.1-7.4-.2-11.1-.4-1.8-.1-3.7-.2-5.4-.3-1.8-.2-3.6-.3-5.3-.4-1.7-.1-3.5-.3-5.1-.5-1.7-.2-3.3-.4-4.9-.7-1.6-.3-3.1-.5-4.6-.8-1.5-.3-2.9-.6-4.3-.9-1.4-.3-2.7-.7-3.9-1-1.2-.4-2.4-.7-3.5-1.1-2.2-.7-4-1.4-5.5-2.2-1.5-.7-2.6-1.4-3.3-1.9-.7-.5-1-.9-1-.9s.3.3 1.1.8c.7.4 1.9 1 3.4 1.6 1.5.6 3.4 1.2 5.5 1.8 1.1.2 2.3.5 3.5.8 1.2.2 2.5.5 3.9.7 1.4.2 2.8.4 4.3.6 1.5.2 3 .4 4.6.6 1.6.2 3.2.3 4.9.5l5.1.4c1.7.1 3.5.2 5.3.3l5.4.2c3.6.2 7.4.2 11.1.3 3.7 0 7.4.1 11 0l5.4-.1 5.3-.2 2.6-.1 2.5-.2c1.7-.1 3.3-.2 4.9-.4 1.6-.2 3.1-.3 4.6-.5 1.5-.2 2.9-.4 4.3-.6 1.4-.3 2.7-.5 3.9-.7 1.2-.3 2.4-.6 3.5-.8 1.1-.3 2.1-.6 3-.9.9-.3 1.8-.6 2.5-1 1.5-.6 2.6-1.3 3.3-1.8.4-.5.7-.9.7-.9z"/><path fill="#2E471F" d="M1425.5 778.2s-1.3 0-3.6.1c-1.1 0-2.5.1-4.1.1h-5.3c-1.9-.1-4-.1-6.3-.2l-3.4-.1c-1.2-.1-2.4-.2-3.6-.2-1.2-.1-2.4-.2-3.7-.3-1.2-.1-2.5-.2-3.8-.4-2.5-.3-5.1-.6-7.7-1-2.6-.4-5.1-.9-7.6-1.4-1.3-.3-2.5-.5-3.7-.9-1.2-.3-2.4-.6-3.6-1-1.2-.3-2.3-.7-3.4-1.1-1.1-.4-2.2-.8-3.2-1.3-2.1-.9-4-1.8-5.7-2.9-1.7-1-3.1-2.2-4.1-3.5-.5-.6-.8-1.4-1-2.1-.1-.7-.1-1.4.2-1.9.6-1.1 1.5-1.5 2-1.8l.9-.3s-.3.1-.8.4c-.5.3-1.3.8-1.7 1.8-.3.5-.2 1.1-.1 1.7.2.6.5 1.2 1.1 1.8 1 1.2 2.4 2.2 4.1 3.1 3.3 1.9 7.6 3.4 12.2 4.7 2.3.7 4.8 1.2 7.2 1.7 2.5.5 5 1 7.6 1.4 2.5.4 5.1.8 7.6 1.1 2.5.3 5 .6 7.4.8 2.4.2 4.7.5 7 .6 2.2.2 4.3.3 6.2.4 1.9.1 3.7.2 5.3.3 1.6.1 2.9.2 4.1.2 2.2.1 3.5.2 3.5.2z" opacity=".5"/><path fill="#649345" d="M466.7 745.2s-7.6 8.9-58.3 8.3c-50.7-.7-57.2-10.9-57.2-10.9l-.3 23.9 115.6 1.5.2-22.8z"/><path fill="#2E471F" d="M351.1 742.7s.3.4 1 .9 1.8 1.2 3.3 1.8c.7.4 1.6.7 2.5 1 .9.3 1.9.6 3 1 1.1.3 2.2.6 3.5.9 1.2.3 2.5.5 3.9.8 1.4.2 2.8.5 4.3.7 1.5.2 3 .4 4.6.6 1.6.2 3.2.3 4.9.5l2.5.3c.8.1 1.7.1 2.6.2 1.7.1 3.5.3 5.3.4 1.8.1 3.6.2 5.4.2 3.6.2 7.4.2 11 .3 3.7 0 7.4.1 11.1 0l5.4-.1 5.3-.2c1.7 0 3.4-.2 5.1-.3 1.7-.1 3.3-.2 4.9-.3 1.6-.2 3.1-.3 4.6-.4 1.5-.2 2.9-.4 4.3-.5 1.4-.2 2.7-.4 3.9-.6 1.2-.2 2.4-.5 3.5-.7 2.2-.5 4.1-1 5.6-1.6 1.5-.5 2.7-1.1 3.4-1.5.7-.4 1.1-.8 1.1-.8s-.3.4-1 .9-1.8 1.2-3.3 1.8c-1.5.7-3.4 1.3-5.5 2-1.1.3-2.3.6-3.5 1-1.2.3-2.6.6-3.9.9-1.4.2-2.8.5-4.3.8-1.5.2-3 .4-4.6.6-1.6.2-3.2.4-4.9.5-1.7.2-3.4.3-5.1.4-1.7.1-3.5.2-5.3.3-1.8.1-3.6.1-5.5.2l-11.1.1c-3.7-.1-7.5-.2-11.1-.4l-5.4-.3c-1.8-.1-3.6-.3-5.3-.5-.9-.1-1.7-.2-2.6-.2-.9-.1-1.7-.2-2.5-.3-1.7-.2-3.3-.4-4.9-.7-1.6-.3-3.1-.5-4.6-.8-1.5-.3-2.9-.6-4.3-1s-2.6-.7-3.9-1.1c-1.2-.4-2.4-.8-3.4-1.2-1.1-.4-2.1-.8-3-1.2-.9-.4-1.7-.8-2.4-1.2-1.5-.8-2.5-1.6-3.1-2.2-1.3-.6-1.5-1-1.5-1z"/><path fill="#2E471F" d="M406.3 764.9s1.3 0 3.6-.1c1.1 0 2.5 0 4.1-.1 1.6-.1 3.4-.1 5.3-.2s4-.1 6.3-.3c2.2-.1 4.6-.3 7-.4 2.4-.2 4.9-.4 7.4-.6 2.5-.2 5.1-.5 7.6-.9 2.6-.3 5.1-.7 7.6-1.2s4.9-.9 7.3-1.5c4.7-1.1 9-2.5 12.3-4.3 1.7-.9 3.1-1.9 4.2-3 .5-.5.9-1.2 1.1-1.8.1-.6.2-1.2-.1-1.7-.4-1-1.2-1.5-1.7-1.8-.5-.3-.8-.4-.8-.4s.3.1.9.4c.5.3 1.4.7 1.9 1.8.3.5.3 1.2.2 1.9-.2.7-.5 1.4-1.1 2-1 1.3-2.5 2.4-4.2 3.4-1.7 1-3.6 1.9-5.7 2.7-1 .4-2.1.8-3.3 1.2-1.1.3-2.3.7-3.5 1l-3.6.9-3.7.8c-2.5.5-5.1.9-7.7 1.2-2.6.3-5.2.6-7.7.8l-3.8.3c-1.2.1-2.5.2-3.7.2l-3.6.2c-1.2 0-2.3 0-3.4.1-2.2.1-4.3 0-6.3 0-1.9 0-3.7-.1-5.3-.1-1.6 0-3-.1-4.1-.2-2.2-.2-3.5-.3-3.5-.3z" opacity=".5"/><path fill="#649345" d="M1035.2 742.9s7.4 9.1 58.1 9.8l57.5-9.4-.3 23.9-115.6-1.5.3-22.8z"/><path fill="#2E471F" d="M1150.8 743.4s-.3.4-.9 1c-.7.5-1.7 1.4-3.2 2.1-.7.4-1.6.7-2.5 1.2-.9.4-1.9.7-3 1.1-1.1.3-2.2.7-3.5 1.1-1.2.3-2.5.6-3.9 1-1.4.3-2.8.6-4.3.8-1.5.3-3 .5-4.6.7-1.6.3-3.2.4-4.9.6l-2.5.3-2.6.2c-1.7.1-3.5.3-5.3.3l-5.4.2c-3.7.1-7.4.1-11.1.1-3.7-.1-7.4-.2-11.1-.4-1.8-.1-3.7-.2-5.4-.3-1.8-.2-3.6-.3-5.3-.4-1.7-.1-3.5-.3-5.1-.5-1.7-.2-3.3-.4-4.9-.7-1.6-.3-3.1-.5-4.6-.7-1.5-.3-2.9-.6-4.3-.9-1.4-.3-2.7-.7-3.9-1-1.2-.4-2.4-.7-3.5-1.1-2.2-.7-4-1.4-5.5-2.2-1.5-.7-2.6-1.4-3.3-1.9-.7-.5-1-.9-1-.9s.3.3 1.1.8c.7.4 1.9 1 3.4 1.6 1.5.6 3.4 1.2 5.5 1.8 1.1.2 2.3.5 3.5.8 1.2.2 2.5.5 3.9.7 1.4.2 2.8.4 4.3.6 1.5.2 3 .4 4.6.6 1.6.2 3.2.3 4.9.5l5.1.4c1.7.1 3.5.2 5.3.3l5.4.2c3.6.2 7.4.2 11.1.3 3.7 0 7.4.1 11 0l5.4-.1 5.3-.2 2.6-.1 2.5-.2c1.7-.1 3.3-.2 4.9-.4 1.6-.2 3.1-.3 4.6-.5 1.5-.2 2.9-.4 4.3-.6 1.4-.3 2.7-.5 3.9-.7 1.2-.3 2.4-.6 3.5-.8 1.1-.3 2.1-.6 3-.9.9-.3 1.8-.6 2.5-1 1.5-.6 2.6-1.3 3.3-1.8.4-.7.7-1 .7-1z"/><path fill="#2E471F" d="M1159.6 743.7s.1.1.4.2c.3.1.7.4 1.1.7.5.4 1 .9 1.5 1.6.4.8.7 1.8.4 2.9-.3 1.1-1 2.2-1.9 3.2-.9 1-2.1 1.9-3.4 2.7-2.6 1.6-5.9 3-9.5 4.1-7.3 2.3-16.1 3.8-25.5 4.7-9.5.9-19.6 1.2-29.7 1.1-10.1-.1-20.2-.7-29.6-1.7-4.7-.5-9.3-1.2-13.5-2.1-4.3-.8-8.3-1.8-11.9-2.9-3.6-1.1-6.9-2.4-9.6-3.9-2.7-1.5-5-3.1-6.2-5-.6-.9-.8-2-.6-2.9.3-.9.9-1.4 1.3-1.7.5-.3.9-.5 1.2-.6.3-.1.4-.2.4-.2s-.1.1-.4.2c-.3.1-.7.3-1.2.7-.5.4-1 .9-1.2 1.7-.2.8 0 1.8.6 2.7 1.2 1.8 3.5 3.3 6.2 4.7 2.7 1.3 6 2.5 9.6 3.6 3.6 1 7.6 1.9 11.9 2.7 4.3.7 8.8 1.3 13.5 1.8 9.4 1 19.4 1.5 29.5 1.5 5 .1 10.1.1 15-.1 5-.1 9.8-.4 14.5-.8 9.4-.8 18.1-2 25.4-4.2 3.6-1.1 6.8-2.3 9.5-3.8 2.6-1.5 4.7-3.3 5.4-5.4.3-1 .1-2-.2-2.8-.4-.8-.9-1.3-1.4-1.6-.5-.4-.8-.6-1.1-.8-.4-.2-.5-.3-.5-.3z" opacity=".5"/><path fill="#649345" d="M682.6 738.3s7.4 9.1 58.1 9.8c50.7.7 57.5-9.4 57.5-9.4l-.3 23.9-115.6-1.5.3-22.8z"/><path fill="#2E471F" d="M798.2 738.8s-.3.4-.9 1c-.7.5-1.7 1.3-3.2 2.1-.7.4-1.6.7-2.5 1.2-.9.4-1.9.7-3 1.1-1.1.3-2.2.7-3.5 1.1-1.2.3-2.5.6-3.9 1-1.4.3-2.8.6-4.3.8-1.5.3-3 .5-4.6.7-1.6.3-3.2.4-4.9.6l-2.5.3-2.6.2c-1.7.1-3.5.3-5.3.3l-5.4.2c-3.7.1-7.4.1-11.1.1-3.7-.1-7.4-.2-11.1-.4-1.8-.1-3.7-.2-5.4-.3-1.8-.2-3.6-.3-5.3-.4-1.7-.1-3.5-.3-5.1-.5-1.7-.2-3.3-.4-4.9-.7-1.6-.3-3.1-.5-4.6-.8-1.5-.3-2.9-.6-4.3-.9-1.4-.3-2.7-.7-3.9-1-1.2-.4-2.4-.7-3.5-1.1-2.2-.7-4-1.4-5.5-2.2-1.5-.7-2.6-1.4-3.3-1.9-.7-.5-1-.9-1-.9s.3.3 1.1.8c.7.4 1.9 1 3.4 1.6 1.5.6 3.4 1.2 5.5 1.8 1.1.2 2.3.5 3.5.8 1.2.2 2.5.5 3.9.7 1.4.2 2.8.4 4.3.6 1.5.2 3 .4 4.6.6 1.6.2 3.2.3 4.9.5l5.1.4c1.7.1 3.5.2 5.3.3l5.4.2c3.6.2 7.4.2 11.1.3 3.7 0 7.4.1 11 0l5.4-.1 5.3-.2 2.6-.1 2.5-.2c1.7-.1 3.3-.2 4.9-.4 1.6-.2 3.1-.3 4.6-.5 1.5-.2 2.9-.4 4.3-.6 1.4-.3 2.7-.5 3.9-.7 1.2-.3 2.4-.6 3.5-.8 1.1-.3 2.1-.6 3-.9.9-.3 1.8-.6 2.5-1 1.5-.6 2.6-1.3 3.3-1.8.4-.6.7-.9.7-.9z"/><path fill="#2E471F" d="M807 739.1s.1.1.4.2c.3.1.7.4 1.1.7.5.4 1 .9 1.5 1.6.4.8.7 1.8.4 2.9-.3 1.1-1 2.2-1.9 3.2-.9 1-2.1 1.9-3.4 2.7-2.6 1.6-5.9 3-9.5 4.1-7.3 2.3-16.1 3.8-25.5 4.7-9.5.9-19.6 1.2-29.7 1.1-10.1-.1-20.2-.7-29.6-1.7-4.7-.5-9.3-1.2-13.5-2.1-4.3-.8-8.3-1.8-11.9-2.9-3.6-1.1-6.9-2.4-9.6-3.9-2.7-1.5-5-3.1-6.2-5-.6-.9-.8-2-.6-2.9.3-.9.9-1.4 1.3-1.7.5-.3.9-.5 1.2-.6.3-.1.4-.2.4-.2s-.1.1-.4.2c-.3.1-.7.3-1.2.7-.5.4-1 .9-1.2 1.7-.2.8 0 1.8.6 2.7 1.2 1.8 3.5 3.3 6.2 4.7 2.7 1.3 6 2.5 9.6 3.6 3.6 1 7.6 1.9 11.9 2.7 4.3.7 8.8 1.3 13.5 1.8 9.4 1 19.4 1.5 29.5 1.5 5 .1 10.1.1 15-.1 5-.1 9.8-.4 14.5-.8 9.4-.8 18.1-2 25.4-4.2 3.6-1.1 6.8-2.3 9.5-3.8 2.6-1.5 4.7-3.3 5.4-5.4.3-1 .1-2-.2-2.8-.4-.8-.9-1.3-1.4-1.6-.5-.4-.8-.6-1.1-.8-.3-.2-.5-.3-.5-.3z" opacity=".5"/></g></svg>