<svg xmlns="http://www.w3.org/2000/svg" xmlns:xlink="http://www.w3.org/1999/xlink" viewBox="0 0 1407.8 800.3" enable-background="new 0 0 1407.8 800.3"><path fill="#88976A" d="M445.2 399v-54.7l14.5-2 .8-88.5 108.9-38.8 271.8 4.7v130.6l-272.5-4.3-24.9.5v53.2l-8.7.1v-52.2l-54.5 12.6v39.8z"/><path fill="#E5EAD8" d="M1306 222.2v-46.1s-16.8-9.3-66.5-32c-49.7-22.6-117.5-42.8-170.7-54-53.1-11.1-133.7-16.7-175.4-13.5-39.1 3.1-68.2 4.5-128.2 21.2v88.2h57.5v19.6l81.5-.2 118.1.8 130.9-.5 86.1-.5s26.8-.4 42.8 6.1c16 6.6 23.9 10.9 23.9 10.9z"/><defs><path id="a" d="M1306 222.2v-46.1c-309.8-163.6-540.8-78.3-540.8-78.3v88.2h57.3v19.6h417s21.6-.2 33.6 2.9c13.2 3.7 32.9 13.7 32.9 13.7z"/></defs><clipPath id="b"><use xlink:href="#a" overflow="visible"/></clipPath><g clip-path="url(#b)" stroke="#89A559" stroke-width=".48" stroke-miterlimit="10" fill="none"><path d="M765 69.4v198M774.1 69.4v198M783.3 69.4v198M792.5 69.4v198M801.7 69.4v198M810.8 69.4v198M820 69.4v198M829.2 69.4v198M838.4 69.4v198M847.5 69.4v198M856.7 69.4v198M865.9 69.4v198M875.1 69.4v198M884.2 69.4v198M893.4 69.4v198M902.6 69.4v198M1168.6 69.4v198M1177.8 69.4v198M1187 69.4v198M1196.1 69.4v198M1205.3 69.4v198M1214.5 69.4v198M1223.7 69.4v198M1232.8 69.4v198M1242 69.4v198M1251.2 69.4v198M1260.4 69.4v198M1269.5 69.4v198M1278.7 69.4v198M1287.9 69.4v198M1297.1 69.4v198M911.7 69.4v198M920.9 69.4v198M930.1 69.4v198M939.3 69.4v198M948.4 69.4v198M957.6 69.4v198M966.8 69.4v198M976 69.4v198M985.1 69.4v198M994.3 69.4v198M1003.5 69.4v198M1012.7 69.4v198M1021.8 69.4v198M1031 69.4v198M1040.2 69.4v198M1049.4 69.4v198M1058.5 69.4v198M1067.7 69.4v198M1076.9 69.4v198M1086.1 69.4v198M1095.2 69.4v198M1104.4 69.4v198M1113.6 69.4v198M1122.7 69.4v198M1131.9 69.4v198M1141.1 69.4v198M1150.3 69.4v198M1159.4 69.4v198M1306.2 69.4v198"/></g><use xlink:href="#a" overflow="visible" stroke="#89A559" stroke-width=".48" stroke-miterlimit="10" fill="none"/><path fill="#E5EAD8" d="M888.9 44.7v20.1h254.7v-23.8zM1237.9 50.3l27.6 14.5v22.3l-27.6-13.5z"/><linearGradient id="c" gradientUnits="userSpaceOnUse" x1="765.177" y1="147.889" x2="1306.016" y2="147.889"><stop offset=".009" stop-color="#B6C495"/><stop offset=".031" stop-color="#C2CDA5"/><stop offset=".065" stop-color="#CFD8B8"/><stop offset=".106" stop-color="#D9E0C7"/><stop offset=".156" stop-color="#E0E6D1"/><stop offset=".226" stop-color="#E4E9D7"/><stop offset=".421" stop-color="#E5EAD8"/><stop offset="1" stop-color="#89A559"/></linearGradient><path opacity=".3" fill="url(#c)" d="M1306 221.1v-46.1s-16.8-9.3-66.5-32c-49.7-22.6-117.5-42.8-170.7-54-53.2-11.2-133.7-16.8-175.4-13.5-39.1 3.1-68.2 4.5-128.2 21.2v89.3h57.5v18.6l82.8 1.7 116.8-1.2 130.9-.5 86.1-.5s26.8-.4 42.8 6.1c16 6.6 23.9 10.9 23.9 10.9z"/><defs><path id="d" d="M1143.6 64.8h-254.7v-20.1l254.7-3.7z"/></defs><clipPath id="e"><use xlink:href="#d" overflow="visible"/></clipPath><g clip-path="url(#e)" stroke="#B6C495" stroke-width=".48" stroke-miterlimit="10" fill="none"><path d="M891.6 35.3v44.1M895.8 35.3v44.1M900 35.3v44.1M904.2 35.3v44.1M908.4 35.3v44.1M912.7 35.3v44.1M916.9 35.3v44.1M921.1 35.3v44.1M925.3 35.3v44.1M929.5 35.3v44.1M933.7 35.3v44.1M937.9 35.3v44.1M942.1 35.3v44.1M946.3 35.3v44.1M950.5 35.3v44.1M954.7 35.3v44.1M1076.8 35.3v44.1M1081 35.3v44.1M1085.2 35.3v44.1M1089.4 35.3v44.1M1093.6 35.3v44.1M1097.8 35.3v44.1M1102 35.3v44.1M1106.2 35.3v44.1M1110.4 35.3v44.1M1114.6 35.3v44.1M1118.8 35.3v44.1M1123 35.3v44.1M1127.3 35.3v44.1M1131.5 35.3v44.1M1135.7 35.3v44.1M958.9 35.3v44.1M963.1 35.3v44.1M967.4 35.3v44.1M971.6 35.3v44.1M975.8 35.3v44.1M980 35.3v44.1M984.2 35.3v44.1M988.4 35.3v44.1M992.6 35.3v44.1M996.8 35.3v44.1M1001 35.3v44.1M1005.2 35.3v44.1M1009.4 35.3v44.1M1013.6 35.3v44.1M1017.9 35.3v44.1M1022.1 35.3v44.1M1026.3 35.3v44.1M1030.5 35.3v44.1M1034.7 35.3v44.1M1038.9 35.3v44.1M1043.1 35.3v44.1M1047.3 35.3v44.1M1051.5 35.3v44.1M1055.7 35.3v44.1M1059.9 35.3v44.1M1064.1 35.3v44.1M1068.3 35.3v44.1M1072.6 35.3v44.1M1139.9 35.3v44.1"/></g><use xlink:href="#d" overflow="visible" stroke="#B6C495" stroke-width=".48" stroke-miterlimit="10" fill="none"/><defs><path id="f" d="M1265.5 87.1l-27.6-13.5v-23.3l27.6 14.5z"/></defs><clipPath id="g"><use xlink:href="#f" overflow="visible"/></clipPath><g clip-path="url(#g)" stroke="#B6C495" stroke-width=".48" stroke-miterlimit="10" fill="none"><path d="M1127.7 46.6v44.2M1131.7 46.6v44.2M1135.7 46.6v44.2M1139.8 46.6v44.2M1143.8 46.6v44.2M1147.8 46.6v44.2M1151.8 46.6v44.2M1155.9 46.6v44.2M1159.9 46.6v44.2M1163.9 46.6v44.2M1168 46.6v44.2M1172 46.6v44.2M1176 46.6v44.2M1180 46.6v44.2M1184.1 46.6v44.2M1188.1 46.6v44.2M1304.9 46.6v44.2M1308.9 46.6v44.2M1312.9 46.6v44.2M1316.9 46.6v44.2M1321 46.6v44.2M1325 46.6v44.2M1329 46.6v44.2M1333.1 46.6v44.2M1337.1 46.6v44.2M1341.1 46.6v44.2M1345.1 46.6v44.2M1349.2 46.6v44.2M1353.2 46.6v44.2M1357.2 46.6v44.2M1361.2 46.6v44.2M1192.1 46.6v44.2M1196.1 46.6v44.2M1200.2 46.6v44.2M1204.2 46.6v44.2M1208.2 46.6v44.2M1212.3 46.6v44.2M1216.3 46.6v44.2M1220.3 46.6v44.2M1224.3 46.6v44.2M1228.4 46.6v44.2M1232.4 46.6v44.2M1236.4 46.6v44.2M1240.4 46.6v44.2M1244.5 46.6v44.2M1248.5 46.6v44.2M1252.5 46.6v44.2M1256.5 46.6v44.2M1260.6 46.6v44.2M1264.6 46.6v44.2M1268.6 46.6v44.2M1272.7 46.6v44.2M1276.7 46.6v44.2M1280.7 46.6v44.2M1284.7 46.6v44.2M1288.8 46.6v44.2M1292.8 46.6v44.2M1296.8 46.6v44.2M1300.8 46.6v44.2M1365.3 46.6v44.2"/></g><use xlink:href="#f" overflow="visible" stroke="#B6C495" stroke-width=".48" stroke-miterlimit="10" fill="none"/><path fill="#669238" d="M794.7 89.6v-53.1l77.1-5 .5 46.3s-21.8-.1-77.6 11.8zM871.8 31.5l17.1 9.2.4 36.3s-9.3-.4-16.9.8l-.6-46.3z"/><path opacity=".26" fill="#364A1E" d="M871.8 31.5l17.1 9.2.4 36.3s-9.3-.4-16.9.8l-.6-46.3z"/><path fill="#669238" d="M889.2 75.9l-.4-11.5 55.5.5 199.3-.1v-34.9l77.6-2 16.4 9.1.1 36.6 27.6 13.5-.4 68.9s-9.3-4.1-14.7-7c-5.4-2.9-27.5-12.2-45.5-19.2s-36.9-14.1-73.9-24.8-125.4-33.2-241.6-29.1z"/><path opacity=".26" fill="#364A1E" d="M1221.2 136.4l.1-108.5 16.4 9.1.1 36.6 27.6 13.5-.4 68.9c.1 0-27.6-12.8-43.8-19.6z"/><path fill="#669238" d="M416 150.7l-21.5 9.6-.5 130.5-78.3.8s-.8-1.2-.8 4.9v102.4h101.1v-248.2zM480.6 400v-39.8l54.5-12.6v52.2zM543.8 399.7v-53.2l24.9-.5 249.3 3.9v51.7z"/><path opacity=".26" fill="#364A1E" d="M543.8 399.7v-53.2l24.9-.5 249.3 3.9v51.7z"/><path fill="#669238" d="M1290.7 298.1v-68.9l32.3 13.8 1.3-9.3 23.6 11.4v63.9z"/><path opacity=".26" fill="#364A1E" d="M1290.7 298.1v-68.9l32.3 13.8 1.3-9.3 23.6 11.4v63.9zM480.6 400v-39.8l54.5-12.6v52.2z"/><path fill="#89A559" d="M416 399v-248.3l104.8-46.7 244.4 12v69l57.5 1.1v19.2l-10.7.5 1.3 13.4-243.9-4.2-108.9 38.8-.8 88.5-14.5 2v54.7zM1133.8 405.6v-123.3l48.7-6.5 181.3 36.8 16.3 10.7v85.6z"/><g opacity=".29"><defs><path id="h" opacity=".29" d="M445.1 399v-54.7l14.5-2 .9-88.5 108.8-38.8 271.9 4.7v130.6l-272.6-4.3-24.8.5v53.2l-8.7.1v-52.2l-54.5 12.6v39.8z"/></defs><clipPath id="i"><use xlink:href="#h" overflow="visible"/></clipPath><g clip-path="url(#i)" stroke="#fff" stroke-width=".48" stroke-miterlimit="10" fill="none"><path d="M437.9 159.4v263.7M445.1 159.4v263.7M452.3 159.4v263.7M459.4 159.4v263.7M466.6 159.4v263.7M473.8 159.4v263.7M480.9 159.4v263.7M488.1 159.4v263.7M495.3 159.4v263.7M502.4 159.4v263.7M509.6 159.4v263.7M516.8 159.4v263.7M524 159.4v263.7M531.1 159.4v263.7M538.3 159.4v263.7M545.5 159.4v263.7M753.4 159.4v263.7M760.6 159.4v263.7M767.7 159.4v263.7M774.9 159.4v263.7M782.1 159.4v263.7M789.3 159.4v263.7M796.4 159.4v263.7M803.6 159.4v263.7M810.8 159.4v263.7M817.9 159.4v263.7M825.1 159.4v263.7M832.3 159.4v263.7M839.4 159.4v263.7M846.6 159.4v263.7M853.8 159.4v263.7M552.6 159.4v263.7M559.8 159.4v263.7M567 159.4v263.7M574.2 159.4v263.7M581.3 159.4v263.7M588.5 159.4v263.7M595.7 159.4v263.7M602.8 159.4v263.7M610 159.4v263.7M617.2 159.4v263.7M624.3 159.4v263.7M631.5 159.4v263.7M638.7 159.4v263.7M645.9 159.4v263.7M653 159.4v263.7M660.2 159.4v263.7M667.4 159.4v263.7M674.5 159.4v263.7M681.7 159.4v263.7M688.9 159.4v263.7M696 159.4v263.7M703.2 159.4v263.7M710.4 159.4v263.7M717.6 159.4v263.7M724.7 159.4v263.7M731.9 159.4v263.7M739.1 159.4v263.7M746.2 159.4v263.7M861 159.4v263.7"/></g><use xlink:href="#h" overflow="visible" stroke="#fff" stroke-width=".959" stroke-miterlimit="10" fill="none"/></g><path fill="#669238" d="M1147.3 303.4l19.9-2.5.8 62.1-20.7 1.9zM1209.2 303.2l31.6 6.9-.2 60.5-31.4-4.3zM1262.7 314.1l31.4 6.5v58.9l-31.4-5.3zM1314.7 325.4l31.5 6.1-.7 57.1-31-5.3z"/><g opacity=".53" fill="#696E61"><path d="M1147.3 303.1l19.9-2.6.8 62.1-20.7 2zM1209.2 302.8l31.6 6.9-.2 60.6-31.4-4.3zM1262.7 313.8l31.4 6.5v58.9l-31.4-5.3zM1314.7 325.1l31.5 6.1-.7 57-31-5.2z"/></g><path fill="#B5BDA1" d="M813.3 219.2l-1.4-13.4 204.3.5 228.7-.5s23.3-1.8 42.9 7.7c19.7 9.5 36.5 17.7 36.5 17.7l-1.3 11.8-30.8-13.7h-1.5v8.1s-12.5-5.9-25.4-7.3c-12.9-1.4-29-1.7-41.4-1.3l-182.1-.8h-169.5v-9.1l-59 .3z"/><path fill="#89A559" d="M841.2 219.7v130.6l-23.2-.4v51.7h54.3v-182.8z"/><linearGradient id="j" gradientUnits="userSpaceOnUse" x1="818.033" y1="310.214" x2="872.305" y2="310.214"><stop offset="0" stop-color="#364A1E"/><stop offset="1" stop-color="#364A1E"/></linearGradient><path opacity=".14" fill="url(#j)" d="M841.2 219.7v130.6l-23.2-.4v51.7h54.3v-182.8z"/><path fill="#669238" d="M872.3 402v-173.6h343.7s37.2-.8 50.8 2.3c13.6 3.1 22.9 6.6 22.9 6.6l.9 61.2-108.2-22.3-48.5 7.2-.3 122.7-261.3-4.1z"/><path opacity=".46" fill="#696E61" d="M872.3 402v-173.6h343.7s37.2-.8 50.8 2.3c13.6 3.1 22.9 6.6 22.9 6.6l.9 61.2-108.2-22.3-48.5 7.2-.3 122.7-261.3-4.1z"/><path opacity=".14" fill="#fff" d="M871.8 285.2l138.6-56.8h66.8l-204.9 94.9zM871.8 346l266-117.6h66.8l-332.3 157.6zM993.7 403.9l140.1-67.3v28.7l-70.1 39.7z"/><linearGradient id="k" gradientUnits="userSpaceOnUse" x1="521.851" y1="145.323" x2="765.177" y2="145.323"><stop offset="0" stop-color="#364A1E"/><stop offset=".133" stop-color="#445528" stop-opacity=".867"/><stop offset=".408" stop-color="#6C764B" stop-opacity=".592"/><stop offset=".797" stop-color="#B7BB9F" stop-opacity=".203"/><stop offset="1" stop-color="#E5EAD8" stop-opacity="0"/></linearGradient><path opacity=".11" fill="url(#k)" d="M521.9 104.6l.5 81 242.8.5v-70.1z"/><linearGradient id="l" gradientUnits="userSpaceOnUse" x1="1363.781" y1="361.347" x2="1380.139" y2="361.347"><stop offset="0" stop-color="#364A1E"/><stop offset="1" stop-color="#364A1E"/></linearGradient><path opacity=".14" fill="url(#l)" d="M1363.8 313.8l16.3 9.5v85.6l-16.3-.2z"/><path stroke="#364A1E" stroke-width="2.827" stroke-miterlimit="10" d="M315 399v-106.6c0-.4.3-.8.8-.8h77.5c.4 0 .8-.3.8-.8v-129.7c0-.3.2-.6.5-.7l126.2-56.4c.5-.2 1.1.1 1.1.7v80.6c0 .4.3.8.8.8h299.1c.4 0 .8.3.8.8v18.8M315 319.3h101M521.2 103.9l244 11.6M765.2 186.1v-88.3s231.1-85.3 540.8 78.3v46.1" fill="none"/><path stroke="#364A1E" stroke-width="2.827" stroke-miterlimit="10" d="M1324.3 231.1l-1.3 11.9-33.2-14.8c-12.5-5.6-26.1-8.5-39.8-8.5l-436.6-1-1.2-12.9h436.6c15.4 0 30.5 3.5 44.3 10.2l31.2 15.1zM1347.9 309v-64.4l-23.9-11.1M794.7 88.6v-51.3c0-.4.3-.8.8-.8l76.3-5c.3 0 .5.2.5.5v44.8M871.8 31.5l17.1 9.1v35M1143.6 109.5v-79.6c0-.3.2-.5.5-.6l76.5-2c.3 0 .6.2.6.6v109.2M1221.2 27.6l16.5 9.4c.1.1.1.1.1.3v106.9M1237.9 50.3l27.6 14.5v91.2M888.9 44.7l254.7-3.7M888.9 64.8h254.7M1237.9 73.6l27.6 13.5M872.3 219.7v181.9M1290.7 229.2v68.9M416 150.7v248.3" fill="none"/><path fill="#364A1E" d="M822.4 193.5l-300.5-1.4 300.5-1.4z"/><path stroke="#364A1E" stroke-width="2.827" stroke-miterlimit="10" fill="none" d="M1380.1 408.9v-85.6l-16.3-10.7-181.3-36.8-48.7 6.6v123.2"/><path stroke="#364A1E" stroke-width="2.827" stroke-miterlimit="10" fill="none" d="M1240.6 370.3l-31.4-4.3v-62.4l31.4 6.4zM1294.1 379.5l-31.4-5.3v-60.3l31.4 6.4zM1345.9 388.6l-31.4-5.4v-58.2l31.4 6.3zM1168 300.7l-20.9 2.9v61.3l20.9-2zM1182.5 275.8v130.9M445.2 399v-54.2l14.5-2.5v-88l109-39.5 272.5 4.9v130.6l-275.4-4.5-22 .7v53.2M568.7 215.8v130.2M818 349.9v51.7M535.1 399.8v-52.2l-54.5 12.6v39.8M1289.8 237.3c-12.5-5.6-26.1-8.5-39.8-8.5l-377.7-.8"/><g stroke="#364A1E" stroke-width=".959" stroke-miterlimit="10" fill="none"><path d="M1289.8 280.5c-12.5-5.6-26.1-8.5-39.8-8.5l-377.6-.9M872.3 325.8l261.5.6M888.9 218.8v183.8M954.3 218.8v183.8M1029.6 218.8v186.2M1104.9 218.8v186.2M1190.7 220.9v57.5M1262.1 220.9v71.1"/></g><path stroke="#364A1E" stroke-width="2.827" stroke-miterlimit="10" fill="none" d="M1363.8 312.6v96.1"/><path opacity=".21" fill="#364A1E" d="M543.6 352.1s217.8 4.8 274.4 21.7v-24.8l-274.2-2.4-.2 5.5zM535.1 353.3c-23.7 6.9-54 8.8-54 28.1v-21.2l54-12.5v5.6zM758.7 115.3v70.8h6.9l-.6-70.6zM408 154.3l.2 137.4 2.1-.1v106.5l5 .9v-247.9zM1128.6 406.1v-121.5l5.4-1.2-.2 119.7v3zM878.1 219.7v182.4l-5.8-.1v-180.9s-.6-2.1 1.9-2.1c2.6.1 3.9.7 3.9.7z"/><linearGradient id="m" gradientUnits="userSpaceOnUse" x1="847.557" y1="408.601" x2="847.557" y2="26.858"><stop offset="0" stop-color="#364A1E"/><stop offset="1" stop-color="#364A1E" stop-opacity=".4"/></linearGradient><path opacity=".13" fill="url(#m)" d="M1363.8 311.7l-15.8-3.1v-64.9l-23.2-11.1.3-2.4-18.9-8.9.5-46c-13.2-7-28.2-14.3-41.5-20.6l.9-90.3-28-14.2.3-11.8c0-.6-.1-1.9-.6-2.2l-15.1-8.4-.4-.3c-.4-.4-.6-.6-1.2-.6l-75.1 1.2c-1.1 0-1.9.9-1.9 2l-.1 10.5-254.5 3.1v-3.5l-14.8-7.5s.7-.7-1.2-1c-.5-.1-.1-1.4-.7-1.3l-76.1 5c-1.2.1-1 .5-1 1.7l.2 51.7c-18.3 4.3-29.5 8.3-29.8 8.3l.2 18-243-12c-.4 0-.7 0-1 .2l-125.9 56.2c-.8.4-1.3 1.1-1.3 2l.3 129.7h-78.4c-1.2 0-1.5 0-1.5 1.2l-.5 106.1 2.5.2h129.8l33.9 1h2.8l53-.3h1.4l7.2-.1 272.1 1.9h55.6v.4l16.1.2v.3h1v-.1l104.1 1.6 35.4.5v.5h1v-.5l33.5.5 64.7 1v.1h5.2v-.4l47.1.6v.4h2.8v-.3l178 2.3h1.4l14.9.2 1.6-.2v-85.5l-16.3-11.1z"/><path fill="#364A1E" d="M1295.8 299.2l.4-39 .5 39z"/><path stroke="#364A1E" stroke-width="2.827" stroke-miterlimit="10" fill="none" d="M374.4 291.7h42"/><path fill="#669238" d="M-26.5 504.3h1452.1v378.8h-1452.1z"/><g opacity=".29"><path fill="#fff" d="M-14.3 684.4s5.9.9 17 1.9c11.1 1 27.4 2 48.2 2.5 20.8.5 46.1.3 75-.9 3.6-.2 7.3-.3 11-.5s7.5-.4 11.4-.6c3.8-.2 7.7-.5 11.7-.7 3.9-.3 7.9-.6 12-.9 4-.4 8.1-.8 12.3-1.3 4.1-.5 8.3-1 12.5-1.7l6.3-1c2.1-.4 4.2-.8 6.4-1.2l6.4-1.3c2.1-.5 4.3-.9 6.5-1.5 8.6-2.2 17.3-4.9 25.7-8.6l3.2-1.4c1.1-.5 2.1-1 3.1-1.5 2.1-1 4.1-2.2 6.2-3.3 4-2.4 8-5 11.8-7.8 3.8-2.8 7.5-5.9 11.3-9 3.8-3.1 7.7-6.2 12.1-8.8 4.3-2.6 9.1-4.5 14.1-5.8 5-1.2 10.1-1.8 15.3-1.9h3.9c1.3 0 2.6.1 4 .3 1.3.2 2.7.4 4 .9 1.3.5 2.7 1.1 3.7 2.3.5.6.9 1.3 1.2 2 .2.7.4 1.5.4 2.3 0 1.5-.3 2.9-.6 4.2-.7 2.6-1.8 5-2.7 7.5-.9 2.4-1.7 4.9-2.2 7.3-.4 2.5-.3 5 .5 7.2.4 1.1 1.1 2.2 1.8 3.1.8.9 1.7 1.8 2.7 2.6 2 1.5 4.3 2.7 6.7 3.7 4.9 1.9 10.1 3.1 15.4 4 5.3.9 10.7 1.5 16.1 1.9 10.9.8 21.9 1 33 .9 22.3-.4 45-.9 67.9-.3 5.7.2 11.5.4 17.3.7 5.8.4 11.6.8 17.4 1.8 1.5.3 2.9.6 4.4 1 .7.2 1.5.5 2.3.9.4.2.8.5 1.2 1 .2.3.4.7.5 1.1.1.5-.1 1-.2 1.3-.4.7-.8 1-1.2 1.3-.4.3-.8.5-1.1.6-.7.4-1.5.6-2.2.9-1.5.5-2.9.8-4.3 1.2-5.8 1.3-11.6 2-17.5 2.6-5.9.6-11.7.9-17.6 1.2-2.9.1-5.9.2-8.9.2s-5.9 0-8.8.1c-5.8.1-11.7.5-17.5 1.4-5.8.9-11.5 2.1-16.7 4.4-1.3.6-2.5 1.2-3.7 2-1.1.8-2.1 1.7-2.6 2.7-.6 1-.5 1.9 0 2.9s1.6 1.9 2.7 2.6c2.3 1.5 5 2.6 7.7 3.4 2.8.9 5.6 1.6 8.5 2.1 5.8 1.1 11.6 1.9 17.5 2.4s11.8.8 17.7 1c5.9.2 11.8.2 17.8.1 5.9-.1 11.9-.3 17.9-.1 6 .1 12 .5 17.9 1.4 3 .5 5.9 1 8.9 1.8 2.9.8 5.8 1.7 8.6 3.1.7.4 1.4.7 2 1.2l1 .6.9.7c.7.5 1.2 1.1 1.8 1.7.5.7 1.1 1.3 1.5 2.1.8 1.5 1.4 3.3 1.2 5-.1 1.7-.6 3.4-1.4 4.8-1.5 2.9-3.8 5.1-6.1 7.1s-4.8 3.7-7.4 5.2c-10.4 6.1-21.6 10.1-32.8 13.5-22.6 6.6-45.7 10.3-68.6 12.7-22.9 2.3-45.6 3.2-67.9 3.2-11.2 0-22.2-.3-33.2-.7-11-.4-21.8-1-32.5-2.1-5.4-.6-10.7-1.3-15.9-2.3-5.2-1-10.5-2.2-15.4-4.7-1.2-.7-2.4-1.4-3.5-2.4-1-1-2-2.2-2.4-3.7-.4-1.5-.4-3.1 0-4.4.3-1.4.9-2.7 1.5-3.9 1.2-2.4 2.6-4.6 3.8-6.8 1.1-2.2 2-4.5 1.6-6.7-.2-1.1-.7-2-1.5-2.9-.3-.4-.8-.8-1.2-1.2l-1.5-1c-2.1-1.2-4.4-2.2-6.7-2.9-4.7-1.5-9.6-2.5-14.5-3.3-9.8-1.5-19.5-2.4-29.1-3-9.6-.7-19-1-28.3-1.3l-6.9-.3-3.4-.1c-1.1 0-2.3 0-3.4-.1l-13.5-.3-6.6-.1h-6.6c-4.4 0-8.7 0-12.9.1-4.3.1-8.5.2-12.6.3l-6.2.2c-2.1.1-4.1.2-6.1.3-16.2.7-31.6 2.2-46 3.3-3.6.2-7.2.5-10.7.7-3.5.2-7 .3-10.3.4-3.4.2-6.7.1-10 .1h-7.300000000000001l-2.4-.1c-6.3-.3-12.3-.4-18-.9-5.7-.4-11.2-.7-16.4-1.3-5.2-.5-10.1-1-14.7-1.5-4.6-.6-8.9-1.1-12.9-1.7-4-.5-7.7-1-11.1-1.4-3.4-.5-6.5-1-9.2-1.4-11-1.6-16.9-2.5-16.9-2.5s5.9.8 16.9 2.4c2.8.4 5.8.8 9.2 1.3 3.4.4 7.1.9 11.1 1.4 4 .5 8.3 1 12.9 1.6 4.6.4 9.5.9 14.7 1.4 5.2.6 10.6.8 16.4 1.2 5.7.5 11.7.5 18 .7.8 0 1.6 0 2.4.1h7.199999999999999c3.3 0 6.6 0 10-.2 3.4-.2 6.8-.2 10.3-.5 3.5-.2 7-.5 10.7-.8 14.4-1.2 29.8-2.8 46-3.6 2-.1 4.1-.2 6.1-.4l6.2-.2c4.2-.1 8.4-.3 12.7-.4 4.3 0 8.6-.1 13-.1 2.2 0 4.4 0 6.6-.1 2.2 0 4.4.1 6.7.1l13.5.2c1.1 0 2.3 0 3.4.1l3.4.1c2.3.1 4.6.2 6.9.2 9.3.3 18.7.6 28.3 1.2 9.6.6 19.4 1.4 29.3 2.9 4.9.8 9.9 1.7 14.8 3.3 2.4.8 4.9 1.7 7.2 3.1.6.4 1.1.7 1.7 1.2.5.5 1.1.9 1.5 1.4 1 1 1.7 2.4 2 3.9.3 1.5.1 2.9-.3 4.3-.4 1.3-.9 2.6-1.5 3.8-1.2 2.4-2.6 4.5-3.7 6.8-1.1 2.2-1.9 4.6-1.3 6.7.6 2.1 2.7 3.6 4.8 4.8 4.5 2.3 9.6 3.4 14.8 4.4 5.2 1 10.4 1.6 15.8 2.2 10.6 1.1 21.5 1.6 32.4 2 10.9.4 22 .6 33.1.6 22.3 0 44.9-1 67.7-3.3 22.7-2.4 45.7-6.1 68.1-12.7 11.1-3.4 22.2-7.4 32.2-13.3 2.5-1.5 4.9-3.1 7-5 2.1-1.8 4.1-3.9 5.4-6.3.6-1.2 1-2.4 1.1-3.6.1-1.2-.3-2.4-.9-3.5-.3-.6-.7-1-1.1-1.6-.5-.4-.9-1-1.5-1.3l-.8-.6-.9-.6c-.6-.4-1.2-.7-1.8-1-5.1-2.5-10.9-3.8-16.6-4.6-5.8-.8-11.7-1.2-17.6-1.3-5.9-.1-11.8.1-17.8.2s-11.9.1-17.9-.1c-6-.2-11.9-.5-17.9-1-6-.5-11.9-1.3-17.8-2.5-2.9-.6-5.9-1.3-8.8-2.2-2.9-.9-5.8-2-8.5-3.8-1.3-.9-2.7-2-3.6-3.6-.5-.8-.8-1.8-.8-2.8 0-1 .3-2 .7-2.8.9-1.6 2.2-2.7 3.5-3.6 1.3-.9 2.7-1.6 4.1-2.3 5.7-2.5 11.6-3.7 17.5-4.6 5.9-.9 11.9-1.3 17.8-1.4l8.8-.1c2.9 0 5.9-.1 8.8-.2 5.8-.2 11.7-.6 17.5-1.1 5.8-.6 11.6-1.3 17.2-2.5 1.4-.3 2.8-.7 4.1-1.1.7-.2 1.3-.5 1.9-.7.3-.1.6-.3.8-.4.2-.1.4-.3.3-.3 0 0-.1.1 0 .3 0 .1.1.2 0 .2 0 0-.2-.2-.5-.3-.5-.3-1.1-.5-1.8-.7-1.3-.4-2.7-.7-4.1-.9-5.6-1-11.4-1.4-17.1-1.8-5.7-.4-11.5-.6-17.2-.7-22.9-.6-45.5-.2-67.9.2-11.2.1-22.3-.1-33.2-.9-5.5-.4-10.9-1-16.3-1.9-5.4-.9-10.7-2.2-15.9-4.2-2.5-1-5-2.3-7.3-4-1.1-.8-2.1-1.9-3.1-3-.9-1.1-1.6-2.4-2.2-3.8-1-2.7-1.1-5.7-.6-8.4.5-2.7 1.4-5.3 2.3-7.8.9-2.5 2-4.9 2.7-7.3.7-2.4 1-4.9-.5-6.4-.7-.8-1.7-1.3-2.8-1.7-1.1-.4-2.3-.6-3.6-.8-1.2-.2-2.5-.3-3.7-.3h-3.8c-5.1 0-10.1.6-14.9 1.7-4.8 1.1-9.4 3-13.6 5.5-4.2 2.5-8.1 5.5-11.9 8.5-3.8 3.1-7.5 6.2-11.4 9-3.9 2.9-7.9 5.5-12.1 7.9-2.1 1.1-4.1 2.3-6.3 3.3-1.1.5-2.1 1.1-3.2 1.5l-3.2 1.4c-8.6 3.7-17.4 6.4-26 8.5-2.2.6-4.3 1-6.5 1.5s-4.3 1-6.5 1.3c-2.2.4-4.3.8-6.4 1.2-2.1.3-4.3.6-6.4 1-4.2.7-8.4 1.1-12.6 1.6-4.1.5-8.3.8-12.3 1.2-4.1.3-8.1.6-12 .8-4 .2-7.9.4-11.7.6l-11.4.6c-3.7.1-7.4.3-11 .4-29 1-54.3 1-75.1.3-20.8-.6-37.1-1.8-48.2-2.8-10.8-1.3-16.7-2.2-16.7-2.2zM13.5 778.4s2.7-.4 7.8-1.2c5.1-.8 12.6-1.9 22.2-3.2 9.6-1.3 21.2-2.7 34.6-4 13.4-1.3 28.5-2.6 45.1-3.2 8.3-.3 16.9-.5 25.9-.2 8.9.2 18.2.7 27.7 2.2 4.7.8 9.5 1.7 14.2 3.3 1.2.4 2.4.9 3.5 1.5s2.4 1.3 3.3 2.8c.4.7.7 1.7.5 2.5-.1.9-.5 1.6-.9 2.2-.8 1.2-1.9 2.1-2.9 2.9-2 1.6-4.2 2.9-6.4 4.2l-6.5 3.9c-2.1 1.3-4.2 2.7-6.1 4.3-1.9 1.6-3.6 3.4-4.4 5.4-.4 1-.5 2.1-.2 3.1.2 1 .8 2 1.5 2.9 1.5 1.8 3.6 3.3 5.7 4.6.5.3 1.1.6 1.7 1l.8.4.9.4c1.1.5 2.3 1 3.5 1.4 2.5.8 5 1.5 7.6 2.1 10.3 2.5 20.9 4.1 31.6 5.6 21.5 2.9 43.5 4.8 65.5 6.2 44 2.7 88.2 3 129.5 1.3 20.7-.8 40.6-2 59.5-3.7 18.9-1.7 36.7-3.6 53.1-6s31.3-5.1 44.3-8.4c6.5-1.7 12.5-3.5 17.9-5.8 2.6-1.2 5.2-2.4 7.1-4.1.4-.4.9-.9 1-1.5.2-.5 0-1.1-.4-1.5-.8-.8-2-1.2-3.1-1.6-2.3-.6-4.6-.8-6.7-.9-2.1-.1-4.2-.1-6-.1-3.7.1-6.9.3-9.5.5-2.6.2-4.5.5-5.9.6-1.3.2-2 .2-2 .2s.7-.1 2-.3c1.3-.2 3.3-.4 5.9-.7 2.6-.3 5.8-.6 9.5-.7 1.9-.1 3.9-.1 6.1 0 2.2.1 4.5.3 6.8.9 1.2.3 2.4.7 3.4 1.7.5.5.8 1.4.5 2.1-.2.7-.7 1.3-1.2 1.8-2 1.9-4.6 3.2-7.2 4.4-5.4 2.4-11.4 4.3-17.9 6-13 3.5-27.9 6.5-44.3 9s-34.2 4.7-53.1 6.5c-18.9 1.8-38.9 3.3-59.6 4.2-41.4 1.8-85.6 1.7-129.8-1-22.1-1.4-44.1-3.4-65.7-6.3-10.8-1.5-21.5-3.3-31.9-5.8-2.6-.6-5.2-1.3-7.8-2.2-1.3-.4-2.6-.9-3.9-1.5l-.9-.4-.9-.5-1.8-1c-2.3-1.4-4.6-3-6.4-5.2-.9-1.1-1.7-2.4-2-4-.4-1.5-.2-3.2.4-4.6 1.1-2.8 3.2-4.7 5.2-6.4 2.1-1.7 4.2-3.1 6.4-4.5 4.3-2.7 8.8-5.1 12.7-8 .9-.7 1.8-1.5 2.4-2.3.3-.4.5-.8.5-1.2.1-.4 0-.7-.2-1-.4-.7-1.3-1.4-2.3-1.9-1-.5-2.1-1-3.2-1.4-4.5-1.6-9.2-2.5-13.8-3.3-9.3-1.5-18.5-2.1-27.4-2.4-8.9-.3-17.5-.2-25.8 0-16.5.5-31.7 1.5-45.1 2.6-13.4 1.1-25.1 2.4-34.6 3.5-19.1 2.2-30 3.8-30 3.8zM1464.5 684.4s-5.9.9-17 2c-11.1 1-27.4 2.2-48.2 2.8-20.8.6-46.1.7-75.1-.3-3.6-.1-7.3-.3-11-.4-3.7-.2-7.5-.4-11.4-.6-3.8-.2-7.8-.4-11.7-.6-3.9-.3-8-.6-12-.8-4.1-.4-8.2-.7-12.3-1.2-4.1-.5-8.3-.9-12.6-1.6-2.1-.3-4.2-.6-6.4-1l-6.4-1.2-6.5-1.3c-2.2-.5-4.3-.9-6.5-1.5-8.7-2.1-17.5-4.8-26-8.5l-3.2-1.4-3.2-1.5c-2.1-1-4.2-2.2-6.3-3.3-4.1-2.4-8.2-5-12.1-7.9-3.9-2.9-7.7-6-11.4-9-3.8-3.1-7.6-6.1-11.9-8.5-4.2-2.5-8.8-4.3-13.6-5.5-4.8-1.1-9.8-1.7-14.9-1.7h-3.8c-1.2.1-2.5.1-3.7.3-1.2.2-2.4.4-3.6.8-1.1.4-2.1.9-2.8 1.7-1.5 1.5-1.1 4-.5 6.4.7 2.4 1.7 4.8 2.7 7.3.9 2.5 1.8 5 2.3 7.8.5 2.7.4 5.7-.6 8.4-.5 1.4-1.3 2.6-2.2 3.8-.9 1.1-1.9 2.1-3.1 3-2.2 1.7-4.7 3-7.3 4-5.1 2.1-10.5 3.3-15.9 4.2-5.4.9-10.9 1.5-16.3 1.9-11 .8-22.1 1-33.2.9-22.3-.4-44.9-.8-67.9-.2-5.7.2-11.5.4-17.2.7-5.7.4-11.5.8-17.1 1.8-1.4.3-2.8.5-4.1.9-.6.2-1.3.4-1.8.7-.2.1-.4.3-.5.3v-.5l.3.3c.2.1.5.3.8.4.6.3 1.2.5 1.9.7 1.3.4 2.7.8 4.1 1.1 5.6 1.2 11.4 1.9 17.2 2.5 5.8.6 11.6.9 17.5 1.1 2.9.1 5.9.2 8.8.2 2.9 0 5.9 0 8.8.1 5.9.1 11.9.5 17.8 1.4 5.9.9 11.8 2.1 17.5 4.6 1.4.6 2.8 1.4 4.1 2.3 1.3.9 2.6 2 3.5 3.6.4.8.8 1.8.7 2.8 0 1-.3 2-.8 2.8-.9 1.6-2.3 2.7-3.6 3.6-2.7 1.8-5.6 2.9-8.5 3.8-2.9.9-5.8 1.6-8.8 2.2-5.9 1.2-11.8 1.9-17.8 2.5-6 .5-11.9.8-17.9 1-6 .2-11.9.2-17.9.1-6-.1-11.9-.3-17.8-.2-5.9.1-11.8.5-17.6 1.3-5.8.9-11.5 2.1-16.6 4.6-.6.3-1.3.6-1.8 1l-.9.6-.8.6c-.6.4-1 .9-1.5 1.3-.4.5-.8 1-1.1 1.6-.6 1.1-1 2.3-.9 3.5.1 1.2.5 2.5 1.1 3.6 1.2 2.4 3.2 4.4 5.4 6.3 2.2 1.8 4.5 3.5 7 5 10 5.9 21.1 9.9 32.2 13.3 22.3 6.6 45.3 10.3 68.1 12.7 22.8 2.4 45.4 3.3 67.7 3.3 11.1 0 22.2-.2 33.1-.6 10.9-.4 21.7-1 32.4-2 5.3-.5 10.6-1.2 15.8-2.2 5.1-1 10.3-2.2 14.8-4.4 2.2-1.2 4.2-2.7 4.8-4.8.6-2.1-.2-4.5-1.3-6.7s-2.5-4.4-3.7-6.8c-.6-1.2-1.2-2.4-1.5-3.8-.4-1.3-.6-2.8-.3-4.3s1-2.8 2-3.9c.4-.6 1-1 1.5-1.4.5-.4 1.1-.8 1.7-1.2 2.3-1.4 4.7-2.3 7.2-3.1 4.9-1.6 9.9-2.5 14.8-3.3 9.9-1.5 19.6-2.3 29.3-2.9 9.6-.6 19.1-.9 28.3-1.2 2.3-.1 4.6-.2 6.9-.2l3.4-.1c1.1 0 2.3 0 3.4-.1 4.6-.1 9.1-.1 13.5-.2l6.7-.1c2.2 0 4.4 0 6.6.1 4.4 0 8.7.1 13 .1 4.3.1 8.5.3 12.7.4 2.1.1 4.2.1 6.2.2 2.1.1 4.1.2 6.1.4 16.3.8 31.6 2.4 46 3.6 3.6.3 7.2.5 10.7.8 3.5.2 6.9.3 10.3.5 3.4.2 6.7.2 10 .2h7.199999999999999c.8 0 1.6 0 2.4-.1 6.3-.2 12.3-.3 18-.7 5.7-.4 11.2-.6 16.4-1.2 5.2-.5 10.1-1 14.7-1.4 4.6-.6 8.9-1.1 12.9-1.6s7.7-.9 11.1-1.4c3.4-.5 6.5-.9 9.2-1.3 11-1.6 16.9-2.4 16.9-2.4s-5.9.9-16.9 2.5c-2.8.4-5.8.9-9.2 1.4-3.4.4-7.1.9-11.1 1.4-4 .5-8.3 1.1-12.9 1.7-4.6.5-9.5 1-14.7 1.5-5.2.6-10.6.9-16.4 1.3-5.7.5-11.8.6-18 .9l-2.4.1h-7.300000000000001c-3.3 0-6.6 0-10-.1-3.4-.1-6.8-.2-10.3-.4-3.5-.2-7.1-.5-10.7-.7-14.5-1.1-29.8-2.5-46-3.3l-6.1-.3-6.2-.2c-4.2-.1-8.4-.3-12.6-.3-4.3 0-8.6 0-12.9-.1h-6.6l-6.6.1-13.5.3c-1.1 0-2.3 0-3.4.1l-3.4.1-6.9.3c-9.3.4-18.7.7-28.3 1.3-9.6.6-19.3 1.5-29.1 3-4.9.8-9.8 1.7-14.5 3.3-2.4.7-4.7 1.7-6.7 2.9l-1.5 1c-.4.4-.9.7-1.2 1.2-.8.8-1.3 1.8-1.5 2.9-.4 2.1.5 4.5 1.6 6.7s2.6 4.4 3.8 6.8c.6 1.2 1.1 2.5 1.5 3.9.3 1.4.4 2.9 0 4.4-.4 1.5-1.4 2.7-2.4 3.7s-2.3 1.7-3.5 2.4c-4.9 2.5-10.2 3.7-15.4 4.7-5.3 1-10.6 1.7-15.9 2.3-10.7 1.1-21.6 1.7-32.5 2.1-11 .4-22 .6-33.2.7-22.3 0-45-.9-67.9-3.2-22.9-2.4-46-6.1-68.6-12.7-11.3-3.4-22.5-7.4-32.8-13.5-2.6-1.5-5.1-3.3-7.4-5.2-2.3-2-4.5-4.2-6.1-7.1-.8-1.4-1.3-3.1-1.4-4.8-.1-1.7.4-3.5 1.2-5 .4-.8.9-1.4 1.5-2.1.6-.6 1.1-1.2 1.8-1.7l.9-.7 1-.6c.7-.4 1.4-.8 2-1.2 2.8-1.4 5.7-2.4 8.6-3.1 2.9-.8 5.9-1.3 8.9-1.8 6-.9 11.9-1.3 17.9-1.4 6-.2 12 .1 17.9.1 5.9.1 11.9 0 17.8-.1 5.9-.2 11.8-.5 17.7-1 5.9-.5 11.7-1.2 17.5-2.4 2.9-.6 5.7-1.3 8.5-2.1 2.7-.9 5.5-1.9 7.7-3.4 1.1-.7 2.1-1.6 2.7-2.6.5-1 .6-1.9 0-2.9-.5-1-1.5-1.9-2.6-2.7-1.1-.8-2.4-1.4-3.7-2-5.2-2.3-11-3.5-16.7-4.4-5.8-.8-11.6-1.3-17.5-1.4l-8.8-.1c-3 0-5.9-.1-8.9-.2-5.9-.2-11.8-.6-17.6-1.2-5.9-.6-11.7-1.3-17.5-2.6-1.4-.3-2.9-.7-4.3-1.2-.7-.2-1.5-.5-2.2-.9l-1.1-.6c-.4-.3-.8-.6-1.2-1.3-.2-.3-.3-.8-.2-1.3.1-.5.3-.9.5-1.1.4-.5.9-.8 1.2-1 .8-.4 1.5-.7 2.3-.9 1.5-.5 2.9-.7 4.4-1 5.8-1 11.6-1.4 17.4-1.8 5.8-.4 11.5-.6 17.3-.7 23-.6 45.7-.2 67.9.3 11.1.1 22.2 0 33-.9 5.4-.4 10.8-1 16.1-1.9 5.3-.9 10.5-2.1 15.4-4 2.4-1 4.7-2.2 6.7-3.7 1-.7 1.9-1.6 2.7-2.6.7-1 1.4-2 1.8-3.1.8-2.3.9-4.8.5-7.2-.4-2.5-1.2-4.9-2.2-7.3-.9-2.4-1.9-4.8-2.7-7.5-.4-1.3-.7-2.7-.6-4.2 0-.7.1-1.5.4-2.3.3-.7.7-1.5 1.2-2 1.1-1.2 2.4-1.8 3.7-2.3 1.3-.5 2.7-.7 4-.9 1.3-.2 2.6-.3 4-.3h3.9c5.2.1 10.3.7 15.3 1.9s9.8 3.2 14.1 5.8c4.4 2.6 8.3 5.7 12.1 8.8 3.8 3.1 7.5 6.2 11.3 9 3.8 2.8 7.8 5.4 11.8 7.8 2.1 1.1 4.1 2.3 6.2 3.3 1 .5 2.1 1.1 3.1 1.5l3.2 1.4c8.5 3.7 17.1 6.4 25.7 8.6 2.1.6 4.3 1 6.5 1.5 2.1.5 4.3 1 6.4 1.3l6.4 1.2 6.3 1c4.2.7 8.4 1.1 12.5 1.7l12.3 1.3c4.1.3 8.1.6 12 .9l11.7.7 11.4.6c3.7.2 7.4.3 11 .5 28.9 1.2 54.2 1.4 75 .9 20.8-.5 37.1-1.5 48.2-2.5 11.4-.9 17.3-1.7 17.3-1.7zM1436.7 778.4s-10.9-1.6-30-3.8c-9.5-1.1-21.2-2.3-34.5-3.5-13.3-1.1-28.4-2.2-44.8-2.7-8.2-.2-16.8-.3-25.6 0s-18 .9-27.3 2.3c-4.6.8-9.3 1.7-13.7 3.3-1.1.4-2.2.9-3.1 1.4-1 .6-1.9 1.2-2.4 2-.6.8-.7 1.5-.4 2.4.3.9.9 1.8 1.7 2.7 1.6 1.7 3.5 3.2 5.5 4.6 2 1.4 4.1 2.8 6.2 4.2 2.1 1.4 4.2 2.8 6.3 4.3 2.1 1.5 4.2 3.1 6 5.1.9 1 1.8 2.2 2.4 3.6.3.7.5 1.6.4 2.4 0 .9-.3 1.7-.7 2.4-.8 1.4-2 2.4-3.2 3.2-1.2.8-2.4 1.4-3.7 1.9-1.3.5-2.5 1-3.8 1.4l-1.9.6-1.9.5-3.9.9-3.9.8c-10.5 1.9-21.2 3.1-32 4.3-21.6 2.2-43.5 3.7-65.5 4.7s-43.9 1.7-65.6 2.1c-21.6.4-42.9.6-63.5.4-20.6-.1-40.5-.5-59.4-1-18.9-.4-36.8-1.6-53.1-3.6-16.4-2-31.3-4.8-44.2-8.4-6.5-1.8-12.4-3.7-17.8-6-2.7-1.2-5.2-2.4-7.5-3.8-1.1-.7-2.2-1.5-3.2-2.3-1-.8-1.8-1.8-2.4-2.9-.3-.6-.5-1.2-.5-1.8 0-.6.2-1.2.5-1.7.6-1 1.6-1.7 2.5-2.2 1.9-1 3.9-1.5 5.7-1.9 3.7-.8 6.8-1 9.4-1.2 2.6-.2 4.5-.2 5.9-.2h2s-.7 0-2 .1c-1.3 0-3.3.1-5.9.3-2.6.2-5.7.5-9.4 1.4-1.8.4-3.8 1-5.6 2-.9.5-1.8 1.2-2.4 2.1-.3.5-.4 1-.4 1.5s.2 1.1.5 1.6c.5 1 1.4 1.9 2.3 2.7 1 .8 2 1.5 3.1 2.2 2.3 1.4 4.8 2.6 7.4 3.7 5.3 2.2 11.3 4.1 17.8 5.8 12.9 3.4 27.8 6 44.2 7.9 16.4 1.8 34.2 3 53 3.2 18.9.3 38.8.4 59.4.4 20.6-.1 41.9-.2 63.5-.7 21.6-.5 43.6-1.2 65.5-2.3 21.9-1.2 43.8-2.5 65.3-4.6 10.7-1.1 21.4-2.3 31.8-4.1l3.9-.7c1.3-.3 2.5-.5 3.8-.9l1.9-.5c.6-.1 1.2-.3 1.8-.5 1.2-.4 2.4-.8 3.6-1.3 1.2-.5 2.3-1 3.3-1.7 1-.6 1.9-1.4 2.3-2.3.5-.8.5-1.7.1-2.7-.4-1-1.1-1.9-1.9-2.8-1.6-1.8-3.6-3.3-5.6-4.8-2-1.5-4.1-2.9-6.2-4.3-2.1-1.4-4.2-2.8-6.3-4.3-2-1.5-4.1-3-5.9-5-.9-1-1.7-2.1-2.2-3.6-.2-.7-.3-1.6-.2-2.4.1-.8.5-1.6 1-2.2.9-1.2 2.1-2 3.2-2.6 1.1-.6 2.3-1.1 3.5-1.6 4.7-1.7 9.5-2.5 14.2-3.3 9.4-1.4 18.6-1.9 27.5-2.1 8.9-.2 17.5 0 25.8.3 8.2.3 16.1.8 23.6 1.3 7.5.6 14.6 1.2 21.3 1.9 13.3 1.3 24.9 2.8 34.5 4 9.5 1.2 17 2.4 22.1 3.2 5.1.8 7.8 1.2 7.8 1.2zM576.7 761.5s1-.7 3-1.8 5.1-2.6 9.3-3.8c4.1-1.3 9.4-2.4 15.4-2.8 6.1-.4 13 0 20.3 1.5 3.7.7 7.4 1.7 11.3 3 3.8 1.3 7.7 2.9 11.6 4.5 7.8 3.2 16.1 6.6 24.8 9.7 8.7 3.1 17.8 6 27.1 8.4 9.4 2.4 19 4.2 28.8 5.1 9.7.8 19.6.6 28.9-1.4 4.7-1 9.2-2.4 13.4-4.4 2.1-1 4.2-2.1 6.1-3.3l6-3.7c8.1-4.8 16.3-8.5 24.5-11.2 8.1-2.8 16.1-4.3 23.6-5 3.7-.3 7.3-.4 10.7-.3 3.4.1 6.6.4 9.6.9 6 .9 11.1 2.3 15.2 3.7 4.1 1.4 7.2 2.9 9.2 4 2 1.1 3.1 1.8 3.1 1.8s-1-.7-3.1-1.7-5.2-2.3-9.3-3.6c-4.1-1.3-9.2-2.5-15.2-3.2-5.9-.7-12.7-.8-20 0-7.3.8-15.1 2.5-23 5.3s-16 6.7-23.8 11.4l-5.9 3.7c-2 1.3-4.2 2.4-6.4 3.5-4.4 2.1-9.1 3.6-14 4.7-9.7 2.1-19.8 2.4-29.8 1.6-10-.8-19.8-2.8-29.2-5.2-9.5-2.4-18.6-5.4-27.3-8.6-8.7-3.2-17-6.6-24.8-10-3.9-1.7-7.6-3.4-11.3-4.7-3.7-1.3-7.4-2.4-11-3.2-7.2-1.6-13.9-2.1-19.9-2-6 .2-11.1 1.1-15.3 2.2-4.2 1.1-7.3 2.4-9.4 3.4-2.1.8-3.2 1.5-3.2 1.5z"/></g><defs><path id="n" d="M0-163.5h1407.8v1022.3h-1407.8z"/></defs><clipPath id="o"><use xlink:href="#n" overflow="visible"/></clipPath><g clip-path="url(#o)"><path fill="#B5BDA1" d="M64.3 391.4l371.4-14.5 82.8-3.1 367.5-.2 81.1 3.1 372.3 14.7 82.4 6.7-3.6 81.1-3.5 11-7.5 169.3-103.7-5.7s3-46.7-32.5-87.1c-35.5-40.4-80.7-54-114-55.3-33.3-1.3-85.7 6.1-125.6 45.2-39.9 39-39.7 83.6-39.7 83.6l-126.1.2c-.3-24.5-9.9-47.2-9.9-47.2-25.5-60.1-89.9-87.5-126-92.2-36.1-4.7-98.2-1.2-145.2 44.5-47 45.7-43.7 95-43.7 95l-128.8-.3c.7-5.3-4.2-59.9-55.9-97.3l-111.7-31.8c-23.6 3.9-43.3 8.8-59.9 16.5-89 41.1-84.4 126.3-84.4 126.3l-103.7 5.7-7.5-169.3-3.3-10.9-3.6-81.2 82.3-6.8z"/><path stroke="#364A1E" stroke-width="2.947" stroke-miterlimit="10" fill="none" d="M519.3 465.5h366.9"/><path stroke="#364A1E" stroke-width="2" stroke-miterlimit="10" fill="none" d="M518.1 453.7h367.1"/><path stroke="#364A1E" stroke-width="2.947" stroke-miterlimit="10" d="M435.9 458.1c-.1 0-.2-.1-.2-.2v-81c0-.1.1-.2.1-.2l82.5-3.1c.1 0 .2.1.2.2v82.9c0 .1-.1.2-.2.2M518.5 383.7h367.4M435.7 458.1l3 10.9v171.9M518.5 456.9l-.6 12.1v171.9M438.7 469h79.2M540.8 640.3c0-74.2 72.7-141.4 162.4-141.4s162.4 67.2 162.4 141.4" fill="none"/><path fill="#364A1E" d="M527.7 639.5s.1-2 .2-5.8.6-9.4 1.7-16.4c1.3-7 3.2-15.4 6.7-24.7 3.4-9.3 8.3-19.4 15-29.6l1.2-1.9 1.3-1.9 2.7-3.8 2.9-3.8c1-1.3 2-2.6 3.1-3.8l3.3-3.7 1.7-1.9 1.8-1.8 3.6-3.7c1.2-1.2 2.5-2.4 3.8-3.6l1.9-1.8c.7-.6 1.3-1.2 2-1.7l4-3.5 4.2-3.3 2.1-1.7 2.2-1.6 4.5-3.2 4.7-3 2.4-1.5c.8-.5 1.6-1 2.4-1.4 1.6-.9 3.3-1.9 4.9-2.9 3.4-1.7 6.7-3.6 10.3-5.2 1.8-.8 3.5-1.7 5.3-2.4l5.4-2.2c7.3-2.8 14.8-5.4 22.6-7.4 3.8-1.1 7.8-1.8 11.7-2.7 2-.4 4-.7 6-1l3-.5 3-.4 6-.7 6.1-.4 3-.2 3-.1 6.1-.2 6.1.1 3 .1 3 .2 6.1.4 6 .7 3 .4 3 .5c2 .3 4 .6 6 1 3.9.9 7.9 1.6 11.7 2.7 7.8 1.9 15.3 4.5 22.6 7.4 1.8.8 3.6 1.5 5.4 2.2 1.8.7 3.5 1.6 5.3 2.4 3.5 1.6 6.9 3.5 10.3 5.2 1.7.9 3.3 1.9 4.9 2.9.8.5 1.6 1 2.4 1.4l2.4 1.5 4.7 3 4.5 3.2 2.2 1.6 2.1 1.7 4.2 3.3c1.4 1.2 2.7 2.3 4 3.5.7.6 1.3 1.2 2 1.7l1.9 1.8 3.8 3.6 3.6 3.7 1.8 1.8 1.7 1.9c1.1 1.3 2.2 2.5 3.3 3.7 1.1 1.2 2 2.5 3.1 3.8 1 1.3 2 2.5 2.9 3.8.9 1.3 1.8 2.6 2.7 3.8l1.3 1.9 1.2 1.9c6.7 10.2 11.6 20.3 15 29.6 3.4 9.3 5.4 17.7 6.7 24.7 1.1 7 1.6 12.6 1.7 16.4.1 3.8.2 5.8.2 5.8s-.1-2-.2-5.8c-.2-3.8-.7-9.4-1.8-16.3-1.3-7-3.3-15.4-6.8-24.6-3.5-9.2-8.4-19.3-15.1-29.4l-1.2-1.9-1.3-1.9-2.7-3.8-2.9-3.8c-1-1.2-2-2.5-3.1-3.8l-3.3-3.7-1.7-1.9-1.8-1.8c-1.2-1.2-2.4-2.4-3.5-3.7-1.2-1.2-2.5-2.4-3.8-3.6l-1.9-1.8-2-1.7c-1.3-1.1-2.7-2.3-4-3.5l-4.2-3.3-2.1-1.7-2.2-1.6-4.5-3.2c-1.5-1-3.1-2-4.7-3l-2.4-1.5-2.4-1.4c-1.6-.9-3.2-1.9-4.9-2.8-3.4-1.7-6.7-3.6-10.2-5.2-1.8-.8-3.5-1.7-5.3-2.4l-5.4-2.2c-7.3-2.8-14.8-5.4-22.5-7.3-3.8-1.1-7.8-1.8-11.7-2.6-2-.4-4-.7-5.9-1l-3-.5-3-.4-6-.7-6-.4-3-.2-3-.1-6.1-.1-6.1.1-3 .1-3 .2-6 .4-6 .7-3 .4-3 .5c-2 .3-4 .6-5.9 1-3.9.9-7.9 1.6-11.7 2.6-7.7 1.9-15.2 4.5-22.5 7.3l-5.4 2.2c-1.8.7-3.5 1.6-5.3 2.4-3.5 1.6-6.9 3.4-10.2 5.2-1.7.9-3.3 1.9-4.9 2.8l-2.4 1.4-2.4 1.5-4.7 3-4.5 3.2-2.2 1.6-2.1 1.7-4.2 3.3c-1.4 1.2-2.7 2.3-4 3.5l-2 1.7-1.9 1.8-3.8 3.6c-1.2 1.2-2.4 2.5-3.5 3.7l-1.8 1.8-1.7 1.9-3.3 3.7c-1.1 1.2-2 2.5-3.1 3.8-1 1.3-2 2.5-2.9 3.8l-2.7 3.8c-.4.6-.9 1.2-1.3 1.9l-1.2 1.9c-6.7 10.1-11.6 20.2-15.1 29.4s-5.5 17.6-6.8 24.6c-1.2 7-1.7 12.6-1.8 16.3-.6 3.9-.6 5.9-.6 5.9z"/><path stroke="#364A1E" stroke-width="2" stroke-miterlimit="10" fill="none" d="M435.7 457.9l82.8-1.2"/><path stroke="#364A1E" stroke-width="2.947" stroke-miterlimit="10" fill="none" d="M594.2 453.7v-70h-33v70M677.2 453.7v-70h-33v70M760.2 453.7v-70h-33v70M843.2 453.7v-70h-33v70M518.5 444.3h42.7M843.2 444.3h42.7M594.2 444.3h50.5M676.6 444.3h50.5M760.2 444.3h50.4"/><g stroke="#364A1E" stroke-width="2" stroke-miterlimit="10" fill="none"><path d="M527.4 383.7v60.6M539.4 383.7v60.6M551.5 383.7v60.6"/></g><g stroke="#364A1E" stroke-width="2" stroke-miterlimit="10" fill="none"><path d="M852.4 383.7v60.6M864.5 383.7v60.6M876.6 383.7v60.6"/></g><g stroke="#364A1E" stroke-width="2" stroke-miterlimit="10" fill="none"><path d="M602.6 383.7v60.6M613.6 383.7v60.6M624.6 383.7v60.6M635.6 383.7v60.6"/></g><g stroke="#364A1E" stroke-width="2" stroke-miterlimit="10" fill="none"><path d="M686 383.6v60.6M697 383.6v60.6M708 383.6v60.6M719 383.6v60.6"/></g><g stroke="#364A1E" stroke-width="2" stroke-miterlimit="10" fill="none"><path d="M768.9 383.6v60.6M779.9 383.6v60.6M790.9 383.6v60.6M801.9 383.6v60.6"/></g><g stroke="#364A1E" stroke-miterlimit="10" fill="none"><path stroke-width="2.947" d="M885.9 456.9l.6 12.1v171.9M968.5 458.1c.1 0 .2-.1.2-.2v-81c0-.1-.1-.2-.1-.2l-82.5-3.1c-.1 0-.2.1-.2.2v82.9c0 .1.1.2.2.2M968.7 458.1l-3 10.9v171.9M965.7 469h-79.2"/><path stroke-width="2" d="M968.7 457.9l-82.8-1.2"/></g><path stroke="#364A1E" stroke-width="2.947" stroke-miterlimit="10" fill="none" d="M1334.5 483.1l-367.8-16.1"/><path stroke="#364A1E" stroke-width="2" stroke-miterlimit="10" fill="none" d="M1336.2 471.5l-366.7-16.1"/><path stroke="#364A1E" stroke-width="2.947" stroke-miterlimit="10" d="M1418.2 479.4c.1 0 .2-.1.2-.1l3.6-81.1c0-.1-.1 0-.1 0l-82.3-6.7c-.1 0-.2.1-.2.1l-3.6 82.8c0 .1.1.2.1.2M1339 402.6l-370.5-14.9M1418.3 479.4l-3.5 10.8-7.5 169.4M1335.6 474.6l.2 12.2-6.4 168.1M1414.8 490.2l-79-3.4M1303.6 653.9c3.1-71.2-63.8-138.8-150-142.6s-158.8 57.7-161.9 128.9" fill="none"/><path fill="#364A1E" d="M1316.3 653.6s0-1.9.1-5.6c0-3.6-.2-9-1.1-15.8-1-6.7-2.6-14.9-5.5-23.9-3-9-7.3-18.8-13.3-28.9l-1.1-1.9c-.4-.6-.8-1.2-1.2-1.9-.8-1.2-1.6-2.5-2.5-3.8-.8-1.3-1.8-2.5-2.7-3.7-.9-1.2-1.8-2.5-2.8-3.8l-3-3.7-1.5-1.9-1.6-1.8c-1.1-1.2-2.2-2.4-3.3-3.7-1.1-1.2-2.3-2.4-3.5-3.6l-1.8-1.8c-.6-.6-1.2-1.2-1.8-1.7l-3.7-3.5c-1.3-1.1-2.6-2.2-3.9-3.4l-2-1.7-2.1-1.6-4.2-3.3c-1.4-1-2.9-2.1-4.4-3.1-.7-.5-1.5-1-2.2-1.6l-2.3-1.5c-1.5-1-3-2-4.6-2.9-3.2-1.8-6.3-3.8-9.6-5.4-1.6-.8-3.3-1.8-5-2.5l-5.1-2.4c-6.9-3-13.9-5.8-21.3-7.9-3.6-1.2-7.4-2-11.1-3l-5.7-1.2-2.8-.6-2.9-.5-5.7-.9-5.8-.7-2.9-.3-2.9-.2-5.8-.4-5.8-.1-2.9-.1-2.9.1-5.8.1-5.8.4-2.9.2-2.9.3c-1.9.2-3.8.4-5.7.7-3.8.7-7.6 1.2-11.3 2-7.5 1.5-14.8 3.6-21.9 6l-5.3 1.9c-1.8.6-3.4 1.4-5.2 2.1-3.4 1.3-6.7 3-10 4.5l-4.8 2.5c-.8.4-1.6.8-2.4 1.3-.8.5-1.6.9-2.3 1.4l-4.6 2.7c-1.5 1-3 1.9-4.4 2.9-.7.5-1.5 1-2.2 1.4l-2.1 1.5-4.2 3-4 3.2c-.7.5-1.3 1-2 1.6l-1.9 1.6-3.8 3.3-3.6 3.4-1.8 1.7c-.6.6-1.1 1.2-1.7 1.7-1.1 1.2-2.2 2.3-3.3 3.4-1.1 1.1-2.1 2.3-3.1 3.5-1 1.2-2.1 2.3-3 3.5-.9 1.2-1.9 2.4-2.8 3.5l-1.4 1.8-1.3 1.8c-6.8 9.5-12 18.9-15.7 27.6-3.8 8.7-6.1 16.7-7.6 23.3-1.4 6.7-2.1 12-2.4 15.6-.3 3.6-.4 5.6-.4 5.6s.1-1.9.4-5.6c.3-3.6 1-9 2.3-15.6 1.5-6.6 3.7-14.7 7.4-23.4 3.7-8.8 8.8-18.3 15.6-27.8.4-.6.8-1.2 1.3-1.8.4-.6.9-1.2 1.4-1.8l2.8-3.6c.9-1.2 2-2.3 3-3.5 1-1.2 2-2.4 3.1-3.5s2.2-2.3 3.3-3.5c.6-.6 1.1-1.2 1.7-1.7l1.8-1.7 3.6-3.4c1.2-1.1 2.5-2.2 3.8-3.3.6-.5 1.3-1.1 1.9-1.7l2-1.6 4-3.2 4.2-3 2.1-1.5c.7-.5 1.5-1 2.2-1.4 1.5-1 3-1.9 4.4-2.9l4.6-2.7c.8-.5 1.6-.9 2.3-1.4.8-.4 1.6-.8 2.4-1.3l4.8-2.5c3.3-1.5 6.6-3.2 10.1-4.6 1.7-.7 3.4-1.5 5.2-2.1l5.3-1.9c7.1-2.4 14.4-4.6 22-6.1 3.7-.9 7.6-1.4 11.4-2.1 1.9-.3 3.8-.5 5.8-.7l2.9-.4 2.9-.2 5.8-.4 5.9-.2 2.9-.1 2.9.1 5.8.1 5.9.4 2.9.2 2.9.3 5.8.7c1.9.3 3.8.6 5.8.9l2.9.5 2.8.6 5.7 1.2c3.7 1 7.5 1.9 11.2 3.1 7.4 2.2 14.5 5 21.4 8l5.1 2.4c1.7.8 3.3 1.7 5 2.6 3.3 1.7 6.5 3.6 9.6 5.4 1.6 1 3.1 2 4.6 3l2.3 1.5c.7.5 1.5 1 2.2 1.6l4.4 3.1 4.2 3.3 2.1 1.6 2 1.7 3.9 3.4c1.3 1.2 2.5 2.4 3.7 3.5.6.6 1.2 1.2 1.8 1.7l1.8 1.8 3.5 3.6 3.3 3.7 1.6 1.8 1.5 1.9c1 1.3 2 2.5 3 3.7 1 1.2 1.9 2.5 2.8 3.8.9 1.3 1.9 2.5 2.7 3.8l2.5 3.8c.4.6.8 1.2 1.2 1.9l1.1 1.9c6 10.1 10.3 20 13.1 29 2.9 9.1 4.4 17.2 5.4 24 .8 6.8 1 12.1.9 15.8-.1 4.1-.1 6-.1 6z"/><path stroke="#364A1E" stroke-width="2" stroke-miterlimit="10" fill="none" d="M1418.3 479.2l-82.6-4.8"/><path stroke="#364A1E" stroke-width="2.947" stroke-miterlimit="10" fill="none" d="M1260.2 468.1l2.5-68.8 32.5 1.4-2.1 68.9M1177.3 464.5l3.2-67.7 32.9 1.5-3.2 67.6M1094.4 460.8l2-67.6 33 1.4-2.1 67.7M1012.6 457.2l2.1-67.7 32.9 1.5-3.2 67.6M1336.2 462l-42.7-1.8M1011.9 447.8l-42.7-1.9M1260.6 458.7l-50.4-2.2M1178.2 455.1l-50.4-2.2M1094.8 451.4l-50.4-2.2"/><g stroke="#364A1E" stroke-width="2" stroke-miterlimit="10" fill="none"><path d="M1329.6 402l-2.2 59.6M1317.7 401.5l-2.4 59.6M1305.4 400.9l-2.2 59.7"/></g><g stroke="#364A1E" stroke-width="2" stroke-miterlimit="10" fill="none"><path d="M1004.2 389.1l-1.6 58.3M992.2 387.4l-1.7 59.4M980.1 386.9l-1.6 59.4"/></g><g stroke="#364A1E" stroke-width="2" stroke-miterlimit="10" fill="none"><path d="M1254.7 399.6l-2.5 58.7M1244 399.6l-2.8 58.3M1233 398l-2.8 59.4M1222 397.5l-2.8 59.4"/></g><g stroke="#364A1E" stroke-width="2" stroke-miterlimit="10" fill="none"><path d="M1171.7 395.2l-2.8 59.4M1160.7 394.7l-2.8 59.4M1149.7 394.2l-2.8 59.4M1138.7 393.7l-2.8 59.5"/></g><g stroke="#364A1E" stroke-width="2" stroke-miterlimit="10" fill="none"><path d="M1088.9 391.6l-2.8 59.4M1077.9 391.1l-2.8 59.4M1066.9 390.6l-2.8 59.4M1055.9 390.1l-2.8 59.4"/></g><path stroke="#364A1E" stroke-width="2.947" stroke-miterlimit="10" fill="none" d="M1339.5 391.4l-372.3-14.7M69.2 483.1l369-16.1"/><path stroke="#364A1E" stroke-width="2" stroke-miterlimit="10" fill="none" d="M67.5 471.5l366.8-16.1"/><path stroke="#364A1E" stroke-width="2.947" stroke-miterlimit="10" d="M-14.4 479.4c-.1 0-.2-.1-.2-.1l-3.6-80.7c0 1 .1-.3.1-.3l82.3-6.7c.1 0 .2.1.2.1l3.6 82.8c0 .1-.1.2-.1.2M64.7 402.6l370.6-14.9M-14.6 479.4l3.5 10.8 7.6 169.4M68.1 474.6l-.1 12.2 6.3 168.1M-11.1 490.2l79.1-3.4M100.2 653.9c-3.2-71.3 63.8-138.9 149.9-142.7s158.8 57.7 161.9 129" fill="none"/><path fill="#364A1E" d="M87.5 653.6s0-1.9-.1-5.6c0-3.6.2-9 .9-15.8.9-6.8 2.4-14.9 5.4-24 2.9-9 7.2-19 13.1-29l1.1-1.9c.4-.6.8-1.2 1.2-1.9.8-1.3 1.6-2.5 2.5-3.8.8-1.3 1.8-2.5 2.7-3.8.9-1.2 1.8-2.5 2.8-3.8l3-3.7 1.5-1.9 1.6-1.8 3.3-3.7c1.1-1.2 2.3-2.4 3.5-3.6l1.8-1.8c.6-.6 1.2-1.2 1.8-1.7l3.7-3.5 3.9-3.4 2-1.7 2.1-1.6 4.2-3.3c1.4-1 2.9-2.1 4.4-3.1.7-.5 1.5-1 2.2-1.6l2.3-1.5c1.5-1 3-2 4.6-3 3.2-1.8 6.3-3.8 9.6-5.4l5-2.6 5.1-2.4c6.9-3 14-5.9 21.4-8 3.6-1.2 7.4-2.1 11.2-3.1l5.7-1.2 2.8-.6 2.9-.5c1.9-.3 3.8-.6 5.8-.9l5.8-.7 2.9-.3 2.9-.2 5.9-.4 5.8-.1 2.9-.1 2.9.1 5.9.2 5.8.4 2.9.2 2.9.4 5.8.7c3.8.7 7.6 1.2 11.4 2.1 7.5 1.5 14.9 3.7 22 6.1l5.3 1.9c1.8.6 3.5 1.4 5.2 2.1 3.5 1.4 6.7 3 10.1 4.6l4.8 2.5c.8.4 1.6.8 2.4 1.3.8.5 1.6.9 2.3 1.4l4.6 2.7c1.5 1 3 1.9 4.4 2.9.7.5 1.5 1 2.2 1.4l2.1 1.5 4.2 3 4 3.2 2 1.6 1.9 1.7 3.8 3.3 3.6 3.4 1.8 1.7c.6.6 1.1 1.2 1.7 1.7l3.3 3.5c1.1 1.1 2.1 2.4 3.1 3.5 1 1.2 2.1 2.3 3 3.5l2.8 3.6 1.4 1.8 1.3 1.8c6.8 9.5 12 19 15.6 27.8 3.7 8.8 5.9 16.8 7.4 23.4 1.4 6.7 2 12 2.3 15.6.3 3.6.4 5.6.4 5.6s-.2-1.9-.4-5.6c-.3-3.6-1-8.9-2.4-15.6-1.5-6.6-3.8-14.6-7.6-23.3-3.7-8.7-8.9-18.1-15.7-27.6-.4-.6-.8-1.2-1.3-1.8-.4-.6-.9-1.2-1.4-1.8l-2.8-3.5c-.9-1.2-2-2.3-3-3.5-1-1.2-2-2.4-3.1-3.5l-3.3-3.4c-.6-.6-1.1-1.2-1.7-1.7l-1.8-1.7c-1.2-1.1-2.4-2.2-3.6-3.4-1.2-1.1-2.5-2.2-3.8-3.3l-1.9-1.6c-.7-.5-1.3-1-2-1.6-1.3-1-2.7-2.1-4-3.2l-4.2-3-2.1-1.5c-.7-.5-1.5-1-2.2-1.4-1.5-1-3-1.9-4.4-2.9l-4.6-2.7c-.8-.4-1.5-.9-2.3-1.4-.8-.4-1.6-.8-2.4-1.3l-4.8-2.5c-3.3-1.5-6.6-3.2-10-4.5-1.7-.7-3.4-1.5-5.2-2.1l-5.3-1.9c-7.1-2.4-14.4-4.5-21.9-6-3.7-.9-7.5-1.4-11.3-2-1.9-.3-3.8-.5-5.7-.7l-2.9-.3-2.9-.2-5.8-.4-5.8-.1-2.9-.1-2.9.1-5.8.1-5.8.4-2.9.2-2.9.3-5.8.7-5.7.9-2.9.5-2.8.6-5.7 1.2c-3.7 1-7.5 1.8-11.1 3-7.3 2.1-14.4 4.9-21.3 7.9l-5.1 2.4-5 2.5c-3.3 1.6-6.4 3.6-9.6 5.4-1.6 1-3.1 2-4.6 2.9l-2.3 1.5c-.7.5-1.5 1-2.2 1.6l-4.4 3.1-4.2 3.3-2.1 1.6-2 1.7-3.9 3.4-3.7 3.5c-.6.6-1.2 1.2-1.8 1.7l-1.8 1.8-3.5 3.6-3.3 3.7-1.6 1.8c-.5.6-1 1.2-1.5 1.9l-3 3.7c-1 1.2-1.9 2.5-2.8 3.8-.9 1.3-1.9 2.5-2.7 3.7l-2.5 3.8c-.4.6-.8 1.2-1.2 1.9l-1.1 1.9c-6 10-10.3 19.9-13.3 28.9s-4.6 17.2-5.5 23.9c-.8 6.8-1.1 12.1-1.1 15.8.1 3.3.1 5.2.1 5.2z"/><g opacity=".59"><linearGradient id="p" gradientUnits="userSpaceOnUse" x1="-14.411" y1="482.414" x2="68.099" y2="482.414"><stop offset="0" stop-color="#364A1E"/><stop offset="1" stop-color="#364A1E"/></linearGradient><path opacity=".25" fill="url(#p)" d="M-14.4 479.4l82.5-4.8v12.2l-79.2 3.4z"/><linearGradient id="q" gradientUnits="userSpaceOnUse" x1="67.979" y1="471.989" x2="1418.319" y2="471.989"><stop offset="0" stop-color="#364A1E"/><stop offset="1" stop-color="#364A1E"/></linearGradient><path opacity=".25" fill="url(#q)" d="M68.1 471.4l-.1 12.5 369.2-16.9h1l.5 2.2 79.5-.2-.1-4.2h82l286.4.7.3 4.4 79.4-.9 1-2 49.3 2 319.2 14.1v3.7l79.1 3.4 3.5-11-82.6-4.8.1-2.6-113.8-5.9-253.5-10.8v3.7l-83.3-1.9.8-3.2h-367.8v3.2l-82.3 1.2-.2-2.7z"/><linearGradient id="r" gradientUnits="userSpaceOnUse" x1="64.28" y1="389.195" x2="435.714" y2="389.195"><stop offset="0" stop-color="#364A1E"/><stop offset="1" stop-color="#364A1E"/></linearGradient><path opacity=".25" fill="url(#r)" d="M64.3 391.4l.4 10.1 371-13.8v-10.8z"/><linearGradient id="s" gradientUnits="userSpaceOnUse" x1="518.511" y1="378.649" x2="886.208" y2="378.649"><stop offset="0" stop-color="#364A1E"/><stop offset="1" stop-color="#364A1E"/></linearGradient><path opacity=".25" fill="url(#s)" d="M518.5 373.8v9.9h367.7l-.2-10.1z"/><linearGradient id="t" gradientUnits="userSpaceOnUse" x1="968.466" y1="390.025" x2="1339.466" y2="390.025"><stop offset="0" stop-color="#364A1E"/><stop offset="1" stop-color="#364A1E"/></linearGradient><path opacity=".25" fill="url(#t)" d="M968.5 378v9.4l370.3 14.6.7-10.6z"/><linearGradient id="u" gradientUnits="userSpaceOnUse" x1="527.662" y1="561.95" x2="879.21" y2="561.95"><stop offset="0" stop-color="#364A1E"/><stop offset="1" stop-color="#364A1E"/></linearGradient><path opacity=".25" fill="url(#u)" d="M879.2 639.1c0-81.4-77.4-155.1-175.8-155.1s-175.8 73.7-175.8 155.1l13.2.8c0-74.2 72.7-141.4 162.4-141.4s162.4 67.2 162.4 141.4l13.6-.8z"/><linearGradient id="v" gradientUnits="userSpaceOnUse" x1="978.769" y1="575.375" x2="1316.385" y2="575.375"><stop offset="0" stop-color="#364A1E"/><stop offset="1" stop-color="#364A1E"/></linearGradient><path opacity=".25" fill="url(#v)" d="M1316.3 653.5c3.4-78.1-67.8-152.1-162.2-156.3s-171.9 63.3-175.3 141.5l13 1.4c3.1-71.2 75.8-132.7 161.9-128.9 86.1 3.8 153.1 71.4 150 142.6l12.6-.3z"/><linearGradient id="w" gradientUnits="userSpaceOnUse" x1="87.361" y1="575.375" x2="424.977" y2="575.375"><stop offset="0" stop-color="#364A1E"/><stop offset="1" stop-color="#364A1E"/></linearGradient><path opacity=".25" fill="url(#w)" d="M425 638.7c-3.4-78.1-80.9-145.6-175.3-141.5s-165.7 78.2-162.2 156.3l12.7.3c-3.1-71.2 63.8-138.8 150-142.6 86.1-3.8 158.8 57.7 161.9 128.9l12.9-1.4z"/></g><path stroke="#364A1E" stroke-width="2" stroke-miterlimit="10" fill="none" d="M-14.6 479.2l82.7-4.8"/><path stroke="#364A1E" stroke-width="2.947" stroke-miterlimit="10" fill="none" d="M143.6 468.1l-2.5-68.8-32.5 1.4 2 68.9M226.5 464.5l-3.2-67.7-33 1.5 3.2 67.6M309.4 460.8l-2.1-67.6-32.9 1.4 2 67.7M391.1 457.2l-2-67.7-33 1.5 3.2 67.6M67.5 462l42.7-1.8M391.9 447.8l42.7-1.9M143.2 458.7l50.4-2.2M225.5 455.1l50.4-2.2M309 451.4l50.4-2.2"/><g stroke="#364A1E" stroke-width="2" stroke-miterlimit="10" fill="none"><path d="M74.2 402l2.2 59.6M86.1 401.5l2.4 59.6M98.3 400.9l2.2 59.7"/></g><g stroke="#364A1E" stroke-width="2" stroke-miterlimit="10" fill="none"><path d="M399.5 389.1l1.7 58.3M411.6 387.4l1.6 59.4M423.6 386.9l1.7 59.4"/></g><g stroke="#364A1E" stroke-width="2" stroke-miterlimit="10" fill="none"><path d="M149.1 399.6l2.5 58.7M159.7 399.6l2.9 58.3M170.7 398l2.9 59.4M181.7 397.5l2.9 59.4"/></g><g stroke="#364A1E" stroke-width="2" stroke-miterlimit="10" fill="none"><path d="M232 395.2l2.8 59.4M243 394.7l2.8 59.4M254 394.2l2.8 59.4M265 393.7l2.8 59.5"/></g><g stroke="#364A1E" stroke-width="2" stroke-miterlimit="10" fill="none"><path d="M314.9 391.6l2.8 59.4M325.9 391.1l2.8 59.4M336.9 390.6l2.8 59.4M347.9 390.1l2.8 59.4"/></g><path stroke="#364A1E" stroke-width="2.947" stroke-miterlimit="10" fill="none" d="M64.3 391.4l372.3-14.7M518.5 373.8l367.5-.2"/><path fill="#669238" d="M125.6 640.6s-9.7 11.6-74.8 11.6l-73.7-13v30.7h148.6l-.1-29.3z"/><path fill="#364A1E" d="M-23 639.4s.4.5 1.3 1.1c.9.6 2.3 1.5 4.2 2.3.9.5 2 .8 3.2 1.3 1.2.4 2.5.8 3.9 1.2 1.4.3 2.9.7 4.5 1.1 1.6.3 3.3.7 5 1 1.8.3 3.6.6 5.5.9 1.9.2 3.9.5 5.9.7 2 .3 4.1.4 6.2.6l3.2.3 3.3.2c2.2.1 4.5.3 6.8.4l6.9.2c2.3.1 4.7.1 7.1.1 2.4 0 4.7 0 7.1.1 2.4 0 4.8 0 7.1-.1 2.4 0 4.7 0 7.1-.1 2.3-.1 4.7-.1 6.9-.2l6.8-.3 3.3-.2c1.1-.1 2.2-.2 3.2-.2l6.3-.5c2-.2 4-.4 5.9-.6 1.9-.3 3.7-.5 5.5-.8 1.8-.3 3.4-.6 5-.9 1.6-.3 3.1-.7 4.5-1 2.8-.7 5.2-1.4 7.2-2.2 2-.7 3.4-1.5 4.4-2 .9-.6 1.4-1 1.4-1s-.4.5-1.3 1.1c-.5.3-1 .7-1.7 1.1-.4.2-.7.4-1.1.7l-1.3.6c-1.9.9-4.3 1.8-7.1 2.7-1.4.4-2.9.8-4.5 1.3-1.6.4-3.3.8-5 1.2-1.8.3-3.6.7-5.5 1-1.9.3-3.9.6-5.9.9-2 .3-4.1.5-6.3.8-2.1.3-4.3.5-6.6.6-2.2.2-4.5.3-6.8.5-2.3.1-4.6.2-7 .3l-7.1.2c-2.4 0-4.8.1-7.1.1l-7.2-.1c-2.4 0-4.8 0-7.1-.2-2.4-.1-4.7-.2-7-.3-2.3-.1-4.6-.4-6.8-.5l-3.3-.3-3.3-.4c-2.1-.3-4.3-.5-6.3-.8-2-.3-4-.6-5.9-1-1.9-.4-3.7-.8-5.5-1.2-1.7-.5-3.4-.9-5-1.3-1.6-.5-3-1-4.4-1.4-1.4-.5-2.7-1-3.8-1.5-1.1-.6-2.2-1-3.1-1.5-.5-.3-.9-.5-1.3-.7-.4-.3-.8-.5-1.1-.7-.7-.4-1.2-.9-1.6-1.3-1.3-.8-1.7-1.3-1.7-1.3z"/><path fill="#364A1E" d="M48.3 667s1.7-.1 4.6-.2c1.5-.1 3.2-.1 5.2-.2s4.3-.2 6.8-.3c2.5-.2 5.2-.3 8-.5 1.4-.1 2.9-.2 4.4-.3 1.5-.1 3-.2 4.6-.4 3.1-.3 6.3-.6 9.5-.9 3.2-.3 6.5-.8 9.8-1.3 3.3-.5 6.5-1 9.7-1.6 3.2-.6 6.3-1.3 9.3-2.1 3-.8 5.9-1.6 8.5-2.6 2.7-.9 5.1-2 7.3-3.2 2.1-1.2 4-2.5 5.3-3.9.7-.7 1.1-1.5 1.4-2.3l.1-.6v-1.1l-.2-.5c-.5-1.3-1.6-1.9-2.2-2.3-.7-.4-1.1-.5-1.1-.5s.4.2 1.1.4c.3.2.8.4 1.2.8.5.3 1 .8 1.3 1.5.1.2.2.4.2.5l.1.6v.6c0 .2 0 .5-.1.7-.3.9-.7 1.8-1.3 2.6-1.3 1.7-3.1 3.1-5.3 4.5-2.2 1.3-4.6 2.5-7.3 3.6-1.3.6-2.7 1-4.2 1.5-1.4.5-2.9 1-4.4 1.4l-4.6 1.2-4.8 1.1c-3.2.7-6.5 1.2-9.8 1.7-3.3.5-6.6.9-9.9 1.2-1.6.2-3.3.3-4.9.4-1.6.1-3.2.3-4.8.3-1.6.1-3.1.2-4.6.3-1.5.1-3 .1-4.4.1-2.9.1-5.6.1-8.1.1s-4.8 0-6.8-.1c-2 0-3.8-.1-5.3-.1-2.6 0-4.3-.1-4.3-.1z" opacity=".5"/><path fill="#669238" d="M1281.1 640.6s9.7 11.6 74.8 11.6c65.2 0 73.7-13 73.7-13v30.7h-148.6l.1-29.3z"/><path fill="#364A1E" d="M1429.6 639.4s-.3.5-1.2 1.3c-.4.3-1 .8-1.6 1.3-.3.2-.7.5-1.1.7-.4.2-.8.5-1.3.7-.9.5-2 1-3.1 1.5-1.2.5-2.5 1-3.8 1.5-1.4.5-2.9.9-4.4 1.4-1.6.4-3.3.8-5 1.3-1.8.4-3.6.8-5.5 1.2-1.9.4-3.9.6-5.9 1-2 .4-4.1.5-6.3.8l-3.3.4-3.3.3c-2.2.2-4.5.4-6.8.5-2.3.1-4.6.2-7 .3l-7.1.2-7.2.1c-2.4 0-4.8-.1-7.1-.1-2.4 0-4.7-.1-7.1-.2-2.4-.1-4.7-.2-7-.3-2.3-.2-4.6-.3-6.8-.5-2.2-.1-4.4-.4-6.6-.6-2.1-.2-4.3-.4-6.3-.8-2-.3-4-.5-5.9-.9-1.9-.4-3.7-.7-5.5-1-1.8-.4-3.4-.8-5-1.2-1.6-.5-3.1-.9-4.5-1.3-2.8-.9-5.2-1.8-7.1-2.7-.5-.2-.9-.4-1.3-.6-.4-.2-.8-.5-1.1-.7-.7-.4-1.3-.8-1.7-1.1-.9-.7-1.3-1.1-1.3-1.1s.4.4 1.4 1c1 .5 2.4 1.3 4.4 2 1.9.8 4.4 1.5 7.2 2.2 1.4.3 2.9.6 4.5 1 1.6.3 3.3.6 5 .9 1.8.2 3.6.5 5.5.8 1.9.2 3.9.4 5.9.6 2 .2 4.1.4 6.3.5 1.1.1 2.1.2 3.2.2l3.3.2c2.2.1 4.5.2 6.8.3l6.9.2c2.3.1 4.7.1 7.1.1 2.4 0 4.8 0 7.1.1 2.4 0 4.7 0 7.1-.1 2.4 0 4.7 0 7.1-.1 2.3-.1 4.7-.2 6.9-.2l6.8-.4 3.3-.2c1.1-.1 2.2-.2 3.2-.3 2.1-.2 4.2-.3 6.2-.6s4-.5 5.9-.7c1.9-.3 3.7-.6 5.5-.9 1.7-.4 3.4-.7 5-1 1.6-.4 3.1-.8 4.5-1.1 1.4-.4 2.7-.8 3.9-1.2 1.2-.5 2.3-.8 3.2-1.3 1.9-.8 3.3-1.7 4.2-2.3.5-.7.8-1.1.8-1.1z"/><path fill="#364A1E" d="M1358.4 667s-1.7.1-4.6.2c-1.5 0-3.2.1-5.3.1-2 0-4.3.1-6.8.1s-5.2 0-8.1-.1c-1.4 0-2.9-.1-4.4-.1-1.5-.1-3-.2-4.6-.3-1.6-.1-3.1-.2-4.8-.3-1.6-.1-3.2-.2-4.9-.4-3.3-.3-6.6-.7-9.9-1.2-3.3-.5-6.6-1.1-9.8-1.7-1.6-.3-3.2-.7-4.8-1.1-1.6-.4-3.1-.8-4.6-1.2-1.5-.4-3-.9-4.4-1.4l-4.2-1.5c-2.7-1-5.2-2.3-7.3-3.6-2.2-1.3-4-2.8-5.3-4.5-.7-.8-1.1-1.7-1.3-2.6l-.1-.7v-.6l.1-.6c.1-.2.2-.4.2-.5.3-.7.8-1.2 1.3-1.5.4-.4.9-.6 1.2-.8.7-.3 1.1-.4 1.1-.4s-.4.2-1.1.5c-.6.4-1.7 1.1-2.2 2.3l-.2.5v1.1l.1.6c.3.8.7 1.6 1.4 2.3 1.3 1.5 3.2 2.8 5.3 3.9 2.2 1.2 4.6 2.2 7.3 3.2s5.5 1.8 8.5 2.6 6.1 1.4 9.3 2.1c3.2.6 6.5 1.2 9.7 1.6 3.3.5 6.6.9 9.8 1.3 3.2.4 6.4.7 9.5.9 1.6.1 3.1.2 4.6.4 1.5.1 3 .2 4.4.3 2.8.2 5.5.3 8 .5 2.5.1 4.8.2 6.8.3 2 .1 3.8.2 5.2.2 3.2 0 4.9.1 4.9.1z" opacity=".5"/><path fill="#669238" d="M550.5 628.2s-9.7 11.6-74.8 11.6l-73.7-13v30.7h148.6l-.1-29.3z"/><path fill="#364A1E" d="M401.9 626.9s.4.5 1.3 1.1c.9.6 2.3 1.5 4.2 2.3.9.5 2 .8 3.2 1.3 1.2.4 2.5.8 3.9 1.2 1.4.3 2.9.7 4.5 1.1 1.6.3 3.3.7 5 1 1.8.3 3.6.6 5.5.9 1.9.2 3.9.5 5.9.7 2 .3 4.1.4 6.2.6l3.2.3 3.3.2c2.2.1 4.5.3 6.8.4l6.9.2c2.3.1 4.7.1 7.1.1 2.4 0 4.7 0 7.1.1 2.4 0 4.8 0 7.1-.1 2.4 0 4.7 0 7.1-.1 2.3-.1 4.7-.1 6.9-.2l6.8-.3 3.3-.2c1.1-.1 2.2-.2 3.2-.2l6.3-.5c2-.2 4-.4 5.9-.6 1.9-.3 3.7-.5 5.5-.8 1.8-.3 3.4-.6 5-.9 1.6-.3 3.1-.7 4.5-1 2.8-.7 5.2-1.4 7.2-2.2 2-.7 3.4-1.5 4.4-2 .9-.6 1.4-1 1.4-1s-.4.5-1.3 1.1c-.5.3-1 .7-1.7 1.1-.4.2-.7.4-1.1.7l-1.3.6c-1.9.9-4.3 1.8-7.1 2.7-1.4.4-2.9.8-4.5 1.3-1.6.4-3.3.8-5 1.2-1.8.3-3.6.7-5.5 1-1.9.3-3.9.6-5.9.9-2 .3-4.1.5-6.3.8-2.1.3-4.3.5-6.6.6-2.2.2-4.5.3-6.8.5-2.3.1-4.6.2-7 .3l-7.1.2c-2.4 0-4.8.1-7.1.1l-7.2-.1c-2.4 0-4.8 0-7.1-.2-2.4-.1-4.7-.2-7-.3-2.3-.1-4.6-.4-6.8-.5l-3.3-.3-3.3-.4c-2.1-.3-4.3-.5-6.3-.8-2-.3-4-.6-5.9-1-1.9-.4-3.7-.8-5.5-1.2-1.7-.5-3.4-.9-5-1.3-1.6-.5-3-1-4.4-1.4-1.4-.5-2.7-1-3.8-1.5-1.1-.6-2.2-1-3.1-1.5-.5-.3-.9-.5-1.3-.7-.4-.3-.8-.5-1.1-.7-.7-.4-1.2-.9-1.6-1.3-1.3-.8-1.7-1.3-1.7-1.3z"/><path fill="#364A1E" d="M390.6 627.2s-.2.1-.5.3c-.3.2-.8.5-1.4 1-.6.5-1.3 1.1-1.8 2.1s-.7 2.2-.4 3.6c.4 1.3 1.2 2.6 2.4 3.8 1.2 1.2 2.7 2.3 4.4 3.3 3.4 2 7.5 3.6 12.1 5 9.3 2.8 20.5 4.6 32.5 5.8 6 .6 12.3 1 18.6 1.3 6.4.3 12.8.4 19.3.4 12.9.1 25.9-.4 38-1.5 6-.6 11.9-1.2 17.3-2.1 5.5-.9 10.6-1.9 15.3-3.2 4.7-1.3 8.9-2.7 12.4-4.4 3.5-1.7 6.5-3.6 8.1-5.9.8-1.1 1.1-2.4.9-3.4-.3-1-1-1.7-1.5-2.2-.6-.5-1.1-.7-1.5-.9-.4-.2-.5-.2-.5-.2s.2.1.6.2c.4.2.9.4 1.5.8s1.4 1.1 1.7 2.2c.3 1.1 0 2.5-.8 3.7-1.6 2.5-4.6 4.5-8.1 6.4-3.5 1.8-7.7 3.5-12.4 4.8-4.7 1.4-9.9 2.6-15.4 3.6s-11.3 1.8-17.4 2.4c-12.1 1.2-25.1 1.7-38.1 1.8-13 0-26-.6-38.1-1.9-6.1-.6-11.9-1.5-17.4-2.6-5.5-1.1-10.6-2.3-15.3-3.9-4.6-1.5-8.8-3.3-12.2-5.5-1.7-1.1-3.2-2.2-4.4-3.5-1.2-1.3-2.1-2.7-2.4-4.1-.4-1.4-.1-2.8.5-3.8s1.3-1.6 1.9-2.1c.6-.5 1.1-.7 1.5-.9.4-.3.6-.4.6-.4z" opacity=".5"/><path fill="#669238" d="M1003.6 628.2s-9.7 11.6-74.8 11.6l-73.7-13v30.7h148.6l-.1-29.3z"/><path fill="#364A1E" d="M855.1 626.9s.4.5 1.3 1.1c.9.6 2.3 1.5 4.2 2.3.9.5 2 .8 3.2 1.3 1.2.4 2.5.8 3.9 1.2 1.4.3 2.9.7 4.5 1.1 1.6.3 3.3.7 5 1 1.8.3 3.6.6 5.5.9 1.9.2 3.9.5 5.9.7 2 .3 4.1.4 6.2.6l3.2.3 3.3.2c2.2.1 4.5.3 6.8.4l6.9.2c2.3.1 4.7.1 7.1.1 2.4 0 4.7 0 7.1.1 2.4 0 4.8 0 7.1-.1 2.4 0 4.7 0 7.1-.1 2.3-.1 4.7-.1 6.9-.2l6.8-.3 3.3-.2c1.1-.1 2.2-.2 3.2-.2l6.3-.5c2-.2 4-.4 5.9-.6 1.9-.3 3.7-.5 5.5-.8 1.8-.3 3.4-.6 5-.9 1.6-.3 3.1-.7 4.5-1 2.8-.7 5.2-1.4 7.2-2.2 2-.7 3.4-1.5 4.4-2 .9-.6 1.4-1 1.4-1s-.4.5-1.3 1.1c-.5.3-1 .7-1.7 1.1-.4.2-.7.4-1.1.7l-1.3.6c-1.9.9-4.3 1.8-7.1 2.7-1.4.4-2.9.8-4.5 1.3-1.6.4-3.3.8-5 1.2-1.8.3-3.6.7-5.5 1-1.9.3-3.9.6-5.9.9-2 .3-4.1.5-6.3.8-2.1.3-4.3.5-6.6.6-2.2.2-4.5.3-6.8.5-2.3.1-4.6.2-7 .3l-7.1.2c-2.4 0-4.8.1-7.1.1l-7.2-.1c-2.4 0-4.8 0-7.1-.2-2.4-.1-4.7-.2-7-.3-2.3-.1-4.6-.4-6.8-.5l-3.3-.3-3.3-.4c-2.1-.3-4.3-.5-6.3-.8-2-.3-4-.6-5.9-1-1.9-.4-3.7-.8-5.5-1.2-1.7-.5-3.4-.9-5-1.3-1.6-.5-3-1-4.4-1.4-1.4-.5-2.7-1-3.8-1.5-1.1-.6-2.2-1-3.1-1.5-.5-.3-.9-.5-1.3-.7-.4-.3-.8-.5-1.1-.7-.7-.4-1.2-.9-1.6-1.3-1.4-.8-1.7-1.3-1.7-1.3z"/><path fill="#364A1E" d="M843.7 627.2s-.2.1-.5.3c-.3.2-.8.5-1.4 1-.6.5-1.3 1.1-1.8 2.1s-.7 2.2-.4 3.6c.4 1.3 1.2 2.6 2.4 3.8 1.2 1.2 2.7 2.3 4.4 3.3 3.4 2 7.5 3.6 12.1 5 9.3 2.8 20.5 4.6 32.5 5.8 6 .6 12.3 1 18.6 1.3 6.4.3 12.8.4 19.3.4 12.9.1 25.9-.4 38-1.5 6-.6 11.9-1.2 17.3-2.1 5.5-.9 10.6-1.9 15.3-3.2 4.7-1.3 8.9-2.7 12.4-4.4 3.5-1.7 6.5-3.6 8.1-5.9.8-1.1 1.1-2.4.9-3.4-.3-1-1-1.7-1.5-2.2-.6-.5-1.1-.7-1.5-.9-.4-.2-.5-.2-.5-.2s.2.1.6.2c.4.2.9.4 1.5.8s1.4 1.1 1.7 2.2c.3 1.1 0 2.5-.8 3.7-1.6 2.5-4.6 4.5-8.1 6.4-3.5 1.8-7.7 3.5-12.4 4.8-4.7 1.4-9.9 2.6-15.4 3.6s-11.3 1.8-17.4 2.4c-12.1 1.2-25.1 1.7-38.1 1.8-13 0-26-.6-38.1-1.9-6.1-.6-11.9-1.5-17.4-2.6-5.5-1.1-10.6-2.3-15.3-3.9-4.6-1.5-8.8-3.3-12.2-5.5-1.7-1.1-3.2-2.2-4.4-3.5-1.2-1.3-2.1-2.7-2.4-4.1-.4-1.4-.1-2.8.5-3.8s1.3-1.6 1.9-2.1c.6-.5 1.1-.7 1.5-.9.5-.3.6-.4.6-.4z" opacity=".5"/></g><path fill="#E5EAD8" stroke="#364A1E" stroke-width="3.764" stroke-miterlimit="10" d="M668 531.4s1.1 58.2-23.6 156c-.7 2.9 16.8 16.8 35.2 7.3 7.9-22.9 20.5-83.5 25.7-160.1M684.7 542.2s2.7 65.8-13.5 165.4c-.5 3 21.3 16.3 38.8 5.2 4.3-21.1 9.6-80.7 9.7-163.8"/><path opacity=".61" fill="#B6C495" d="M679.1 544.2s-2.2 94.3-17.4 153.4c0 0 7.6 1.2 11.3-.4 0 0 11.6-78.3 11.3-153h-5.2z"/><path stroke="#364A1E" stroke-width="1.171" stroke-miterlimit="10" d="M684.3 606.3c-11.1 2.6-21.4-.9-22.5-7M676.2 679.7c-13.6 3.5-26.4-3.6-27.1-9.7" fill="none"/><path opacity=".61" fill="#B6C495" d="M709.6 546.6s-.6 98.6-16 170.4c0 0 8.1 1.5 16.4-4.2 0 0 10.2-74.1 10.1-166.2h-10.5z"/><path stroke="#364A1E" stroke-width="1.171" stroke-miterlimit="10" d="M718.8 600.2c.2 5.3-9 8.2-17.4 7.6-8.2-.6-17.1-3.8-17.4-10M714.8 673.4c0 5.9-10.2 8.5-19.4 7.4-9-1.1-18.5-5-18.5-11.8" fill="none"/><path stroke="#364A1E" stroke-width="4.705" stroke-miterlimit="10" d="M684.7 542.2s2.7 65.8-13.5 165.4c-.5 3 21.3 16.3 38.8 5.2 4.3-21.1 9.6-80.7 9.7-163.8M668 531.4s1.1 58.2-23.6 156c-.6 2.5 12.7 13.5 28.4 9.8" fill="none"/><path fill="#E5EAD8" stroke="#364A1E" stroke-width="3.764" stroke-miterlimit="10" d="M807.7 531.4s-1.1 58.2 23.6 156c.7 2.9-16.8 16.8-35.2 7.3-7.9-22.9-20.5-83.5-25.7-160.1M791.1 542.2s-2.7 65.8 13.5 165.4c.5 3-21.3 16.3-38.8 5.2-4.3-21.1-9.6-80.7-9.7-163.8"/><path opacity=".61" fill="#B6C495" d="M795.7 552.4s2.7 89.2 18.3 145.2c0 0-7.6 1.2-11.3-.4 0 0-11.6-78.3-12.2-144.7h5.2z"/><path stroke="#364A1E" stroke-width="1.171" stroke-miterlimit="10" d="M791.5 606.3c11.1 2.6 21.4-.9 22.5-7M799.5 679.7c13.6 3.5 26.4-3.6 27.1-9.7" fill="none"/><path opacity=".61" fill="#B6C495" d="M766.8 550s0 95.2 15.4 167c0 0-8.1 1.5-16.4-4.2 0 0-10.2-74.1-9.5-162.8h10.5z"/><path stroke="#364A1E" stroke-width="1.171" stroke-miterlimit="10" d="M756.9 600.2c-.2 5.3 9 8.2 17.4 7.6 8.2-.6 17.1-3.8 17.4-10M760.9 673.4c0 5.9 10.2 8.5 19.4 7.4 9-1.1 18.5-5 18.5-11.8" fill="none"/><path stroke="#364A1E" stroke-width="4.705" stroke-miterlimit="10" d="M791.1 542.2s-2.7 65.8 13.5 165.4c.5 3-21.3 16.3-38.8 5.2-4.3-21.1-9.6-80.7-9.7-163.8M807.7 531.4s-1.1 58.2 23.6 156c.6 2.5-12.7 13.5-28.4 9.8" fill="none"/><path fill="#364A1E" d="M641.3 683s-.5.1-1.4.3c-.9.2-2.2.7-3.7 1.2-.7.3-1.5.6-2.4.9l-2.5 1.2c-.4.2-.8.5-1.2.8l-.3.2-.1.1-.1.1-.3.3-.2.2c-.5.7-.8 1.4-.6 2.2.2.8.7 1.6 1.4 2.2.7.7 1.5 1.2 2.3 1.7 1.6 1 3.4 1.7 4.8 2.2 1.5.5 2.8.9 3.7 1.2.9.3 1.4.4 1.4.4h-1.5c-.9-.1-2.3-.2-3.9-.5-.8-.2-1.7-.4-2.6-.7-.9-.3-1.8-.6-2.8-1.1-.9-.5-1.9-1.1-2.7-1.8-.8-.8-1.7-1.8-2-3.1-.2-.7-.1-1.4.1-2 .2-.7.5-1.2.9-1.7l.3-.4.3-.3.1-.1.2-.2.4-.3c.5-.3 1-.6 1.4-.8 1.9-.9 3.8-1.4 5.4-1.7 1.6-.3 3-.5 3.9-.5h1.7000000000000002zM652.5 705.5s-.3.1-.9.2c-.6.2-1.4.4-2.4 1-.5.3-1 .6-1.4 1.1-.4.5-.6 1.2-.4 1.9.4 1.4 1.7 2.7 3.1 3.8 3 2.3 7 4.2 11.4 6 4.4 1.7 9.3 3.2 14.2 4.4 2.5.6 4.9 1.1 7.4 1.5 2.4.4 4.9.7 7.2 1 2.4.3 4.6.5 6.8.7 2.2.2 4.2.3 6.1.4 3.8.2 7 .3 9.2.3h3.5s-.3.1-.9.1c-.6.1-1.5.2-2.6.3-2.2.3-5.4.5-9.3.6-1.9 0-4 0-6.2-.1s-4.5-.3-6.9-.5c-2.4-.2-4.8-.6-7.3-1.1-2.5-.4-5-1-7.5-1.6-5-1.3-9.9-2.9-14.3-4.8-2.2-.9-4.3-2-6.2-3.1-1.9-1.1-3.7-2.2-5.2-3.5-1.4-1.3-2.8-2.6-3.1-4.3-.1-.8.1-1.7.6-2.2.5-.5 1-.9 1.5-1.1 1-.5 1.9-.7 2.5-.8.8-.1 1.1-.2 1.1-.2zM835.8 683h1.4c.9 0 2.1.2 3.6.5.7.2 1.5.4 2.3.7.8.3 1.7.6 2.5 1.1.4.2.9.5 1.3.9.1.1.2.1.3.3l.2.3c.2.2.4.5.5.7.7.9 1 2.3.8 3.5-.2 1.2-.9 2.2-1.6 3-.7.8-1.6 1.4-2.4 1.9-.8.5-1.7.9-2.5 1.2-.8.3-1.6.5-2.3.7-1.5.4-2.7.5-3.6.6-.9.1-1.4 0-1.4 0s.5-.1 1.3-.4c.8-.3 2-.6 3.3-1.2 1.3-.6 2.9-1.3 4.3-2.3.7-.5 1.4-1.1 2-1.7.6-.6 1-1.4 1.1-2.1.1-.7 0-1.5-.5-2.1l-.3-.5-.2-.3-.2-.2c-.3-.3-.6-.5-1-.8-1.4-.9-3-1.6-4.3-2.2-1.3-.6-2.5-1-3.3-1.2-.8-.4-1.3-.4-1.3-.4zM826 705.5s.3.1.9.2c.6.1 1.4.3 2.5.8.5.2 1.1.5 1.5 1.1.5.5.8 1.3.7 2.1-.1.8-.5 1.6-1.1 2.3-.5.7-1.2 1.4-1.9 2-1.4 1.3-3.2 2.4-5.1 3.5-1.9 1.1-4 2.1-6.1 3.1-4.4 1.9-9.2 3.5-14.1 4.8-2.4.6-4.9 1.2-7.4 1.6-2.5.5-4.9.8-7.2 1.1-2.4.3-4.6.5-6.8.6-2.2.1-4.2.2-6.1.2-3.8 0-6.9-.2-9.1-.5-1.1-.1-2-.2-2.5-.3-.6-.1-.9-.1-.9-.1s1.3 0 3.5-.1c1.1 0 2.4-.1 4-.2 1.5-.1 3.2-.2 5.1-.3 1.9-.1 3.9-.3 6-.5s4.4-.4 6.7-.7c2.3-.3 4.7-.6 7.1-1 2.4-.4 4.9-.9 7.3-1.5 4.8-1.2 9.6-2.7 14-4.4 4.3-1.7 8.3-3.7 11.2-5.9 1.4-1.1 2.7-2.4 3-3.8.1-.7-.1-1.3-.5-1.8s-.9-.8-1.4-1.1c-.9-.5-1.8-.8-2.3-.9-.7-.2-1-.3-1-.3z" opacity=".5"/><path fill="#91AE5D" stroke="#364A1E" stroke-width="4.705" stroke-miterlimit="10" d="M977.1 566l-484.7-35.9c-7.2-.5-12.5-6.8-12-13.9l25.2-340.7c.5-7.2 6.8-12.5 13.9-12l484.7 35.9c7.2.5 12.5 6.8 12 13.9l-25.2 340.7c-.6 7.2-6.8 12.6-13.9 12z"/><path opacity=".65" fill="#364A1E" d="M483.6 472.9l21.9-296.3c.6-7.8 7.4-13.7 15.2-13.1l482.3 35.7c7.8.6 13.7 7.4 13.1 15.2l-21.9 296.3-510.6-37.8z"/><path stroke="#364A1E" stroke-width="2.823" stroke-miterlimit="10" fill="none" d="M483.6 472.9l510.6 37.8"/><circle fill="#669238" stroke="#364A1E" stroke-width="2.823" stroke-miterlimit="10" cx="737" cy="517" r="12.4"/><path fill="#E5EAD8" stroke="#364A1E" stroke-width="1.939" stroke-miterlimit="10" d="M518.6 184.2l-20 269.6c-.2 3.2 2.2 6 5.4 6.3l471.8 34.9c3.2.2 6-2.2 6.3-5.4l20-269.6c.2-3.2-2.2-6-5.4-6.3l-471.8-34.9c-3.2-.2-6.1 2.2-6.3 5.4z"/><path fill="#E5EAD8" stroke="#364A1E" stroke-width="3.764" stroke-miterlimit="10" d="M336.8 719c.1 0 .2-.1.2-.2.4-5 8.6-124.7-50.2-169.8-57.1-43.8-104.5-1.6-79.4 24.7s98.3 21 93.8 145.3c4.1 1.6 11.3 3.9 20.4 3.4 6.4-.4 11.7-1.9 15.2-3.4z"/><path opacity=".61" fill="#B6C495" d="M315.5 722.3c-5.3.7-10.2-1.5-14.3-3.2 4.5-124.3-68.7-118.9-93.8-145.3-11.2-11.7-8-26.5 4-35.5 0 0-18.3 19.2 21.1 37s80.1 39.6 83 147z"/><path fill="#364A1E" d="M349 719.3v.7c0 .2-.1.5-.2.8 0 .2-.1.3-.2.5l-.3.5c-.4.8-1.1 1.5-1.9 2.3-.9.8-2 1.5-3.3 2.1-2.5 1.3-5.7 2.3-9.2 3-1.7.3-3.5.7-5.4.8-1.8.2-3.7.3-5.6.4-1.9 0-3.8 0-5.6-.1-1.9-.1-3.7-.3-5.4-.5-3.5-.5-6.7-1.2-9.4-2.1-1.3-.4-2.5-.9-3.6-1.4l-1.5-.7-1.2-.6c-.7-.4-1.3-.8-1.6-1-.4-.2-.6-.4-.6-.4l.6.3c.4.2 1 .5 1.7.7.4.1.8.3 1.3.5l1.5.5c1.1.3 2.3.7 3.6 1 1.3.3 2.8.6 4.4.9 1.6.3 3.2.5 4.9.6 1.7.2 3.5.3 5.3.3 1.8.1 3.7.1 5.5 0 1.8 0 3.7-.1 5.5-.3 1.8-.2 3.6-.4 5.3-.7 1.7-.3 3.3-.6 4.8-1s2.9-.9 4.2-1.4c1.3-.5 2.4-1.1 3.3-1.7.9-.6 1.6-1.3 2.1-2l.3-.5c.1-.2.1-.3.2-.4.1-.3.2-.5.3-.7l.2-.4zM420 741.1s.2.2.7.5c.4.3 1.1.8 1.5 1.7.2.5.4 1 .4 1.7 0 .6-.3 1.3-.7 1.9-.9 1.2-2.2 2.2-3.7 3-1.5.8-3.3 1.6-5.1 2.2-1.9.6-3.9 1.2-6 1.6-4.2.9-8.8 1.5-13.4 1.4-2.3 0-4.6-.3-6.8-.6s-4.4-.7-6.5-1.2c-4.2-1-8-2.4-11-4.3-1.5-.9-2.8-2.1-3.4-3.5-.3-.7-.4-1.4-.3-2.1.1-.6.4-1.2.7-1.6.6-.8 1.3-1.3 1.7-1.6.4-.3.7-.5.7-.5s-.2.2-.6.5c-.4.4-.9.9-1.4 1.7-.5.8-.7 2-.1 3.1s1.9 2 3.3 2.8c2.9 1.6 6.7 2.7 10.8 3.6 2.1.4 4.2.8 6.4 1.1 2.2.3 4.4.5 6.6.5 2.2 0 4.5-.1 6.6-.3 2.2-.2 4.3-.5 6.4-.9 4.1-.7 7.9-1.8 11-3.2 1.5-.7 2.8-1.5 3.6-2.5.4-.5.7-1 .8-1.6.1-.5 0-1.1-.2-1.5-.4-.9-.9-1.5-1.3-1.8-.5 0-.7-.1-.7-.1z" opacity=".5"/><path stroke="#364A1E" stroke-width="1.171" stroke-miterlimit="10" d="M235.8 591.3c-6.3-2.8-7.3-50.9 31-54.5M285.7 634.2c-.2-10.5 21.5-30 40.1-22.7M337.3 695.7c-1.2 5.2-23.8 10.8-35.1 3.5" fill="none"/><path stroke="#364A1E" stroke-width="4.705" stroke-miterlimit="10" d="M336.8 719c.1 0 .2-.1.2-.2.4-5 8.6-124.7-50.2-169.8-57.1-43.8-104.5-1.6-79.4 24.7s98.3 21 93.8 145.3c4.1 1.6 11.3 3.9 20.4 3.4 6.4-.4 11.7-1.9 15.2-3.4z" fill="none"/><path fill="#E5EAD8" stroke="#364A1E" stroke-width="3.764" stroke-miterlimit="10" d="M410.5 740c2.3-80.2 33.5-134 49-185.7 24.5-81.7 18.8-160.3-74.4-217.1-63.9-38.9-125.2-26-126.6 5.3-1.3 27.9 37.7 37.7 83.7 49.6 80 20.7 109.1 93.5 75.4 180.8-33.9 87.9-40.9 133.9-40.5 167.9 2.1 1.4 9.5 5 19.5 3.8 6.9-.7 11.7-3 13.9-4.6z"/><path opacity=".61" fill="#B6C495" d="M261.4 332.3c-16.2 36.9 34.8 47.9 80.8 59.8 80 20.7 109.1 93.5 75.4 180.8-33.9 87.9-40.9 133.9-40.5 167.9 2.1 1.4 6 3.5 13.2 4 0 0 2-49.8 17.4-96.9s53.2-129 30.3-191.7c-9.3-25.4-25.7-59.2-68.2-73.5-56.6-19.1-111.2-25.2-108.4-50.4z"/><path stroke="#364A1E" stroke-width="1.171" stroke-miterlimit="10" d="M294.5 378.8c-16.8-11.1-3.9-64.9 20.2-64.9M371.4 401.9c-5.5-8-2-25.1 6.7-36.3 9-11.6 23.4-16.1 32.6-9.8M426.7 470.2c1.1-7.3 11.8-15 22.4-16.7 10.9-1.8 21.3 3.1 23.1 11.3M449.7 586c-3.9 4.3-14.1 4.3-21.4.4-7.6-4-11.9-12-9.4-18.4M418.7 676.7c-2.8 4.6-11.9 6.4-19.3 4.3-7.6-2.2-13-8.7-11.8-14.9" fill="none"/><path stroke="#364A1E" stroke-width="4.705" stroke-miterlimit="10" d="M410.5 740c2.3-80.2 33.5-134 49-185.7 24.5-81.7 18.8-160.3-74.4-217.1-63.9-38.9-125.2-26-126.6 5.3-1.3 27.9 37.7 37.7 83.7 49.6 80 20.7 109.1 93.5 75.4 180.8-33.9 87.9-40.9 133.9-40.5 167.9 2.1 1.4 9.5 5 19.5 3.8 6.9-.7 11.7-3 13.9-4.6z" fill="none"/><path fill="#E5EAD8" stroke="#364A1E" stroke-width="3.764" stroke-miterlimit="10" d="M1145.5 719c-.1 0-.2-.1-.2-.2-.4-5-8.6-124.7 50.2-169.8 57.1-43.8 104.5-1.6 79.4 24.7s-98.3 21-93.8 145.3c-4.1 1.6-11.3 3.9-20.4 3.4-6.4-.4-11.7-1.9-15.2-3.4z"/><path opacity=".61" fill="#B6C495" d="M1166.8 722.3c5.3.7 10.2-1.5 14.3-3.2-4.5-124.3 68.7-118.9 93.8-145.3 11.2-11.7 8-26.5-4-35.5 0 0 18.3 19.2-21.1 37-39.4 18-80.1 39.6-83 147z"/><path fill="#364A1E" d="M1133.3 719.3s.1.2.1.7c0 .2.1.5.3.7l.2.4c.1.1.2.3.3.5.4.7 1.2 1.3 2.1 2 .9.6 2 1.2 3.3 1.7 1.3.5 2.7 1 4.2 1.4 1.5.4 3.2.7 4.8 1 1.7.3 3.5.5 5.3.7 1.8.2 3.6.3 5.5.3 1.8.1 3.7.1 5.5 0 1.8-.1 3.6-.2 5.3-.3 1.7-.2 3.4-.4 4.9-.6 1.6-.3 3-.5 4.4-.9 1.3-.3 2.6-.7 3.6-1l1.5-.5c.5-.2.9-.3 1.3-.5.8-.3 1.3-.6 1.7-.7l.6-.3s-.2.1-.6.4l-1.6 1-1.2.6c-.5.2-.9.4-1.5.7-1 .5-2.3.9-3.6 1.4-2.7.9-5.9 1.6-9.4 2.1-1.8.2-3.6.4-5.4.5-1.9.1-3.7.1-5.6.1-1.9-.1-3.8-.2-5.6-.4-1.8-.2-3.6-.5-5.4-.8-3.5-.7-6.7-1.7-9.2-3-1.3-.6-2.4-1.4-3.3-2.1-.9-.8-1.6-1.6-1.9-2.3-.1-.2-.2-.4-.3-.5-.1-.2-.1-.4-.2-.5-.1-.3-.2-.6-.2-.8.1-.8.1-1 .1-1zM1062.3 741.1l-.6.6c-.4.4-.9 1-1.3 1.8-.2.4-.3 1-.2 1.5.1.5.4 1.1.8 1.6.8 1 2.2 1.8 3.6 2.5 3 1.4 6.8 2.4 11 3.2 2.1.4 4.2.7 6.4.9 2.2.2 4.4.3 6.6.3 2.2 0 4.4-.2 6.6-.5 2.2-.3 4.3-.7 6.4-1.1 4.1-.9 7.9-2 10.8-3.6 1.4-.8 2.7-1.7 3.3-2.8.7-1.1.4-2.3-.1-3.1-.5-.8-1-1.4-1.4-1.7-.4-.4-.6-.5-.6-.5s.2.1.7.5c.4.3 1.1.8 1.7 1.6.3.4.6.9.7 1.6.1.6 0 1.4-.3 2.1-.6 1.4-1.9 2.5-3.4 3.5-3 1.9-6.8 3.2-11 4.3-2.1.5-4.3.9-6.5 1.2-2.2.3-4.5.6-6.8.6-4.6 0-9.2-.5-13.4-1.4-2.1-.4-4.1-1-6-1.6-1.9-.6-3.6-1.4-5.1-2.2-1.5-.8-2.8-1.8-3.7-3-.4-.6-.7-1.3-.7-1.9 0-.7.1-1.2.4-1.7.5-.9 1.1-1.4 1.5-1.7.4-.9.6-1 .6-1z" opacity=".5"/><path stroke="#364A1E" stroke-width="1.171" stroke-miterlimit="10" d="M1246.5 591.3c6.3-2.8 7.3-50.9-31-54.5M1196.6 634.2c.2-10.5-21.5-30-40.1-22.7M1145 695.7c1.2 5.2 23.8 10.8 35.1 3.5" fill="none"/><path stroke="#364A1E" stroke-width="4.705" stroke-miterlimit="10" d="M1145.5 719c-.1 0-.2-.1-.2-.2-.4-5-8.6-124.7 50.2-169.8 57.1-43.8 104.5-1.6 79.4 24.7s-98.3 21-93.8 145.3c-4.1 1.6-11.3 3.9-20.4 3.4-6.4-.4-11.7-1.9-15.2-3.4z" fill="none"/><path fill="#E5EAD8" stroke="#364A1E" stroke-width="3.764" stroke-miterlimit="10" d="M1071.8 740c-2.3-80.2-33.5-134-49-185.7-24.5-81.7-18.8-160.3 74.4-217.1 63.9-38.9 125.2-26 126.6 5.3 1.3 27.9-37.7 37.7-83.7 49.6-80 20.7-109.1 93.5-75.4 180.8 33.9 87.9 40.9 133.9 40.5 167.9-2.1 1.4-9.5 5-19.5 3.8-6.9-.7-11.7-3-13.9-4.6z"/><path opacity=".61" fill="#B6C495" d="M1220.9 332.3c16.2 36.9-34.8 47.9-80.8 59.8-80 20.7-109.1 93.5-75.4 180.8 33.9 87.9 40.9 133.9 40.5 167.9-2.1 1.4-6 3.5-13.2 4 0 0-2-49.8-17.4-96.9s-53.2-129-30.3-191.7c9.3-25.4 25.7-59.2 68.2-73.5 56.6-19.1 111.2-25.2 108.4-50.4z"/><path stroke="#364A1E" stroke-width="1.171" stroke-miterlimit="10" d="M1187.8 378.8c16.8-11.1 3.9-64.9-20.2-64.9M1110.9 401.9c5.5-8 2-25.1-6.7-36.3-9-11.6-23.4-16.1-32.6-9.8M1055.6 470.2c-1.1-7.3-11.8-15-22.4-16.7-10.9-1.8-21.3 3.1-23.1 11.3M1032.6 586c3.9 4.3 14.1 4.3 21.4.4 7.6-4 11.9-12 9.4-18.4M1063.6 676.7c2.8 4.6 11.9 6.4 19.3 4.3 7.6-2.2 13-8.7 11.8-14.9" fill="none"/><path stroke="#364A1E" stroke-width="4.705" stroke-miterlimit="10" d="M1071.8 740c-2.3-80.2-33.5-134-49-185.7-24.5-81.7-18.8-160.3 74.4-217.1 63.9-38.9 125.2-26 126.6 5.3 1.3 27.9-37.7 37.7-83.7 49.6-80 20.7-109.1 93.5-75.4 180.8 33.9 87.9 40.9 133.9 40.5 167.9-2.1 1.4-9.5 5-19.5 3.8-6.9-.7-11.7-3-13.9-4.6z" fill="none"/></svg>