<svg width="326" height="301" viewBox="0 0 326 301" xmlns="http://www.w3.org/2000/svg" xmlns:sketch="http://www.bohemiancoding.com/sketch/ns"><title>Imported Layers</title><desc>Created with Sketch.</desc><g sketch:type="MSLayerGroup" fill="none"><path d="M170.038 230.424c-5.555 0-11.034.077-16.424.226-.705 2.635-1.442 5.137-2.208 7.514-6.306 19.568-14.621 30.724-22.417 38.566-4.276 4.305-8.294 7.371-11.93 9.374-3.638 2.001-6.899 2.949-9.686 2.953-1.56 0-2.976-.304-4.194-.908-1.218-.601-2.231-1.509-2.96-2.654-1.181-1.845-1.807-3.892-1.805-6.046 0-2.345.724-4.783 2.115-7.298 1.394-2.518 3.458-5.129 6.209-7.864 7.555-7.512 16.529-17.623 24.307-32.56-8.866.606-17.393 1.416-25.472 2.405-7.722 8.923-15.358 14.225-21.673 17.709-6.965 3.845-12.772 5.481-17.23 5.486-2.402-.001-4.424-.478-6.005-1.398-1.579-.913-2.705-2.302-3.207-3.974-.305-1.001-.461-2.008-.461-3.009-.003-1.958.606-3.868 1.773-5.673-20.108 5.995-32.161 13.645-32.161 21.98 0 19.236 64.215 34.828 143.428 34.828s143.428-15.592 143.428-34.828c0-16.187-45.481-29.796-107.104-33.702 9.336 17.281 20.143 28.184 29.011 35.992 3.041 2.677 5.323 5.265 6.866 7.798 1.54 2.53 2.344 5.03 2.344 7.465.002 1.919-.506 3.774-1.468 5.496-.716 1.289-1.783 2.32-3.101 3.001-1.321.684-2.883 1.028-4.633 1.028-2.745-.002-5.961-.839-9.571-2.618-3.61-1.781-7.615-4.512-11.921-8.352-9.531-8.486-19.998-21.35-27.995-46.72-.414-1.312-.822-2.658-1.223-4.038-4.813-.119-9.692-.179-14.633-.179" fill="#ECECEC" sketch:type="MSShapeGroup"/><path d="M307.978 145.513c-37.997-2.644-69.487-54.247-70.892-56.396l4.992-7.703c19.271 29.257 46.735 51.855 62.865 54.858 1.211 3.544 2.404 5.456 3.035 9.241" fill="#DBE3CB" sketch:type="MSShapeGroup"/><path d="M237.478 84.026c7.756 12.655 32.125 42.791 55.749 53.799 2.793 1.301 7.944 3.345 14.068 4.021.268 1.281.504 2.574.718 3.873-35.344-3.684-62.606-44.072-70.927-56.602l.391-5.091" fill="#A5B98C" sketch:type="MSShapeGroup"/><path d="M304.316 133.382c-18.621-4.133-35.468-18.994-47.872-33.571-5.022-5.897-9.587-12.219-13.659-18.865l-1.414.937c4.118 6.722 8.735 13.117 13.818 19.085 12.533 14.704 29.555 29.825 48.776 34.12l.351-1.706M236.361 89.556c7.235 12.955 17.153 23.193 27.176 33.563 10.978 11.353 26.173 20.795 43.297 23.127l.217-1.729c-16.664-2.263-31.571-11.501-42.332-22.635-10.028-10.371-19.821-20.504-26.908-33.203l-1.45.877M271.79 116.14c-.019.01-1.217.595-2.425 1.833-1.206 1.234-2.431 3.146-2.431 5.766 0 .394.028.805.089 1.233l.602-.091c-.056-.397-.082-.777-.082-1.141.001-2.405 1.116-4.15 2.25-5.315.566-.581 1.135-1.012 1.561-1.295.212-.142.389-.247.511-.316l.14-.077.045-.024-.259-.572v-.001M295.671 131.494c-.031.028-2.554 2.273-2.558 6.5 0 1.119.178 2.375.627 3.755l.578-.203c-.429-1.319-.595-2.504-.596-3.553.001-1.976.592-3.481 1.182-4.498.295-.508.59-.891.809-1.147l.262-.285.071-.069.02-.019-.394-.482h-.001M304.311 133.381c-11.368-2.451-23.327-9.793-34.143-19.421-10.818-9.624-20.498-21.523-27.378-33.007l-1.423.923c6.979 11.645 16.751 23.656 27.711 33.409 10.962 9.749 23.104 17.251 34.892 19.803l.341-1.707M236.383 89.592c10.682 17.124 16.495 22.708 27.16 33.532 11.071 11.237 26.162 20.788 43.291 23.122l.217-1.729c-16.661-2.263-31.468-11.604-42.337-22.641-10.693-10.862-16.291-16.204-26.925-33.234l-1.406.95M257.442 102.04c-.023.009-1.203.419-2.399 1.474-1.195 1.049-2.408 2.776-2.406 5.342 0 .393.028.805.089 1.238l.603-.091c-.057-.404-.083-.785-.083-1.147.003-2.349 1.087-3.88 2.192-4.859.551-.487 1.106-.828 1.52-1.046.207-.11.379-.187.498-.238l.137-.055.042-.016-.192-.6v-.001" fill="#2B3F22" sketch:type="MSShapeGroup"/><path d="M320.296 136.627l-5.899 19.443c-.166.152-.383.227-.603.211l-37.085-3.2c-.266-.02-.506-.173-.644-.412l-3.097-20.617" fill="#5F8C45" sketch:type="MSShapeGroup"/><path d="M319.46 136.353l-5.898 19.443.835.274-.578-.685.033.039v-.052l-.033.013.033.039v-.052l-.02-.001-.039.909.072-.908-37.085-3.2-.009-.001-.004.055.046-.028-.042-.026-.004.055.046-.028-.75.47.865-.141-3.097-20.617-1.729.281 3.123 20.795.089.152c.284.491.78.808 1.331.849l.063-.908-.072.907 37.101 3.202.017.001.097.003c.411 0 .809-.154 1.121-.438l.184-.169 5.972-19.685-1.669-.548h-.001" fill="#2B3F22" sketch:type="MSShapeGroup"/><path d="M272.92 131.61l7.873-33.522c.071-.363.391-.614.746-.583l35.83 2.726c.361.032.639.345.641.722l2.596 35.065c.002.429-.352.767-.763.73l-46.299-4.269c-.416-.038-.707-.444-.625-.869" fill="#5F8C45" sketch:type="MSShapeGroup"/><path d="M272.92 131.61l.851.215 7.877-33.539.004-.019-.172-.037v.182c.085 0 .154-.061.172-.145l-.172-.037v.182-.193l-.008.193h.008v-.193l-.008.193.021-.528-.063.523.042.005.021-.528-.063.523.02.003 35.856 2.728.064-.908-.075.907.015-.181-.175.001c.001.095.069.172.16.18l.015-.181-.175.001v.03l2.598 35.1.873-.069h-.876.176v-.179c-.1 0-.174.082-.176.179h.176v-.179l-.008-.001-.054.909.077-.908-46.299-4.268-.016.183h.175c0-.099-.068-.172-.159-.183l-.016.183h.175-.217l.212.047.005-.047h-.217l.212.047-.856-.193.851.215-.851-.215-.856-.194c-.025.121-.034.234-.034.339 0 .835.609 1.551 1.437 1.631l46.323 4.272-.001-.001.117.004c.865-.002 1.575-.729 1.576-1.642v-.036l-2.598-35.1-.873.07.875-.005c-.004-.849-.629-1.553-1.442-1.625l-.011-.001-35.829-2.725-.064.908.11-.904-.169-.01c-.746.001-1.394.546-1.544 1.316l.858.181-.851-.216-7.875 33.531-.004.015.856.194" fill="#2B3F22" sketch:type="MSShapeGroup"/><path d="M298.93 107.933c5.794.057 10.453 4.221 10.407 9.301-.046 5.08-4.78 9.152-10.573 9.096-5.794-.057-10.454-4.221-10.407-9.301.046-5.08 4.78-9.152 10.573-9.096" fill="#5F8C45" sketch:type="MSShapeGroup"/><path d="M298.93 107.933l-.008.895c2.687.026 5.097 1.003 6.815 2.528 1.719 1.529 2.738 3.573 2.739 5.803l.001.09.86-.016-.861-.008c-.021 2.23-1.056 4.256-2.783 5.761-1.726 1.501-4.135 2.449-6.81 2.448h-.124l.005.895.008-.895c-2.688-.026-5.098-1.003-6.816-2.528-1.72-1.53-2.739-3.574-2.74-5.803v-.034l.001-.019v-.014c.021-2.231 1.056-4.256 2.783-5.762 1.726-1.501 4.136-2.449 6.81-2.448l.111.001.008-.895.018-.896h-.138c-3.065 0-5.859 1.078-7.914 2.864-2.054 1.78-3.377 4.304-3.4 7.119l.86.008-.86-.041-.001.116c-.002 2.816 1.301 5.358 3.343 7.166 2.045 1.812 4.838 2.925 7.916 2.956h.127c3.065-.001 5.859-1.079 7.914-2.864 2.054-1.781 3.377-4.304 3.401-7.119v-.083c.001-2.816-1.301-5.358-3.343-7.166-2.045-1.812-4.838-2.925-7.916-2.956l-.008.896.018-.896-.018.896" fill="#2B3F22" sketch:type="MSShapeGroup"/><path d="M298.912 106.523c5.145.05 9.283 3.749 9.242 8.26-.04 4.512-4.245 8.128-9.389 8.078-5.145-.05-9.283-3.748-9.242-8.259.041-4.512 4.245-8.129 9.39-8.079" fill="#5F8C45" sketch:type="MSShapeGroup"/><path d="M298.912 106.523l-.008.896c2.365.022 4.483.882 5.99 2.221 1.509 1.343 2.398 3.13 2.399 5.077v.076l.86-.009-.86-.008c-.018 1.948-.922 3.719-2.437 5.041-1.514 1.318-3.633 2.151-5.986 2.15h-.105.008c-2.365-.023-4.484-.883-5.991-2.221-1.509-1.343-2.398-3.13-2.399-5.078v-.057c.018-1.948.922-3.719 2.437-5.041 1.514-1.318 3.633-2.151 5.986-2.15l.102.001h-.004l.008-.896.025-.895-.132-.001c-2.744.001-5.246.966-7.089 2.567-1.842 1.597-3.033 3.865-3.054 6.398l.86.009-.86-.037-.001.102c-.001 2.534 1.171 4.819 3.004 6.441 1.834 1.626 4.336 2.621 7.091 2.65h.114c2.744-.001 5.246-.966 7.09-2.567 1.841-1.597 3.033-3.865 3.054-6.398v-.075c.001-2.534-1.172-4.818-3.004-6.44-1.834-1.625-4.336-2.621-7.091-2.649l-.008.895.025-.895-.025.895" fill="#2B3F22" sketch:type="MSShapeGroup"/><path d="M273.793 136.855l13.758.998" fill="#5F8C45" sketch:type="MSShapeGroup"/><path d="M273.766 137.238l13.758.997.052-.764-13.758-.998" fill="#2B3F22" sketch:type="MSShapeGroup"/><path d="M288.08 138.907c-.539-.037-.951-.463-.92-.952.031-.488.493-.855 1.033-.817.539.037.951.463.92.952-.031.488-.493.855-1.033.817" fill="#5F8C45" sketch:type="MSShapeGroup"/><path d="M288.08 138.907l.023-.357c-.182-.013-.338-.089-.443-.192-.105-.105-.157-.227-.158-.352l.001-.015-.011-.001.011.002.001-.001-.011-.001.011.002.002-.015c.008-.125.066-.238.175-.331.108-.092.263-.155.44-.155l.047.002h.006c.182.013.337.089.442.193.105.104.157.226.158.352l-.002.038.344.014-.343-.024c-.009.125-.067.237-.175.331-.108.092-.264.154-.44.154l-.057-.002-.018.357.023-.357-.023.357-.018.357.093.003c.33 0 .638-.114.875-.316.237-.2.405-.497.426-.837v-.011l.002-.065c0-.342-.148-.652-.374-.872-.225-.222-.53-.362-.869-.385l-.022.357.028-.357-.104-.004c-.331 0-.639.114-.876.316-.236.2-.404.498-.425.839l.343.023-.342-.037-.004.089c0 .342.148.652.374.872.226.221.531.362.869.385h.005l.018-.357" fill="#2B3F22" sketch:type="MSShapeGroup"/><path d="M320.128 137.638c.402-1.15.18-.571.342-1.6 2.006-12.68-5.613-23.474-25.258-25.053-21.535-1.73-24.132-17.423-9.32-21.961 22.422-6.871 41.38 10.695 37.746 37.724-.361 2.678-.463 8.691-3.511 10.889" fill="#DBE3CB" sketch:type="MSShapeGroup"/><path d="M276.048 101.071c.819 3.079 2.689 5.289 5.064 6.825 3.569 2.31 8.263 3.25 12.843 3.946 4.575.685 9.063 1.122 12.063 2.21 4.084 1.47 7.59 3.973 10.062 7.145 2.473 3.176 3.919 7.01 3.92 11.212 0 1.877-.29 3.831-.914 5.84l1.596.537c.676-2.174.995-4.312.995-6.377.001-4.625-1.605-8.862-4.295-12.311-2.69-3.45-6.458-6.126-10.816-7.695-2.222-.798-4.963-1.238-7.891-1.654-4.389-.619-9.199-1.18-13.112-2.605-1.957-.71-3.681-1.632-5.031-2.849-1.35-1.221-2.338-2.721-2.869-4.693l-1.615.468" fill="#2B3F22" sketch:type="MSShapeGroup"/><path d="M321.869 134.21s2.844-12.887-8.416-21.005c-8.499-6.127-17.19-5.467-24.595-6.415-7.405-.948-11.316-5.618-11.477-8.367 0 0-3.095 8.569 11.207 11.462 12.038 2.435 19.423 1.324 26.048 8.105 8.786 8.993 5.834 18.048 5.834 18.048s.661-1.123 1.398-1.829" fill="#A5B98C" sketch:type="MSShapeGroup"/><path d="M289.613 110.621c.659-.205 1.36-.73 2.077-1.496 2.137-2.296 4.396-6.822 4.402-11.836.001-3.211-.944-6.622-3.462-9.702l-.505.446c2.41 2.954 3.301 6.181 3.303 9.256.001 3.195-.973 6.221-2.226 8.521-.626 1.15-1.32 2.119-1.988 2.834-.665.717-1.312 1.172-1.788 1.314l.187.663v-.001M318.196 122.765c.086.133.21.198.323.233.115.036.234.047.366.047.617-.004 1.566-.272 2.645-.733 1.073-.463 2.256-1.124 3.259-1.936l-.374-.499c-.946.766-2.088 1.406-3.119 1.85-1.025.446-1.961.689-2.412.686l-.191-.021-.017-.006-.003-.001-.047.086.077-.053-.03-.033-.047.086.077-.053-.508.348M320.709 138.625c3.195-5.812 4.719-12.178 4.719-18.399 0-8.047-2.548-15.859-7.343-21.925-4.791-6.067-11.847-10.372-20.752-11.376-1.1-.124-2.279-.191-3.499-.191-3.977.004-8.396.694-11.925 2.471-1.762.891-3.309 2.063-4.427 3.592-1.119 1.525-1.785 3.417-1.781 5.607 0 .388.02.785.062 1.193.318 3.216 1.821 5.643 3.937 7.352 3.176 2.572 7.648 3.701 12.032 4.441 4.379.729 8.711 1.053 11.461 1.787 4.662 1.234 8.893 3.67 11.932 6.966 3.04 3.3 4.895 7.429 4.898 12.165 0 1.788-.266 3.666-.843 5.628l1.604.51c.623-2.116.916-4.171.916-6.138.003-5.224-2.073-9.812-5.365-13.373-3.292-3.566-7.792-6.138-12.727-7.448-2.011-.531-4.584-.837-7.359-1.203-4.158-.541-8.757-1.219-12.334-2.809-1.789-.793-3.313-1.805-4.426-3.105-1.114-1.303-1.844-2.885-2.059-4.957-.036-.349-.053-.684-.053-1.008.004-1.831.529-3.299 1.439-4.552 1.363-1.874 3.67-3.244 6.382-4.117 2.708-.876 5.796-1.258 8.635-1.257 1.162 0 2.283.064 3.318.181 8.487.964 15.105 5.02 19.639 10.75 4.531 5.729 6.961 13.151 6.961 20.816 0 5.926-1.451 11.991-4.497 17.532l1.455.866" fill="#2B3F22" sketch:type="MSShapeGroup"/><path d="M48.677 91.993l17.706 8.742c.122.192.164.425.118.65l-8.129 37.774c-.055.272-.234.499-.479.608l-20.058.366" fill="#5F8C45" sketch:type="MSShapeGroup"/><path d="M48.302 92.815l17.707 8.742.375-.823-.73.501.044-.03h-.053l.009.03.044-.03h-.053.019l-.019-.005v.005h.019l-.019-.005-8.125 37.759-.002.01.051.011-.02-.05-.031.039.051.011-.02-.05.346.836-.016-.91-20.057.365.031 1.822 20.229-.369.158-.071c.506-.226.876-.694.991-1.255l-.857-.189.854.199 8.129-37.774.004-.016c.023-.117.035-.238.035-.362 0-.343-.096-.681-.28-.972l-.135-.213-17.927-8.851-.75 1.645" fill="#2B3F22" sketch:type="MSShapeGroup"/><path d="M37.409 140.123l-30.842-12.706c-.336-.122-.53-.488-.452-.848l7.505-36.547c.08-.367.416-.611.776-.562l33.747 2.13c.409.057.682.467.59.885l-10.408 47.123c-.094.424-.52.668-.915.525" fill="#5F8C45" sketch:type="MSShapeGroup"/><path d="M37.409 140.123l.323-.846-30.863-12.715-.013-.004-.058.172h.175l-.117-.172-.058.172h.175-.219l.212.052.007-.052h-.219l.212.052.002-.008 7.508-36.561-.856-.191.854.201-.172-.04v.182c.084 0 .153-.058.172-.142l-.172-.04v.182-.246l-.034.243.034.003v-.246l-.034.243.037.005 33.784 2.132.054-.908-.116.902.024-.182h-.176c-.001.093.063.166.152.182l.024-.182h-.176.125l-.123-.028-.002.028h.125l-.123-.028-10.405 47.112.169.04.001-.182c-.081-.001-.149.056-.17.142l.169.04.001-.182v.175l.055-.166-.055-.009v.175l.055-.166-.287.861.323-.846-.323.846-.286.86c.169.06.343.091.518.091.712.001 1.363-.506 1.535-1.272l10.409-47.124.003-.011c.023-.113.037-.233.037-.357.001-.805-.568-1.51-1.367-1.623l-.033-.005-33.776-2.132-.053.909.127-.901-.221-.016c-.729 0-1.371.524-1.536 1.279l-.004.02-7.503 36.537.857.19-.851-.213c-.03.131-.042.257-.042.373 0 .685.413 1.311 1.056 1.547l.29-.859-.323.846 30.863 12.714.016.005.286-.86" fill="#2B3F22" sketch:type="MSShapeGroup"/><path d="M18.427 110.076c.848-5.961 5.452-10.192 10.283-9.449 4.832.744 8.061 6.179 7.213 12.142-.848 5.962-5.452 10.192-10.283 9.449-4.831-.743-8.061-6.179-7.213-12.142" fill="#5F8C45" sketch:type="MSShapeGroup"/><path d="M18.427 110.076l.851.131c.364-2.567 1.475-4.775 2.983-6.326 1.51-1.554 3.395-2.444 5.343-2.444.325 0 .651.025.979.076 1.909.295 3.542 1.409 4.726 3.074 1.181 1.664 1.89 3.876 1.889 6.283 0 .579-.041 1.171-.126 1.769-.364 2.566-1.476 4.773-2.983 6.326-1.51 1.554-3.395 2.443-5.344 2.443-.324 0-.651-.025-.98-.075-1.906-.295-3.539-1.409-4.724-3.074-1.181-1.664-1.89-3.876-1.889-6.283 0-.58.041-1.171.126-1.767l-.851-.132-.851-.131c-.097.684-.145 1.363-.145 2.031.001 2.77.81 5.348 2.226 7.345 1.411 1.995 3.453 3.414 5.858 3.783.412.063.822.094 1.231.094 2.462-.001 4.774-1.125 6.555-2.962 1.784-1.839 3.056-4.397 3.474-7.336.097-.685.145-1.362.145-2.03-.001-2.771-.81-5.349-2.225-7.345-1.412-1.995-3.453-3.414-5.858-3.783-.413-.064-.824-.094-1.231-.094-2.461 0-4.773 1.125-6.554 2.961-1.784 1.839-3.056 4.398-3.475 7.337l.851.131" fill="#2B3F22" sketch:type="MSShapeGroup"/><path d="M17.081 109.903c.753-5.295 4.842-9.052 9.133-8.392 4.29.66 7.158 5.487 6.406 10.782-.753 5.295-4.842 9.052-9.133 8.392-4.29-.66-7.158-5.487-6.406-10.782" fill="#5F8C45" sketch:type="MSShapeGroup"/><path d="M17.081 109.903l.851.131c.32-2.258 1.298-4.199 2.622-5.562 1.325-1.364 2.975-2.141 4.677-2.14.284 0 .568.021.854.066 1.669.257 3.095 1.23 4.134 2.69 1.036 1.459 1.659 3.403 1.658 5.52 0 .509-.036 1.03-.11 1.557-.32 2.257-1.299 4.198-2.622 5.56-1.326 1.364-2.976 2.141-4.678 2.141-.284 0-.569-.022-.856-.066-1.666-.257-3.092-1.23-4.131-2.691-1.037-1.459-1.66-3.403-1.659-5.52 0-.509.036-1.03.111-1.554l-.851-.131-.851-.132c-.088.613-.13 1.221-.13 1.818.001 2.481.725 4.791 1.995 6.583 1.267 1.79 3.102 3.067 5.265 3.399.37.057.74.084 1.107.084 2.214 0 4.292-1.012 5.89-2.659 1.599-1.649 2.738-3.941 3.112-6.571.087-.614.129-1.22.129-1.818-.001-2.481-.725-4.79-1.994-6.582-1.267-1.79-3.103-3.068-5.265-3.399-.371-.058-.742-.085-1.108-.085-2.215 0-4.292 1.013-5.889 2.66-1.599 1.649-2.738 3.941-3.112 6.571l.851.131" fill="#2B3F22" sketch:type="MSShapeGroup"/><path d="M42.524 139.943l2.835-14.041" fill="#5F8C45" sketch:type="MSShapeGroup"/><path d="M42.884 140.021l2.835-14.04-.721-.158-2.835 14.04" fill="#2B3F22" sketch:type="MSShapeGroup"/><path d="M46.436 125.501c-.109.551-.571.917-1.033.817-.461-.099-.746-.625-.637-1.176.11-.551.572-.917 1.033-.818.462.1.747.626.637 1.177" fill="#5F8C45" sketch:type="MSShapeGroup"/><path d="M46.436 125.501l-.336-.073c-.068.347-.33.554-.545.549l-.084-.009.003.001c-.206-.04-.384-.27-.387-.591l.017-.161v-.003c.068-.347.33-.554.544-.549l.079.008.004.001c.205.039.384.269.386.59l-.017.166.337.07.337.07.03-.307c.003-.595-.351-1.161-.935-1.29l-.069.35.073-.35-.225-.025c-.599.005-1.092.487-1.217 1.12v-.003l-.031.31c-.003.595.351 1.161.935 1.291h.002l.219.023c.599-.005 1.092-.485 1.218-1.118l-.337-.072" fill="#2B3F22" sketch:type="MSShapeGroup"/><path d="M112.067 87.234c-1.287 2.544-35.903 67.934-75.555 65.324-28.656-1.887-42.753-34.169-31.866-55.685 7.192-14.214 21.471-8.478 18.865 13.826-2.378 20.347 6.296 30.242 18.643 30.691 14.065.511 45.085-20.758 64.121-61.228" fill="#DBE3CB" sketch:type="MSShapeGroup"/><path d="M112.067 87.234c-1.287 2.544-35.967 68.828-75.555 65.324-31.378-2.778-47.25-41.499-26.378-62.186-8.638 8.092-8.833 34.606 5.114 48.24 3.279 3.207 10.627 9.233 22.901 10.072 10.33.706 19.42-4.053 23.389-6.492 22.286-13.698 43.249-46.49 49.589-59.971" fill="#A5B98C" sketch:type="MSShapeGroup"/><path d="M23.683 104.595c-.376.769-1.669 1.802-3.479 2.581-1.809.787-4.132 1.357-6.586 1.356-3.852-.004-8.007-1.386-11.131-5.499l-.52.427c3.261 4.3 7.653 5.766 11.652 5.762 2.552-.001 4.952-.589 6.842-1.41 1.89-.831 3.272-1.858 3.809-2.897l-.586-.32M111.325 86.827c-.602 1.194-9.231 17.517-22.48 33.471-6.624 7.978-14.406 15.867-22.895 21.74-8.492 5.876-17.672 9.724-27.116 9.722-.754 0-1.511-.025-2.269-.074-10.82-.716-19.48-5.835-25.473-13.079-5.99-7.242-9.282-16.62-9.28-25.769 0-5.429 1.155-10.774 3.578-15.56 1.275-2.521 2.765-4.354 4.296-5.545 1.533-1.192 3.097-1.744 4.577-1.745 1.109.001 2.182.309 3.193.931 1.515.934 2.896 2.6 3.902 5.043 1.006 2.439 1.628 5.645 1.628 9.588 0 1.566-.097 3.248-.307 5.044-.269 2.305-.399 4.483-.399 6.535-.002 8.152 2.058 14.348 5.614 18.56 3.552 4.215 8.567 6.372 14.231 6.573l.532.009c3.77-.005 8.448-1.381 13.691-4.033 15.702-7.964 36.483-27.527 50.681-57.693l-1.506-.766c-9.353 19.883-21.617 35.101-33.293 45.331-5.837 5.115-11.527 8.982-16.617 11.56-5.087 2.581-9.581 3.86-12.956 3.856l-.474-.008c-5.302-.198-9.806-2.168-13.03-5.98-3.221-3.816-5.195-9.55-5.197-17.409 0-1.975.126-4.083.388-6.325.217-1.861.319-3.612.319-5.254-.002-5.509-1.151-9.783-3.029-12.737-.94-1.475-2.066-2.619-3.322-3.394-1.253-.775-2.637-1.176-4.049-1.175-1.889-.001-3.811.712-5.581 2.092-1.774 1.381-3.406 3.424-4.777 6.129-2.56 5.059-3.771 10.688-3.771 16.373.002 9.582 3.431 19.337 9.686 26.906 6.252 7.569 15.361 12.943 26.64 13.683.793.051 1.585.078 2.374.078 9.892-.002 19.377-4.017 28.045-10.014 13.003-9.001 24.222-22.483 32.335-33.952 8.113-11.474 13.1-20.921 13.596-21.899l-1.484-.813M28.759 135.841l.002-.002-.002.001v.001l.002-.002-.002.001c.012.012.064.128.092.307.03.179.047.422.047.709.003 1.502-.486 4.194-1.725 6.498-1.244 2.312-3.189 4.224-6.149 4.376l.03.633c3.223-.162 5.36-2.279 6.651-4.7 1.298-2.43 1.799-5.178 1.802-6.807 0-.335-.021-.624-.065-.864-.049-.239-.102-.433-.255-.601l-.428.45h-.001M80.338 118.749l.05.012c.268.068 1.545.439 2.732 1.422 1.188.987 2.292 2.548 2.295 5.103l-.004.277.609.017.004-.294c.004-2.942-1.4-4.766-2.785-5.804-1.386-1.044-2.751-1.345-2.774-1.352l-.127.62M58.997 137.911l.018.02c.217.224 2.12 2.299 2.117 5.757 0 .713-.081 1.487-.274 2.321l.592.148c.204-.881.29-1.706.29-2.469-.004-3.959-2.3-6.209-2.327-6.238l-.417.462v-.001M60.643 135.843c15.04-9.126 33.451-27.81 46.385-55.298l-1.506-.766c-12.78 27.176-31.014 45.64-45.723 54.557l.845 1.507h-.001M111.325 86.827c-.602 1.194-9.231 17.517-22.48 33.471-6.624 7.978-14.406 15.867-22.895 21.74-8.492 5.876-17.672 9.724-27.116 9.722-.754 0-1.511-.025-2.269-.074-10.82-.716-19.48-5.835-25.473-13.079-5.99-7.242-9.282-16.62-9.28-25.769 0-5.429 1.155-10.774 3.578-15.56 1.275-2.521 2.765-4.354 4.296-5.545 1.533-1.192 3.097-1.744 4.577-1.745 1.109.001 2.182.309 3.193.931 1.515.934 2.896 2.6 3.902 5.043 1.006 2.439 1.628 5.645 1.628 9.588 0 1.566-.097 3.248-.307 5.044-.269 2.305-.399 4.483-.399 6.535-.002 8.152 2.058 14.348 5.614 18.56 3.552 4.215 8.567 6.372 14.231 6.573l.531.009c.549 0 1.117-.03 1.704-.089l-.158-1.736c-.54.053-1.055.079-1.546.079l-.473-.008c-5.302-.198-9.806-2.168-13.03-5.98-3.221-3.816-5.195-9.55-5.197-17.409 0-1.975.126-4.083.388-6.325.217-1.861.319-3.612.319-5.254-.002-5.509-1.151-9.783-3.029-12.737-.94-1.475-2.066-2.619-3.322-3.394-1.253-.775-2.637-1.176-4.049-1.175-1.889-.001-3.811.712-5.581 2.092-1.774 1.381-3.406 3.424-4.777 6.129-2.56 5.059-3.771 10.688-3.771 16.373.002 9.582 3.431 19.337 9.686 26.906 6.252 7.569 15.361 12.943 26.64 13.683.793.051 1.585.078 2.374.078 9.892-.002 19.377-4.017 28.045-10.014 13.003-9.001 24.222-22.483 32.335-33.952 8.113-11.474 13.1-20.921 13.596-21.899l-1.484-.813" fill="#2B3F22" sketch:type="MSShapeGroup"/><path d="M38.069 140.062l20.058-.366c.245-.11.424-.336.48-.608l8.128-37.774c.047-.225.004-.458-.118-.65l-17.513-8.647c-.099-.049-.218.01-.242.121l-10.792 47.924" fill="#5F8C45" sketch:type="MSShapeGroup"/><path d="M38.069 140.062l.016.91 20.228-.369.159-.07c.506-.226.876-.695.991-1.255l-.002.009 8.128-37.774.003-.011c.025-.125.036-.248.036-.366 0-.345-.096-.682-.28-.973l-.134-.213-17.734-8.755.003.001c-.14-.069-.296-.107-.452-.107-.236.001-.459.082-.642.228-.183.146-.327.368-.38.622l.001-.007-11.048 49.062 1.124-.02-.016-.91.852.207 10.792-47.924.002-.006-.687-.162.431.58c.123-.097.221-.25.256-.418l-.687-.162.431.58-.429-.578v.73c.159-.001.307-.055.429-.152l-.429-.578v.73-.731l-.303.66c.09.045.197.071.303.071v-.731l-.303.66.002.001 17.513 8.647.376-.823-.731.501.042-.03-.051.001.009.029.042-.03-.051.001h.046l-.044-.01-.002.01h.046l-.044-.01-8.126 37.763-.003.009.052.012-.02-.051-.032.039.052.012-.02-.051.345.837-.016-.91-20.057.365.015.911.852.207-.852-.207" fill="#2B3F22" sketch:type="MSShapeGroup"/><path d="M42.757 139.872l2.834-14.04" fill="#5F8C45" sketch:type="MSShapeGroup"/><path d="M43.117 139.95l2.835-14.04-.721-.158-2.834 14.041" fill="#2B3F22" sketch:type="MSShapeGroup"/><path d="M46.668 125.43c-.109.551-.571.917-1.032.817-.462-.099-.747-.625-.637-1.176.109-.551.571-.917 1.033-.818.461.1.746.626.636 1.177" fill="#5F8C45" sketch:type="MSShapeGroup"/><path d="M46.668 125.43l-.336-.073c-.068.347-.33.554-.545.549l-.083-.009h.002c-.206-.039-.384-.27-.387-.59l.017-.16v-.004c.068-.347.33-.554.544-.549l.08.008.004.001c.205.04.383.269.385.59l-.017.167.001-.004.336.073.338.069.029-.306c.003-.595-.351-1.161-.934-1.29l-.069.35.073-.349-.226-.025c-.599.005-1.091.486-1.217 1.119l.337.072-.336-.076-.032.311c-.003.595.352 1.161.935 1.291h.003l.219.023c.599-.005 1.092-.485 1.218-1.118l.001-.003-.338-.069" fill="#2B3F22" sketch:type="MSShapeGroup"/><path d="M148.153 76.573s11.079 86.373-9.512 140.777c-8.937 23.616-21.286 37.928-31.161 47.743-7.879 7.832-9.785 14.431-6.367 19.786 3.476 5.446 13.965 4.306 27.13-8.951 19.255-19.388 41.555-58.807 29.176-200.447l-9.267 1.092" fill="#DBE3CB" sketch:type="MSShapeGroup"/><path d="M147.09 76.721l.126 1.043c.566 4.822 2.841 25.825 2.841 51.947.004 27.739-2.58 61.265-12.414 87.231-8.872 23.431-21.086 37.583-30.905 47.345-2.751 2.735-4.815 5.346-6.209 7.864-1.391 2.515-2.115 4.953-2.115 7.298-.003 2.154.623 4.201 1.805 6.046.729 1.145 1.741 2.053 2.96 2.654 1.217.604 2.634.908 4.194.908 2.787-.004 6.047-.951 9.686-2.953 3.636-2.003 7.654-5.069 11.93-9.374 7.796-7.842 16.111-18.998 22.417-38.566 6.311-19.571 10.652-47.555 10.653-89.214 0-20.869-1.091-45.172-3.572-73.569l-2.135.203c2.477 28.341 3.564 52.578 3.564 73.367 0 41.499-4.331 69.253-10.541 88.504-6.218 19.255-14.274 30.01-21.875 37.673-4.16 4.188-8.029 7.127-11.443 9.006-3.414 1.883-6.371 2.695-8.682 2.693-1.296 0-2.387-.251-3.273-.69-.886-.44-1.575-1.063-2.095-1.874-.972-1.529-1.443-3.101-1.446-4.813-.001-1.859.573-3.916 1.829-6.187 1.253-2.268 3.186-4.734 5.832-7.364 9.931-9.867 22.413-24.339 31.417-48.14 10.001-26.444 12.558-60.16 12.563-88.048-.001-30.006-2.982-53.252-2.986-53.284l-2.124.295h-.001" fill="#2B3F22" sketch:type="MSShapeGroup"/><path d="M156.396 113.507s3.748 45.331-2.981 91.592c-7.612 52.33-29.477 70.837-41.107 75.79-10.566 4.501-11.849-1.301-11.849-1.301s-1.474 11.526 12.978 7.019c14.451-4.508 32.323-30.498 37.092-49.233 4.769-18.736 10.996-48.847 10.431-82.642-.566-33.795-1.726-48.621-1.726-48.621l-2.837 7.397" fill="#A5B98C" sketch:type="MSShapeGroup"/><path d="M147.09 76.721l.126 1.043c.566 4.822 2.841 25.825 2.841 51.947.004 27.739-2.58 61.265-12.414 87.231-8.872 23.431-21.086 37.583-30.905 47.345-2.751 2.735-4.815 5.346-6.209 7.864-1.391 2.515-2.115 4.953-2.115 7.298-.003 2.154.623 4.201 1.805 6.046.729 1.145 1.741 2.053 2.96 2.654 1.217.604 2.634.908 4.194.908 2.787-.004 6.047-.951 9.686-2.953 3.636-2.003 7.654-5.069 11.93-9.374 7.796-7.842 16.111-18.998 22.417-38.566 6.311-19.571 10.652-47.555 10.653-89.214 0-20.869-1.091-45.172-3.572-73.569l-2.135.203c2.477 28.341 3.564 52.578 3.564 73.367 0 41.499-4.331 69.253-10.541 88.504-6.218 19.255-14.274 30.01-21.875 37.673-4.16 4.188-8.029 7.127-11.443 9.006-3.414 1.883-6.371 2.695-8.682 2.693-1.296 0-2.387-.251-3.273-.69-.886-.44-1.575-1.063-2.095-1.874-.972-1.529-1.443-3.101-1.446-4.813-.001-1.859.573-3.916 1.829-6.187 1.253-2.268 3.186-4.734 5.832-7.364 9.931-9.867 22.413-24.339 31.417-48.14 10.001-26.444 12.558-60.16 12.563-88.048-.001-30.006-2.982-53.252-2.986-53.284l-2.124.295h-.001M151.213 126.734s.174-.114.485-.288c.935-.523 3.094-1.567 5.276-1.565 1.223.001 2.446.322 3.492 1.234l.229-.283c-1.121-.979-2.439-1.321-3.721-1.321-3.05.005-5.937 1.904-5.951 1.909l.19.314M149.854 165.915c.195-.369.906-.854 1.876-1.201.97-.352 2.198-.595 3.442-.595 2.207.003 4.429.751 5.505 2.911l.375-.202c-1.18-2.362-3.596-3.151-5.88-3.148-1.297.001-2.565.25-3.582.62-1.016.376-1.784.844-2.101 1.395l.365.22M141.952 206.935c.317-.242.985-.524 1.852-.73.868-.209 1.942-.351 3.097-.351 1.701-.001 3.58.307 5.267 1.15 1.686.843 3.182 2.212 4.145 4.363l.414-.201c-1.008-2.255-2.595-3.711-4.361-4.591-1.767-.882-3.712-1.196-5.465-1.197-1.192 0-2.296.146-3.2.363-.906.219-1.604.499-2.017.807l.268.385M126.226 242.894c.298-.131.757-.211 1.325-.21 2.139-.005 5.753 1.092 8.857 3.402 3.111 2.312 5.718 5.803 6.012 10.618l.625-.041c-.306-5.052-3.059-8.724-6.273-11.107-3.222-2.387-6.899-3.519-9.221-3.523-.622.001-1.151.079-1.568.261l.244.602-.001-.001M104.965 268.886l.289-.022c.678-.003 1.701.315 2.822.936 1.684.929 3.602 2.525 5.088 4.643 1.486 2.118 2.543 4.751 2.543 7.777 0 1.111-.142 2.277-.459 3.493l.577.163c.332-1.268.481-2.491.481-3.657-.001-4.243-1.977-7.734-4.325-10.158-1.175-1.213-2.446-2.162-3.624-2.812-1.181-.648-2.26-1.005-3.102-1.008-.133 0-.26.009-.38.028l.092.615h-.001" fill="#2B3F22" sketch:type="MSShapeGroup"/><path d="M135.199 89.99s1.072 73.105-29.163 113.979c-13.125 17.743-26.954 26.732-37.628 32.54-8.52 4.636-11.685 9.743-10.046 15.15 1.666 5.5 10.824 7.201 25.098-.688 20.874-11.535 56.294-42.949 61.393-162.855l-9.653 1.874" fill="#DBE3CB" sketch:type="MSShapeGroup"/><path d="M134.253 90.005l.004.916c0 4.267-.233 22.939-3.982 45.271-3.743 22.331-11.025 48.312-24.99 67.178-13.025 17.603-26.702 26.491-37.317 32.269-3.608 1.965-6.319 4.028-8.163 6.237-1.841 2.203-2.81 4.598-2.808 7.071 0 1.002.156 2.009.461 3.009.502 1.672 1.628 3.061 3.207 3.974 1.582.919 3.603 1.397 6.005 1.398 4.458-.005 10.265-1.641 17.23-5.486 10.564-5.83 24.831-16.748 37.009-41.206 12.187-24.458 22.332-62.428 24.886-122.476l-1.888-.087c-2.545 59.858-12.659 97.549-24.677 121.658-12.024 24.111-25.905 34.666-36.216 40.373-6.772 3.745-12.334 5.26-16.344 5.256-2.164.001-3.865-.437-5.081-1.147-1.218-.715-1.965-1.669-2.329-2.85-.25-.827-.372-1.629-.372-2.418.003-1.934.725-3.83 2.345-5.782 1.618-1.944 4.138-3.895 7.611-5.782 10.735-5.839 24.716-14.929 37.939-32.812 14.269-19.304 21.572-45.542 25.353-68.04 3.777-22.499 4.01-41.266 4.011-45.608l-.004-.944-1.891.028" fill="#2B3F22" sketch:type="MSShapeGroup"/><path d="M141.661 87.998c-1.184 22.917-3.728 72.779-20.227 109.343-19.068 42.261-41.627 52.542-52.647 53.784-10.013 1.128-9.737-4.116-9.737-4.116s-3.959 9.394 9.349 9.248c13.307-.146 33.645-18.244 43.005-32.296 9.607-14.421 19.506-34.565 25.543-63.71 7.097-34.269 7.228-72.16 7.228-72.16l-2.514-.093" fill="#A5B98C" sketch:type="MSShapeGroup"/><path d="M134.253 90.005l.004.916c0 4.267-.233 22.939-3.982 45.271-3.743 22.331-11.025 48.312-24.99 67.178-13.025 17.603-26.702 26.491-37.317 32.269-3.608 1.965-6.319 4.028-8.163 6.237-1.841 2.203-2.81 4.598-2.808 7.071 0 1.002.156 2.009.461 3.009.502 1.672 1.628 3.061 3.207 3.974 1.582.919 3.603 1.397 6.005 1.398 4.458-.005 10.265-1.641 17.23-5.486 10.591-5.846 24.934-17.561 37.078-42.418 12.149-24.857 22.126-62.836 24.141-121.297l-1.891-.07c-2.006 58.262-11.95 95.957-23.936 120.475-11.991 24.52-25.995 35.884-36.278 41.573-6.772 3.745-12.334 5.26-16.344 5.256-2.164.001-3.865-.437-5.081-1.147-1.218-.715-1.965-1.669-2.329-2.85-.25-.827-.372-1.629-.372-2.418.003-1.934.725-3.83 2.345-5.782 1.618-1.944 4.138-3.895 7.611-5.782 10.735-5.839 24.716-14.929 37.939-32.812 14.269-19.304 21.572-45.542 25.353-68.04 3.777-22.499 4.01-41.266 4.011-45.608l-.004-.944-1.891.028M132.787 127.839l.359-.157c.694-.285 2.307-.856 3.994-.856 1.367.001 2.768.369 3.81 1.539l.231-.222c-1.12-1.258-2.625-1.644-4.041-1.643-2.338.001-4.475 1.038-4.485 1.042l.133.297M125.187 163.078c.287-.295 1.163-.532 2.231-.526 1.254 0 2.787.294 4.061.985 1.278.693 2.29 1.766 2.577 3.344l.366-.071c-.311-1.721-1.427-2.893-2.771-3.617-1.345-.727-2.925-1.027-4.233-1.028-1.12.007-2.034.204-2.487.631l.255.283v-.001M111.289 195.984c.255-.098.703-.163 1.262-.162 1.48-.002 3.748.436 5.735 1.603 1.988 1.171 3.693 3.049 4.132 5.967l.398-.065c-.458-3.063-2.271-5.059-4.333-6.267-2.065-1.211-4.382-1.656-5.933-1.658-.59.001-1.066.063-1.399.187l.137.394M89.511 222.462l.193-.011c.629-.004 1.64.324 2.762.958 1.688.948 3.647 2.567 5.172 4.682 1.527 2.116 2.622 4.72 2.622 7.658 0 .819-.085 1.664-.269 2.536l.541.124c.192-.911.282-1.799.282-2.66-.002-4.121-2.044-7.585-4.432-10.012-1.195-1.214-2.479-2.174-3.652-2.833-1.176-.658-2.231-1.024-3.026-1.027l-.258.015.065.572M65.385 239.085c.437.055 1.088.393 1.782.976 2.096 1.749 4.606 5.633 4.6 10.022-.001 1.897-.462 3.891-1.622 5.878l.451.286c1.21-2.072 1.699-4.174 1.698-6.164-.001-3.072-1.155-5.869-2.573-7.94-.709-1.035-1.485-1.89-2.224-2.509-.743-.618-1.439-1.009-2.046-1.093l-.067.544" fill="#2B3F22" sketch:type="MSShapeGroup"/><path d="M200.953 89.991s-1.072 73.104 29.164 113.978c13.124 17.743 26.953 26.732 37.628 32.54 8.519 4.635 11.684 9.743 10.046 15.15-1.667 5.5-10.825 7.201-25.098-.688-20.874-11.535-56.294-42.949-61.393-162.855" fill="#DBE3CB" sketch:type="MSShapeGroup"/><path d="M200.008 89.975l-.004.947c0 4.342.233 23.108 4.01 45.607 3.782 22.498 11.085 48.736 25.354 68.04 13.224 17.882 27.203 26.974 37.939 32.812 3.471 1.886 5.992 3.838 7.61 5.783 1.619 1.951 2.342 3.848 2.345 5.781 0 .788-.123 1.591-.373 2.419-.362 1.18-1.109 2.133-2.328 2.849-1.217.709-2.918 1.148-5.081 1.146-4.01.005-9.572-1.51-16.343-5.255-10.311-5.707-24.193-16.263-36.217-40.373-12.017-24.109-22.132-61.799-24.676-121.658l-1.889.087c2.554 60.048 12.699 98.018 24.886 122.476 12.179 24.458 26.445 35.376 37.008 41.206 6.965 3.845 12.772 5.481 17.231 5.486 2.402-.001 4.423-.478 6.004-1.398 1.58-.913 2.706-2.301 3.208-3.974.303-1.001.46-2.008.46-3.009.004-2.473-.965-4.867-2.807-7.071-1.844-2.209-4.554-4.272-8.163-6.237-10.615-5.778-24.292-14.665-37.317-32.269-13.965-18.865-21.246-44.847-24.99-67.179-3.75-22.33-3.983-41.003-3.982-45.269l.002-.687.003-.228-1.891-.031v-.001" fill="#2B3F22" sketch:type="MSShapeGroup"/><path d="M194.491 87.997c1.183 22.918 3.727 72.78 20.225 109.344 19.069 42.262 41.628 52.542 52.648 53.784 10.013 1.128 9.737-4.117 9.737-4.117s3.958 9.395-9.349 9.249c-13.308-.146-33.646-18.244-43.006-32.296-9.606-14.421-19.506-34.564-25.542-63.71-7.098-34.269-7.229-72.16-7.229-72.16l2.515-.094" fill="#A5B98C" sketch:type="MSShapeGroup"/><path d="M200.008 89.975l-.004.947c0 4.342.233 23.108 4.01 45.607 3.782 22.498 11.085 48.736 25.354 68.04 13.224 17.882 27.203 26.974 37.939 32.812 3.471 1.886 5.992 3.838 7.61 5.783 1.619 1.951 2.342 3.848 2.345 5.781 0 .788-.123 1.591-.373 2.419-.362 1.18-1.109 2.133-2.328 2.849-1.217.709-2.918 1.148-5.081 1.146-4.01.005-9.572-1.51-16.343-5.255-10.284-5.689-24.288-17.053-36.28-41.573-11.985-24.518-21.93-62.213-23.936-120.475l-1.889.07c2.014 58.461 11.991 96.439 24.14 121.297 12.144 24.856 26.488 36.571 37.078 42.418 6.965 3.845 12.772 5.481 17.231 5.486 2.402-.001 4.423-.478 6.004-1.398 1.58-.913 2.706-2.301 3.208-3.974.303-1.001.46-2.008.46-3.009.004-2.473-.965-4.867-2.807-7.071-1.844-2.209-4.554-4.272-8.163-6.237-10.615-5.778-24.292-14.665-37.317-32.269-13.965-18.865-21.246-44.847-24.99-67.179-3.75-22.33-3.983-41.003-3.982-45.269l.002-.687.003-.228-1.891-.031v-.001M203.497 127.542c-.011-.004-2.147-1.041-4.485-1.042-1.417-.001-2.922.385-4.041 1.643l.231.222c1.041-1.171 2.444-1.538 3.81-1.539 1.124 0 2.216.253 3.025.507.404.127.737.254.969.349l.359.157.133-.296v-.001M211.22 162.795c-.453-.427-1.367-.624-2.487-.631-1.31.001-2.889.301-4.234 1.028-1.343.725-2.459 1.896-2.77 3.617l.366.072c.286-1.579 1.298-2.651 2.576-3.344 1.274-.691 2.807-.985 4.062-.985 1.068-.006 1.944.231 2.232.526l.255-.282M225 195.589c-.334-.124-.81-.186-1.399-.187-1.551.002-3.868.447-5.933 1.658-2.063 1.208-3.875 3.204-4.332 6.267l.398.065c.438-2.918 2.143-4.796 4.132-5.967 1.986-1.168 4.255-1.605 5.735-1.603.558-.002 1.007.064 1.262.162l.137-.394M246.706 221.89l-.258-.015c-.795.003-1.85.369-3.026 1.027-1.759.99-3.77 2.652-5.351 4.843-1.581 2.189-2.732 4.913-2.732 8.003 0 .861.089 1.748.284 2.66l.54-.124c-.185-.871-.27-1.717-.27-2.536-.002-3.915 1.949-7.244 4.266-9.601 1.157-1.177 2.403-2.107 3.528-2.739 1.122-.634 2.134-.961 2.763-.958l.193.011.065-.572M270.7 238.541c-.606.084-1.303.475-2.046 1.093-2.211 1.856-4.791 5.838-4.797 10.449-.001 1.99.487 4.092 1.698 6.163l.451-.284c-1.161-1.988-1.622-3.982-1.623-5.879 0-2.926 1.108-5.625 2.475-7.621.683-.997 1.43-1.818 2.126-2.4.693-.583 1.345-.921 1.783-.976l-.068-.544" fill="#2B3F22" sketch:type="MSShapeGroup"/><path d="M183.122 82.78s-6.037 86.91 17.679 139.918c10.295 23.011 23.454 36.52 33.881 45.696 8.32 7.322 10.606 13.788 7.506 19.347-3.154 5.655-13.69 5.178-27.602-7.226-20.346-18.141-44.899-56.086-40.777-198.244l9.313.508" fill="#DBE3CB" sketch:type="MSShapeGroup"/><path d="M182.053 82.699c-.001.02-.69 9.936-.69 25.115 0 14.907.663 34.891 3.299 55.572 2.638 20.681 7.24 42.059 15.167 59.784 10.372 23.191 23.673 36.85 34.159 46.076 2.925 2.573 5.058 5.016 6.44 7.287 1.382 2.275 2.011 4.357 2.011 6.274-.002 1.515-.387 2.951-1.179 4.377-.511.913-1.234 1.62-2.203 2.124-.969.503-2.194.794-3.677.794-2.32.003-5.255-.725-8.653-2.403-3.398-1.675-7.257-4.294-11.445-8.029-9.286-8.292-19.437-20.678-27.352-45.723-7.906-25.039-13.508-62.724-13.507-121.374 0-9.525.147-19.601.457-30.266l-2.142-.068c-.312 10.686-.459 20.785-.459 30.333.001 58.796 5.607 96.694 13.614 122.069 7.997 25.371 18.464 38.235 27.995 46.72 4.306 3.839 8.311 6.57 11.921 8.352 3.61 1.779 6.826 2.616 9.571 2.618 1.75 0 3.313-.344 4.633-1.028 1.318-.681 2.385-1.712 3.101-3.001.962-1.722 1.469-3.576 1.468-5.496 0-2.435-.803-4.935-2.344-7.465-1.543-2.534-3.824-5.121-6.866-7.798-10.368-9.127-23.382-22.484-33.601-45.313-7.788-17.403-12.369-38.594-14.985-59.137-2.619-20.544-3.281-40.441-3.281-55.278 0-7.555.171-13.799.342-18.151.086-2.176.172-3.88.235-5.037l.078-1.319.029-.446-2.137-.161h-.001" fill="#2B3F22" sketch:type="MSShapeGroup"/><path d="M177.069 116.565s-1.133 49.081 8.273 94.834c10.641 51.756 33.542 68.853 45.439 73.065 10.808 3.827 11.752-2.044 11.752-2.044s2.141 11.412-12.546 7.822c-14.687-3.59-34.037-28.408-39.886-46.81-5.849-18.401-13.816-48.065-15.216-81.834-1.401-33.77-1.104-48.641-1.104-48.641l3.289 3.607" fill="#A5B98C" sketch:type="MSShapeGroup"/><path d="M182.053 82.699c-.001.02-.69 9.936-.69 25.115 0 14.907.663 34.891 3.299 55.572 2.638 20.681 7.24 42.059 15.167 59.784 10.372 23.191 23.673 36.85 34.159 46.076 2.925 2.573 5.058 5.016 6.44 7.287 1.382 2.275 2.011 4.357 2.011 6.274-.002 1.515-.387 2.951-1.179 4.377-.511.913-1.234 1.62-2.203 2.124-.969.503-2.194.794-3.677.794-2.32.003-5.255-.725-8.653-2.403-3.398-1.675-7.257-4.294-11.445-8.029-9.286-8.292-19.437-20.678-27.352-45.723-7.906-25.039-13.508-62.724-13.507-121.374 0-9.525.147-19.601.457-30.266l-2.142-.068c-.312 10.686-.459 20.785-.459 30.333.001 58.796 5.607 96.694 13.614 122.069 7.997 25.371 18.464 38.235 27.995 46.72 4.306 3.839 8.311 6.57 11.921 8.352 3.61 1.779 6.826 2.616 9.571 2.618 1.75 0 3.313-.344 4.633-1.028 1.318-.681 2.385-1.712 3.101-3.001.962-1.722 1.469-3.576 1.468-5.496 0-2.435-.803-4.935-2.344-7.465-1.543-2.534-3.824-5.121-6.866-7.798-10.368-9.127-23.382-22.484-33.601-45.313-7.788-17.403-12.369-38.594-14.985-59.137-2.619-20.544-3.281-40.441-3.281-55.278 0-7.555.171-13.799.342-18.151.086-2.176.172-3.88.235-5.037l.078-1.319.029-.446-2.137-.161h-.001M183.155 132.715c-.012-.005-2.702-1.543-5.573-1.546-1.432-.002-2.92.388-4.115 1.566l.245.269c1.113-1.097 2.496-1.465 3.87-1.465 1.375 0 2.73.374 3.738.751.504.188.922.377 1.212.518l.451.232.172-.324h-.001M186.971 171.822c-.319-.488-1.012-.876-1.923-1.181-.911-.299-2.041-.494-3.216-.494-1.242 0-2.535.216-3.667.765-1.132.549-2.105 1.44-2.671 2.767l.386.178c.522-1.222 1.403-2.032 2.463-2.547 1.059-.514 2.294-.724 3.489-.724 1.131 0 2.223.188 3.089.473.865.28 1.501.68 1.698 1.005l.352-.243M197.137 212.11c-.374-.245-.96-.454-1.71-.612-.748-.157-1.655-.257-2.645-.257-1.827.001-3.937.341-5.842 1.314-1.903.971-3.599 2.588-4.55 5.111l.425.173c.91-2.405 2.505-3.925 4.327-4.858 1.82-.932 3.868-1.265 5.64-1.265.96 0 1.84.097 2.555.247.714.148 1.267.356 1.554.547l.245-.401M214.887 246.8c-.334-.121-.732-.174-1.187-.175-2.231.007-5.924 1.301-9.124 3.887-3.191 2.583-5.874 6.495-5.885 11.705l.627.002c.013-4.964 2.555-8.686 5.644-11.193 3.081-2.504 6.723-3.755 8.739-3.748.406-.001.741.05.98.138l.207-.614v-.001M237.467 271.402l-.214-.01c-.801.004-1.817.374-2.928 1.035-1.662.995-3.522 2.663-4.978 4.853-1.454 2.189-2.502 4.905-2.502 7.976 0 1.403.219 2.88.716 4.408l.567-.2c-.477-1.466-.685-2.872-.685-4.208-.002-3.893 1.773-7.211 3.907-9.559 1.066-1.173 2.221-2.101 3.274-2.731 1.051-.632 2.01-.957 2.63-.953l.159.008.056-.62h-.001" fill="#2B3F22" sketch:type="MSShapeGroup"/><path d="M240.242 114.177l-141.497 10.043c-3.002.213-5.602-2.146-5.807-5.27l-6.647-101.341c-.205-3.124 2.063-5.828 5.065-6.041l141.497-10.043c3.002-.213 5.602 2.147 5.808 5.27l6.646 101.341c.205 3.124-2.064 5.828-5.065 6.041" fill="#405533" sketch:type="MSShapeGroup"/><path d="M240.242 114.177l-.064-.975-141.496 10.043-.313.012c-2.349 0-4.333-1.896-4.494-4.372l-6.646-101.341-.011-.326c-.001-2.443 1.823-4.508 4.203-4.674l141.496-10.043.313-.012c2.347 0 4.332 1.896 4.494 4.373l6.646 101.341.011.324c.001 2.442-1.823 4.508-4.203 4.675l.065.975.064.975c3.371-.242 5.953-3.158 5.953-6.625l-.015-.457-6.647-101.341c-.232-3.508-3.035-6.192-6.367-6.192l-.442.016-141.495 10.043c-3.372.24-5.953 3.156-5.954 6.623l.016.46 6.646 101.339c.232 3.507 3.034 6.192 6.368 6.193l.441-.016 141.497-10.043-.064-.975" fill="#2B3F22" sketch:type="MSShapeGroup"/><path d="M101.218 12.699l129.603-9.161 7.148 108.971-129.6 9.198-7.152-109.007" fill="#A5B98C" sketch:type="MSShapeGroup"/><path d="M229.189 5.483l6.909 105.327-126.099 8.95-6.91-105.363 126.1-8.914m3.264-3.891l-133.106 9.41 7.39 112.65 133.103-9.447-7.386-112.613" fill="#202C1C" sketch:type="MSShapeGroup"/><path d="M100.44 68.491c.11 1.676-1.109 3.129-2.72 3.243-1.612.114-3.008-1.152-3.119-2.83-.11-1.676 1.108-3.129 2.72-3.243 1.612-.114 3.008 1.152 3.119 2.83" fill="#5B6B4A" sketch:type="MSShapeGroup"/><path d="M100.44 68.491l-.815.056.004.153c.001 1.14-.852 2.108-1.965 2.187l-.147.005c-1.097.001-2.027-.887-2.101-2.044l-.005-.152c0-1.141.853-2.108 1.966-2.186l.147-.005c1.096-.001 2.026.887 2.101 2.045l.815-.058.815-.058c-.137-2.055-1.778-3.628-3.731-3.628l-.259.009c-1.975.142-3.486 1.849-3.487 3.881l.01.269c.135 2.053 1.777 3.627 3.73 3.627l.256-.008c1.977-.142 3.489-1.85 3.49-3.882l-.009-.266-.815.057" fill="#2B3F22" sketch:type="MSShapeGroup"/><path d="M177.844 9.113l-28.304 2.001-44.495 33.085 1.606 24.493 71.193-59.58" fill="#B0C298" sketch:type="MSShapeGroup"/><path d="M105.044 44.199l-1.561 1.16 1.616 24.632 1.552-1.299-1.606-24.493m75.021-36.945l-27.996 1.979-2.53 1.882 28.304-2.001 2.222-1.859" fill="#3B4632" sketch:type="MSShapeGroup"/><path d="M230.708 3.674l7.131 108.715-129.356 9.182-7.134-108.752 129.359-9.145m1.746-2.082l-133.106 9.41 7.39 112.65 133.103-9.447-7.386-112.613" fill="#2B3F22" sketch:type="MSShapeGroup"/><path d="M187.777 51.523c-.908-9.908-9.507-17.126-19.07-15.872-8.607 1.129-15.103 8.986-14.862 18.008.134 5.045 2.25 9.476 5.51 12.583 3.71 3.534 6.145 8.28 6.623 13.489l.193 2.111 13.162-1.305-.065-.711c-.511-5.575 1.273-11.05 4.698-15.371 2.767-3.489 4.254-8.074 3.809-12.931" fill="#DBE3CB" sketch:type="MSShapeGroup"/><path d="M187.777 51.523l.664-.066c-.873-9.515-8.567-16.642-17.574-16.642-.74 0-1.489.047-2.244.148-8.789 1.156-15.448 9.037-15.452 18.208l.008.51v-.004c.14 5.236 2.339 9.849 5.727 13.075 3.599 3.429 5.948 8.019 6.409 13.044l.194 2.111c.016.183.104.353.239.469.136.116.313.173.488.155l13.162-1.305c.177-.017.338-.106.451-.248.113-.143.166-.324.15-.509l-.066-.709c-.056-.61-.083-1.216-.083-1.822 0-4.741 1.686-9.328 4.633-13.043 2.537-3.199 4.04-7.288 4.04-11.675 0-.583-.027-1.171-.082-1.764l-.664.066-.664.065c.049.55.075 1.094.075 1.633 0 4.055-1.389 7.831-3.735 10.792-3.13 3.945-4.938 8.84-4.938 13.926 0 .648.031 1.3.09 1.953l.001.019-11.834 1.173-.13-1.419c-.494-5.394-3.016-10.296-6.836-13.936-3.134-2.987-5.165-7.24-5.295-12.091v-.004l-.006-.465c-.004-8.461 6.17-15.772 14.286-16.832.698-.092 1.391-.136 2.076-.136 8.323-.001 15.442 6.589 16.247 15.385l.664-.065" fill="#405533" sketch:type="MSShapeGroup"/><path d="M180.306 86.41l-14.284 1.416-.315-3.434 14.285-1.417.314 3.435" fill="#5F8C45" sketch:type="MSShapeGroup"/><path d="M180.306 86.41l-.063-.69-13.621 1.349-.188-2.053 12.957-1.285.251 2.744.664-.066-.063-.69.063.69.664-.066-.314-3.435c-.035-.381-.361-.661-.728-.625l-14.285 1.416c-.367.037-.635.375-.6.757l.314 3.434c.017.183.104.352.24.469.135.116.313.173.488.155l14.285-1.416c.177-.016.338-.105.451-.248.113-.143.166-.324.149-.508l-.664.066M169.5 81.512l-.463-1.972c-.276-1.258-.705-3.05-1.159-5.212-.45-2.163-1.012-4.678-1.547-7.387l-.408-2.062-.101-.554c-.024-.221-.004-.509.074-.719.154-.453.488-.839.931-1.016.22-.089.464-.128.704-.105.248.022.472.129.607.176.307.115.632.211.957.279.662.139 1.305.18 1.987.115.663-.054 1.318-.213 1.938-.466.31-.126.613-.274.902-.445l.134-.077.118-.06c.069-.039.23-.098.335-.123.224-.058.458-.059.684-.024.451.081.867.348 1.123.744.132.194.219.422.258.652.047.239.026.467.022.625l-.078 2.105c-.1 2.763-.262 5.34-.367 7.55-.107 2.21-.25 4.05-.326 5.339l-.147 2.024-.023-2.03c.004-1.291-.026-3.136.003-5.35.032-2.212.028-4.795.098-7.559l.051-2.106c.004-.195.013-.328-.016-.441-.022-.121-.067-.236-.137-.332-.132-.203-.357-.341-.593-.38-.118-.015-.24-.016-.356.018l-.159.058-.118.063-.094.058c-.319.193-.655.363-1 .509-.692.293-1.429.486-2.18.554-.73.061-1.518.005-2.236-.162-.366-.083-.72-.194-1.073-.331-.194-.075-.293-.123-.398-.133-.11-.01-.219.005-.326.045-.214.077-.39.277-.469.498-.041.129-.049.207-.042.341l.084.499.38 2.068c.501 2.716.905 5.264 1.284 7.441.375 2.179.636 4.005.843 5.277l.297 2.006" fill="#405533" sketch:type="MSShapeGroup"/><path d="M149.509 45.976s-.563.086-1.365.037c-.803-.039-1.848-.195-2.861-.477-1.016-.273-1.999-.672-2.717-1.05-.72-.368-1.17-.732-1.17-.732s.564-.087 1.365-.038c.804.039 1.848.196 2.861.478 1.016.275 1.999.675 2.716 1.052.721.368 1.171.73 1.171.73M149.688 57.186s-.474.33-1.217.645c-.742.324-1.749.652-2.78.853-1.03.209-2.082.29-2.887.271-.802-.008-1.359-.136-1.359-.136s.473-.331 1.217-.646c.741-.325 1.748-.652 2.78-.851 1.029-.208 2.082-.289 2.886-.269.802.008 1.36.134 1.36.134M151.58 67.413s-.299.504-.85 1.111c-.545.615-1.332 1.349-2.189 1.976-.853.635-1.779 1.163-2.518 1.493-.734.338-1.291.463-1.291.463s.298-.506.849-1.113c.544-.616 1.331-1.349 2.19-1.975.854-.633 1.78-1.16 2.519-1.491.733-.338 1.29-.464 1.29-.464M190.744 41.029s.431-.389 1.131-.797c.696-.419 1.657-.874 2.656-1.207.996-.341 2.031-.558 2.832-.643.797-.095 1.365-.041 1.365-.041s-.43.391-1.13.8c-.696.418-1.657.873-2.656 1.204-.997.339-2.032.556-2.832.641-.797.096-1.365.043-1.365.043M191.163 52.232s.549-.158 1.351-.213c.801-.065 1.857-.046 2.896.102 1.04.14 2.064.407 2.821.69.759.272 1.249.576 1.249.576s-.549.158-1.35.214c-.802.065-1.858.045-2.896-.105-1.04-.141-2.064-.409-2.82-.691-.759-.272-1.25-.573-1.25-.573M189.82 62.551s.562.093 1.312.389c.756.287 1.708.761 2.595 1.343.892.576 1.715 1.262 2.292 1.845.581.574.907 1.063.907 1.063s-.563-.092-1.314-.387c-.756-.287-1.708-.761-2.593-1.346-.891-.577-1.714-1.264-2.292-1.846-.582-.575-.907-1.061-.907-1.061" fill="#DBE3CB" sketch:type="MSShapeGroup"/><path d="M176.199 39.356c.213 1.455-2.574 3.104-6.226 3.682-3.651.578-6.785-.133-6.997-1.589-.213-1.455 2.574-3.103 6.226-3.681 3.651-.578 6.784.132 6.997 1.588" fill="#EAEEDD" sketch:type="MSShapeGroup"/><path d="M196.925 67.192s-.563-.092-1.314-.387c-.756-.287-1.708-.761-2.593-1.346-.891-.577-1.714-1.264-2.292-1.846-.582-.575-.907-1.061-.907-1.061s.562.093 1.312.389c.756.287 1.708.761 2.595 1.343.892.576 1.715 1.262 2.292 1.845.581.574.907 1.063.907 1.063m.28-13.555c-.614 0-1.297-.042-1.972-.14-1.04-.141-2.064-.409-2.82-.691-.759-.272-1.25-.573-1.25-.573s.549-.158 1.351-.213c.281-.023.594-.036.927-.036.614 0 1.295.042 1.969.138 1.04.14 2.064.407 2.821.69.759.272 1.249.576 1.249.576s-.549.158-1.35.214c-.281.023-.592.035-.924.035m32.734-34.855l-41.44 35.357c-.193 4.038-1.658 7.784-4.017 10.758-2.947 3.715-4.633 8.302-4.633 13.043 0 .605.027 1.212.083 1.822l.066.709c.016.184-.037.365-.15.509-.113.142-.274.231-.451.248l-13.162 1.305-.061.004c-.154 0-.306-.057-.427-.159-.135-.116-.223-.287-.239-.469l-.194-2.111c-.156-1.706-.531-3.362-1.098-4.94l-52.41 44.717 21.779-1.487 8.294-.589 34.144-29.966-9.94.985-.061.004c-.154 0-.307-.057-.427-.159-.135-.117-.223-.287-.24-.469l-.314-3.434c-.035-.382.233-.72.6-.757l14.285-1.416.065-.003c.34 0 .63.269.663.627l.047.516 50.682-44.482-.104-1.594-1.341-18.569" fill="#B0C298" sketch:type="MSShapeGroup"/><path d="M141.88 117.498l-8.294.589 8.267-.564.027-.025m89.4-80.148l.104 1.594.01-.008-.114-1.586" fill="#3B4632" sketch:type="MSShapeGroup"/><path d="M167.412 72.13l-2.11 1.801c.699 1.819 1.158 3.743 1.34 5.735l.13 1.419 2.568-.255-.304-1.29c-.276-1.258-.705-3.05-1.159-5.212-.146-.698-.302-1.433-.466-2.198m8.369-7.141l-7.851 6.7c.149.889.291 1.739.431 2.539.375 2.179.636 4.005.843 5.277l.195 1.318 6.273-.622-.015-1.333c.004-1.291-.026-3.136.003-5.35.032-2.212.028-4.795.098-7.559l.024-.971m11.276-9.621l-10.476 8.938-.062 1.68c-.1 2.763-.262 5.34-.367 7.55-.107 2.21-.25 4.05-.326 5.339l-.097 1.321 2.876-.285-.001-.019c-.06-.653-.09-1.305-.09-1.953 0-5.086 1.808-9.98 4.938-13.926 1.927-2.431 3.206-5.412 3.604-8.645" fill="#DBE4CC" sketch:type="MSShapeGroup"/><path d="M188.499 54.138l-1.442 1.231c-.398 3.233-1.677 6.214-3.604 8.645-3.13 3.945-4.938 8.84-4.938 13.926 0 .648.031 1.3.09 1.953l.001.019-2.876.285-.051.703-.008-.697-6.273.622.102.688-.16-.682-2.568.255-.13-1.419c-.183-1.992-.642-3.916-1.34-5.735l-1.086.926c.567 1.578.942 3.233 1.098 4.94l.194 2.111c.016.183.104.353.239.469.12.102.272.159.427.159l.061-.004 13.162-1.305c.177-.017.338-.106.451-.248.113-.143.166-.324.15-.509l-.066-.709c-.056-.61-.083-1.216-.083-1.822 0-4.741 1.686-9.328 4.633-13.043 2.359-2.975 3.824-6.72 4.017-10.758" fill="#5A6B48" sketch:type="MSShapeGroup"/><path d="M179.39 83.732l-12.957 1.285.188 2.053 11.193-1.109 1.647-1.446-.071-.782" fill="#779B5B" sketch:type="MSShapeGroup"/><path d="M179.992 82.282l-.065.003-14.285 1.416c-.367.037-.635.375-.6.757l.314 3.434c.017.183.104.352.24.469.119.102.272.159.427.159l.061-.004 9.94-.985 1.79-1.571-11.193 1.109-.188-2.053 12.957-1.285.071.782 1.241-1.088-.047-.516c-.032-.358-.323-.627-.663-.627M167.93 71.689l-.518.441c.164.765.32 1.5.466 2.198.454 2.162.882 3.953 1.159 5.212l.304 1.29.16.682-.102-.688-.195-1.318c-.206-1.273-.468-3.099-.843-5.277-.14-.8-.282-1.65-.431-2.539m8.652-7.383l-.8.683-.024.971c-.07 2.764-.066 5.347-.098 7.559-.029 2.213.001 4.058-.003 5.35l.015 1.333.008.697.051-.703.097-1.321c.075-1.288.219-3.128.326-5.339.104-2.21.267-4.787.367-7.55l.062-1.68" fill="#5A6B48" sketch:type="MSShapeGroup"/><path d="M193.441 51.984c-.333 0-.646.013-.927.036-.801.055-1.351.213-1.351.213s.491.301 1.25.573c.757.282 1.78.551 2.82.691.675.098 1.358.14 1.972.14.332 0 .643-.012.924-.035.8-.056 1.35-.214 1.35-.214s-.49-.304-1.249-.576c-.757-.283-1.781-.551-2.821-.69-.674-.096-1.355-.138-1.969-.138M189.82 62.551s.325.486.907 1.061c.578.583 1.401 1.269 2.292 1.846.885.584 1.837 1.059 2.593 1.346.751.295 1.314.387 1.314.387s-.326-.488-.907-1.063c-.577-.583-1.4-1.269-2.292-1.845-.886-.583-1.839-1.056-2.595-1.343-.75-.296-1.312-.389-1.312-.389" fill="#DBE4CC" sketch:type="MSShapeGroup"/><path d="M101.132 59.014c-3.963-.114-8.747-.455-13.59-1.218-4.644-.732-8.841-1.715-12.537-2.772 1.259-8.773 5.014-29.526 6.271-38.299 3.782.795 8.605 1.621 13.373 2.346 4.389.667 8.558 1.121 12.469 1.417l-5.986 38.526" fill="#DBE3CB" sketch:type="MSShapeGroup"/><path d="M101.132 59.014l.03-1.115c-3.928-.112-8.674-.451-13.459-1.205-4.598-.725-8.754-1.698-12.414-2.746l-.284 1.076 1.06.164c.625-4.358 1.878-11.741 3.131-19.12 1.253-7.383 2.507-14.763 3.14-19.178l-1.06-.164-.212 1.092c3.814.803 8.649 1.63 13.43 2.357 4.417.672 8.611 1.129 12.546 1.426l.078-1.112-1.06-.165c-1.254 8.749-4.724 29.729-5.986 38.527l1.06.164.03-1.115-.03 1.115 1.059.164c1.255-8.748 4.725-29.729 5.987-38.526l.17-1.19-1.153-.087c-3.887-.294-8.029-.745-12.392-1.408-4.755-.723-9.564-1.547-13.315-2.336l-1.106-.233-.167 1.161c-.624 4.357-1.877 11.74-3.131 19.119-1.253 7.384-2.507 14.764-3.14 19.178l-.14.978.916.262c3.732 1.068 7.971 2.06 12.66 2.799 4.899.772 9.723 1.115 13.721 1.231l.95.027.14-.978-1.059-.164M83.089 36.273l.078-.264c.057-.17.142-.425.306-.723.16-.301.384-.663.762-1.003.362-.341.949-.664 1.656-.625.345.016.698.106 1.02.26.148.073.334.181.45.254.161.108.312.221.447.334.564.454 1.005 1.063 1.411 1.515.201.226.406.377.508.402.088.029.162.034.379-.059.204-.093.45-.266.69-.471.262-.223.614-.497 1.009-.719.209-.11.438-.22.739-.286.291-.069.7-.052 1.003.082.616.3.715.454.81.467.09.042.323.019.584-.079.265-.084.489-.252.967-.422.406-.138.951-.216 1.454.005.5.218.776.602.973.902.365.625.556 1.17.837 1.458.248.292.589.344 1.019.239.329-.077.642-.278.8-.522.176-.238.251-.488.291-.655l.04-.266.041.272c.01.178.026.458-.102.799-.125.342-.402.722-.899.967-.183.086-.48.207-.79.213-.316.014-.698-.092-.974-.314-.568-.434-.871-1.038-1.232-1.447-.17-.208-.342-.342-.461-.357-.111-.026-.27.005-.489.11-.157.073-.505.319-.887.5-.376.173-.85.362-1.467.27-.625-.103-1.064-.511-1.112-.488l-.055.01-.263.121c-.237.141-.453.33-.755.57-.323.255-.674.504-1.126.695-.43.194-1.111.288-1.669.022-.544-.257-.832-.638-1.07-.939-.461-.623-.768-1.139-1.125-1.552l-.259-.272-.299-.241c-.19-.132-.377-.238-.57-.291-.772-.226-1.564.36-1.998.777-.453.436-.674.751-.674.751M82.449 40.357l.16.107c.109.067.255.156.439.228.191.068.369.078.519-.028.17-.071.386-.305.814-.511.213-.101.495-.194.815-.199.321-.014.642.095.913.227.549.274.936.67 1.273 1.085l.24.32.2.277.125.15.086.067c.037.044.354.044.761-.118.396-.154.836-.349 1.262-.562.43-.197.833-.463 1.345-.65.299-.109.587-.175.935-.164.339.007.701.135.953.333.497.416.663.864.835 1.213.296.727.529 1.21.886 1.39.351.19.642.136.634.15l-.17.075c-.113.036-.292.106-.542.082-.248-.018-.555-.151-.824-.377-.264-.229-.509-.524-.746-.816-.226-.291-.491-.586-.711-.66-.182-.078-.372-.029-.671.143l-1.179.739c-.434.258-.874.534-1.399.755-.269.107-.545.217-.901.271-.342.058-.792.04-1.198-.155-.201-.098-.37-.218-.516-.352-.138-.128-.312-.332-.358-.403l-.221-.318-.183-.261c-.24-.333-.481-.629-.676-.79-.203-.14-.288-.22-.578-.193-.275.031-.658.167-1.094.169-.46-.018-.788-.291-.922-.505-.291-.44-.282-.722-.303-.717M95.536 25.328c-.316.838-1.224 1.251-2.029.923-.806-.328-1.203-1.273-.887-2.11.315-.838 1.224-1.252 2.028-.924.806.329 1.203 1.273.888 2.111" fill="#2B3F22" sketch:type="MSShapeGroup"/><path d="M253.638 51.435s9.24 1.941 11.474 14.052c2.557 13.867-5.86 34.604-64.1 36.87-6.199.672-4.477-11.178 7.232-6.558 11.208 4.423 35.785-1.146 46.72-10.279 9.809-8.194 11.117-25.398-1.036-31.014" fill="#7A9C5E" sketch:type="MSShapeGroup"/><path d="M253.466 52.318l.02-.101-.021.1.001.001.02-.101-.021.1c.059.012 2.258.511 4.67 2.415 2.413 1.909 5.06 5.182 6.126 10.925.243 1.322.383 2.707.383 4.132-.001 3.235-.717 6.662-2.584 10.046-2.801 5.069-8.225 10.085-17.9 14.041-9.67 3.953-23.57 6.82-43.18 7.582h-.023l-.033.004-.408.023c-.802-.005-1.298-.265-1.636-.624-.334-.362-.524-.875-.526-1.476-.001-.803.354-1.732 1.137-2.464.783-.731 2.002-1.29 3.792-1.293 1.267-.001 2.815.288 4.655 1.014 2.836 1.116 6.381 1.602 10.304 1.604 6.216-.001 13.384-1.237 20.075-3.348 6.691-2.116 12.896-5.096 17.189-8.677 5.15-4.31 8.036-10.943 8.043-17.288 0-3.134-.711-6.206-2.235-8.872-1.52-2.667-3.859-4.915-7.034-6.379l-.702 1.646c2.863 1.326 4.901 3.3 6.248 5.653 1.345 2.354 1.992 5.1 1.992 7.953.005 5.777-2.674 11.949-7.395 15.883-4.02 3.363-10.069 6.295-16.608 8.357-6.539 2.066-13.576 3.272-19.572 3.271-3.783.002-7.151-.482-9.691-1.487-1.998-.789-3.751-1.131-5.269-1.131-2.141-.003-3.819.694-4.95 1.755-1.131 1.06-1.709 2.461-1.71 3.804-.001 1 .327 1.988 1.009 2.725.678.741 1.697 1.181 2.884 1.177.19 0 .385-.011.586-.033l-.09-.896.032.9c26.318-1.028 42.577-5.798 52.35-12.125 4.883-3.164 8.14-6.729 10.167-10.4 2.028-3.67 2.816-7.432 2.815-10.944 0-1.547-.152-3.045-.414-4.471-1.151-6.277-4.173-10.018-6.909-12.121-2.736-2.11-5.163-2.626-5.244-2.644l-.342 1.766h-.001" fill="#2B3F22" sketch:type="MSShapeGroup"/><path d="M250.042 63.74l1.517-.065c.54-.023 2.381-4.044 1.863-11.363-.424-6.111-1.916-12.568-2.966-12.544l-1.538.034" fill="#405533" sketch:type="MSShapeGroup"/><path d="M250.078 64.64l1.516-.065c.255-.014.42-.107.542-.187.222-.158.341-.317.47-.5.215-.32.412-.725.612-1.25.59-1.565 1.159-4.188 1.161-7.809 0-.813-.03-1.674-.093-2.582-.216-3.102-.699-6.273-1.269-8.707-.287-1.22-.592-2.25-.919-3.03-.166-.392-.333-.721-.549-1.01-.11-.143-.233-.28-.405-.403-.168-.12-.406-.229-.688-.229l-1.557.035.038 1.801 1.538-.034-.018-.9v.9-.516l-.284.434c.031.023.133.082.284.082v-.516l-.284.434.118-.181-.134.169.016.012.118-.181-.134.169.015-.018-.016.017.001.001.015-.018-.016.017c.015.011.117.144.222.362.191.383.42 1.013.639 1.793.668 2.35 1.296 6.077 1.542 9.649.061.866.089 1.684.089 2.451 0 2.778-.361 4.905-.763 6.303-.199.698-.413 1.217-.576 1.519l-.169.268.011.011-.01-.012-.002.001.011.011-.01-.012.291.338-.203-.399-.088.061.291.338-.203-.399.323.638-.027-.718c-.147.006-.24.05-.296.079l.323.638-.027-.718-1.517.064.071 1.8" fill="#2B3F22" sketch:type="MSShapeGroup"/><path d="M240.268 35.814l6.657-.148c1.388-.031 3.358 8.5 3.919 16.573.685 9.669-1.748 14.982-2.461 15.012l-6.382.367" fill="#7A9C5E" sketch:type="MSShapeGroup"/><path d="M240.286 36.714l6.657-.148-.018-.9v.901-.394l-.219.335c.008.007.09.058.219.058v-.394l-.219.335c.025.016.168.185.312.47.263.499.572 1.33.872 2.368.904 3.125 1.757 8.142 2.09 12.956.082 1.152.118 2.239.118 3.26 0 3.696-.479 6.531-1.02 8.409-.269.938-.556 1.639-.785 2.065-.112.212-.214.356-.261.407l-.018.02.197.23-.137-.271-.061.041.197.23-.137-.271.298.588-.026-.66c-.139.006-.225.047-.271.072l.298.588-.026-.66c-2.436.103-3.995.265-6.381.366l.071 1.8 6.382-.366c.265-.016.441-.113.573-.201.244-.173.389-.362.546-.586.265-.393.52-.912.777-1.591.764-2.024 1.513-5.46 1.515-10.211 0-1.066-.038-2.196-.122-3.39-.284-4.082-.92-8.259-1.669-11.456-.377-1.601-.777-2.951-1.199-3.956-.213-.504-.427-.922-.688-1.271-.133-.173-.279-.333-.472-.471-.19-.136-.45-.253-.754-.253h-.01l-6.665.148.037 1.801v-.001" fill="#2B3F22" sketch:type="MSShapeGroup"/><path d="M239.576 20.758l3.623 55.245" fill="#7A9C5E" sketch:type="MSShapeGroup"/><path d="M238.712 20.819l3.624 55.245 1.727-.122-3.624-55.246" fill="#2B3F22" sketch:type="MSShapeGroup"/></g></svg>