<svg width="73" height="65" viewBox="0 0 73 65" xmlns="http://www.w3.org/2000/svg" xmlns:sketch="http://www.bohemiancoding.com/sketch/ns"><title>Imported Layers 3</title><desc>Created with Sketch.</desc><g sketch:type="MSLayerGroup" fill="none"><path d="M52.424 38.735h-1.623v17.945h1.507v.008h4.667v-1.623h-4.551v-9.162h4.551v-1.623h-4.551v-3.919h4.551v-1.623h-4.551v-.002M71.214 56.677h1.675l-3.929-12.23 3.924-5.7-1.972.003-3.502 4.989v-5.005h-1.623v17.945h1.623v-9.982l.372-.539 3.431 10.518M59.971 38.735h-1.623v17.945h1.507v.008h4.654v-1.623h-4.537v-9.162h4.537v-1.623h-4.537v-3.919h4.537v-1.623h-4.537v-.002" fill="#E7B42B" sketch:type="MSShapeGroup"/><path d="M37.672 38.745v.019l-.003-.027h-1.958v-.002h-1.623v17.945h1.623v-10.791h2.131v-.002c1.883-.057 3.401-1.658 3.401-3.57 0-1.969-1.602-3.571-3.571-3.571zm0 5.532v.003h-1.961v-3.919h2.042c1.044.043 1.879.901 1.879 1.956 0 1.083-.878 1.96-1.96 1.96zM14.754 44.28h-3.862v-5.545h-1.623v5.545h-1.064v1.623h1.064v10.777h1.623v-10.777h3.862v10.777h1.623v-17.945h-1.623v5.545" fill="#E7B42B" sketch:type="MSShapeGroup"/><path d="M32.746 42.234h-.001c-.057-1.882-1.659-3.401-3.57-3.401-1.969 0-3.572 1.602-3.572 3.571h.02l-.028.003v10.997h.002c.057 1.883 1.658 3.401 3.57 3.401 1.97 0 3.572-1.602 3.572-3.572h-.02l.028-.003v-10.997zm-3.579 12.961c-1.082 0-1.96-.878-1.96-1.96h-.003v-7.442h.014v-3.469c.043-1.044.901-1.879 1.956-1.879 1.083 0 1.961.878 1.961 1.96h.002v2.423h-.014v8.488c-.043 1.045-.901 1.879-1.956 1.879zM45.384 45.903h2.134v7.414c-.043 1.045-.901 1.879-1.956 1.879-1.083 0-1.96-.878-1.96-1.96h-.003v-7.442h.014v-3.469c.044-1.044.901-1.879 1.956-1.879 1.082 0 1.96.878 1.96 1.96h1.611c.038-1.96-1.602-3.571-3.571-3.571s-3.571 1.602-3.571 3.571h.019l-.027.003v10.997h.002c.057 1.883 1.658 3.401 3.57 3.401 1.969 0 3.571-1.602 3.571-3.572h-.019l.027-.003v-7.329h.005v-1.623h-3.761v1.623" fill="#E7B42B" sketch:type="MSShapeGroup"/><path d="M24.702 42.316c0-1.969-1.602-3.571-3.571-3.571v.019l-.003-.027h-1.957v-.002h-1.624v17.945h1.624v-10.791h1.726c1.007.082 1.812.91 1.795 1.926v8.866h1.61v-8.866h.001l-.001-.035v-.01h-.001c-.019-1.003-.443-1.892-1.117-2.52.915-.65 1.517-1.729 1.517-2.933zm-5.531-1.956h2.042c1.044.043 1.879.901 1.879 1.956 0 1.083-.878 1.96-1.96 1.96v.003h-1.96v-3.919zM7.735 50.295s.024-1.814-1.026-3.199c-.313-.412-1.026-1.146-1.814-1.647-1.447-.921-2.619-1.344-2.671-3.044h.01c0-1.083.877-1.96 1.96-1.96 1.082 0 1.96.878 1.96 1.96h1.611c.038-1.96-1.602-3.571-3.571-3.571s-3.571 1.602-3.571 3.571h.006c-.072 2.819 2.499 3.606 3.407 4.381 1.878 1.602 2.071 2.62 2.1 3.963.026 1.146.019 2.04.019 2.04-.021 1.708-.711 2.388-1.96 2.376-1.083 0-1.96-.877-1.96-1.96h-.001v-2.909h-1.611v2.984h.001c.005 1.926 1.627 3.497 3.571 3.497 3.863.084 3.571-3.987 3.571-3.987l-.03-2.493" fill="#E7B42B" sketch:type="MSShapeGroup"/><path d="M24.569 57.406c-.101-.209-1.224.134-1.462 2.268-.239 2.134-.366 4.052-1.121 4.832-.755.78 1.087.745 1.456-1.748s.103-3.847 1.086-5.162c.091-.121.041-.191.041-.191" fill="#fff" sketch:type="MSShapeGroup"/><path d="M21.992 65.048c-.126.004-.221-.044-.261-.134-.039-.087-.037-.239.187-.472.654-.675.825-2.269 1.023-4.114l.072-.664c.216-1.931 1.123-2.393 1.423-2.403.101-.003.179.034.214.101.019.033.063.141-.049.29-.671.897-.749 1.838-.857 3.14-.047.574-.101 1.226-.213 1.98-.25 1.691-1.146 2.264-1.54 2.276zm2.45-7.602c-.211.007-1.039.406-1.245 2.238l-.072.664c-.202 1.879-.376 3.501-1.074 4.222-.151.157-.16.246-.151.268l.085.024c.33-.011 1.133-.559 1.364-2.118.11-.749.164-1.397.211-1.969.11-1.332.19-2.295.893-3.235l.035-.089-.046-.006zM21.523 61.572c.102-.137-1.004-.69-.546-2.001.458-1.311 2.849-3.573 4.544-3.238 1.696.334 1.631 2.432.846 3.269-.43.458-.715.819-1.393 1.045-.678.226-.602.853.117.774.72-.079 3.519-1.705 3.043-4.45-.477-2.744-4.828-2.16-6.842.293-2.014 2.454-1.054 3.497-.786 3.785.269.288.875.713 1.017.523M27.703 64.337c-.194.027-.413-.172.064-.909.476-.738.689-1.04.998-1.792.309-.75.457-1.329.035-1.204-.422.124-.852 1.157-.531 1.35.321.193-.172.354-.442.07-.326-.341.022-1.63.917-1.992.896-.362.948.196.983.617.09 1.089-1.324 3.765-2.025 3.861" fill="#fff" sketch:type="MSShapeGroup"/><path d="M38.154 59.082c-.296-.511-.79-.254-1.654 1.244-.797 1.382-1.754 2.158-2.477 2.238l-.094.004.032-.023c1.43-1.063 1.84-2.896 1.099-3.202l.002-.011c-1.116-.35-1.832.891-1.904 1.023-.369.596-.418 1.296-.412 1.821.001.097.02.187.052.269-.491.311-.919.462-1.213.472-.518.016-.161-.977-.161-.977l.014-.072c.102-.279.242-.6.416-.96.659-1.373-.532-1.813-1.333-1.143-1.335 1.117-1.187 1.654-1.975 1.934-.458.163-.365-.415-.365-.415.061-.391.135-.411.216-.766.056-.246.454-.848-.176-.272-.629.576-.907 2.072-.079 2.15.873.083 1.884-1.32 2.442-1.819.558-.499 1.057-.515.292 1.046-.433.884-.382 1.359-.17 1.619l.017.022.001.001c.367.439 1.312.397 2.423-.2.459.391 1.556.386 2.442-.441.599-.559.915-1.071 1.407-1.98.989-1.828 1.418-1.114 1.159-1.563zm-4.099 2.314l-.055.054c-.192.198-.383.373-.569.529-.199-.989.725-2.289 1.067-1.748.182.287-.049.724-.442 1.165zM38.211 59.262s-.758.356-.373 1.049c.386.693.899 2.122-.119 2.611-1.169.562-1.816-.626-1.025-1.281.791-.656 1.312-.726 1.335-.374.022.352-.719.269-1.105.88s.741.457.659-.118c-.082-.574-.933-2.062 0-2.671.534-.349.627-.095.627-.095" fill="#fff" sketch:type="MSShapeGroup"/><path d="M48.195 60.051c-.959.469-.896-.805-.896-.805s-.598-.889-.514.702c.094 1.793 1.74.992 2.453.273.334-.338 1.121-1.261 1.661-2.079 1.145-1.735 1.511-.986 1.291-1.456-.25-.535-.827-.363-1.756 1.096-.444.698-1.267 1.794-2.239 2.269zm.883-3.568l.003-.011-.003.011zM52.232 56.87s-.786.289-.463 1.012c.324.724.711 2.193-.346 2.591-1.214.458-1.755-.781-.909-1.366.845-.585 1.371-.609 1.362-.257-.009.352-.739.205-1.177.78-.439.575.699.52.667-.059-.032-.58-.751-2.136.232-2.662.562-.301.634-.04.634-.04M38.035 61.447s-.918.382-1.044.771.739.372.578-.329c-.162-.7.767.937-.271.864-1.039-.073-.717-1.035.073-1.37.791-.335.676.096.676.096M38.04 60.923l1.265-.532c.717-.3 1.554-.851 1.26-1.354-.294-.503-1.414.547-1.287 1.858s1.201.795 1.491.508c.316-.314.669-.791.871-1.15.357-.632.68-1.127.762-1.232.514-.647 1.282-1.014 1.464-.335 0 0-.075.301-.299.309-.225.007-.694.375-1.202 1.193-.508.817-1.071 2.267-2.222 2.347-.757.053-1.826-.636-1.606-2.118.219-1.482 1.844-2.651 2.586-1.996.934.825-.723 2.77-3.011 3.089l-.115-.595.043.009M42.774 59.614s.303-.362.275-.083c-.028.279-.945 2.289-.497 2.405.448.115 1.66-3.109 2.308-3.093.648.016-.765 2.709.578 2.426 1.343-.284 3.524-4.446 3.187-6.287-.337-1.841-2.697 2.512-1.579 5.625 0 0 .522.095.365-.771-.158-.865-.301-2.319.502-3.998.746-1.561-.542 2.568-1.526 3.808-1.086 1.368-.928.554-.652-.72.209-.97-.772-1.549-2.058-.082 0 0-.925.067-.902.77M47.739 57.381s2.093-.578 2.107-.134c.014.444-1.697.788-2.101.893-.404.105-.171-.717-.006-.759M51.774 58.487s1.069-.217 1.432-.81c.363-.593.447.419-.389.863-.836.443-1.05.52-1.506.656l.463-.709" fill="#fff" sketch:type="MSShapeGroup"/><path d="M41.205 32.623h-.015v-.037s-2.859-4.654-3.11-9.157v-.035l.003-.003h-.003v-3.179h-2.542v3.362c-.513 5.681-3.217 9.013-3.217 9.013v.037h-.007v1.274h8.892v-1.274zm-4.399-7.829c.175 1.064.39 2.025.618 2.889h-1.198c.231-.879.436-1.846.576-2.889l.002-.024.003-.004-.002.004.001.024zm-.746 3.491h1.528c.216.752.437 1.413.647 1.98h-2.838c.22-.574.448-1.238.662-1.98zm2.408 2.582c.28.696.522 1.203.67 1.493h-4.667c.153-.294.402-.804.688-1.493h3.309zM36.755 19.334c1.686 0 3.053-1.367 3.053-3.053s-1.367-3.053-3.053-3.053-3.053 1.367-3.053 3.053 1.367 3.053 3.053 3.053M41.69 11.003c2.722 2.722 2.722 7.151 0 9.873l.726.725c3.121-3.122 3.121-8.201 0-11.323l-.726.725M31.094 10.277c-3.121 3.122-3.122 8.201 0 11.323l.725-.725c-2.722-2.722-2.722-7.151 0-9.873l-.725-.725M46.614 6.079c5.437 5.437 5.437 14.283 0 19.72l.725.725c5.838-5.836 5.838-15.334 0-21.17l-.725.725M26.171 5.354c-5.836 5.837-5.836 15.334-.001 21.17l.725-.725c-5.436-5.437-5.436-14.283 0-19.72l-.725-.725M52.469.224l-.725.725c8.264 8.265 8.265 21.714 0 29.98l.726.725c8.664-8.665 8.664-22.764-.001-31.43M21.041.224c-8.664 8.666-8.665 22.765 0 31.43l.725-.725c-8.264-8.266-8.264-21.714 0-29.98l-.725-.725" fill="#fff" sketch:type="MSShapeGroup"/><path d="M.028 60.199h18.045v.848h-18.045v-.848zM54.737 60.201h17.902v.845h-17.902v-.845z" fill="#E7B42B" sketch:type="MSShapeGroup"/></g></svg>